<?xml version="1.0" encoding="UTF-8"?><svg id="Layer_2" xmlns="http://www.w3.org/2000/svg" xmlns:xlink="http://www.w3.org/1999/xlink" viewBox="0 0 232 232"><defs><style>.cls-1{fill:#ffe0cb;}.cls-2{fill:#ff7618;}.cls-3{fill:url(#radial-gradient);}</style><radialGradient id="radial-gradient" cx="116" cy="116" fx="116" fy="116" r="107.41" gradientTransform="matrix(1, 0, 0, 1, 0, 0)" gradientUnits="userSpaceOnUse"><stop offset="0" stop-color="#3a2a1d"/><stop offset="1" stop-color="#241405"/></radialGradient></defs><g id="AEM"><g><circle class="cls-3" cx="116" cy="116" r="107.41"/><path class="cls-2" d="M0,116c0,64.08,51.92,116,116,116s116-51.92,116-116S180.08,0,116,0,0,51.92,0,116Zm11.84-.13c.08-57.53,46.77-104.11,104.29-104.03,57.53,.08,104.11,46.77,104.03,104.29s-46.69,104.03-104.16,104.03S11.81,173.45,11.84,115.89v-.03Z"/><path class="cls-1" d="M188.34,116c0-9.71-5.55-18.56-14.28-22.81,5.74-13.72-.72-29.5-14.44-35.25-6.65-2.79-14.15-2.79-20.8,0-6.12-12.6-21.3-17.84-33.89-11.72-5.11,2.48-9.24,6.61-11.72,11.72-13.72-5.74-29.5,.72-35.25,14.44-2.79,6.65-2.79,14.15,0,20.8-12.6,6.12-17.84,21.3-11.72,33.89,2.48,5.11,6.61,9.24,11.72,11.72-5.74,13.72,.72,29.5,14.44,35.25,6.65,2.79,14.15,2.79,20.8,0,6.12,12.6,21.3,17.84,33.89,11.72,5.11-2.48,9.24-6.61,11.72-11.72,13.72,5.74,29.5-.72,35.25-14.44,2.79-6.65,2.79-14.15,0-20.8,8.73-4.25,14.27-13.1,14.28-22.81Zm-24.91-47.43c5.89,5.93,7.51,14.87,4.08,22.49-1.49-.27-3.01-.41-4.52-.42-11.94-.01-21.61-9.69-21.62-21.62,0-1.52-.15-3.03-.42-4.52,7.62-3.44,16.56-1.81,22.49,4.08Zm-25.94,96.93c-.86-.63-1.68-1.33-2.45-2.08-10.52-10.52-27.57-10.52-38.09,0-.77,.75-1.58,1.44-2.45,2.08-.11-.84-.16-1.68-.16-2.53-.01-13.98-11.35-25.32-25.33-25.33-.84,0-1.69-.05-2.53-.16,.63-.86,1.33-1.68,2.08-2.45,10.52-10.52,10.52-27.57,0-38.09-.75-.77-1.44-1.58-2.08-2.45,.84-.11,1.68-.16,2.53-.16,13.98-.01,25.32-11.35,25.33-25.33,0-.84,.05-1.69,.16-2.53,.86,.63,1.68,1.33,2.45,2.08,10.52,10.52,27.57,10.52,38.09,0,.77-.75,1.58-1.44,2.45-2.08,.11,.84,.16,1.68,.16,2.53,.01,13.98,11.35,25.32,25.33,25.33,.84,0,1.69,.05,2.53,.16-.63,.86-1.33,1.68-2.08,2.45-10.52,10.52-10.52,27.57,0,38.09,.75,.77,1.44,1.58,2.08,2.45-.84,.11-1.68,.16-2.53,.16-13.98,.01-25.32,11.35-25.33,25.33,0,.84-.05,1.69-.16,2.53Zm-21.49-118.13c8.31,0,15.88,4.75,19.49,12.23-1.93,1.15-3.72,2.54-5.31,4.13-7.83,7.82-20.52,7.82-28.36,0-1.59-1.59-3.38-2.98-5.31-4.13,3.61-7.48,11.19-12.23,19.49-12.23h0Zm-47.43,21.2c5.93-5.89,14.87-7.51,22.49-4.08-.27,1.49-.41,3.01-.42,4.52-.01,11.94-9.69,21.61-21.62,21.62-1.52,0-3.03,.15-4.52,.42-3.44-7.62-1.81-16.56,4.08-22.49h0Zm-21.2,47.43c0-8.31,4.75-15.88,12.23-19.49,1.15,1.93,2.54,3.72,4.13,5.31,7.82,7.83,7.82,20.52,0,28.36-1.59,1.59-2.98,3.38-4.13,5.31-7.48-3.61-12.23-11.19-12.23-19.49h0Zm21.2,47.43c-5.89-5.93-7.51-14.87-4.08-22.49,1.49,.27,3.01,.41,4.52,.42,11.94,.01,21.61,9.69,21.62,21.62,0,1.52,.15,3.03,.42,4.52-7.62,3.44-16.56,1.81-22.49-4.08h0Zm47.43,21.2c-8.31,0-15.88-4.75-19.49-12.23,1.93-1.15,3.72-2.54,5.31-4.13,7.83-7.82,20.52-7.82,28.36,0,1.59,1.59,3.38,2.98,5.31,4.13-3.61,7.48-11.19,12.23-19.49,12.23h0Zm47.43-21.2c-5.93,5.89-14.87,7.51-22.49,4.08,.27-1.49,.41-3.01,.42-4.52,.01-11.94,9.69-21.61,21.62-21.62,1.52,0,3.03-.15,4.52-.42,3.44,7.62,1.81,16.56-4.08,22.49Zm8.97-27.93c-1.15-1.93-2.54-3.72-4.13-5.31-7.82-7.83-7.82-20.52,0-28.36,1.59-1.59,2.98-3.38,4.13-5.31,10.76,5.2,15.27,18.15,10.07,28.91-2.13,4.4-5.67,7.95-10.07,10.07Z"/></g></g></svg>