<?xml version="1.0" encoding="utf-8"?>
<!-- Generator: Adobe Illustrator 26.3.1, SVG Export Plug-In . SVG Version: 6.00 Build 0)  -->
<svg version="1.1" id="Layer_2_00000140728266497402148300000001657569284287554187_"
	 xmlns="http://www.w3.org/2000/svg" xmlns:xlink="http://www.w3.org/1999/xlink" x="0px" y="0px" viewBox="0 0 221.6 252"
	 style="enable-background:new 0 0 221.6 252;" xml:space="preserve">
<style type="text/css">
	.st0{fill:url(#SVGID_1_);}
	.st1{fill:#FFFFFF;}
</style>
<linearGradient id="SVGID_1_" gradientUnits="userSpaceOnUse" x1="-80.7924" y1="408.2625" x2="282.7835" y2="54.8014" gradientTransform="matrix(1 0 0 1 0 -96.0003)">
	<stop  offset="0" style="stop-color:#00AEFF"/>
	<stop  offset="1" style="stop-color:#3369E7"/>
</linearGradient>
<path class="st0" d="M30.6,17H191c16,0,28.8,12.7,28.8,28.8v160.5c0,16-12.7,28.8-28.8,28.8H30.6c-16,0-28.8-12.7-28.8-28.8V45.8
	C1.8,29.7,14.5,17,30.6,17z"/>
<path class="st1" d="M113.2,72.2c-34,0-61.4,27.4-61.4,61.4s27.4,61.4,61.4,61.4s61.4-27.4,61.4-61.4S147.1,72.2,113.2,72.2z
	 M113.2,177c-24.1,0-43.4-19.4-43.4-43.4s19.4-43.4,43.4-43.4s43.4,19.4,43.4,43.4S137.2,177,113.2,177z M113.2,99.1v32.1
	c0,0.9,0.9,1.4,1.9,0.9l28.8-14.6c0.5-0.5,0.9-0.9,0.5-1.9c-6.1-10.9-17.5-17.5-29.7-17.9C113.6,97.7,113.2,98.2,113.2,99.1z
	 M73,75.5l-3.8-3.8c-3.8-3.8-9.4-3.8-13.2,0l-4.7,4.7c-3.8,3.8-3.8,9.4,0,13.2l3.8,3.8c0.5,0.5,1.4,0.5,1.9,0
	c4.2-6.1,9.9-11.3,15.6-15.6C73.5,76.9,73.5,76,73,75.5z M133.5,65.6V58c0-5.2-4.2-9.4-9.4-9.4h-22.2c-5.2,0-9.4,4.2-9.4,9.4v7.6
	c0,0.9,0.9,1.4,1.9,1.4c6.1-1.9,12.7-2.8,19.4-2.8s12.3,0.9,18.4,2.4C132.5,67,133,66.5,133.5,65.6z"/>
</svg>
