<?xml version="1.0" encoding="utf-8"?>
<!-- Generator: Adobe Illustrator 26.3.1, SVG Export Plug-In . SVG Version: 6.00 Build 0)  -->
<svg version="1.1" id="Layer_2_00000140728266497402148300000001657569284287554187_"
	 xmlns="http://www.w3.org/2000/svg" xmlns:xlink="http://www.w3.org/1999/xlink" x="0px" y="0px" viewBox="0 0 221.6 252"
	 style="enable-background:new 0 0 221.6 252;" xml:space="preserve">
<style type="text/css">
	.st0{fill:#E80D8C;}
	.st1{fill:#ED6CA5;}
	.st2{fill:#8C2E87;}
	.st3{fill:#E62966;}
</style>
<path class="st0" d="M111.1,104.3l-30.6-30L175,38.7C175,38.7,111.1,104.3,111.1,104.3z M110.5,147.7l30.6,30l-94.5,35.6
	C46,213.3,110.5,147.7,110.5,147.7z"/>
<path class="st1" d="M126.6,111V68.2l92.3,41.1C218.9,109.3,126.6,111,126.6,111z M2.7,142.7L95,183.3V141L2.7,142.7z"/>
<path class="st2" d="M132.8,126l30.6-30l36.1,93.4C199.5,189.4,132.8,126,132.8,126z M88.8,125.4L58.3,156L22.1,62.6L88.8,125.4z"/>
<path class="st3" d="M126.1,141h43.4l-41.7,91.7C127.8,232.8,126.1,141,126.1,141z M93.8,19.2l-41.7,91.2h43.4L93.8,19.2z"/>
</svg>
