<?xml version="1.0" encoding="utf-8"?>
<!-- Generator: Adobe Illustrator 26.3.1, SVG Export Plug-In . SVG Version: 6.00 Build 0)  -->
<svg version="1.1" id="Layer_2_00000140728266497402148300000001657569284287554187_"
	 xmlns="http://www.w3.org/2000/svg" xmlns:xlink="http://www.w3.org/1999/xlink" x="0px" y="0px" viewBox="0 0 221.6 252"
	 style="enable-background:new 0 0 221.6 252;" xml:space="preserve">
<style type="text/css">
	.st0{fill-rule:evenodd;clip-rule:evenodd;fill:#002855;}
</style>
<path class="st0" d="M135.7,133.2l-4.6-13.2h-5.3l7.1,18.7h5.6l7.1-18.7h-5.3C140.3,120,135.7,133.2,135.7,133.2z M155.5,119.5
	c-2.8,0-5.1,1-7,2.9c-1.9,1.9-2.9,4.2-2.9,7s1,5.1,2.9,7c1.9,1.9,4.2,2.9,7,2.9s5.1-1,7-2.9c1.9-1.9,2.9-4.2,2.9-7s-1-5.1-2.9-7
	C160.6,120.5,158.3,119.5,155.5,119.5z M159.1,133.2c-1,1-2.2,1.4-3.6,1.4c-1.4,0-2.7-0.5-3.6-1.4c-1-1-1.4-2.2-1.4-3.7
	c0-1.6,0.5-2.8,1.4-3.7c1-1,2.2-1.4,3.6-1.4c1.4,0,2.7,0.5,3.6,1.4c1,1,1.4,2.2,1.4,3.7C160.6,130.9,160.1,132.2,159.1,133.2z
	 M168.1,138.9h4.8V120h-4.8V138.9z M188.4,133.9c-0.7,0.5-1.7,0.6-2.7,0.6c-1.4,0-2.7-0.5-3.6-1.4c-1-1-1.4-2.2-1.4-3.6
	s0.5-2.8,1.4-3.6c1-1,2.2-1.4,3.6-1.4c1,0,1.8,0.2,2.5,0.7c0.7,0.5,1.3,1.1,1.7,1.8l4.1-2.4c-0.7-1.4-1.9-2.7-3.4-3.5
	c-1.4-0.8-3.1-1.3-4.9-1.3c-2.8,0-5.2,1-7,2.9c-1.9,1.9-2.8,4.2-2.8,7c0,2.8,1,5.2,2.8,7c1.9,1.9,4.2,2.9,7,2.9
	c3.5,0,6.7-1.8,8.5-4.8l-4.2-2.4C189.7,132.8,189.1,133.4,188.4,133.9L188.4,133.9z M205.7,119.5c-2.9,0-5.3,1-7.1,2.8
	c-1.8,1.9-2.8,4.2-2.8,7s1,5.2,2.8,7.1c1.9,1.8,4.3,2.8,7.5,2.8c3.6,0,6.3-1.3,8.2-4l-3.9-2.3c-1,1.2-2.3,1.8-4.2,1.8
	c-2.9,0-4.6-1.2-5.3-3.5H215c0.1-0.6,0.2-1.3,0.2-1.9c0-2.8-0.8-5.2-2.7-7C210.8,120.5,208.5,119.5,205.7,119.5L205.7,119.5z
	 M200.9,127.6c0.2-1.2,0.8-2.2,1.7-2.8c0.8-0.6,1.9-1,3.3-1c1.1,0,2.1,0.4,2.9,1c0.8,0.6,1.4,1.6,1.7,2.9h-9.5L200.9,127.6
	L200.9,127.6z M13.1,119.5c-2.5,0-4.6,0.8-6,2.7v-9.7H2.2v26.2H7v-2.2c1.4,1.8,3.5,2.8,6,2.8c2.7,0,4.7-1,6.5-2.9
	c1.8-1.9,2.7-4.2,2.7-7s-0.8-5.1-2.7-7C17.8,120.5,15.6,119.5,13.1,119.5z M16,133.2c-1,1-2.2,1.4-3.7,1.4c-1.4,0-2.8-0.5-3.7-1.4
	S7,130.9,7,129.3c0-1.6,0.5-2.8,1.4-3.9c1-0.8,2.2-1.3,3.7-1.3c1.4,0,2.8,0.5,3.7,1.4c1,1,1.4,2.3,1.4,3.9
	C17.4,130.9,16.9,132.2,16,133.2z M40.5,122.2c-1.4-1.8-3.5-2.8-6-2.8c-2.7,0-4.6,1-6.4,2.9s-2.7,4.2-2.7,7c0,2.8,0.8,5.1,2.7,7
	s3.9,2.9,6.4,2.9c2.7,0,4.7-1,6-2.8v2.2h4.8V120h-4.8V122.2z M39,133.2c-1,1-2.2,1.4-3.7,1.4c-1.4,0-2.8-0.5-3.7-1.4
	c-1-1-1.4-2.3-1.4-3.7c0-1.6,0.5-2.8,1.4-3.9c1-1,2.2-1.4,3.7-1.4c1.4,0,2.8,0.5,3.7,1.4c1,1,1.4,2.3,1.4,3.9
	C40.5,130.9,40,132.2,39,133.2z M63.2,123.3V120h-14v4.6h7.5l-7.8,10.9v3.3h14.7v-4.5h-8.3C55.2,134.3,63.2,123.3,63.2,123.3z
	 M80.9,122.2c-1.4-1.8-3.5-2.8-6.2-2.8c-2.7,0-4.6,1-6.4,2.9c-1.8,1.9-2.7,4.2-2.7,7c0,2.8,0.8,5.1,2.7,7c1.8,1.9,3.9,2.9,6.4,2.9
	c2.7,0,4.7-1,6.2-2.8v2.2h4.8V120h-4.8V122.2z M79.4,133.2c-1,1-2.2,1.4-3.7,1.4s-2.8-0.5-3.7-1.4s-1.4-2.3-1.4-3.7
	c0-1.6,0.5-2.8,1.4-3.9c1-1,2.2-1.4,3.7-1.4s2.8,0.5,3.7,1.4c1,1,1.4,2.3,1.4,3.9C80.9,130.9,80.4,132.2,79.4,133.2z M104.1,122.2
	c-1.4-1.8-3.5-2.8-6.2-2.8s-4.6,1-6.4,2.9c-1.8,1.9-2.7,4.2-2.7,7c0,2.8,0.8,5.1,2.7,7c1.8,1.9,3.9,2.9,6.4,2.9c2.7,0,4.7-1,6.2-2.8
	v2.2h4.8V120h-4.8V122.2z M102.7,133.2c-1,1-2.2,1.4-3.7,1.4c-1.4,0-2.8-0.5-3.7-1.4c-1-1-1.4-2.3-1.4-3.7c0-1.6,0.5-2.8,1.4-3.9
	c1-1,2.2-1.4,3.7-1.4c1.4,0,2.8,0.5,3.7,1.4c1,1,1.4,2.3,1.4,3.9C104.1,130.9,103.6,132.2,102.7,133.2z M117.6,123.3V120h-4.8v18.7
	h4.8v-8.9c0-1.8,0.6-3,1.7-3.9c1.2-0.7,2.5-1.1,4-0.8v-5.4c-1.3,0-2.4,0.2-3.5,0.8C118.7,121.1,118,122.1,117.6,123.3z M214.8,119.5
	c0-1.3,1.1-2.3,2.3-2.3c1.2,0,2.3,1,2.3,2.3s-1.1,2.4-2.3,2.4C215.9,122,214.8,120.9,214.8,119.5
	C214.8,119.7,214.8,119.5,214.8,119.5z M219,119.5c0-1.1-0.8-1.9-1.9-1.9c-1.1,0-1.9,0.8-1.9,1.9s0.8,1.9,1.9,1.9
	C218.2,121.5,219,120.6,219,119.5z M216.9,120v1h-0.6v-2.8h1.1c0.5,0,1,0.4,1,0.8c0,0.4-0.2,0.6-0.5,0.8l0.6,1.1h-0.7l-0.6-1
	C217.1,120,216.9,120,216.9,120z M217.1,119.5c0.2,0,0.5-0.1,0.5-0.4c0-0.2-0.2-0.4-0.5-0.4h-0.4v0.7
	C216.7,119.5,217.1,119.5,217.1,119.5z"/>
</svg>
