<svg xmlns="http://www.w3.org/2000/svg" id="Layer_2" viewBox="0 0 256.3 256.14"><defs><style>.cls-1{fill:#34313f}</style></defs><g id="Big_Commerce"><path d="M135.04 145.82h32.33c9.19 0 15.01-5.06 15.01-13.18 0-7.66-5.82-13.18-15.01-13.18h-32.33c-1.07 0-1.99.92-1.99 1.84v22.67c.14 1.07.91 1.84 1.99 1.84Zm0 52.25h33.4c10.27 0 16.39-5.21 16.39-14.4 0-7.97-5.82-14.4-16.39-14.4h-33.4c-1.07 0-1.99.92-1.99 1.84v24.98c.14 1.23.91 1.99 1.99 1.99Z" class="cls-1"/><path d="m253.33.56-95.61 95.31h15.63c24.36 0 38.77 15.32 38.77 32.02 0 13.18-8.89 22.83-18.39 27.12-1.53.62-1.53 2.76.15 3.37 11.03 4.29 18.84 15.78 18.84 29.26 0 19-12.72 34.16-37.39 34.16h-67.72c-1.07 0-1.99-.92-1.99-1.84v-72.17L.66 252.31c-1.38 1.38-.46 3.83 1.53 3.83h252.36a1.7 1.7 0 0 0 1.69-1.69V1.94c.45-1.69-1.69-2.61-2.91-1.38Z" class="cls-1"/></g></svg>
