<?xml version="1.0" encoding="utf-8"?>
<!-- Generator: Adobe Illustrator 26.3.1, SVG Export Plug-In . SVG Version: 6.00 Build 0)  -->
<svg version="1.1" id="Layer_2_00000140728266497402148300000001657569284287554187_"
	 xmlns="http://www.w3.org/2000/svg" xmlns:xlink="http://www.w3.org/1999/xlink" x="0px" y="0px" viewBox="0 0 221.6 252"
	 style="enable-background:new 0 0 221.6 252;" xml:space="preserve">
<style type="text/css">
	.st0{fill:#FFD500;}
	.st1{fill:#002840;}
</style>
<path class="st0" d="M110.8,234.1c59.9,0,108.1-48.3,108.1-108.1S170.7,17.9,110.8,17.9S2.7,66.1,2.7,126S50.9,234.1,110.8,234.1z"
	/>
<path class="st1" d="M133,103.8l-5.5,13.3c6.1,3.9,8.9,10,8.9,17.2c-0.6,10.5-8.9,18.9-20,18.9c-10.5-0.6-18.9-8.9-18.9-20
	c0.6-10,8.3-18.3,18.3-18.9l5-13.9c-20-2.8-38.3,11.6-38.3,32.7v34.4h15V162c5.5,3.9,12.2,5.5,18.9,5.5
	c18.9,0.6,33.8-14.4,34.4-33.3C151.8,121.6,144.6,109.4,133,103.8z M83.1,101.6c4.4-4.4,9.4-7.8,15-10.5V70h-15
	C83.1,70,83.1,101.6,83.1,101.6z"/>
</svg>
