<?xml version="1.0" encoding="utf-8"?>
<!-- Generator: Adobe Illustrator 26.3.1, SVG Export Plug-In . SVG Version: 6.00 Build 0)  -->
<svg version="1.1" id="Layer_2_00000140728266497402148300000001657569284287554187_"
	 xmlns="http://www.w3.org/2000/svg" xmlns:xlink="http://www.w3.org/1999/xlink" x="0px" y="0px" viewBox="0 0 221.6 252"
	 style="enable-background:new 0 0 221.6 252;" xml:space="preserve">
<style type="text/css">
	.st0{fill:#11172A;}
</style>
<path class="st0" d="M152.7,126.5l62.9-112.1c1-2.1,1-5.2,0-7.3c-1-3.1-3.1-4.2-6.3-4.2H79.4c-2.1,0-4.2,1-6.3,3.1L6,122.3
	c-1,2.1-1,5.2,0,7.3L73.1,246c1,2.1,4.2,3.1,6.3,3.1h129.9c2.1,0,5.2-1,6.3-3.1c1-2.1,1-5.2,0-7.3L152.7,126.5z M144.3,110.8
	L91.9,17.6h104.8C196.7,17.6,144.3,110.8,144.3,110.8z M79.4,25.9l56.6,100.6L79.4,227.1L21.7,126.5C21.7,126.5,79.4,25.9,79.4,25.9
	z M91.9,234.4l52.4-93.2l52.4,93.2C196.7,234.4,91.9,234.4,91.9,234.4z"/>
</svg>
