<svg xmlns="http://www.w3.org/2000/svg" viewBox="0 0 220 251.97"><path fill="#f27a23" d="M3.23 193.6c-1.76.88-2.93 2.64-2.93 4.69s1.17 3.81 2.93 4.69l102.67 48.11c1.47.59 2.93.88 4.4.88V144.9c-1.47 0-2.93.29-4.4.88L3.23 193.6Z"/><path fill="#f6a82f" d="M110 144.91v107.07c1.47 0 3.23-.29 4.69-.88l102.37-47.81c1.76-.88 2.93-2.64 2.93-4.69s-1.17-3.81-2.93-4.69L114.69 146.1c-1.76-.88-3.23-1.17-4.69-1.17"/><path fill="#22ad93" d="M0 53.39c0 2.05 1.17 3.81 2.93 4.69l102.67 48.11c1.47.59 2.93.88 4.4.88 1.17 0 2.64-.29 3.81-.59.88-.59.88-.29 2.93-1.47 10.56-4.99 3.52-1.76 100.32-46.93 1.76-.88 2.93-2.64 2.93-4.69s-1.17-3.81-2.93-4.69L114.69.88c-2.93-1.17-6.16-1.17-8.8 0L3.52 48.4C1.17 49.28 0 51.33 0 53.39"/><path fill="#d0d1d2" d="M110 113.23v31.97c-1.47 0-2.93.29-4.4.88L3.23 193.6c-1.76.88-2.93 2.64-2.93 4.69V53.39c0 2.05 1.17 3.81 2.93 4.69l102.67 48.11c1.47.59 2.93.88 4.4.88 1.17 0 2.64-.29 3.81-.59h-.29c-3.23 1.47-3.81 2.93-3.81 6.75"/></svg>
