<?xml version="1.0" encoding="utf-8"?>
<!-- Generator: Adobe Illustrator 26.3.1, SVG Export Plug-In . SVG Version: 6.00 Build 0)  -->
<svg version="1.1" id="Layer_2_00000140728266497402148300000001657569284287554187_"
	 xmlns="http://www.w3.org/2000/svg" xmlns:xlink="http://www.w3.org/1999/xlink" x="0px" y="0px" viewBox="0 0 221.6 252"
	 style="enable-background:new 0 0 221.6 252;" xml:space="preserve">
<style type="text/css">
	.st0{fill:#242A35;}
</style>
<path class="st0" d="M151.2,35.9v29.8c12.8,7.3,23.1,17.6,30.4,30.4c7.3,12.8,10.9,26.7,10.9,41.3c0,45.6-36.4,82.6-82,82.6
	s-82-37.1-82-82.6c0-31.6,17.6-58.3,43.1-72.3V35.3C51,43.2,33.3,57.2,21.2,75.4c-12.8,18.2-19.4,40.1-19.4,62
	c0,60.1,48.6,109.4,108.7,109.4s108.7-48.6,108.7-109.4C218.6,91.2,190.7,52.3,151.2,35.9z M99,173.2v-32.8c0-4.3,3-7.3,7.3-7.3h9.1
	c4.3,0,7.3,3,7.3,7.3v32.8c6.7-2.4,12.8-7.3,16.4-13.4c4.3-6.1,6.1-12.8,6.1-20c0-13.4-7.3-24.3-17.6-30.4V16.5
	c0-7.3-5.5-12.8-12.8-12.8h-9.1c-7.3,0-12.8,6.1-12.8,12.8v91.1c-10.9,6.1-18.8,17.6-18.8,31.6C74.7,155,85,168.4,99,173.2"/>
</svg>
