<?xml version="1.0" encoding="utf-8"?>
<!-- Generator: Adobe Illustrator 26.3.1, SVG Export Plug-In . SVG Version: 6.00 Build 0)  -->
<svg version="1.1" id="Layer_2_00000140728266497402148300000001657569284287554187_"
	 xmlns="http://www.w3.org/2000/svg" xmlns:xlink="http://www.w3.org/1999/xlink" x="0px" y="0px" viewBox="0 0 221.6 252"
	 style="enable-background:new 0 0 221.6 252;" xml:space="preserve">
<style type="text/css">
	.st0{fill:#FFD85F;}
	.st1{fill:#3BB4E7;}
	.st2{fill:#ED5C68;}
	.st3{fill:#308BC5;}
	.st4{fill:#D5465F;}
</style>
<path class="st0" d="M76.7,172.4c-13.1-11.8-20.3-28.2-20.3-47.2s7.2-35.4,19.6-47.2c10.5-10.5,10.5-26.9,0-38
	c-10.5-10.5-26.9-10.5-38,0c-21,21.6-34.7,51.7-34.7,85.1s13.8,63.5,35.4,85.1c10.5,10.5,26.9,10.5,38,0
	C85.9,199.2,85.9,182.9,76.7,172.4z"/>
<path class="st1" d="M76.7,77.4c11.8-12.4,28.2-20.3,47.2-20.3s35.4,7.2,47.2,19.6c10.5,10.5,26.9,10.5,38,0
	c11.1-10.5,10.5-26.9,0-38c-21.6-20.3-51.7-34.1-85.1-34.1S60.4,18.5,38.8,40.1c-10.5,10.5-10.5,26.9,0,38
	C49.2,87.2,65.6,87.2,76.7,77.4z"/>
<path class="st2" d="M171.1,172.4c-11.8,13.1-28.8,20.3-47.2,20.3s-35.4-7.2-47.2-19.6c-10.5-10.5-26.9-10.5-38,0
	c-11.1,10.5-10.5,26.9,0,38c21.6,21,51.7,34.7,85.1,34.7s63.5-13.8,85.1-35.4c10.5-10.5,10.5-26.9,0-38
	C198.6,162.6,181.5,162.6,171.1,172.4z"/>
<path class="st3" d="M57.8,85.3c14.4,0,26.2-11.8,26.2-26.2S72.2,32.9,57.8,32.9S31.6,44.7,31.6,59.1S43.3,85.3,57.8,85.3z"/>
<path class="st4" d="M57.8,217.6c14.4,0,26.2-11.8,26.2-26.2c0-14.4-11.8-26.2-26.2-26.2S31.6,177,31.6,191.4
	C31.6,205.8,43.3,217.6,57.8,217.6z"/>
</svg>
