<?xml version="1.0" encoding="utf-8"?>
<!-- Generator: Adobe Illustrator 26.3.1, SVG Export Plug-In . SVG Version: 6.00 Build 0)  -->
<svg version="1.1" id="Layer_2_00000140728266497402148300000001657569284287554187_"
	 xmlns="http://www.w3.org/2000/svg" xmlns:xlink="http://www.w3.org/1999/xlink" x="0px" y="0px" viewBox="0 0 221.6 252"
	 style="enable-background:new 0 0 221.6 252;" xml:space="preserve">
<style type="text/css">
	.st0{fill:#F0553D;}
</style>
<path class="st0" d="M168.5,109c0,1.8-1.2,3-3,3H104c-1.8,0-3-1.2-3-3v-7.1c0-1.8,1.2-3,3-3h61.5c1.8,0,3,1.2,3,3V109z M196.3,128.5
	c0,1.8-1.2,3-3,3H117c-1.8,0-3-1.2-3-3v-7.1c0-1.8,1.2-3,3-3h75.1c1.8,0,3,1.2,3,3L196.3,128.5z M217,149.8c0,1.8-1.2,3-3,3h-82.8
	c-1.8,0-3-1.2-3-3v-7.1c0-1.8,1.2-3,3-3h82.2c1.8,0,3,1.2,3,3L217,149.8z M217,169.9c0,1.8-1.2,3-3,3h-82.8c-1.8,0-3-1.2-3-3v-7.1
	c0-1.8,1.2-3,3-3h82.2c1.8,0,3,1.2,3,3L217,169.9z M196.3,190c0,1.8-1.2,3-3,3H117c-1.8,0-3-1.2-3-3v-7.1c0-1.8,1.2-3,3-3h75.1
	c1.8,0,3,1.2,3,3L196.3,190z M168.5,210.7c0,1.8-1.2,3-3,3H104c-1.8,0-3-1.2-3-3v-7.1c0-1.8,1.2-3,3-3h61.5c1.8,0,3,1.2,3,3V210.7z
	 M51.9,46.8c0,1.8,1.2,3,3,3h61.5c1.8,0,3-1.2,3-3v-7.1c0-1.8-1.2-3-3-3H55.5c-2.4,0-3.6,1.2-3.6,3C51.9,39.7,51.9,46.8,51.9,46.8z
	 M24.7,67.5c0,1.8,1.2,3,3,3h75.1c1.8,0,3-1.2,3-3v-7.1c0-1.8-1.2-3-3-3H28.3c-2.4,0-3.5,1.2-3.5,3V67.5z M4,88.3c0,1.8,1.2,3,3,3
	h82.2c2.4,0,3.6-1.2,3.6-3v-7.1c0-1.8-1.2-3-3-3H7c-1.8,0-3,1.2-3,3V88.3z M4,109c0,1.8,1.2,3,3,3h82.2c1.8,0,3-1.2,3-3v-7.1
	c0-1.8-1.2-3-3-3H7c-1.8-0.6-3,1.2-3,3V109z M24.7,128.5c0,1.8,1.2,3,3,3h75.1c1.8,0,3-1.2,3-3v-7.1c0-1.8-1.2-3-3-3H28.3
	c-1.8,0-3,1.2-3,3v7.1H24.7z M51.9,149.8c0,1.8,1.2,3,3,3h61.5c1.8,0,3-1.2,3-3v-7.1c0-1.8-1.2-3-3-3H55.5c-1.8,0-3,1.2-3,3v7.1
	H51.9z"/>
</svg>
