<svg xmlns="http://www.w3.org/2000/svg" id="Layer_2" viewBox="0 0 240.96 255.44"><defs><style>.cls-1{fill:#344da1}</style></defs><g id="elasticpath"><path d="M81.22 139.13c-12.14-.01-21.96-9.87-21.95-22 0-5.81 2.32-11.39 6.42-15.5l43.61-43.69c3.33-3.09 3.53-8.29.44-11.62s-8.29-3.53-11.62-.44c-.15.14-.3.29-.44.44L53.61 90.39c-8.61 8.57-22.53 8.55-31.11-.06-8.57-8.61-8.55-22.53.06-31.11l44.07-43.95c20.36-20.36 53.36-20.36 73.72 0s20.36 53.36 0 73.72L96.74 132.6a21.96 21.96 0 0 1-15.53 6.54ZM194.63 143.27l-63.99 64.01a8.25 8.25 0 0 1-11.62 0c-3.21-3.17-3.24-8.34-.07-11.54l.07-.07L135 179.66l48-48a8.245 8.245 0 0 1 11.66.07 8.212 8.212 0 0 1 2.38 5.63c-.02 2.15-.89 4.2-2.43 5.71v.2Zm31.05-42.81c-20.35-20.36-53.34-20.37-73.7-.02l-.02.02-48 48.15-15.98 16.01-53.34 53.34c-8.57 8.57-8.57 22.48 0 31.05s22.48 8.57 31.05 0l16.92-16.95c1.62 2.23 3.42 4.33 5.37 6.28 20.35 20.36 53.34 20.37 73.7.02l.02-.02 63.99-64.01c20.36-20.35 20.37-53.34.02-73.7l-.02-.02v-.14Z" class="cls-1"/><path d="M194.81 100.43c-11.78-11.78-30.88-11.78-42.66 0l-42.12 42.13-.74.71c-14.27 15.68-38.54 16.83-54.23 2.56-15.68-14.27-16.83-38.54-2.56-54.23.81-.89 1.67-1.75 2.56-2.56l.71-.74 42.1-42.12a8.223 8.223 0 0 1 11.59.93 8.211 8.211 0 0 1 0 10.66c11.78-11.82 11.75-30.96-.07-42.74-11.82-11.78-30.96-11.75-42.74.07L24.79 57.22c-.26.22-.51.46-.74.71-31.73 31.8-32.11 83.17-.86 115.44.23.3.49.57.77.83 32.13 32.14 84.22 32.15 116.36.02l.02-.02c.25-.23.49-.48.71-.74l42.12-41.95a8.223 8.223 0 0 1 11.59.93 8.211 8.211 0 0 1 0 10.66c11.82-11.74 11.89-30.84.15-42.66l-.15-.15.03.14Z" class="cls-1"/></g></svg>
