<svg xmlns="http://www.w3.org/2000/svg" viewBox="0 0 234.7 254"><defs><linearGradient id="a" x1="0" x2="234.7" y1="130.32" y2="130.32" gradientTransform="matrix(1 0 0 -1 0 257.32)" gradientUnits="userSpaceOnUse"><stop offset="0" stop-color="#7c53ff"/><stop offset="1" stop-color="#f796ff"/></linearGradient></defs><path fill="url(#a)" d="M204.92 41.23 147.76 8.14c-18.7-10.85-41.62-10.85-60.32 0L30.03 41.23C11.59 52.08 0 72.2 0 93.65v66.44c0 21.71 11.59 41.56 30.03 52.42l57.16 33.35c18.7 10.85 41.62 10.85 60.32 0l57.16-33.35c18.7-10.85 30.03-30.71 30.03-52.42V93.65c.53-21.44-11.06-41.56-29.76-52.41Zm-87.45 144.8c-32.4 0-58.74-26.47-58.74-59.03s26.34-59.03 58.74-59.03 59 26.47 59 59.03-26.34 59.03-59 59.03Z"/></svg>
