<?xml version="1.0" encoding="utf-8"?>
<!-- Generator: Adobe Illustrator 26.3.1, SVG Export Plug-In . SVG Version: 6.00 Build 0)  -->
<svg version="1.1" id="Layer_2_00000140728266497402148300000001657569284287554187_"
	 xmlns="http://www.w3.org/2000/svg" xmlns:xlink="http://www.w3.org/1999/xlink" x="0px" y="0px" viewBox="0 0 221.6 252"
	 style="enable-background:new 0 0 221.6 252;" xml:space="preserve">
<path d="M158.3,100.1c0-3.7,3-6.7,6.7-6.7c3.7,0,6.7,3,6.7,6.7c0,3.7-3,6.7-6.7,6.7C161.2,106.7,158.3,103.8,158.3,100.1z
	 M62.4,120.2c3.1,3.5,4.9,8,4.9,12.6V156H57v-23.4c0-4.7-3.8-8.3-8.5-8.3h-0.8c-4.1,0.5-7.6,4.3-7.6,8.6V156H29.9v-23.4
	c0-4.7-3.8-8.5-8.5-8.5h-0.8c-4.1,0.5-7.6,4.3-7.6,8.6v23.1H3.1v-23.3c0-10.3,8.3-18.5,18.5-18.5c5.1,0,10,2.1,13.5,5.8
	c3.5-3.7,8.5-5.8,13.5-5.8c0.6,0,1.1,0,1.7,0.1C55,114.6,59.3,116.8,62.4,120.2z M131,156.1h-10.1V94.3H131V156.1z M150.5,156.1
	h-10.1V94.3h10.1V156.1z M170.1,156.1h-10.1v-41h10.1C170.1,115.1,170.1,156.1,170.1,156.1z M217.8,139.3h-31
	c1.4,4.9,5.8,8.5,11.1,8.5c4.1,0,7.8-2,9.8-5.5l0.5-0.7l8.5,4.2l-0.5,0.8c-3.8,6.4-10.9,10.5-18.4,10.5c-5.7,0-11.1-2.3-15.1-6.3
	c-4.1-4.1-6.2-9.5-6.2-15.3c0.1-5.6,2.3-10.9,6.2-14.9c3.9-3.9,9.2-6.2,14.8-6.2h0.2c5.4,0,10.5,2.1,14.3,6.1s6,9.1,6,14.4v4.4
	C217.9,139.3,217.8,139.3,217.8,139.3z M186.9,130.8h20.5c-1.4-4.4-5.6-7.4-10.3-7.4C192.5,123.3,188.3,126.4,186.9,130.8
	L186.9,130.8z M115.3,135.5c0,11.8-9.5,21.3-21.3,21.3s-21.3-9.7-21.3-21.3c0-11.8,9.5-21.3,21.3-21.3
	C105.7,114.1,115.3,123.7,115.3,135.5z M105.2,135.5c0-6.2-5-11.2-11.2-11.2c-6.2,0-11.2,5-11.2,11.2s5,11.2,11.2,11.2
	C100.1,146.8,105.2,141.8,105.2,135.5z"/>
</svg>
