<svg xmlns="http://www.w3.org/2000/svg" id="Layer_2" viewBox="0 0 254 186.7"><defs><style>.cls-1{fill:#40bdd7}</style></defs><g id="nopCommerce"><path d="M220.64 185.99c-16.07-.07-28.86-12.59-28.86-28.26 0-17.16 14.99-31.83 32.58-31.89 15.53-.05 29.62 13.51 29.64 28.52.03 17.07-15.41 31.71-33.36 31.63ZM114.65 162.06c.23-16.91 14.56-31.62 30.81-31.62 10.77 0 20.01 7.25 22.55 17.68 4.43 18.23-10.84 38.03-29.65 38.41-13.34.27-23.9-10.62-23.71-24.47ZM251.06 90.04c3.67-10.31.07-20.09-9.07-26.2-11.5-7.7-29.6-4.41-39.16 7.11-4.48 5.4-7.35 11.48-6.6 18.63 1.4 13.42 12.2 21.71 26.65 20.75 14.31-1.7 24.38-9.62 28.17-20.28ZM145.66 115.58c-14.04 0-23.01-11.21-20-25 2.85-13.09 15.71-23.64 29-23.79 14.12-.15 23.53 11.36 20.51 25.13-2.91 13.24-15.91 23.67-29.5 23.67ZM54.83 163.43c1.15-11.05 7.3-21.14 19.73-26.53 14.79-6.42 29.1 4.1 27.75 20.18-1.03 12.36-7.27 21.57-18.35 27.09-14.87 7.41-29.44-1.99-29.14-20.74ZM232.95.04c2.7-.27 6.88.8 10.74 3.18 8.81 5.46 11.39 15.11 6.58 24.69-5.85 11.64-21.49 18.84-34.22 15.74-14.13-3.44-19.85-17.26-11.84-29.31C210.49 4.85 219.6.12 232.95.04ZM0 164.01c.41-7.89 6.39-17.3 17.42-23.15 12.62-6.69 25.79 1.57 24.93 15.62-.74 12.07-6.61 21.48-17.39 27.26C11.99 190.71 0 183.38 0 164.01ZM152.31 53.37c-12.64-.03-20.46-10.34-16.97-22.34 3.77-12.95 20.02-22.88 32.64-19.93 10.36 2.41 15.59 11.38 12.61 21.62-3.33 11.46-15.97 20.68-28.29 20.66ZM96.17 75.54c10.64.03 17.9 9.18 16.02 20.19-1.97 11.52-12.32 21.64-23.92 23.38-10.55 1.58-19.14-5.66-19.25-16.24-.15-13.75 13.39-27.39 27.15-27.34ZM79.63 46.93c.46-14.73 18.05-28.86 31.99-25.7 6.57 1.49 11.2 6.72 11.8 13.31 1.33 14.74-17.25 30.88-31.82 27.64-7.53-1.68-12.21-7.64-11.97-15.25ZM31.38 123.9c-8.37-.03-14.23-6.31-14.13-15.13.14-12.76 11.25-25.6 23.89-27.61 9.01-1.42 16.22 4.17 17.12 13.29 1.37 13.85-12.92 29.5-26.87 29.45ZM32.33 55.51c.17-11.44 12.12-23.72 23.75-24.39 8.99-.53 14.93 6.09 13.6 15.12-1.53 10.43-12.52 20.93-23.03 22.02-8.43.87-14.45-4.48-14.33-12.76Z" class="cls-1"/></g></svg>
