<svg xmlns="http://www.w3.org/2000/svg" id="Layer_2" viewBox="0 0 254 80.79"><defs><style>.cls-1{fill:#888}</style></defs><g id="odoo"><path d="M223.35 19.48c-16.93 0-30.65 13.72-30.65 30.65s13.72 30.65 30.65 30.65S254 67.06 254 50.13s-13.72-30.65-30.65-30.65Zm0 48.73c-9.99 0-18.08-8.09-18.08-18.08s8.09-18.08 18.08-18.08 18.08 8.09 18.08 18.08-8.09 18.08-18.08 18.08ZM158.35 19.48c-16.93 0-30.65 13.72-30.65 30.65s13.72 30.65 30.65 30.65S189 67.06 189 50.13s-13.72-30.65-30.65-30.65Zm0 48.73c-9.99 0-18.08-8.09-18.08-18.08s8.09-18.08 18.08-18.08 18.08 8.09 18.08 18.08-8.09 18.08-18.08 18.08ZM118.81 0h-.05c-3.35.01-6.06 2.74-6.05 6.1v19.56c-5.17-3.85-11.56-6.18-18.5-6.18-16.94 0-30.65 13.72-30.65 30.65s13.72 30.65 30.65 30.65 30.65-13.72 30.65-30.65v-.25c.04-.08.04-.21.04-.3V6.1c0-3.35-2.75-6.1-6.09-6.1Zm-24.6 68.21c-9.98 0-18.08-8.09-18.08-18.08s8.09-18.08 18.08-18.08 18.08 8.09 18.08 18.08-8.09 18.08-18.08 18.08Z" class="cls-1"/><path fill="#9c5789" d="M30.65 19.39C13.72 19.39 0 33.12 0 50.05S13.72 80.7 30.65 80.7 61.3 66.98 61.3 50.05 47.58 19.4 30.65 19.4Zm-.3 48.86c-9.98 0-18.08-8.09-18.08-18.08s8.09-18.08 18.08-18.08 18.08 8.09 18.08 18.08-8.09 18.08-18.08 18.08Z"/></g></svg>
