<?xml version="1.0" encoding="utf-8"?>
<!-- Generator: Adobe Illustrator 26.3.1, SVG Export Plug-In . SVG Version: 6.00 Build 0)  -->
<svg version="1.1" id="Layer_2_00000140728266497402148300000001657569284287554187_"
	 xmlns="http://www.w3.org/2000/svg" xmlns:xlink="http://www.w3.org/1999/xlink" x="0px" y="0px" viewBox="0 0 221.6 252"
	 style="enable-background:new 0 0 221.6 252;" xml:space="preserve">
<style type="text/css">
	.st0{fill:#253B80;}
	.st1{fill:#179BD7;}
	.st2{fill:#222D65;}
</style>
<path class="st0" d="M65.5,239.4l4.5-26.7H14.8L46.6,13.3c0-0.6,0.6-1.1,1.1-1.7c0.6-0.6,1.1-0.6,1.7-0.6h76.3
	c25.1,0,42.9,5,51.8,15.6c4.5,5,7.2,10,8.4,15.6c1.1,6.1,1.1,12.8,0,21.7v6.1l4.5,2.2c3.3,1.7,6.7,3.9,8.9,6.7
	c3.9,4.5,6.1,9.5,7.2,15.6c1.1,6.7,0.6,13.9-1.1,22.8c-1.7,10-5,18.9-9.5,25.6c-3.9,6.7-8.9,12.2-15,16.1c-5.6,3.9-12.3,7.2-20,8.9
	c-7.2,1.7-15.6,2.8-25.1,2.8H129c-4.5,0-8.4,1.7-11.7,4.5s-5.6,6.7-6.1,10.6l-0.6,2.2l-7.2,47.3l-0.6,1.7c0,0.6,0,1.1-0.6,1.1
	l-0.6,0.6C101.7,238.8,65.5,239.4,65.5,239.4z"/>
<path class="st1" d="M193.6,65.1c0,1.7-0.6,2.8-0.6,4.5c-10,51.8-44.5,69-88,69H82.8c-5.6,0-10,3.9-10.6,9.5l-11.7,72.4l-3.9,20.6
	c-0.6,3.3,2.2,6.7,5.6,6.7h39.5c4.5,0,8.9-3.3,9.5-7.8l0.6-2.2l7.2-47.3l0.6-2.8c0.6-4.5,5-7.8,9.5-7.8h6.1
	c38.4,0,68.5-15.6,77.4-60.7c3.9-18.9,1.7-34.5-7.8-45.7C201.4,70.1,198,67.3,193.6,65.1z"/>
<path class="st2" d="M183,60.6c-1.7-0.6-3.3-1.1-5-1.1c-1.7-0.6-3.3-0.6-5-1.1c-6.1-1.1-12.8-1.7-19.5-1.7H93.9
	c-1.7,0-2.8,0.6-3.9,1.1c-2.8,1.1-5,3.9-5.6,7.2l-12.8,80.2l-0.6,2.2c0.6-5.6,5.6-9.5,10.6-9.5h22.3c44,0,78-17.8,88-69
	c0.6-1.7,0.6-2.8,0.6-4.5l-8.4-3.3C184.7,61.2,183.5,61.2,183,60.6z"/>
<path class="st0" d="M84.4,65.1c0.6-3.3,2.8-5.6,5.6-7.2c1.1-0.6,2.8-1.1,3.9-1.1h59.6c7.2,0,13.9,0.6,19.5,1.7
	c1.7,0.6,3.3,0.6,5,1.1c1.7,0.6,3.3,0.6,5,1.1c0.6,0,1.7,0.6,2.2,0.6l8.4,3.3c2.8-18.9,0-31.7-10.6-44
	C171.8,8.3,151.2,2.7,125.1,2.7H48.8c-5.6,0-10,3.9-10.6,9.5L6.5,212.7c-0.6,3.9,2.2,7.8,6.7,7.8h46.8l11.7-74.6L84.4,65.1z"/>
</svg>
