<svg xmlns="http://www.w3.org/2000/svg" id="Layer_2" viewBox="0 0 254 254"><defs><style>.cls-1{fill:#676a6a}.cls-2{fill:#e3dddb}.cls-3{fill:#fff}.cls-4{fill:#fcb03f}.cls-7{fill:#909393}.cls-8{fill:#aa9678}.cls-10{fill:#bbbcbd}.cls-11{fill:#c4b6a1}.cls-13{fill:#525353}</style></defs><g id="Prestashop"><path fill="#a5dbe8" d="M82.33 194.88c2.03-.9 4.08-1.73 6.16-2.51 2.34-.88 4.7-1.71 7.09-2.43 2.98-.9 5.98-1.71 9.02-2.35 4.1-.87 8.25-1.52 12.44-1.92a390.82 390.82 0 0 1-7.75 21.99c.12 1.41.18 2.83.22 4.25 5.66-1.12 11.5-1.71 17.48-1.71s11.83.6 17.48 1.71c.04-1.42.1-2.84.22-4.25a393.64 393.64 0 0 1-7.75-21.99c4.18.41 8.33 1.05 12.44 1.92 3.04.65 6.04 1.46 9.02 2.35 2.39.72 4.75 1.55 7.1 2.43 2.07.78 4.13 1.61 6.16 2.51 14.39 6.41 27.51 15.91 38.27 28.25 26.97-23.29 44.06-57.7 44.06-96.13C254 56.86 197.14 0 127 0S0 56.86 0 127c0 38.43 17.09 72.84 44.06 96.13a110.299 110.299 0 0 1 38.27-28.25"/><path d="m171.67 194.88 7.88 27.11 2.24.11c1.45 0 2.47.38 2.47 1.83 0 2.41.13 5.12.36 7.49 1.96 1.67 4.36 3.55 6.17 5.38 6.81-3.97 13.22-8.55 19.15-13.67a110.299 110.299 0 0 0-38.27-28.25M156.26 194.61l9.26-2.24c-2.34-.88-4.7-1.71-7.1-2.43-2.98-.9-5.98-1.71-9.02-2.35-4.1-.87-8.25-1.52-12.44-1.92a390.82 390.82 0 0 0 7.75 21.99c-.12 1.41-.18 2.83-.22 4.25 6.56 1.29 13.01 3.54 18.97 6.18l-7.2-23.48" class="cls-13"/><path d="M63.21 236.8c1.47.86 2.96 1.7 4.48 2.5.53-2.54 1.38-6.07 1.63-8.69-1.96 1.67-4.3 4.36-6.11 6.19M163.3 217.86a89.308 89.308 0 0 0-18.82-5.95c-5.66-1.12-11.5-1.71-17.48-1.71s-11.83.6-17.48 1.71c-6.56 1.29-13.4 3.25-19.36 5.89l-.63 3.95h74.96l-1.18-3.9"/><path d="M69.09 231.36c.23-2.37.4-4.48.4-6.89 0-1.45 1-2.38 2.45-2.38l2.38-.08 8.02-27.12c-14.39 6.41-27.51 15.91-38.27 28.25 5.93 5.12 12.34 9.7 19.15 13.67a88.07 88.07 0 0 1 5.67-5.25" class="cls-13"/><path d="M185.59 236.19c.51 2.58.63 3.09.72 3.11 1.51-.8 3-1.64 4.48-2.5a90.012 90.012 0 0 0-5.73-5.31l.53 4.69"/><path d="m163.3 217.86 1.18 3.9h15.33l-8.14-26.87c-2.03-.9-4.08-1.73-6.16-2.51l-9.26 2.24 7.05 23.25" class="cls-8"/><path d="M74.45 227.18c.08-.06.16-.11.24-.17h-.23c0 .06 0 .11-.01.17" class="cls-11"/><path d="M179.54 227.01h-.23c.08.06.16.11.24.17v-.17" class="cls-8"/><path d="m179.27 226.62-52.38.06L127 254c19.49 0 37.96-4.4 54.46-12.25-1.08-4.73-1.19-9.83-1.36-14.8-.08-.06-.83-.33-.83-.33" class="cls-8"/><path d="M126.92 226.79s-52.67-.07-52.75 0c-.17 4.96-1.2 10.85-1.63 14.96C89.05 249.6 107.51 254 127 254l.03-27.12-.11-.09" class="cls-11"/><path fill="#786453" d="M127 224.38v2.63-2.63Z"/><path d="M163.36 203.63c-.38-.44-.78-.91-1.19-1.45.41.54.8 1.01 1.19 1.45" class="cls-13"/><path d="M166.28 206.53s0 .03.03.08c-.02-.05-.03-.08-.03-.08s-1.29-1.02-2.92-2.9c1.63 1.88 2.92 2.9 2.92 2.9" class="cls-8"/><path d="M210.2 128.19" class="cls-3"/><path d="M210.2 128.15" class="cls-10"/><path d="M210.06 126.18s.01.06.02.1c0 .02 0 .04.01.06.06.49.08 1 .09 1.51 0 .09.02.18.02.28v.07c0 .1-.02.2-.02.3-.01.5-.03 1-.09 1.47s0 .05-.01.08c0 .04-.02.07-.02.11-.07.52-.16 1.02-.28 1.5h.02v-.03l3.32-3.48-3.35-3.51c.13.5.22 1.01.29 1.54" class="cls-1"/><path d="M210.06 130.15c0-.07.03-.12.03-.19.06-.48.08-.97.09-1.47 0-.11.02-.22.02-.33 0-.11-.02-.21-.02-.31-.01-.51-.03-1.02-.09-1.5 0-.06-.02-.11-.03-.16-.07-.53-.17-1.04-.29-1.53-.04-.17-.1-.32-.15-.49-.3-.99-.71-1.87-1.2-2.6-.07-.1-.13-.19-.2-.28-.13-.18-.27-.35-.41-.51a4.68 4.68 0 0 0-.66-.61c-.09-.07-.18-.11-.27-.17-.2-.13-.4-.24-.61-.33-.09-.04-.18-.07-.27-.1-.3-.09-.6-.16-.91-.16s-.61.07-.91.16c-.09.03-.18.06-.27.1-.21.08-.41.2-.61.32-.09.06-.18.1-.27.17-.23.17-.45.38-.66.61-.14.16-.28.33-.41.51-.07.09-.14.19-.2.29-.49.73-.9 1.61-1.2 2.6-.01.04-.03.08-.04.12-.13.46-.24.94-.32 1.43-.03.15-.06.3-.08.45-.08.55-.12 1.13-.13 1.72 0 .08-.01.16-.01.24h.02c0 4.84 2.29 8.76 5.11 8.76.49 0 .95-.13 1.4-.34.07-.04.14-.07.21-.11.18-.11.37-.22.54-.36.1-.08.19-.17.28-.26.23-.21.44-.45.64-.71.14-.19.28-.37.41-.58.08-.13.16-.27.23-.42.14-.26.28-.54.4-.83a11.98 11.98 0 0 0 .54-1.6c.12-.48.21-.98.28-1.5Zm-4.78-3.16c-1.06 0-1.92-1.47-1.92-3.29s.86-3.28 1.92-3.28 1.92 1.47 1.92 3.28-.86 3.29-1.92 3.29Z"/><path d="M205.27 120.42c-1.06 0-1.92 1.47-1.92 3.28s.86 3.29 1.92 3.29 1.92-1.47 1.92-3.29-.86-3.28-1.92-3.28" class="cls-3"/><path d="M200.57 124.16c.3-.99.71-1.87 1.2-2.6l.2-.29c.13-.18.27-.35.41-.51.21-.23.43-.44.66-.61.09-.07.18-.11.27-.17.2-.13.4-.24.61-.32.09-.04.18-.07.27-.1.3-.09.6-.16.91-.16s.61.06.91.16c.09.03.18.06.27.1.21.09.41.2.61.33.09.06.18.1.27.17.23.17.45.38.66.61.14.16.28.33.41.51.07.09.13.18.2.28.49.73.9 1.61 1.2 2.6l-4.52-20.71-4.52 20.71" class="cls-7"/><path d="M145.16 127.96c0-.42-.03-.83-.08-1.23v-.02c-.05-.4-.12-.79-.2-1.18v-.03a14.5 14.5 0 0 0-.31-1.13v-.02c-.13-.37-.27-.73-.43-1.08v-.02c-.16-.35-.33-.7-.52-1.03-.58-1.02-1.31-1.94-2.15-2.75a11.974 11.974 0 0 0-3.72-2.41c-.01 0-.02 0-.03-.01-.68-.28-1.4-.5-2.14-.65h-.06c-.74-.15-1.51-.23-2.29-.23s-1.52.08-2.26.22c-.03 0-.05 0-.08.01-.73.14-1.43.36-2.1.63-.02 0-.04.01-.05.02-.68.28-1.33.62-1.95 1.01-.62.4-1.2.86-1.73 1.36v.04H125c-.85.82-1.59 1.76-2.17 2.78 0 .01-.01.02-.02.04-.18.31-.34.64-.49.98-.02.04-.04.07-.05.11-.14.31-.25.63-.36.95-.02.06-.05.12-.07.19-.1.3-.17.61-.25.92-.02.09-.05.17-.07.26-.06.31-.11.62-.15.93-.01.1-.03.19-.04.28-.04.41-.07.83-.07 1.25 0 .79.08 1.56.23 2.31v.05c.15.75.37 1.47.65 2.16a11.988 11.988 0 0 0 2.45 3.76c.81.85 1.75 1.58 2.78 2.16h.01c.32.19.65.35.99.5.03.01.05.03.08.04.31.14.64.25.96.37.06.02.11.04.16.06.3.1.61.17.92.25.08.02.17.05.25.07.3.06.61.11.93.15.09.01.19.03.28.04.41.04.82.07 1.24.07 1.65 0 3.23-.34 4.66-.94.72-.3 1.4-.67 2.03-1.1 1.27-.86 2.37-1.96 3.23-3.23.43-.64.8-1.32 1.1-2.03.61-1.43.94-3.01.94-4.66V128.01Zm-11.96-1.4c-2.48 0-4.49-2.01-4.49-4.5s2.01-4.49 4.49-4.49 4.49 2.01 4.49 4.49-2.01 4.5-4.49 4.5Z"/><path d="M133.2 117.57c-2.48 0-4.49 2.01-4.49 4.49s2.01 4.5 4.49 4.5 4.49-2.01 4.49-4.5-2.01-4.49-4.49-4.49" class="cls-3"/><path d="M124.97 119.46h.04v-.05l8.25-25.2V88.24c-4.59-.94-9.31-1.46-14.14-1.46-1.61 0-3.21.07-4.8.18-.23.02-.46.03-.7.05-8.27.63-16.42 2.78-23.96 6.23-6.47 2.95-12.48 6.84-17.88 11.46a81.037 81.037 0 0 0-4.2 3.88c-.25.25-.51.49-.76.75a87.537 87.537 0 0 0-3.71 3.99c-.26.3-.51.6-.77.9-1.2 1.42-2.37 2.86-3.47 4.35-.09.13-.18.26-.27.38a88.254 88.254 0 0 0-3.03 4.41c-.19.29-.38.58-.57.88-.78 1.24-1.51 2.52-2.24 3.8H90.3l34.67-8.56" class="cls-10"/><path d="M156.66 116.63c.08-.98.14-1.97.19-2.95.07-1.33.12-2.67.14-4 .02-1.03.02-2.07.01-3.11v-.9c-.03-2.67-.13-5.34-.29-8.01h-.02v-.03s-.06-.03-.09-.05c-.03-.02-.06-.03-.12-.07-.49-.28-1.69-.97-2.78-1.59-.02-.01-.05-.03-.07-.04-.27-.15-.54-.3-.78-.44h-.01c-.21-.12-.38-.22-.54-.31l-.11-.06c-.18-.1-.31-.17-.39-.21-1.73-.89-3.49-1.72-5.28-2.48-4.27-1.8-10.02-3.38-13.26-4.15v5.97l8.17 25.24v.02c.85.8 1.58 1.73 2.16 2.75.19.33.37.68.52 1.03v.02c.16.35.3.71.42 1.08v.02c.13.37.24.74.32 1.13v.03c.09.39.15.78.2 1.18v.02c.05.4.08.82.08 1.23l.03.07h10c.68-3.66 1.15-7.37 1.45-11.09 0-.1.02-.2.03-.31" class="cls-2"/><path d="M169.74 107.7s-.01.02-.02.03l.02-.03" class="cls-4"/><path d="M125.03 119.41c.53-.5 1.11-.95 1.73-1.35.61-.4 1.26-.74 1.95-1.01.02 0 .04-.01.05-.02.67-.27 1.38-.48 2.1-.63.03 0 .05 0 .08-.01.73-.14 1.48-.22 2.26-.22s1.55.08 2.29.23h.06c.74.15 1.46.37 2.14.65a12.156 12.156 0 0 1 3.75 2.42v-.02l-8.18-25.24-8.24 25.2" class="cls-7"/><path d="M122.12 132.65c-.28-.69-.5-1.41-.65-2.16v-.05c-.15-.75-.23-1.52-.23-2.31 0-.42.02-.84.07-1.25 0-.1.03-.19.04-.28.04-.31.08-.63.15-.93.02-.09.05-.17.07-.26.07-.31.15-.62.25-.92.02-.06.05-.12.07-.19.11-.32.23-.64.36-.95.01-.04.03-.07.05-.11.15-.33.31-.66.49-.98 0-.01.02-.02.02-.04a12.19 12.19 0 0 1 2.17-2.77l-34.67 8.56h-.07l34.34 8.38a12.105 12.105 0 0 1-2.44-3.73s0-.02-.01-.03" class="cls-1"/><path d="M200.13 126.15c.02-.15.05-.3.08-.45.09-.49.19-.97.32-1.43.01-.05.02-.11.04-.16l4.52-20.71V91.59c-3.7-3.05-7.65-4.72-11.78-4.72-5.21 0-10.06 2.88-13.69 6.43-3.97 3.89-7.04 8.78-9.52 13.71-.11.23-.23.45-.34.67.76.66 1.52 1.33 2.27 2.02 1.69 1.55 3.34 3.13 4.98 4.74.76.75 1.51 1.52 2.25 2.28.79.81 1.59 1.62 2.37 2.44 1.01 1.06 2 2.12 2.99 3.2.42.45.83.91 1.24 1.36 1.19 1.32 2.37 2.64 3.54 3.98.2.21.33.35.38.41h10.2c0-.08.02-.16.02-.24 0-.59.05-1.16.13-1.72M169.75 107.73v-.03l-.03.03.04.04c0-.02 0-.03-.02-.05" class="cls-2"/><path d="M46.61 141.06c.03-.08.06-.15.09-.23.66-1.72 1.38-3.41 2.13-5.09.21-.47.43-.93.65-1.4.62-1.32 1.27-2.62 1.95-3.91.28-.52.55-1.05.83-1.57.16-.29.34-.56.5-.85.72-1.28 1.45-2.56 2.24-3.8.19-.3.38-.58.57-.88.97-1.5 1.98-2.98 3.03-4.41.09-.13.18-.26.27-.38 1.11-1.49 2.28-2.93 3.47-4.35.26-.3.51-.61.77-.9 1.19-1.37 2.43-2.7 3.71-3.99.25-.25.51-.5.76-.75 1.36-1.33 2.75-2.63 4.2-3.87 5.71-19.12 24.13-30.87 44.79-30.87 8.31 0 16.58 2.4 23.67 6.73 7.27 4.45 12.22 8.79 16.07 16.38.02.04.04.08.06.11.1.19.21.38.3.57v.02h.03c3.22 2 6.29 4.24 9.21 6.71a97.9 97.9 0 0 1 2.87 2.53c.31.28.63.55.93.84 0-.01.01-.02.02-.03v-.02c.12-.22.22-.43.33-.65 2.91-18.37 12.16-28.39 21.72-28.39 7.21 0 12.44 4.3 16.4 15.86l.04.12c1.12 1.23 2.21 2.56 3.26 4.03s.04.05.06.08c.06.17.11.34.16.51l-.15-.6c-11.89-35.2-45.19-60.55-84.41-60.55-49.19 0-89.07 39.88-89.07 89.07 0 9.7 1.55 19.03 4.43 27.72 0-.02 0-.03.01-.05a97.15 97.15 0 0 1 2.03-7.8c.62-2.01 1.3-4 2.05-5.97" class="cls-13"/><path d="m212.9 128.15-3.11 3.48v.02c-.13.46-.27.88-.43 1.3-.04.11-.09.21-.13.32-.12.29-.26.57-.4.83-.08.14-.15.28-.23.42-.13.21-.27.39-.41.58-.2.26-.42.5-.64.71-.09.09-.18.18-.28.26-.17.14-.36.26-.54.36-.07.04-.14.08-.21.11-.45.22-.91.34-1.4.34-2.82 0-5.11-3.92-5.11-8.76h-10.25a320.8 320.8 0 0 1 5.62 6.69.5.5 0 0 0 .07.08c1.79 2.19 3.56 4.4 5.31 6.63.09.11.17.22.26.33 1.66 2.12 3.3 4.24 4.93 6.38.16.21.32.41.47.62 1.72 2.26 3.42 4.53 5.11 6.8.01.02.02.03.04.05a88.823 88.823 0 0 0 4.67-27.57l-2.88-.11-.45.14" class="cls-3"/><path d="M113.63 87.01c.23-.02.46-.03.7-.05 1.59-.11 3.19-.18 4.8-.18 4.83 0 9.55.52 14.14 1.46 3.24.76 8.99 2.34 13.26 4.15 1.79.76 3.55 1.58 5.28 2.48.08.04.22.12.39.21l.11.06c.16.09.33.19.54.3h.01c.24.14.5.29.78.45.02.01.05.03.07.04 1.1.62 2.31 1.32 2.78 1.59.06.03.09.05.12.07.02.01.08.04.08.05l-.3-.57c-.02-.04-.04-.08-.06-.11-3.85-7.59-9.77-14.11-17.04-18.55-7.09-4.33-15.36-6.73-23.67-6.73-20.66 0-38.11 13.91-43.82 33.03 5.4-4.61 11.41-8.5 17.88-11.46 7.54-3.44 15.69-5.6 23.96-6.23"/><path d="M211.56 98.74s-.04-.05-.06-.08c-1.06-1.46-2.14-2.8-3.26-4.02s-.02-.02-.03-.03c-.51-.55-1.02-1.07-1.54-1.57-.2-.19-.4-.35-.6-.53-.33-.3-.65-.6-.98-.88v11.82l4.52 20.71c.05.16.11.31.15.48l3.13 3.51.03-.03h3.28c0-.3.02-.6.02-.91 0-9.78-1.61-19.16-4.51-27.96-.05-.17-.1-.34-.16-.51" class="cls-10"/><path d="M179.62 93.3c3.63-3.55 8.49-6.43 13.69-6.43 4.12 0 8.08 1.67 11.77 4.72v.04c.33.27.66.58.98.88.2.18.4.34.6.53.52.5 1.03 1.02 1.54 1.57 0 .01.02.02.03.03l-.04-.14c-3.96-11.56-10.34-19.08-17.54-19.08-9.56 0-17.66 13.24-20.58 31.61l.03-.03c2.48-4.93 5.55-9.82 9.52-13.71M166.71 206.21s-1.29-1.02-2.92-2.9c-.38-.44-.78-.91-1.19-1.45-.31-.4-.62-.83-.93-1.29-.21-.3-.41-.62-.62-.94-.62-.98-1.11-2.17-1.65-3.34-.63-1.36-.63-2.27-.99-3.54a24.56 24.56 0 0 1-.93-7.53c.03-.91.12-1.84.26-2.8.13-.92.31-1.86.55-2.82.72-2.88 1.97-5.95 3.91-9.19 0 0 .49-1.1.49-1.11.63-1.06.78-1.01 1.38-2.03 8.5-14.34 13.08-25.18 10.84-41.88-.16-1.19-.6-3.86-.84-5.12-.13.87-.61 3.63-.62 3.69-.08.38-.32.79-.4 1.05-3.69 10.92-9.5 18.96-17.86 28.03-1.13 1.23-2.32 2.48-3.53 3.74-2.04 2.12-4.19 4.28-6.45 6.54-.9.9-1.83 1.81-2.77 2.74-.86.85-1.93 2.68-3.21 4.02-.79 2.21-1.69 4.71-2.45 7.33-.34-.13-.67-.25-1.02-.38-16.24-6.28-27.11-14.67-27.11-14.67s8.37 10.89 22.46 21.12c1.36.99 2.71 1.85 4.03 2.61-.58 9.2 3.48 18.04 21.81 20.67 3.1.45 6.27.42 9.47.06-.03-.1.18-.09.16-.15-.02-.05.17-.19.17-.19"/><path fill="#9f2254" d="M156.9 182.52c16.27 2.63 40.35 2.19 65.35-9.51.6-.28 1.27.46 1.87.16 0 0-17.08 17.45-37.49 27.31-.6.29-1.18.59-1.79.87-1.97.9-3.98 1.69-5.99 2.41-3.95 1.42-7.95 2.5-11.92 2.99-.18.02-.37.06-.55.08-.03-.1-.06-.17-.07-.23-.02-.05-.03-.08-.03-.08s-1.29-1.02-2.92-2.9c-.38-.44-.78-.91-1.19-1.45-.31-.4-.62-.83-.93-1.29-.21-.3-.42-.62-.62-.94-.62-.98-1.22-2.06-1.76-3.23s-1.03-2.45-1.42-3.81a24.56 24.56 0 0 1-.93-7.53c.03-.91.12-1.84.26-2.8l.14-.06"/><path d="M145.24 164c2.27-2.26 4.41-4.42 6.46-6.54 1.21-1.26 2.4-2.51 3.53-3.74 8.36-9.07 14.5-17.56 18.19-28.49.09-.26.17-.6.26-.98.01-.06.03-.12.04-.18.09-.41.17-.86.25-1.37.03-.35 1.14-1.06 1.17-1.39-.93-4.76-3.06-9.76-5.39-13.58 0 .02.01.03.02.05l-.04-.04c-.31-.29-.62-.56-.93-.84-.94-.87-1.9-1.71-2.87-2.53-2.92-2.46-5.99-4.71-9.21-6.69.16 2.67.27 5.34.29 8.01v.9c0 1.03 0 2.07-.01 3.11-.03 1.33-.07 2.67-.14 4-.05.98-.11 1.97-.19 2.95 0 .1-.02.2-.03.31-.3 3.72-.77 7.43-1.45 11.09l-1.17 5.56c-2.45 9.95-7.44 18.97-11.54 28.29-1.09 2.47-2.12 4.97-3.02 7.51-.08.23-.17.48-.26.72 1.28-1.34 2.41-2.51 3.27-3.36l2.77-2.74" class="cls-4"/><path d="M91.48 217.5c5.96-2.64 11.48-4.29 18.04-5.59-.04-1.42-.1-2.84-.22-4.25 2.81-7.29 5.4-14.62 7.75-21.99-4.18.41-8.33 1.05-12.44 1.92-3.04.65-6.05 1.46-9.02 2.35-2.39.72-4.75 1.55-7.09 2.43l9.26 2.24-7.45 23.38 1.18-.49" class="cls-13"/><path fill="#df0067" d="M205.94 148.21c-1.63-2.14-3.27-4.26-4.93-6.38-.09-.11-.17-.22-.26-.33-1.75-2.23-3.52-4.44-5.31-6.63a.5.5 0 0 0-.07-.08c-1.85-2.25-3.72-4.48-5.62-6.68l-.36-.42c-1.16-1.34-2.35-2.66-3.54-3.98-.41-.46-.83-.91-1.24-1.36-.99-1.08-1.98-2.14-2.99-3.2-.78-.82-1.58-1.63-2.37-2.44-.75-.76-1.49-1.53-2.25-2.28-1.63-1.61-3.29-3.2-4.98-4.74-.75-.68-1.51-1.36-2.27-2.02v.02c1.6 4.63 3.43 9.31 4.35 14.13.24 1.26.44 2.48.6 3.67 2.24 16.7-3.11 27.6-11.6 41.94-.61 1.03-1.23 2.07-1.87 3.14-1.94 3.24-3.19 6.31-3.91 9.19-.24.96-.42 1.9-.55 2.82 16.66 2.69 41.72 3.19 67.35-9.41 0 0-5.03-7.39-12.59-17.55-1.69-2.27-3.4-4.54-5.11-6.8-.16-.21-.32-.41-.47-.62"/><path d="m89.41 222.17 8.33-27.56-9.26-2.24c-2.07.78-4.13 1.61-6.16 2.51l-8.25 27.29 9.21.14 6.12-.14" class="cls-8"/><path d="M95.27 210.25c.81.31 1.64.59 2.47.88a88.756 88.756 0 0 0 29.43 5.01c11.76 0 22.99-2.3 33.27-6.45.54-.22 1.08-.46 1.61-.69.87-.37 1.74-.75 2.6-1.15.77-.36 1.54-.71 2.29-1.09-.18.02-.37.06-.55.08-3.2.36-6.37.38-9.47-.06-18.33-2.64-22.39-11.47-21.81-20.67-1.32-.76-2.66-1.62-4.03-2.61-14.1-10.23-22.46-21.12-22.46-21.12s10.87 8.39 27.11 14.67l1.02.38c.76-2.62 1.66-5.12 2.45-7.33.09-.24.17-.49.26-.72.9-2.54 1.93-5.04 3.02-7.51 4.1-9.32 9.08-18.34 11.54-28.29l1.17-5.56h-10.02v.1c0 1.65-.34 3.23-.94 4.66-.3.72-.67 1.4-1.1 2.03-.86 1.27-1.96 2.37-3.23 3.23-.64.43-1.32.8-2.03 1.1a11.861 11.861 0 0 1-5.9.87c-.1 0-.19-.03-.28-.04-.31-.04-.63-.08-.93-.15-.09-.02-.17-.05-.25-.07-.31-.07-.62-.15-.92-.25-.06-.02-.11-.04-.16-.06-.33-.11-.65-.23-.96-.37-.03-.01-.06-.03-.08-.04-.34-.15-.67-.31-.99-.49h-.01c-1.03-.59-1.97-1.32-2.78-2.17l-34.34-8.38H52.76c-.16.29-.34.56-.5.85-.29.52-.56 1.05-.83 1.57-.68 1.29-1.33 2.59-1.95 3.91a94.257 94.257 0 0 0-2.78 6.49c-.03.08-.06.15-.09.23-.75 1.97-1.43 3.96-2.05 5.97-.79 2.58-1.47 5.18-2.03 7.8 5.9 17.99 17.38 33.46 32.38 44.35.44.32.9.6 1.34.91a91.33 91.33 0 0 0 7.88 4.94c3.57 1.98 7.28 3.73 11.14 5.21" class="cls-3"/><path fill="#8b7460" d="M185.12 231.55c-.23-2.37-.37-4.75-.37-7.17 0-1.45-1.18-2.63-2.63-2.63H71.88c-1.45 0-2.63 1.18-2.63 2.63 0 2.41-.14 4.8-.37 7.17a73.9 73.9 0 0 1-1.19 7.75c1.6.85 3.21 1.67 4.85 2.45 1.08-4.73 1.74-9.6 1.92-14.56 0-.06 0-.11.01-.17h105.07v.17c.18 4.96.84 9.83 1.92 14.56 1.64-.78 3.25-1.6 4.85-2.45-.53-2.54-.93-5.13-1.19-7.75"/></g></svg>
