<?xml version="1.0" encoding="utf-8"?>
<!-- Generator: Adobe Illustrator 26.3.1, SVG Export Plug-In . SVG Version: 6.00 Build 0)  -->
<svg version="1.1" id="Layer_2_00000140728266497402148300000001657569284287554187_"
	 xmlns="http://www.w3.org/2000/svg" xmlns:xlink="http://www.w3.org/1999/xlink" x="0px" y="0px" viewBox="0 0 221.6 252"
	 style="enable-background:new 0 0 221.6 252;" xml:space="preserve">
<style type="text/css">
	.st0{fill:#A32422;}
	.st1{fill:#DC382C;}
	.st2{fill:#FFFFFF;}
	.st3{fill:#741113;}
	.st4{fill:#AC2724;}
</style>
<path class="st0" d="M209,174.5c-11.4,6-70.5,30.2-83.1,37.1c-12.8,6.6-19.4,6.6-29.6,1.8c-9.9-4.8-72.6-30.2-84-35.9
	c-5.7-2.7-8.7-4.8-8.7-6.9v-21.5c0,0,81.9-17.6,95-22.4c13.1-4.8,17.9-4.8,29-0.9c11.4,4.2,78.6,16.1,89.6,20.3v21.2
	C217.3,169.4,214.6,171.5,209,174.5z"/>
<path class="st1" d="M209,153c-11.4,6-70.5,30.2-83.1,36.8c-12.8,6.6-19.4,6.6-29.6,1.8c-9.9-4.5-72.6-30.2-84-35.6
	C1,150.6,0.7,147,12,142.5c11.1-4.5,73.5-28.7,87-33.8s17.9-4.8,29-0.9c11.4,4.2,69.9,27.5,81,31.7C220,143.7,220.3,147,209,153z"/>
<path class="st0" d="M209,139.5c-11.4,6-70.5,30.2-83.1,36.8c-12.8,6.6-19.4,6.6-29.3,1.8c-10.2-5.1-72.9-30.2-84.3-35.6
	c-5.7-2.7-8.7-5.1-8.7-7.2v-21.5c0,0,81.9-17.9,95-22.7c13.1-4.8,17.9-4.8,29-0.9c11.4,4.2,78.6,16.1,89.6,20.3v21.5
	C217.3,134.2,214.6,136.2,209,139.5z"/>
<path class="st1" d="M209,117.7c-11.4,6-70.5,30.2-83.1,36.8c-12.8,6.6-19.4,6.6-29.6,1.8c-9.9-4.8-72.6-30.2-84-35.6
	s-11.7-9.3-0.3-13.4c11.1-4.5,73.5-29,87-33.5c13.1-4.8,17.9-5.1,29-0.9c11.4,4.2,69.9,27.5,81,31.7
	C220,108.5,220.3,111.7,209,117.7z"/>
<path class="st0" d="M209,102.8c-11.4,6-70.5,30.2-83.1,36.8c-12.8,6.6-19.4,6.6-29.3,1.8c-10.2-4.5-72.9-29.9-84.3-35.6
	c-5.7-2.7-8.7-4.8-8.7-6.9V77.4c0,0,81.9-17.6,95-22.4s17.9-4.8,29-0.9c11.4,4.2,78.6,16.1,89.6,20.3v21.2
	C217.3,97.7,214.6,99.8,209,102.8z"/>
<path class="st1" d="M209,81.3c-11.4,6-70.5,30.2-83.1,36.8c-12.8,6.6-19.4,6.6-29.6,1.8c-9.9-4.8-72.6-30.2-84-35.6S0.7,75,12,70.8
	c11.1-4.2,73.5-29,86.7-33.5c13.1-4.8,17.9-4.8,29-0.9c11.4,4.2,69.9,27.5,81,31.7C219.7,72,220.3,75.3,209,81.3z"/>
<path class="st2" d="M113.9,50.8l14-4.5l-3.9,9.3l14.3,5.4l-18.5,1.8l-4.2,9.6l-6.6-11.1l-21.5-1.8l15.8-5.7l-4.8-9
	C98.7,44.8,113.9,50.8,113.9,50.8z M114.8,109.1L80.2,94.7l49.6-7.5L114.8,109.1z M66.7,66c14.6,0,26.6,4.5,26.6,10.2
	s-12,10.2-26.6,10.2s-26.6-4.5-26.6-10.2C40.4,70.8,52.1,66,66.7,66z"/>
<path class="st3" d="M160.2,63.3L189.5,75l-29.3,11.7V63.3z"/>
<path class="st4" d="M160.2,63.3v23l-3.3,1.2l-29.3-11.7L160.2,63.3z"/>
</svg>
