<svg xmlns="http://www.w3.org/2000/svg" id="Layer_2" viewBox="0 0 248.07 230.86"><defs><style>.cls-2{fill:#7cc8ec}.cls-3{fill:#2b244d}</style></defs><g id="Saleor"><g id="xkNwyk.tif"><path fill="#fefefe" d="M95.93 230.8c5.73.25 11.41-.31 17.08-.97 25.8-3.03 38.45-19.14 35-44.58-1.59-11.72-8.74-19.07-19.08-23.71-7.71-3.46-15.96-5.1-24.25-6.49-6.35-1.07-12.81-1.77-18.84-4.16-5.12-2.03-7.07-5.48-6.64-10.97.35-4.45 2.82-6.98 8.09-8.29 4.43-1.1 8.95-1.22 13.43-.67 7.65.93 10.61 3.59 11.94 11.14.48 2.69 1.36 2.97 3.8 2.56 8.88-1.49 17.78-2.84 26.71-3.96 2.85-.36 3.47-1.38 3-4.03-2.38-13.5-9.27-23.43-22.72-27.54-17.21-5.25-34.65-5.2-51.96-.43-14.64 4.04-22.93 13.72-25.1 28.94-2.65 18.6 4.65 31.56 22.2 38.28 5.48 2.1 11.19 3.33 16.94 4.41 7.5 1.41 15.17 2.1 22.4 4.73 5.38 1.95 7.92 6.24 7.39 11.98-.45 4.88-3.04 7.36-8.87 8.59-5.36 1.12-10.76.89-16.16.52-7.51-.52-12.41-4.12-13.56-11.85-.3-2.01-1.22-2.47-3.02-2.19-9.05 1.39-18.09 2.78-27.15 4.08-1.98.28-2.81.81-2.44 3.09 1.9 11.87 7.35 21.15 18.75 26.14 10.55 4.62 21.79 5.18 33.07 5.38Z"/><path d="M248.07 0c-1.57 3.16-4.3 5.34-6.68 7.8-11.57 11.99-23.21 23.92-34.69 35.99-2.04 2.14-4.1 3.08-7.06 3.01-9.76-.21-19.52-.18-29.28-.25 7.17-7.22 14.33-14.44 21.5-21.66 1.97-1.98 4.78-3.67 3.51-7.09-1.37-3.67-4.73-3.03-7.69-3.03-11.69-.01-23.38.03-35.06-.02-9.13-.04-18.26-.2-27.39-.3 2.36-4.36 6.58-7.07 9.66-10.8 1.03-1.24 2.1-2.44 3.15-3.66h110.04Z" class="cls-2"/><path d="M95.93 230.8c-11.28-.19-22.52-.76-33.07-5.38-11.4-4.99-16.85-14.27-18.75-26.14-.37-2.28.46-2.81 2.44-3.09 9.06-1.29 18.11-2.69 27.15-4.08 1.8-.28 2.73.19 3.02 2.19 1.14 7.73 6.05 11.34 13.56 11.85 5.4.37 10.8.61 16.16-.52 5.83-1.22 8.42-3.71 8.87-8.59.53-5.74-2.01-10.03-7.39-11.98-7.23-2.62-14.9-3.31-22.4-4.73-5.75-1.08-11.46-2.31-16.94-4.41-17.55-6.72-24.84-19.68-22.2-38.28 2.17-15.22 10.46-24.9 25.1-28.94 17.31-4.77 34.75-4.82 51.96.43 13.46 4.1 20.34 14.03 22.72 27.54.47 2.65-.15 3.67-3 4.03-8.93 1.11-17.83 2.47-26.71 3.96-2.44.41-3.32.13-3.8-2.56-1.34-7.55-4.29-10.21-11.94-11.14-4.49-.55-9-.43-13.43.67-5.26 1.3-7.73 3.83-8.09 8.29-.43 5.48 1.52 8.94 6.64 10.97 6.04 2.39 12.49 3.1 18.84 4.16 8.3 1.39 16.54 3.03 24.25 6.49 10.34 4.64 17.49 11.99 19.08 23.71 3.45 25.44-9.2 41.55-35 44.58-5.67.67-11.35 1.22-17.08.97ZM125.22 14.46c9.13.1 18.26.26 27.39.3 11.69.05 23.38 0 35.06.02 2.96 0 6.32-.63 7.69 3.03 1.28 3.42-1.54 5.11-3.51 7.09-7.17 7.22-14.34 14.44-21.5 21.66-5.14 5.04-10.38 9.98-15.36 15.17-2.47 2.58-5.1 3.72-8.7 3.71-46.4-.08-92.79-.06-139.19-.05-2.75 0-5.63.13-6.81-3.08-1.1-3.01 1.16-4.69 2.96-6.48C15.79 43.32 28.4 30.87 40.83 18.26c2.41-2.45 4.9-3.47 8.3-3.46 23.57.1 47.15.06 70.72.04 1.79 0 3.57-.25 5.36-.38Zm31.85 32.41c7.58-7.44 15.17-14.88 23.62-23.18h-65.96c-21.32-.03-42.64-.03-63.96-.15-2.23-.01-3.58.97-5 2.4-8.9 8.93-17.86 17.8-26.78 26.71-1.1 1.1-2.11 2.28-3.68 3.99h5.3c38.29 0 76.58-.32 114.86.24 9.1.13 15.9-2.01 21.13-9.27.17-.24.32-.5.48-.74Z" class="cls-3"/><path d="M157.07 46.87h-63.3c5.13-5.53 9.3-9.93 13.37-14.43 2.59-2.86 5.92-5.09 7.59-8.75h65.96c-8.46 8.3-16.04 15.74-23.62 23.18Z" class="cls-2"/></g></g></svg>
