<?xml version="1.0" encoding="UTF-8"?><svg id="Layer_2" xmlns="http://www.w3.org/2000/svg" xmlns:xlink="http://www.w3.org/1999/xlink" viewBox="0 0 256 179.23"><defs><style>.cls-1{mask:url(#mask);}.cls-2{fill:#00a1e0;}.cls-2,.cls-3,.cls-4{fill-rule:evenodd;}.cls-3{fill:#fff;}.cls-4{fill:#fffffe;}</style><mask id="mask" y="-.05" width="256.15" height="179.28" maskUnits="userSpaceOnUse"><g id="b"><path id="a" class="cls-3" d="M.28-.05h255.87V178.68H.28V-.05Z"/></g></mask></defs><g id="Salesforce_Commerce_Cloud"><g><g class="cls-1"><path class="cls-2" d="M106.52,19.52c8.26-8.6,19.75-13.92,32.45-13.92,16.93,0,31.61,9.41,39.51,23.42,7.01-3.14,14.61-4.75,22.29-4.75,30.48,0,55.22,24.93,55.22,55.69s-24.74,55.69-55.22,55.69c-3.73,0-7.36-.37-10.91-1.08-6.91,12.32-20.13,20.7-35.18,20.7-6.13,.01-12.18-1.38-17.69-4.06-7.01,16.46-23.33,28.03-42.33,28.03s-36.69-12.51-43.18-30.1c-2.89,.61-5.83,.92-8.79,.91C19.1,150.04,0,130.66,0,106.86c0-15.99,8.6-29.91,21.35-37.44-2.71-6.23-4.1-12.96-4.09-19.75C17.26,22.2,39.56,0,67.02,0c16.09,0,30.48,7.67,39.51,19.57"/></g><path class="cls-4" d="M37.29,92.89c-.16,.42,.06,.51,.11,.58,.48,.35,.97,.6,1.46,.88,2.62,1.38,5.08,1.79,7.66,1.79,5.25,0,8.51-2.79,8.51-7.29v-.09c0-4.16-3.69-5.67-7.13-6.75l-.45-.15c-2.61-.84-4.85-1.58-4.85-3.29v-.09c0-1.47,1.32-2.55,3.35-2.55,2.26,0,4.95,.75,6.67,1.7,0,0,.51,.33,.7-.16,.1-.27,.98-2.62,1.07-2.88,.1-.28-.08-.48-.25-.59-1.98-1.2-4.7-2.02-7.53-2.02h-.52c-4.81,0-8.17,2.91-8.17,7.07v.09c0,4.38,3.71,5.81,7.17,6.8l.56,.17c2.52,.78,4.7,1.45,4.7,3.22v.09c0,1.63-1.42,2.84-3.7,2.84-.89,0-3.71-.02-6.76-1.95-.37-.22-.58-.37-.87-.54-.15-.09-.53-.26-.69,.24l-1.03,2.88m76.85,0c-.16,.42,.06,.51,.11,.58,.48,.35,.97,.6,1.46,.88,2.62,1.38,5.08,1.79,7.66,1.79,5.25,0,8.51-2.79,8.51-7.29v-.09c0-4.16-3.68-5.67-7.13-6.75l-.45-.15c-2.61-.84-4.85-1.58-4.85-3.29v-.09c0-1.47,1.32-2.55,3.35-2.55,2.26,0,4.94,.75,6.67,1.7,0,0,.51,.33,.7-.16,.1-.27,.98-2.62,1.06-2.88,.1-.28-.08-.48-.25-.59-1.98-1.2-4.7-2.02-7.53-2.02h-.52c-4.81,0-8.17,2.91-8.17,7.07v.09c0,4.38,3.71,5.81,7.17,6.8l.56,.17c2.53,.78,4.7,1.45,4.7,3.22v.09c0,1.63-1.42,2.84-3.7,2.84-.89,0-3.72-.02-6.76-1.95-.37-.22-.59-.36-.87-.54-.1-.06-.54-.23-.69,.24l-1.03,2.88m52.49-8.8c0,2.54-.47,4.54-1.4,5.96-.93,1.4-2.32,2.09-4.27,2.09s-3.34-.68-4.25-2.08c-.92-1.41-1.38-3.42-1.38-5.96s.47-4.53,1.38-5.94c.91-1.39,2.3-2.06,4.25-2.06s3.35,.67,4.27,2.06c.93,1.4,1.4,3.4,1.4,5.94m4.38-4.71c-.43-1.46-1.1-2.74-1.99-3.81-.89-1.07-2.02-1.94-3.37-2.56-1.34-.63-2.92-.94-4.7-.94s-3.36,.32-4.7,.94c-1.34,.62-2.47,1.49-3.37,2.56-.89,1.07-1.56,2.35-1.99,3.81-.43,1.45-.65,3.03-.65,4.71s.22,3.26,.65,4.71c.43,1.46,1.1,2.74,1.99,3.81,.89,1.07,2.03,1.93,3.37,2.54,1.35,.61,2.93,.92,4.7,.92s3.36-.31,4.69-.92c1.34-.61,2.47-1.47,3.37-2.54,.89-1.07,1.56-2.35,1.99-3.81,.43-1.45,.64-3.03,.64-4.71s-.22-3.26-.64-4.71m36.03,12.04c-.14-.43-.56-.27-.56-.27-.64,.24-1.32,.47-2.04,.58-.73,.11-1.54,.17-2.4,.17-2.12,0-3.81-.63-5.01-1.88-1.21-1.25-1.89-3.26-1.88-5.99,0-2.48,.61-4.35,1.68-5.78,1.06-1.41,2.7-2.14,4.86-2.14,1.81,0,3.19,.21,4.64,.66,0,0,.34,.15,.51-.3,.38-1.06,.67-1.82,1.08-2.99,.12-.33-.17-.48-.27-.52-.57-.22-1.91-.59-2.93-.74-.95-.14-2.05-.22-3.29-.22-1.84,0-3.48,.32-4.88,.94-1.4,.62-2.59,1.49-3.53,2.56s-1.66,2.35-2.14,3.81c-.48,1.45-.71,3.04-.71,4.72,0,3.63,.98,6.58,2.92,8.73,1.94,2.16,4.85,3.25,8.65,3.25,2.25,0,4.55-.45,6.21-1.11,0,0,.32-.15,.18-.52l-1.08-2.97m7.67-9.78c.21-1.41,.6-2.59,1.2-3.5,.91-1.39,2.3-2.15,4.24-2.15s3.24,.77,4.16,2.15c.61,.92,.88,2.14,.98,3.5h-10.58Zm14.77-3.1c-.37-1.4-1.3-2.82-1.9-3.47-.96-1.03-1.89-1.75-2.82-2.14-1.34-.57-2.79-.87-4.25-.86-1.85,0-3.54,.31-4.9,.95-1.36,.64-2.51,1.51-3.41,2.61-.9,1.09-1.58,2.38-2.01,3.86-.43,1.46-.65,3.06-.65,4.73s.23,3.3,.67,4.74c.45,1.45,1.18,2.72,2.15,3.77,.98,1.06,2.23,1.89,3.73,2.47,1.5,.58,3.31,.88,5.39,.87,4.29-.01,6.55-.97,7.47-1.49,.16-.09,.32-.25,.13-.71l-.97-2.72c-.15-.41-.56-.26-.56-.26-1.06,.4-2.57,1.11-6.1,1.1-2.3,0-4.01-.68-5.08-1.75-1.09-1.09-1.64-2.68-1.72-4.94h14.86s.39,0,.43-.37c.02-.16,.51-3.05-.44-6.39h-.02Zm-133.58,3.1c.21-1.41,.6-2.59,1.2-3.5,.91-1.39,2.3-2.15,4.24-2.15s3.24,.77,4.16,2.15c.61,.92,.88,2.14,.98,3.5h-10.58Zm14.77-3.1c-.37-1.4-1.3-2.82-1.9-3.47-.96-1.03-1.89-1.75-2.82-2.14-1.34-.57-2.79-.87-4.25-.86-1.85,0-3.54,.31-4.9,.95-1.36,.64-2.51,1.51-3.41,2.61-.9,1.09-1.58,2.38-2.01,3.86-.43,1.46-.65,3.06-.65,4.73s.22,3.3,.67,4.74c.45,1.45,1.18,2.72,2.14,3.77,.98,1.06,2.23,1.89,3.73,2.47,1.5,.58,3.3,.88,5.39,.87,4.29-.01,6.55-.97,7.47-1.49,.16-.09,.32-.25,.13-.71l-.97-2.72c-.15-.41-.56-.26-.56-.26-1.06,.4-2.57,1.11-6.1,1.1-2.3,0-4.01-.68-5.08-1.75-1.09-1.09-1.64-2.68-1.72-4.94h14.86s.39,0,.43-.37c.02-.16,.51-3.05-.44-6.39h-.01Zm-46.85,12.79c-.58-.46-.66-.58-.86-.88-.29-.45-.44-1.1-.44-1.93,0-1.3,.43-2.24,1.33-2.87,0,0,1.28-1.11,4.31-1.07,1.35,.02,2.69,.14,4.03,.34v6.74h0s-1.88,.41-4.01,.53c-3.02,.18-4.36-.87-4.35-.87h0Zm5.91-10.45c-.6-.04-1.38-.07-2.31-.07-1.27,0-2.5,.16-3.65,.47-1.16,.31-2.2,.8-3.09,1.44-.9,.64-1.63,1.48-2.15,2.45-.53,.98-.79,2.13-.79,3.42s.23,2.46,.68,3.39c.44,.92,1.11,1.72,1.94,2.32,.82,.6,1.84,1.04,3.02,1.31,1.17,.27,2.48,.4,3.93,.4,1.52,0,3.04-.13,4.51-.38,1.25-.22,2.49-.46,3.73-.73,.49-.11,1.04-.26,1.04-.26,.37-.09,.34-.49,.34-.49v-13.55c0-2.97-.8-5.18-2.37-6.55-1.56-1.36-3.85-2.05-6.81-2.05-1.11,0-2.91,.15-3.98,.37,0,0-3.24,.63-4.57,1.67,0,0-.29,.18-.13,.59l1.05,2.82c.13,.37,.49,.24,.49,.24,0,0,.11-.04,.24-.12,2.85-1.55,6.46-1.51,6.46-1.51,1.6,0,2.84,.32,3.67,.96,.81,.62,1.22,1.56,1.22,3.54v.63c-1.27-.18-2.45-.29-2.45-.29v-.03Zm119.45-7.65c.09-.2,0-.44-.21-.53h-.01c-.25-.1-1.51-.37-2.48-.43-1.86-.12-2.9,.2-3.83,.62-.92,.41-1.94,1.08-2.5,1.85v-1.81c0-.25-.18-.45-.43-.45h-3.8c-.25,0-.43,.2-.43,.45v22.11c0,.25,.2,.45,.45,.45h3.89c.25,0,.45-.2,.45-.45v-11.1c0-1.49,.16-2.96,.49-3.89,.32-.92,.76-1.66,1.3-2.18,.51-.51,1.14-.89,1.83-1.1,.65-.19,1.32-.28,1.99-.28,.78,0,1.63,.2,1.63,.2,.29,.03,.44-.14,.54-.4,.25-.68,.98-2.71,1.12-3.11"/><path class="cls-4" d="M152.81,63.02c-.48-.15-.97-.26-1.47-.35-.67-.11-1.34-.16-2.02-.16-2.68,0-4.8,.76-6.28,2.26-1.47,1.49-2.48,3.75-2.98,6.73l-.18,1.01h-3.37s-.41-.02-.5,.43l-.55,3.09c-.04,.3,.09,.48,.48,.48h3.28l-3.33,18.57c-.26,1.5-.56,2.73-.89,3.66-.33,.92-.64,1.61-1.03,2.11-.38,.48-.74,.84-1.36,1.05-.51,.17-1.1,.25-1.75,.25-.36,0-.84-.06-1.19-.13-.35-.07-.54-.15-.8-.26,0,0-.38-.15-.54,.24-.12,.32-1,2.72-1.1,3.02-.11,.29,.04,.52,.23,.59,.44,.16,.76,.26,1.36,.4,.83,.19,1.52,.21,2.17,.21,1.37,0,2.61-.19,3.64-.56,1.04-.38,1.94-1.03,2.74-1.91,.86-.95,1.41-1.95,1.93-3.32,.51-1.35,.95-3.03,1.3-4.99l3.34-18.92h4.89s.41,.02,.5-.43l.55-3.09c.04-.3-.09-.48-.48-.48h-4.74c.02-.11,.24-1.78,.78-3.35,.23-.67,.67-1.21,1.04-1.58,.35-.35,.77-.62,1.24-.77,.52-.16,1.05-.24,1.59-.23,.45,0,.89,.05,1.22,.12,.46,.1,.64,.15,.76,.19,.48,.15,.55,0,.64-.23l1.13-3.12c.12-.33-.17-.48-.27-.52m-66.29,32.09c0,.25-.18,.45-.43,.45h-3.93c-.25,0-.43-.2-.43-.45v-31.67c0-.25,.18-.45,.43-.45h3.93c.25,0,.43,.2,.43,.45v31.67"/></g></g></svg>