<?xml version="1.0" encoding="utf-8"?>
<!-- Generator: Adobe Illustrator 26.3.1, SVG Export Plug-In . SVG Version: 6.00 Build 0)  -->
<svg version="1.1" id="Layer_2_00000140728266497402148300000001657569284287554187_"
	 xmlns="http://www.w3.org/2000/svg" xmlns:xlink="http://www.w3.org/1999/xlink" x="0px" y="0px" viewBox="0 0 221.6 252"
	 style="enable-background:new 0 0 221.6 252;" xml:space="preserve">
<style type="text/css">
	.st0{opacity:0.7;fill:#F03E2F;enable-background:new    ;}
	.st1{opacity:0.5;fill:#F03E2F;enable-background:new    ;}
	.st2{fill:#F03E2F;}
</style>
<path class="st0" d="M161.7,119.2v25.9h-8.4v-21.5C153.3,123.6,161.7,119.2,161.7,119.2z M47.8,145.8l19.9-10.4l-2.4-6.4l-13.1,6.1
	C52.1,135.2,47.8,145.8,47.8,145.8z"/>
<path class="st1" d="M153.3,123.6l21.6-11.1l-3.7-6.1l-17.9,8.8C153.3,115.2,153.3,123.6,153.3,123.6z"/>
<path class="st0" d="M92.4,117.1v28h-8.1v-39.8L92.4,117.1z"/>
<path class="st1" d="M60,115.6l-12.2,30.2l-6.4-5.4l14.7-35C56.1,105.4,60,115.6,60,115.6z"/>
<path class="st2" d="M56.1,105.4h8.4L80,145.1h-8.6L56.1,105.4z M93.6,105.4l17.9,27.2v12.6l-27.3-39.8H93.6z M135.3,105.4h-8.4
	v39.8h8.4V105.4z M153.3,112.5h-13.1v-7.2h30.3l4.3,7.3h-21.5V112.5z"/>
<path class="st1" d="M199.8,130.1v15h-8.4v-15"/>
<path class="st2" d="M191.4,130.1l14.2-24.7h8.9l-14.7,24.7H191.4z"/>
<path class="st0" d="M191.4,130.1l-14.6-24.7h9.1l9.9,17L191.4,130.1z"/>
<path class="st2" d="M9.9,109.9c0,5.5,3.5,8.9,10.5,10.6l7.4,1.7c6.6,1.5,10.6,5.2,10.6,11.2c0,2.7-0.8,5.2-2.4,7.3
	c0-6-3.1-9.2-10.9-11.2l-7.3-1.7c-5.8-1.3-10.3-4.4-10.3-10.9C7.5,114.4,8.3,111.9,9.9,109.9"/>
<path class="st0" d="M111.5,130.4v-25.1h8.1v39.8h-8.1V130.4z M31.3,131.9c3.1,2,4.5,4.7,4.5,8.8c-2.7,3.2-7.2,5.1-12.6,5.1
	c-9,0-15.4-4.4-16.8-12h8.7c1.2,3.5,4,5.1,8.1,5.1C28.1,138.9,31.3,136.3,31.3,131.9z M14.5,118.2c-1.4-0.8-2.7-2.1-3.5-3.5
	c-0.8-1.5-1.2-3.1-1.2-4.7c2.5-3.4,6.9-5.3,12.2-5.3c9.2,0,14.6,4.9,15.9,11.6h-8.4c-0.9-2.7-3.2-4.7-7.5-4.7
	C17.7,111.5,14.6,114,14.5,118.2"/>
</svg>
