<svg xmlns="http://www.w3.org/2000/svg" viewBox="0 0 250 123.72"><path fill="#014185" d="M0 123.72h126.22L250 0H0v123.72"/><path fill="#fff" fill-rule="evenodd" d="M148.24 23.25h-24.46v58.52l-21.53-58.52H81.21L62.62 72.19C60.66 59.86 47.94 55.6 37.67 52.41c-6.36-2.14-13.7-5.29-13.21-8.74 0-2.86 3.42-5.48 10.76-5.09 4.89.25 9.3.66 18.1 4.85l8.81-14.91c-8.32-4.03-19.08-6.58-27.89-6.59-10.76 0-19.57 3.39-24.95 9-3.42 3.9-5.87 8.86-5.87 14.35 0 7.56 2.94 12.92 8.32 17.19 5.38 3.6 11.25 5.94 17.12 7.66 6.85 2.12 12.23 3.95 12.23 7.89 0 1.45-.49 2.77-1.47 3.84-1.96 1.76-4.4 2.42-8.32 2.5-6.85.13-11.74-.96-20.06-5.82L3.41 93.63c8.32 4.68 18.1 7.43 27.89 7.43h1.47c8.32-.17 15.66-2.64 21.04-7.13.49-.26.49-.51.98-.75l-2.45 6.57h22.5l3.42-11.39c3.91 1.31 8.32 2.07 13.21 2.07s8.81-.74 12.72-1.98l3.91 11.3h36.2V76.12h8.32c19.08 0 30.33-9.79 30.33-26.21 0-18.28-10.76-26.67-34.74-26.67Zm-56.75 50.1c-2.94 0-5.38-.51-7.83-1.4l7.83-24.62 7.83 24.7c-2.45.84-4.89 1.32-7.83 1.32Zm58.22-14.16h-5.38V39.34h5.38c7.34 0 13.21 2.4 13.21 9.82s-5.87 10.02-13.21 10.02"/></svg>
