<?xml version="1.0" encoding="UTF-8"?><svg id="Layer_2" xmlns="http://www.w3.org/2000/svg" viewBox="0 0 250.06 57.77"><defs><style>.cls-1{fill:#00e48c;}.cls-2{fill:#313130;}</style></defs><g id="Scayle"><g><g><polygon class="cls-2" points="179.66 29.77 179.66 1.62 172.33 1.62 172.33 36.18 195.22 36.18 195.22 29.77 179.66 29.77"/><path class="cls-2" d="M14.65,37.21c-7.33,0-12.75-3.73-14.65-8.61l6.17-3.33c1.36,3.19,4.57,5.82,8.69,5.82,4.42,0,6.27-2.18,6.27-4.12,0-6.24-19.89-3.56-19.89-15.94C1.24,4.55,6.98,.59,13.95,.59c6.13,0,10.81,3.01,13.31,7.89l-5.94,3.2c-1.34-2.6-3.64-4.96-7.38-4.96-3.09,0-5.36,1.8-5.36,3.79,0,6.54,19.89,3.72,19.89,16.19,0,6.52-5.9,10.5-13.83,10.5"/><path class="cls-2" d="M59.49,30.87c3.15,0,5.99-1.46,7.99-3.77l4.84,4.97c-3.33,3.18-7.85,5.14-12.84,5.14-10.65,0-18.52-8.28-18.52-18.31S48.83,.59,59.49,.59c4.83,0,9.23,1.85,12.53,4.86l-4.75,5.1c-1.99-2.17-4.74-3.53-7.78-3.53-6.24,0-11.01,5.47-11.01,11.93,0,6.46,4.77,11.93,11.01,11.93"/><polygon class="cls-1" points="159.62 1.62 146.77 28.36 146.77 36.18 138.83 36.18 138.83 28.36 125.98 1.62 134.53 1.62 142.99 20.08 151.45 1.62 159.62 1.62"/><path class="cls-2" d="M239.99,4.94c0-2.73,2.25-4.94,5.04-4.94s5.04,2.21,5.04,4.94-2.25,4.94-5.04,4.94c-2.78,0-5.04-2.21-5.04-4.94m5.35-1.4l1.54-1.54c-.53-.35-1.17-.55-1.85-.55-1.89,0-3.42,1.56-3.42,3.49s1.53,3.49,3.42,3.49,3.42-1.56,3.42-3.49c0-.67-.18-1.29-.5-1.83l-1.52,1.52-1.09-1.09Z"/><polygon class="cls-1" points="103.5 30.11 103.5 23.86 107.28 23.86 101.16 10.5 95.03 23.86 98.81 23.86 98.81 30.11 92.16 30.11 89.38 36.18 81.28 36.18 97.89 1.62 104.81 1.62 121.42 36.18 112.93 36.18 110.15 30.11 103.5 30.11"/><polygon class="cls-2" points="214.35 29.83 214.35 21.72 229.65 21.72 229.65 15.46 214.35 15.46 214.35 7.97 231.04 7.97 231.04 1.62 207.09 1.62 207.09 36.18 231.44 36.18 231.44 29.83 214.35 29.83"/></g><g><polygon class="cls-1" points="37.24 49.99 35.08 53.38 32.93 49.99 31.35 49.99 34.39 54.62 34.39 57.64 35.74 57.64 35.74 54.59 38.78 49.99 37.24 49.99"/><polygon class="cls-1" points="191.61 49.99 191.61 57.64 197.34 57.64 197.34 56.44 192.96 56.44 192.96 54.38 196.8 54.38 196.8 53.18 192.96 53.18 192.96 51.19 197.29 51.19 197.29 49.99 191.61 49.99"/><polygon class="cls-1" points="187.39 49.99 187.39 55.28 183.29 49.99 182.04 49.99 182.04 57.64 183.36 57.64 183.36 52.2 187.58 57.64 188.71 57.64 188.71 49.99 187.39 49.99"/><rect class="cls-1" x="177.78" y="49.99" width="1.34" height="7.65"/><path class="cls-1" d="M175.08,56.58v-3.21h-3.26v1.17h1.96v1.43c-.47,.35-1.13,.58-1.85,.58-1.56,0-2.6-1.16-2.6-2.74,0-1.49,1.07-2.71,2.48-2.71,.97,0,1.55,.32,2.14,.82l.85-1.02c-.79-.67-1.61-1.04-2.94-1.04-2.31,0-3.95,1.81-3.95,3.97s1.57,3.95,3.97,3.95c1.36,0,2.44-.55,3.19-1.19"/><polygon class="cls-1" points="164.06 49.99 164.06 55.28 159.96 49.99 158.71 49.99 158.71 57.64 160.03 57.64 160.03 52.2 164.26 57.64 165.38 57.64 165.38 49.99 164.06 49.99"/><polygon class="cls-1" points="150.44 49.99 150.44 57.64 156.16 57.64 156.16 56.44 151.78 56.44 151.78 54.38 155.62 54.38 155.62 53.18 151.78 53.18 151.78 51.19 156.11 51.19 156.11 49.99 150.44 49.99"/><polygon class="cls-1" points="138.01 49.99 138.01 57.64 143.74 57.64 143.74 56.44 139.36 56.44 139.36 54.38 143.19 54.38 143.19 53.18 139.36 53.18 139.36 51.19 143.68 51.19 143.68 49.99 138.01 49.99"/><path class="cls-1" d="M135.8,56.42l-.86-.87c-.66,.61-1.26,1-2.2,1-1.47,0-2.53-1.22-2.53-2.73s1.06-2.71,2.53-2.71c.87,0,1.53,.38,2.14,.95l.86-.99c-.73-.7-1.59-1.19-3-1.19-2.32,0-3.95,1.78-3.95,3.97s1.66,3.95,3.89,3.95c1.43,0,2.31-.53,3.11-1.36"/><polygon class="cls-1" points="112.17 49.99 112.17 57.64 117.9 57.64 117.9 56.44 113.51 56.44 113.51 54.38 117.35 54.38 117.35 53.18 113.51 53.18 113.51 51.19 117.84 51.19 117.84 49.99 112.17 49.99"/><polygon class="cls-1" points="107.83 49.99 105.5 53.61 103.17 49.99 101.74 49.99 101.74 57.64 103.06 57.64 103.06 52.18 105.46 55.76 105.5 55.76 107.91 52.15 107.91 57.64 109.26 57.64 109.26 49.99 107.83 49.99"/><path class="cls-1" d="M126.94,57.64l-2.07-2.9c1.07-.3,1.83-1.06,1.83-2.33,0-1.5-1.08-2.43-2.84-2.43h-3.41v7.65h1.34v-2.67h1.68l1.88,2.67h1.59Zm-1.61-5.15c0,.79-.61,1.29-1.57,1.29h-1.97v-2.57h1.96c1,0,1.59,.44,1.59,1.28"/><polygon class="cls-1" points="97.4 49.99 95.07 53.61 92.74 49.99 91.31 49.99 91.31 57.64 92.63 57.64 92.63 52.18 95.03 55.76 95.07 55.76 97.49 52.15 97.49 57.64 98.83 57.64 98.83 49.99 97.4 49.99"/><path class="cls-1" d="M79.05,56.42l-.86-.87c-.66,.61-1.26,1-2.2,1-1.47,0-2.52-1.22-2.52-2.73s1.06-2.71,2.52-2.71c.88,0,1.53,.38,2.14,.95l.86-.99c-.73-.7-1.59-1.19-3-1.19-2.32,0-3.95,1.78-3.95,3.97s1.66,3.95,3.89,3.95c1.43,0,2.31-.53,3.11-1.36"/><path class="cls-1" d="M56.73,49.99h-1.34v4.41c0,1.41-.73,2.13-1.92,2.13s-1.93-.77-1.93-2.19v-4.35h-1.34v4.41c0,2.22,1.27,3.37,3.26,3.37s3.29-1.15,3.29-3.43v-4.34h0Z"/><path class="cls-1" d="M88.78,53.8c0-2.16-1.64-3.95-3.99-3.95s-4.01,1.8-4.01,3.97,1.64,3.95,3.99,3.95,4.01-1.8,4.01-3.97m-1.41,.02c0,1.5-1.06,2.71-2.58,2.71s-2.6-1.24-2.6-2.73,1.06-2.71,2.58-2.71c1.52,0,2.6,1.24,2.6,2.73"/><path class="cls-1" d="M65.95,57.64l-2.07-2.9c1.07-.3,1.83-1.06,1.83-2.33,0-1.5-1.08-2.43-2.84-2.43h-3.41v7.65h1.34v-2.67h1.68l1.88,2.67h1.59Zm-1.61-5.15c0,.79-.61,1.29-1.57,1.29h-1.97v-2.57h1.96c1,0,1.59,.44,1.59,1.28"/><path class="cls-1" d="M47.77,53.8c0-2.16-1.64-3.95-3.99-3.95s-4.01,1.8-4.01,3.97,1.64,3.95,3.99,3.95,4.01-1.8,4.01-3.97m-1.41,.02c0,1.5-1.06,2.71-2.58,2.71s-2.6-1.24-2.6-2.73,1.06-2.71,2.58-2.71c1.52,0,2.6,1.24,2.6,2.73"/></g></g></g></svg>