<?xml version="1.0" encoding="utf-8"?>
<!-- Generator: Adobe Illustrator 26.3.1, SVG Export Plug-In . SVG Version: 6.00 Build 0)  -->
<svg version="1.1" id="Layer_2_00000140728266497402148300000001657569284287554187_"
	 xmlns="http://www.w3.org/2000/svg" xmlns:xlink="http://www.w3.org/1999/xlink" x="0px" y="0px" viewBox="0 0 221.6 252"
	 style="enable-background:new 0 0 221.6 252;" xml:space="preserve">
<style type="text/css">
	.st0{fill:#00A1DF;}
	.st1{fill:#FFFFFF;}
</style>
<path class="st0" d="M93,68.4c6.7-7,16-11.3,26.4-11.3c13.7,0,25.7,7.7,32.1,19c5.7-2.5,11.9-3.9,18.2-3.9
	c24.8,0,44.8,20.2,44.8,45.2c0,24.9-20.1,45.2-44.8,45.2c-3,0-6-0.3-8.9-0.9c-5.6,10-16.3,16.8-28.6,16.8c-5.2,0-10-1.2-14.4-3.3
	c-5.7,13.4-19,22.8-34.4,22.8c-16.1,0-29.8-10.2-35.1-24.5c-2.3,0.5-4.7,0.7-7.1,0.7c-19.2,0-34.7-15.7-34.7-35.1
	c0-13,7-24.3,17.3-30.4c-2.2-5-3.4-10.5-3.3-16c0-22.2,18.1-40.3,40.4-40.3C73.5,52.5,85.4,58.4,93,68.4z"/>
<path class="st1" d="M36.6,127.9c-0.1,0.4,0.1,0.5,0.1,0.5c0.4,0.3,0.8,0.5,1.2,0.7c2.1,1.1,4.2,1.4,6.2,1.4c4.2,0,6.9-2.3,6.9-5.9
	v-0.1c0-3.3-3-4.6-5.8-5.5l-0.4-0.1c-2.1-0.7-4-1.3-4-2.7v-0.1c0-1.2,1.1-2.1,2.7-2.1c1.8,0,4,0.6,5.4,1.4c0,0,0.5,0.3,0.5-0.1
	c0.1-0.2,0.8-2.2,0.9-2.3c0.1-0.2-0.1-0.4-0.2-0.5c-1.6-1-3.8-1.6-6.1-1.6h-0.5c-3.9,0-6.6,2.3-6.6,5.7v0.2c0,3.5,3,4.7,5.8,5.5
	l0.5,0.2c2.1,0.6,3.8,1.2,3.8,2.6v0.1c0,1.4-1.2,2.3-3,2.3c-0.7,0-3,0-5.5-1.5c-0.3-0.2-0.5-0.3-0.7-0.5c-0.1-0.1-0.5-0.2-0.5,0.2
	C37.4,125.7,36.6,127.9,36.6,127.9z M99.1,127.9c-0.1,0.4,0.1,0.5,0.1,0.5c0.4,0.3,0.8,0.5,1.2,0.7c2.1,1.1,4.2,1.4,6.2,1.4
	c4.2,0,6.9-2.3,6.9-5.9v-0.1c0-3.3-3-4.6-5.8-5.5l-0.4-0.1c-2.1-0.7-4-1.3-4-2.7v-0.1c0-1.2,1.1-2.1,2.7-2.1c1.8,0,4,0.6,5.4,1.4
	c0,0,0.5,0.3,0.5-0.1c0.1-0.2,0.8-2.2,0.9-2.3c0.1-0.2-0.1-0.4-0.2-0.5c-1.6-1-3.8-1.6-6.1-1.6H106c-3.9,0-6.6,2.3-6.6,5.7v0.2
	c0,3.5,3,4.7,5.8,5.5l0.5,0.2c2.1,0.6,3.8,1.2,3.8,2.6v0.1c0,1.4-1.2,2.3-3,2.3c-0.7,0-3,0-5.5-1.5c-0.3-0.2-0.5-0.3-0.7-0.5
	c-0.1-0.1-0.5-0.2-0.5,0.2C99.8,125.7,99.1,127.9,99.1,127.9z M145.2,117c-0.4-1.2-0.9-2.3-1.6-3.1c-0.7-0.9-1.6-1.5-2.7-2.1
	c-1.1-0.5-2.3-0.7-3.8-0.7c-1.4,0-2.7,0.3-3.8,0.7c-1.1,0.5-2,1.2-2.7,2.1s-1.3,2-1.6,3.1c-0.4,1.2-0.6,2.5-0.5,3.8
	c0,1.4,0.2,2.6,0.5,3.8c0.4,1.2,0.9,2.3,1.6,3.1c0.7,0.9,1.6,1.5,2.7,2.1c1.1,0.5,2.3,0.7,3.8,0.7c1.4,0,2.7-0.3,3.8-0.7
	c1.1-0.5,2-1.2,2.7-2.1s1.3-2,1.6-3.1c0.4-1.2,0.5-2.4,0.5-3.8S145.5,118.2,145.2,117L145.2,117z M141.6,120.8
	c0,2.1-0.4,3.7-1.2,4.9c-0.7,1.2-1.9,1.7-3.4,1.7c-1.6,0-2.7-0.5-3.4-1.7s-1.1-2.8-1.1-4.9s0.4-3.7,1.1-4.8c0.7-1.1,1.9-1.7,3.4-1.7
	s2.7,0.5,3.4,1.7C141.3,117.1,141.6,118.7,141.6,120.8z M174.4,126.8c-0.1-0.4-0.5-0.2-0.5-0.2c-0.5,0.2-1.1,0.3-1.6,0.5
	c-0.6,0.1-1.3,0.2-2,0.2c-1.7,0-3.1-0.5-4.1-1.5s-1.5-2.6-1.5-4.9c0-2,0.5-3.5,1.4-4.7s2.2-1.7,4-1.7c1.4,0,2.6,0.2,3.8,0.5
	c0,0,0.3,0.1,0.5-0.3c0.3-0.9,0.5-1.4,0.9-2.4c0.1-0.3-0.2-0.4-0.2-0.5c-0.8-0.3-1.6-0.5-2.3-0.6c-0.8-0.1-1.6-0.2-2.7-0.2
	c-1.5,0-2.8,0.3-4,0.7c-1.1,0.5-2.1,1.2-2.9,2.1c-0.7,0.9-1.4,1.9-1.7,3.1c-0.4,1.2-0.6,2.5-0.5,3.8c0,3,0.8,5.3,2.3,7
	c1.5,1.7,4,2.6,7,2.6c1.8,0,3.7-0.4,5.1-0.9c0,0,0.3-0.1,0.2-0.5C175.5,128.9,174.4,126.8,174.4,126.8z M192.6,116.3
	c-0.3-1.2-1.1-2.3-1.5-2.8c-0.8-0.8-1.5-1.4-2.3-1.7c-1.1-0.5-2.3-0.7-3.4-0.7c-1.5,0-2.9,0.3-4,0.8s-2.1,1.3-2.8,2.1
	c-0.7,0.9-1.3,1.9-1.6,3.2c-0.4,1.2-0.5,2.4-0.5,3.9c0,1.4,0.2,2.7,0.5,3.9c0.4,1.2,1,2.2,1.7,3.1c0.8,0.9,1.8,1.5,3.1,2
	c1.2,0.5,2.7,0.7,4.3,0.7c3.5,0,5.3-0.8,6.1-1.2c0.1-0.1,0.3-0.2,0.1-0.5l-0.8-2.2c-0.1-0.4-0.5-0.2-0.5-0.2c-0.9,0.4-2.1,0.9-5,0.9
	c-1.9,0-3.3-0.5-4.2-1.4s-1.4-2.2-1.4-4h12c0,0,0.4,0,0.4-0.3C192.9,121.3,193.4,119,192.6,116.3z M180.7,118.8
	c0.2-1.2,0.5-2.1,1-2.8c0.7-1.1,1.9-1.7,3.4-1.7s2.6,0.6,3.3,1.7c0.5,0.7,0.7,1.7,0.8,2.8H180.7z M96.2,116.3
	c-0.3-1.2-1.1-2.3-1.5-2.8c-0.8-0.8-1.5-1.4-2.3-1.7c-1.1-0.5-2.3-0.7-3.4-0.7c-1.5,0-2.9,0.3-4,0.8s-2.1,1.3-2.8,2.1
	c-0.8,0.9-1.3,2-1.6,3.2c-0.4,1.2-0.5,2.4-0.5,3.9c0,1.4,0.2,2.7,0.5,3.9c0.4,1.2,1,2.2,1.7,3.1c0.8,0.9,1.8,1.5,3.1,2
	c1.2,0.5,2.7,0.7,4.3,0.7c3.5,0,5.3-0.8,6.1-1.2c0.1-0.1,0.3-0.2,0.1-0.5l-0.8-2.2c-0.1-0.4-0.5-0.2-0.5-0.2c-0.9,0.4-2.1,0.9-5,0.9
	c-1.9,0-3.3-0.5-4.2-1.4c-0.9-0.9-1.4-2.2-1.4-4h12c0,0,0.4,0,0.4-0.3C96.5,121.3,96.9,119,96.2,116.3L96.2,116.3z M84.2,118.8
	c0.2-1.2,0.5-2.1,1-2.8c0.7-1.1,1.9-1.7,3.4-1.7c1.6,0,2.6,0.6,3.3,1.7c0.5,0.7,0.7,1.7,0.8,2.8H84.2z M62.9,118.3
	c-0.5,0-1.1-0.1-1.9-0.1c-1,0-2,0.1-3,0.4c-0.9,0.3-1.8,0.6-2.5,1.2c-0.7,0.5-1.4,1.2-1.7,2c-0.5,0.8-0.6,1.7-0.6,2.8
	c0,1.1,0.2,2,0.5,2.7c0.4,0.7,0.9,1.4,1.5,1.9s1.5,0.8,2.4,1.1c0.9,0.2,2,0.4,3.2,0.4c1.3,0,2.4-0.1,3.6-0.3s2.6-0.5,3.1-0.6
	c0.4-0.1,0.8-0.2,0.8-0.2c0.3-0.1,0.3-0.4,0.3-0.4v-11c0-2.4-0.6-4.2-1.9-5.3c-1.3-1.1-3.2-1.6-5.5-1.6c-0.9,0-2.3,0.1-3.3,0.3
	c0,0-2.6,0.5-3.7,1.4c0,0-0.3,0.2-0.1,0.5l0.8,2.3c0.1,0.3,0.4,0.2,0.4,0.2s0.1,0,0.2-0.1c2.3-1.3,5.2-1.3,5.2-1.3
	c1.3,0,2.3,0.3,3,0.8c0.6,0.5,1,1.3,1,2.9v0.5C64.1,118.4,63.5,118.3,62.9,118.3L62.9,118.3z M58.1,126.8c-0.5-0.4-0.5-0.5-0.7-0.7
	c-0.3-0.4-0.4-0.9-0.4-1.5c0-1.1,0.4-1.8,1.1-2.3c0,0,1-0.9,3.5-0.9c1.7,0,3.3,0.3,3.3,0.3v5.5c0,0-1.5,0.4-3.3,0.5
	C59.2,127.6,58.1,126.8,58.1,126.8z M160.1,112c0.1-0.3-0.1-0.4-0.2-0.5c-0.2-0.1-1.3-0.3-2-0.4c-1.5-0.1-2.3,0.2-3.1,0.5
	c-0.7,0.4-1.5,0.9-2.1,1.5v-1.4c0-0.2-0.2-0.3-0.4-0.4h-3.1c-0.2,0-0.3,0.2-0.4,0.4v18c0,0.2,0.2,0.4,0.4,0.4h3.2
	c0.2,0,0.3-0.2,0.4-0.4v-8.9c0-1.2,0.1-2.4,0.4-3.2c0.3-0.7,0.6-1.4,1.1-1.8c0.5-0.5,0.9-0.7,1.4-0.9c0.5-0.2,1.2-0.3,1.6-0.3
	c0.6,0,1.4,0.2,1.4,0.2c0.3,0,0.4-0.1,0.5-0.4C159.4,114,160,112.4,160.1,112L160.1,112z"/>
<path class="st1" d="M130.4,103.7c-0.4-0.1-0.7-0.2-1.2-0.3c-0.5-0.1-1-0.1-1.6-0.1c-2.2,0-3.9,0.6-5.1,1.8c-1.2,1.2-2,3.1-2.4,5.4
	l-0.2,0.8h-2.7c0,0-0.4,0-0.4,0.4l-0.5,2.5c0,0.3,0.1,0.4,0.4,0.4h2.6l-2.7,15.1c-0.2,1.2-0.5,2.2-0.7,3c-0.3,0.7-0.5,1.3-0.8,1.7
	s-0.6,0.7-1.1,0.8c-0.5,0.2-0.9,0.2-1.4,0.2c-0.3,0-0.7-0.1-1-0.1c-0.3-0.1-0.5-0.1-0.6-0.2c0,0-0.3-0.1-0.5,0.2
	c-0.1,0.3-0.8,2.2-0.9,2.4c-0.1,0.3,0,0.5,0.2,0.5c0.4,0.1,0.6,0.2,1.1,0.4c0.6,0.2,1.3,0.2,1.8,0.2c1.1,0,2.1-0.2,3-0.5
	c0.8-0.3,1.5-0.8,2.3-1.5c0.7-0.8,1.2-1.6,1.5-2.7c0.5-1.1,0.8-2.4,1.1-4.1l2.7-15.4h4c0,0,0.4,0,0.4-0.4l0.5-2.5
	c0-0.3-0.1-0.4-0.4-0.4h-3.9c0-0.1,0.2-1.4,0.6-2.7c0.2-0.5,0.5-1,0.8-1.3s0.6-0.5,1-0.6s0.8-0.2,1.3-0.2c0.4,0,0.7,0,1,0.1
	c0.4,0.1,0.5,0.1,0.6,0.2c0.4,0.1,0.5,0,0.5-0.2l0.9-2.5C130.7,103.9,130.4,103.7,130.4,103.7z M76.6,129.8c0,0.2-0.2,0.3-0.4,0.4
	H73c-0.2,0-0.3-0.2-0.4-0.4v-25.7c0-0.2,0.2-0.4,0.4-0.4h3.2c0.2,0,0.4,0.2,0.4,0.4C76.6,104.1,76.6,129.8,76.6,129.8z"/>
</svg>
