<svg xmlns="http://www.w3.org/2000/svg" xml:space="preserve" id="Layer_1" x="0" y="0" version="1.1" viewBox="0 0 90 90"><style>.st1{fill:#fff}</style><path fill="#02c652" d="M15.9 15.9C22 9.8 25.1 6.7 28.2 4.8a31.8 31.8 0 0 1 33.6 0c3.1 1.9 6.2 5 12.3 11.1 6.1 6.1 9.2 9.2 11.1 12.3a31.8 31.8 0 0 1 0 33.6c-1.9 3.1-5 6.2-11.1 12.3-6.1 6.1-9.2 9.2-12.3 11.1a31.8 31.8 0 0 1-33.6 0c-3.1-1.9-6.2-5-12.3-11.1C9.8 68 6.7 64.9 4.8 61.8a31.8 31.8 0 0 1 0-33.6c1.9-3.1 5-6.2 11.1-12.3z"/><path d="M57.8 31.2c3.5 0 6.4-2.9 6.4-6.4s-2.9-6.4-6.4-6.4c-3.5 0-6.4 2.9-6.4 6.4s2.9 6.4 6.4 6.4zM38.6 38.9c0-2.8-2.3-5.1-5.1-5.1h-7.7V53c0 10.6 8.6 19.2 19.2 19.2 1.3 0 2.6-.1 3.8-.4V59.3H45c-3.5 0-6.4-2.9-6.4-6.4v-14zM64.2 52.9c0 8.3-5.3 15.5-12.8 18.1V38.9c0-2.8 2.3-5.1 5.1-5.1h7.7v19.1z" class="st1"/></svg>
