<?xml version="1.0" encoding="UTF-8"?><svg id="Layer_2" xmlns="http://www.w3.org/2000/svg" viewBox="0 0 254.72 254.13"><defs><style>.cls-1{fill:#189eff;}</style></defs><g id="Shopware"><g id="_Gruppe_3"><path id="_Pfad_2" class="cls-1" d="M203.03,226.7c-11.05-8.29-27.42-14.6-44.58-21.31-20.52-7.89-43.99-16.97-61.35-30.97-19.73-15.78-29.39-35.71-29.39-60.76-.39-21.9,9.67-42.61,27.03-55.83,19.92-15.58,49.91-23.87,87-23.87,9.67,0,19.53,.59,29,1.78,.99,.2,1.97-.59,1.97-1.58,0-.59-.2-1.18-.59-1.58C159.83-14.37,79.53-10.03,32.58,42.05-14.37,94.13-10.03,174.62,42.05,221.57c23.28,20.91,53.66,32.55,85.03,32.55,27.22,.2,53.86-8.68,75.75-24.86,.39-.39,.79-.79,.79-1.38,.2-.2-.2-.79-.59-1.18Z"/><path id="_Pfad_3" class="cls-1" d="M254.12,115.64c0-.39-.2-.99-.59-1.18-26.63-22.09-47.94-30.97-74.18-30.97-13.81,0-24.66,2.76-31.76,8.29-6.12,4.54-9.47,11.64-9.47,19.14,0,21.9,26.63,31.76,57.6,43.4,15.98,5.92,32.35,12.03,47.54,20.52,.2,.2,.59,.2,.79,.2s.39,0,.59-.2c.59-.2,.99-.59,1.18-.99,5.92-14.8,8.88-30.58,8.88-46.56-.2-3.75-.2-7.69-.59-11.64Z"/></g></g></svg>