<?xml version="1.0" encoding="UTF-8"?><svg id="Layer_2" xmlns="http://www.w3.org/2000/svg" viewBox="0 0 221.59 252"><defs><style>.cls-1{fill:#fff;}.cls-2{fill:#95bf46;}.cls-3{fill:#5e8e3e;}</style></defs><g id="Shopify"><path class="cls-2" d="M194.09,49.07c-.17-1.27-1.28-1.97-2.2-2.04-.92-.08-20.28-1.51-20.28-1.51,0,0-13.45-13.35-14.93-14.83-1.48-1.48-4.36-1.03-5.48-.7-.16,.05-2.94,.9-7.53,2.32-4.49-12.93-12.42-24.81-26.38-24.81-.39,0-.78,.02-1.18,.04-3.97-5.25-8.88-7.53-13.13-7.53-32.5,0-48.03,40.63-52.9,61.27-12.63,3.91-21.6,6.7-22.75,7.06-7.05,2.21-7.27,2.43-8.2,9.08C18.44,82.43,0,225.07,0,225.07l143.72,26.93,77.87-16.85s-27.34-184.82-27.51-186.09h0Zm-58.37-14.31l-12.16,3.76c0-.86,0-1.7,0-2.62,0-8.04-1.12-14.51-2.91-19.64,7.19,.9,11.98,9.08,15.06,18.49Zm-23.98-16.9c2,5.01,3.3,12.19,3.3,21.89,0,.5,0,.95,0,1.41-7.91,2.45-16.5,5.11-25.12,7.78,4.84-18.66,13.9-27.68,21.83-31.08h0Zm-9.66-9.14c1.4,0,2.82,.48,4.17,1.41-10.42,4.9-21.58,17.25-26.29,41.9l-19.85,6.15c5.52-18.8,18.64-49.45,41.98-49.45h0Z"/><path class="cls-3" d="M191.88,47.02c-.92-.08-20.28-1.51-20.28-1.51,0,0-13.45-13.35-14.93-14.83-.55-.55-1.3-.83-2.08-.95l-10.87,222.28,77.87-16.84s-27.34-184.82-27.51-186.09c-.17-1.27-1.28-1.97-2.2-2.04"/><path class="cls-1" d="M117.29,90.05l-9.6,28.56s-8.41-4.49-18.73-4.49c-15.12,0-15.88,9.49-15.88,11.88,0,13.05,34.01,18.04,34.01,48.6,0,24.04-15.25,39.52-35.81,39.52-24.67,0-37.29-15.35-37.29-15.35l6.61-21.83s12.97,11.13,23.91,11.13c7.15,0,10.06-5.63,10.06-9.74,0-17.02-27.9-17.78-27.9-45.74,0-23.53,16.89-46.31,50.99-46.31,13.14,0,19.63,3.76,19.63,3.76"/></g></svg>