<?xml version="1.0" encoding="UTF-8"?><svg id="Layer_2" xmlns="http://www.w3.org/2000/svg" viewBox="0 0 147.25 254"><defs><style>.cls-1{fill:#06c;}.cls-2{fill:#9c0;}</style></defs><g id="Spree"><path class="cls-1" d="M70.03,194.44c0,6.94-5.63,12.57-12.57,12.57s-12.57-5.63-12.57-12.57,5.63-12.57,12.57-12.57,12.57,5.63,12.57,12.57"/><path class="cls-1" d="M122.87,194.44c0,6.94-5.63,12.57-12.57,12.57s-12.57-5.63-12.57-12.57,5.63-12.57,12.57-12.57,12.57,5.63,12.57,12.57"/><path class="cls-1" d="M114.92,169.31H52.84c-4.99,0-9.48-3-11.38-7.61l-16.35-39.59H12.31c-6.8,0-12.31-5.51-12.31-12.31s5.51-12.31,12.31-12.31h21.04c4.99,0,9.48,3.01,11.38,7.61l16.35,39.59h45.69l16.83-39.69c2.66-6.26,9.88-9.18,16.14-6.53,6.26,2.66,9.18,9.88,6.53,16.14l-20.01,47.2c-1.93,4.55-6.39,7.51-11.34,7.51"/><path class="cls-2" d="M128.68,56.63c-4.71-4.91-12.51-5.06-17.41-.35l-15.33,14.72V12.31c0-6.8-5.51-12.31-12.31-12.31s-12.31,5.51-12.31,12.31v58.39l-14.75-14.37c-4.87-4.74-12.67-4.64-17.41,.23-4.75,4.87-4.64,12.67,.23,17.41l35.66,34.73c.16,.16,.34,.3,.51,.45,.09,.08,.18,.16,.27,.24,.42,.34,.85,.66,1.31,.94,.06,.04,.13,.07,.2,.11,.44,.26,.9,.5,1.37,.7,.04,.02,.08,.04,.12,.06,.03,.01,.06,.02,.09,.03,.28,.12,.56,.22,.85,.31,.1,.04,.21,.08,.31,.11,.28,.08,.56,.15,.85,.22,.11,.03,.23,.06,.34,.08,.28,.06,.57,.09,.86,.13,.11,.01,.22,.04,.34,.05,.38,.04,.77,.06,1.15,.06,.01,0,.02,0,.04,0h0s.07,0,.1,0c.36,0,.72-.02,1.08-.05,.21-.02,.42-.06,.63-.09,.18-.03,.35-.04,.53-.08,.25-.05,.5-.12,.75-.18,.13-.04,.26-.06,.39-.1,.26-.08,.5-.17,.75-.26,.12-.04,.24-.08,.36-.13,.24-.1,.47-.21,.7-.32,.13-.06,.26-.12,.38-.18,.21-.11,.42-.24,.63-.36,.14-.08,.29-.16,.42-.26,.18-.12,.36-.25,.53-.38,.16-.12,.32-.23,.47-.35,.15-.12,.3-.26,.45-.39,.11-.1,.23-.19,.34-.3l36.17-34.73c4.91-4.71,5.06-12.51,.35-17.41"/><path class="cls-2" d="M85.53,254c-12.34,0-25.2-4.65-39.04-13.93-5.65-3.79-7.15-11.44-3.36-17.09,3.79-5.64,11.44-7.15,17.09-3.36,21.56,14.48,33.74,10.99,46.41,.67,5.27-4.29,13.03-3.5,17.32,1.77,4.29,5.27,3.5,13.03-1.78,17.32-11.96,9.74-24.03,14.61-36.65,14.61"/></g></svg>