<?xml version="1.0" encoding="UTF-8"?><svg id="Layer_2" xmlns="http://www.w3.org/2000/svg" viewBox="0 0 160.98 253.92"><defs><style>.cls-1{isolation:isolate;opacity:.7;}</style></defs><g id="Spryker"><g><path d="M88.01,237.51c-.63,.42-1.25,.84-1.98,1.36-.73,.52-1.36,1.04-2.09,1.57-.63,.52-1.04,1.15-1.46,1.77-.31,.63-.42,1.36-.21,2.09,0,.1,.1,.21,.1,.42l.1,.42,.1,.42,.1,.31c-.42,.73-.84,1.46-1.25,2.09-.31,.63-.73,1.25-1.15,1.77s-.94,.94-1.57,1.25c-.73,.31-1.46,.42-2.3,.42s-1.77-.21-2.61-.42c-.84-.31-1.67-.63-2.4-1.04-.84-.42-1.57-.94-2.3-1.46s-1.46-1.15-2.19-1.77c0-.1,0-.21-.1-.31s0-.21-.1-.31c-.1-.1,0-.21-.1-.31-.1-.1-.1-.21-.1-.31-.21-.63-.52-1.25-.84-1.77-.42-.52-.84-1.04-1.36-1.57-.52-.42-1.04-.84-1.57-1.25-.52-.42-1.15-.73-1.77-1.04h0l.1,.31c0,.1,.1,.21,.1,.31s.1,.21,.1,.31,.1,.21,.1,.31c.63,1.77,1.46,3.45,2.51,4.91,1.04,1.46,2.3,2.82,3.65,3.97,1.36,1.15,2.82,2.09,4.49,2.71,1.57,.73,3.24,1.15,5.01,1.25,1.67,.1,3.34-.21,4.8-.84,1.46-.63,2.82-1.67,3.86-2.92,1.15-1.36,1.98-3.03,2.4-4.8,.52-1.98,.52-4.07,0-6.16l-.1-1.67"/><path d="M19.84,152.32l-.52,.21-.52,.31-.52,.31-.52,.31c-.94,.63-1.88,1.25-2.71,1.88-.84,.63-1.67,1.36-2.4,2.19-.73,.84-1.46,1.77-2.09,2.71-.73,1.15-1.36,2.4-1.88,3.65,1.67-.21,3.34-.21,5.01,0,1.77,.21,3.45,.73,5.12,1.36,1.77,.73,3.55,1.67,5.22,2.71,1.88,1.25,3.65,2.61,5.32,4.07l-6.89-20.67-.63,.1-.63,.21-.63,.21-.73,.42"/><path d="M25.47,151.17l6.89,20.04,15.24,.21c-1.46-3.03-3.24-5.85-5.12-8.56-1.67-2.3-3.45-4.38-5.53-6.26-1.67-1.57-3.65-2.92-5.74-3.97-1.88-.84-3.76-1.36-5.74-1.46"/><path d="M34.45,177.58c2.51,3.03,4.8,6.16,6.89,9.5,2.4,3.76,4.59,7.73,6.47,11.8,2.09,4.38,4.07,8.98,5.85,13.99,1.88,5.01,3.55,10.34,5.12,15.97,.1-2.4,.1-4.91,.1-7.52s-.21-5.12-.42-7.73c-.21-2.61-.52-5.22-.84-7.93-.42-2.71-.84-5.32-1.36-8.04-.42-1.77-.73-3.55-1.15-5.22-.42-1.77-.84-3.34-1.36-5.01-.52-1.67-.94-3.24-1.57-4.7-.52-1.57-1.04-3.03-1.67-4.49l-16.08-.63"/><path d="M0,29.75c.42,4.07,.94,8.25,1.46,12.53,.63,4.18,1.15,8.46,1.77,12.84,.63,4.28,1.36,8.67,2.09,13.05s1.57,8.87,2.4,13.36c1.15,5.85,2.4,11.59,3.65,17.23,1.25,5.64,2.61,11.07,3.97,16.5,1.36,5.32,2.82,10.54,4.38,15.66,1.46,5.01,3.03,9.92,4.59,14.72,.63-.1,1.36-.21,2.09-.1,.73,0,1.36,.1,2.09,.21s1.36,.31,2.09,.52,1.46,.52,2.09,.84c-1.57-3.76-3.13-7.62-4.7-11.69-1.57-3.97-3.03-8.04-4.49-12.21-1.46-4.18-2.92-8.35-4.28-12.74s-2.71-8.77-4.07-13.26c-1.77-5.85-3.34-11.69-4.8-17.54-1.46-5.85-2.82-11.48-4.07-17.12-1.25-5.64-2.4-11.17-3.34-16.6-1.15-5.53-2.09-10.96-2.92-16.18"/><path d="M135.51,115.47c-.84,.1-1.77,.31-2.71,.52-.94,.21-1.77,.42-2.61,.63-.94,.21-1.77,.42-2.61,.73-.84,.21-1.77,.52-2.61,.84l-2.92,25.47c2.82-3.24,5.85-6.26,9.08-9.19,3.03-2.71,6.26-5.32,9.5-7.73,3.24-2.3,6.58-4.38,10.02-6.26,3.34-1.77,6.79-3.45,10.34-4.8-1.98-.63-3.97-1.04-5.95-1.36-1.98-.21-3.97-.42-5.95-.31-1.98,0-4.07,.21-6.26,.42-2.19,.21-4.49,.52-6.89,.94h-.21l-.21,.1"/><path d="M113.8,154.2l-36.96,18.37c-.52,2.09-.94,4.07-1.25,6.16-.31,2.09-.63,4.18-.73,6.37-.21,2.19-.21,4.38-.21,6.47s.1,4.38,.42,6.58c.31,3.24,.84,6.47,1.67,9.6,.73,3.03,1.67,6.06,2.82,9.08,1.15,2.82,2.51,5.64,3.97,8.35,1.46,2.61,3.24,5.12,5.01,7.52,.31-14.72,2.82-29.34,7.52-43.33,2.19-6.47,4.8-12.74,7.83-18.79,2.92-5.64,6.16-11.17,9.92-16.39"/><path class="cls-1" d="M102.62,0c1.25,4.7,2.3,9.5,3.03,14.3,.84,5.01,1.36,10.23,1.88,15.56s.73,11.07,1.04,16.91c.21,5.85,.31,12.11,.42,18.37,.21,14.72-.84,26.62-2.82,36.54-1.67,8.67-4.28,17.02-8.04,25.06-3.03,6.16-6.26,12.11-9.92,17.85-3.24,5.43-5.95,10.54-7.73,16.5-.1,.1-.1,.31-.21,.42s-.1,.31-.21,.42l-.21,.42c-.1,.1-.1,.31-.21,.42l34.97-16.81h0c1.77-11.17,2.92-21.72,3.55-31.53,.63-9.5,.73-18.48,.63-26.73-.21-8.14-.63-15.66-1.36-22.55s-1.57-13.05-2.51-18.79c-.73-4.28-1.57-8.46-2.4-12.63-.94-4.07-1.88-8.04-2.92-11.9-1.04-3.86-2.19-7.62-3.34-11.28-1.15-3.65-2.3-7.1-3.65-10.54"/></g></g></svg>