<?xml version="1.0" encoding="utf-8"?>
<!-- Generator: Adobe Illustrator 26.3.1, SVG Export Plug-In . SVG Version: 6.00 Build 0)  -->
<svg version="1.1" id="Layer_2_00000140728266497402148300000001657569284287554187_"
	 xmlns="http://www.w3.org/2000/svg" xmlns:xlink="http://www.w3.org/1999/xlink" x="0px" y="0px" viewBox="0 0 221.6 252"
	 style="enable-background:new 0 0 221.6 252;" xml:space="preserve">
<style type="text/css">
	.st0{fill:#09B3AF;}
</style>
<path class="st0" d="M130.7,119.8H80.8v23.7h48.6c2.6,0,5.8-1.3,7.7-3.2c1.9-1.9,3.2-4.5,3.2-8.3c0-3.2-0.6-6.4-2.6-8.3
	C135.1,121.1,133.2,119.8,130.7,119.8z M131.9,91c1.9-1.3,3.2-4.5,3.2-8.3c0-3.8-0.6-6.4-2.6-7.7c-1.9-1.3-3.8-2.6-6.4-2.6H80.8
	v21.7h44.8C127.5,93.6,130,92.3,131.9,91z"/>
<path class="st0" d="M204.9,2.7H17.4C11,2.7,6.6,7.2,6.6,13v187.4c0,5.8,4.5,9.6,10.2,9.6h28.1v37.7l34.5-37.1h125.4
	c5.8,0,9.6-3.8,9.6-9.6V13.6C214.4,7.8,210.6,2.7,204.9,2.7z M173.5,155c-2.6,4.5-5.8,7.7-10.2,10.2c-4.5,2.6-9.6,5.8-15.4,6.4
	c-5.8,1.3-12.2,2.6-18.6,2.6H44.9V41.1h96c4.5,0,9,0.6,12.8,3.2c3.8,1.9,7,4.5,9.6,7.7c5.1,6.4,8.3,14.7,8.3,23
	c0,6.4-1.9,12.2-4.5,17.9c-3.2,5.8-8.3,10.2-14.1,12.8c7.7,1.9,13.4,5.8,17.9,11.5c4.5,5.8,6.4,12.8,6.4,22.4
	C176.7,145.4,175.4,150.5,173.5,155z"/>
</svg>
