<?xml version="1.0" encoding="UTF-8"?><svg id="Layer_2" xmlns="http://www.w3.org/2000/svg" viewBox="0 0 252.26 93.12"><defs><style>.cls-1{fill:#57349b;}</style></defs><g id="Swell"><path class="cls-1" d="M30.72,56.23c-7.82-2.15-14.57-4-14.57-11.23,0-5.14,4.1-9.02,9.55-9.02,6.6,0,8.59,4.4,10.51,8.66,1.59,3.52,3.09,6.85,7.13,6.85,3.38,0,5.93-2.47,5.93-5.75,0-7.43-9.08-15.12-24.28-15.12-13.79,0-23.8,7.55-23.8,17.95,0,13.89,10.74,16.75,20.21,19.29,7.76,2.07,14.46,3.87,14.46,11,0,5.64-3.93,9.01-10.51,9.01-7.46,0-9.53-4.5-11.55-8.85-1.61-3.49-3.14-6.79-7.39-6.79-4.02,0-6.41,2.29-6.41,6.13,0,7.19,9.48,14.63,25.35,14.63,14.99,0,25.46-7.23,25.46-17.58,0-13.69-10.67-16.62-20.1-19.2h0Zm99.11-25.6c-4.25,0-7,2.75-7,7s2.28,6.56,4.7,9.16c2.67,2.86,5.42,5.82,5.42,11.4,0,15.57-9.86,28.1-18.01,28.1-1.86,0-3.36-.6-4.49-1.78-1.77-1.87-2.64-5.17-2.57-9.82l.24-40.64c0-1.22-.35-2.13-1.04-2.72-.8-.69-1.99-.88-3.56-.57l-11.66,2.46c-1.53,.29-2.51,1.34-2.51,2.68v.36c0,1.22,.88,2.05,1.81,2.93,1.27,1.2,2.71,2.56,2.71,5.33v16.98c0,15.51-7.64,24.77-15.04,24.77-1.74,0-3.18-.59-4.3-1.77-1.8-1.89-2.71-5.2-2.64-9.58l.23-40.88c0-1.09-.28-1.87-.85-2.38-.93-.83-2.48-.73-3.72-.54l-12.64,2.1c-1.43,.29-2.39,1.37-2.39,2.68v.36c0,1.22,.88,2.05,1.81,2.93,1.27,1.2,2.71,2.56,2.71,5.33v24.99c0,21.32,13.31,23.61,19.03,23.61,8.43,0,15.29-3.76,19.9-10.88,2.7,7.03,8.37,10.88,16.08,10.88,14.79,0,29.76-14.58,29.76-42.45,0-12.37-4.59-20.05-12-20.05Zm44.58,29.2c-4.55,.94-11.82,1.09-16.56,.76-.21-1.71-.31-3.55-.31-5.47,0-10.79,5.72-18.62,13.61-18.62,6.04,0,11.25,5.21,11.35,11.36,.12,8.9-4.02,11.05-8.1,11.98h0Zm23.13,12.2c-1.11-.46-2.45-.04-3.25,1.02l-.05,.07c-2.49,5.14-9.29,8.73-16.53,8.73-8.57,0-15.26-5.42-18.41-14.89,7.17,.66,13.05,.43,17.93-.69,12.24-2.71,19.54-9.61,19.54-18.44,0-4.41-1.45-8.13-4.31-11.07-3.94-4.04-10.37-6.23-18.06-6.15-16.96,.13-29.28,13.07-29.28,30.76,0,18.99,12.11,31.75,30.12,31.75,8.52,0,14-3.51,17.1-6.45,3.49-3.32,5.95-7.82,6.57-12.05v-.02c.11-1.2-.39-2.17-1.36-2.58Zm25.55,13.97c-1.35-1.12-2.75-2.28-2.75-4.78V2.96c0-1.09-.45-2.02-1.25-2.53-.95-.61-2.25-.57-3.69,.14l-12.04,6.15c-1.07,.55-2.27,1.18-2.27,2.64v.37c0,1.08,.77,1.84,1.66,2.72,1.23,1.21,2.75,.93,2.75,3.86V81.2c0,2.51-1.27,3.67-2.49,4.8-.99,.91-1.92,1.77-1.92,3.21v.37c0,1.41,1.16,2.31,2.95,2.31h18.11c1.81,0,3.07-.94,3.07-2.31v-.37c0-1.45-1.04-2.31-2.13-3.22Zm27.04,0c-1.35-1.12-2.75-2.28-2.75-4.78V2.96c0-1.09-.45-2.02-1.25-2.53-.95-.61-2.26-.57-3.69,.14l-12.04,6.15c-1.07,.55-2.27,1.18-2.27,2.64v.37c0,1.08,.76,1.84,1.66,2.72,1.22,1.21,2.75,.93,2.75,3.86V81.2c0,2.51-1.27,3.67-2.49,4.8-.99,.91-1.93,1.77-1.93,3.21v.37c0,1.41,1.16,2.31,2.95,2.31h18.11c1.81,0,3.07-.94,3.07-2.31v-.37c0-1.45-1.03-2.31-2.13-3.22Z"/></g></svg>