<?xml version="1.0" encoding="UTF-8"?><svg id="Layer_2" xmlns="http://www.w3.org/2000/svg" viewBox="0 0 254 202.91"><defs><style>.cls-1{fill:#17c1ff;}.cls-1,.cls-2,.cls-3{fill-rule:evenodd;}.cls-2{fill:#13b7f3;}.cls-3{fill:#30c6fd;}</style></defs><g id="Vendure"><g transform="matrix(2.30942,0,0,2.34847,10.1798,-40.8178)"><path class="cls-3" d="M0,28.08L46.82,63.06l-.08,65.59L0,85.31V28.08Z"/></g><g transform="matrix(2.30942,0,0,2.34847,10.1798,-40.8178)"><path class="cls-1" d="M0,28.08L64.46,0l49.08,27.81L46.82,63.06,0,28.08Z"/></g><g transform="matrix(2.30942,0,0,2.34847,10.1798,-40.8178)"><path class="cls-3" d="M60.41,72.72l66.98,51.07-.03,79.12-66.95-61.68V72.72Z"/></g><g transform="matrix(2.30942,0,0,2.34847,10.1798,-40.8178)"><path class="cls-1" d="M127,35.23l67.37,37.49-66.98,51.09L60.41,72.72,127,35.23Z"/></g><g transform="matrix(2.30942,0,0,2.34847,10.1798,-40.8178)"><path class="cls-2" d="M127.39,202.91l66.81-61.75,.17-68.45-67.01,51.07,.03,79.12Z"/></g><g transform="matrix(2.30942,0,0,2.34847,10.1798,-40.8178)"><path class="cls-1" d="M140.46,28.08L189.36,0l64.64,27.6-46.77,35.46L140.46,28.08Z"/></g><g transform="matrix(2.30942,0,0,2.34847,10.1798,-40.8178)"><path class="cls-2" d="M207.23,63.06l-.08,66.26,46.85-43.92V27.6l-46.77,35.46Z"/></g></g></svg>