<svg xmlns="http://www.w3.org/2000/svg" xml:space="preserve" id="Layer_1" x="0" y="0" version="1.1" viewBox="0 0 110.9 73.9"><style>.st1{fill:#fff}</style><path fill="#02c652" d="M89.4 27.9C86.3 12 72.3 0 55.4 0 42 0 30.4 7.6 24.7 18.7 10.8 20.1 0 31.9 0 46.2c0 15.3 12.4 27.7 27.7 27.7h60.1c12.8 0 23.1-10.3 23.1-23.1 0-12.2-9.5-22.1-21.5-22.9z"/><path d="M54.3 22.2c-.3.2-.7.6-1.4 1.2-.7.7-1 1-1.2 1.4-.7 1.1-.7 2.6 0 3.7.2.3.6.7 1.2 1.4.7.7 1 1 1.4 1.2 1.1.7 2.6.7 3.7 0 .3-.2.7-.6 1.4-1.2s1-1 1.2-1.4c.7-1.1.7-2.6 0-3.7-.2-.3-.6-.7-1.2-1.4s-1-1-1.4-1.2c-1.1-.7-2.5-.7-3.7 0zM58.8 43.3l7.9-7.9c.3-.3.7-.6 1.1-.8.4-.2.9-.3 1.3-.3.5 0 .9.1 1.3.3.4.2.8.4 1.1.8l3.9 3.9-19.3 19.3L37 39.4l4-4c.3-.3.7-.6 1.1-.8.4-.2.9-.3 1.3-.3.5 0 .9.1 1.3.3s.8.4 1.1.8l7.9 7.9c.3.3.7.6 1.1.8.4.2.9.3 1.3.3.5 0 .9-.1 1.3-.3.7-.2 1-.5 1.4-.8z" class="st1"/></svg>
