<?xml version="1.0" encoding="UTF-8"?><svg id="Layer_2" xmlns="http://www.w3.org/2000/svg" viewBox="0 0 256 152.39"><defs><style>.cls-1{fill:#fff;}.cls-2{fill:#9b5c8f;}</style></defs><g id="WooCommerce"><g id="WooCommerce-2"><path class="cls-2" d="M23.76,0H232.14c13.19,0,23.86,10.68,23.86,23.86V103.4c0,13.19-10.68,23.86-23.86,23.86h-74.73l10.26,25.12-45.11-25.12H23.86C10.68,127.27,0,116.59,0,103.4V23.86C-.1,10.78,10.57,0,23.76,0h0Z"/><path class="cls-1" d="M14.58,21.75c1.46-1.98,3.64-3.02,6.56-3.23,5.31-.42,8.33,2.08,9.05,7.49,3.23,21.75,6.76,40.17,10.51,55.26l22.79-43.4c2.08-3.95,4.68-6.04,7.8-6.24,4.58-.31,7.39,2.6,8.53,8.74,2.6,13.84,5.93,25.6,9.89,35.59,2.71-26.43,7.28-45.48,13.74-57.24,1.56-2.91,3.85-4.37,6.87-4.58,2.39-.21,4.58,.52,6.56,2.08,1.98,1.56,3.02,3.54,3.23,5.93,.1,1.87-.21,3.43-1.04,5-4.06,7.49-7.39,20.08-10.09,37.57-2.6,16.96-3.54,30.18-2.91,39.65,.21,2.6-.21,4.89-1.25,6.87-1.25,2.29-3.12,3.54-5.52,3.75-2.71,.21-5.52-1.04-8.22-3.85-9.68-9.89-17.38-24.66-23-44.33-6.76,13.32-11.76,23.31-14.99,29.97-6.14,11.76-11.34,17.8-15.71,18.11-2.81,.21-5.2-2.19-7.28-7.18-5.31-13.63-11.03-39.96-17.17-78.99-.42-2.71,.21-5.1,1.67-6.97Zm223.64,16.34c-3.75-6.56-9.26-10.51-16.65-12.07-1.98-.42-3.85-.62-5.62-.62-9.99,0-18.11,5.2-24.46,15.61-5.41,8.85-8.12,18.63-8.12,29.35,0,8.01,1.67,14.88,5,20.6,3.75,6.56,9.26,10.51,16.65,12.07,1.98,.42,3.85,.62,5.62,.62,10.09,0,18.21-5.2,24.46-15.61,5.41-8.95,8.12-18.73,8.12-29.45,.1-8.12-1.67-14.88-5-20.5Zm-13.11,28.83c-1.46,6.87-4.06,11.97-7.91,15.4-3.02,2.71-5.83,3.85-8.43,3.33-2.5-.52-4.58-2.71-6.14-6.76-1.25-3.23-1.87-6.45-1.87-9.47,0-2.6,.21-5.2,.73-7.6,.94-4.27,2.71-8.43,5.52-12.38,3.43-5.1,7.08-7.18,10.82-6.45,2.5,.52,4.58,2.71,6.14,6.76,1.25,3.23,1.87,6.45,1.87,9.47,0,2.71-.21,5.31-.73,7.7Zm-52.03-28.83c-3.75-6.56-9.37-10.51-16.65-12.07-1.98-.42-3.85-.62-5.62-.62-9.99,0-18.11,5.2-24.46,15.61-5.41,8.85-8.12,18.63-8.12,29.35,0,8.01,1.67,14.88,5,20.6,3.75,6.56,9.26,10.51,16.65,12.07,1.98,.42,3.85,.62,5.62,.62,10.09,0,18.21-5.2,24.46-15.61,5.41-8.95,8.12-18.73,8.12-29.45,0-8.12-1.67-14.88-5-20.5Zm-13.22,28.83c-1.46,6.87-4.06,11.97-7.91,15.4-3.02,2.71-5.83,3.85-8.43,3.33-2.5-.52-4.58-2.71-6.14-6.76-1.25-3.23-1.87-6.45-1.87-9.47,0-2.6,.21-5.2,.73-7.6,.94-4.27,2.71-8.43,5.52-12.38,3.43-5.1,7.08-7.18,10.82-6.45,2.5,.52,4.58,2.71,6.14,6.76,1.25,3.23,1.87,6.45,1.87,9.47,.1,2.71-.21,5.31-.73,7.7h0Z"/></g></g></svg>