<?xml version="1.0" encoding="UTF-8"?><svg id="Layer_2" xmlns="http://www.w3.org/2000/svg" xmlns:xlink="http://www.w3.org/1999/xlink" viewBox="0 0 240 102.71"><defs><style>.cls-1{fill:#ffe0cb;}.cls-2{fill:#ff7618;}.cls-3{fill:url(#radial-gradient);}</style><radialGradient id="radial-gradient" cx="46.64" cy="51.36" fx="46.64" fy="51.36" r="43.18" gradientTransform="matrix(1, 0, 0, 1, 0, 0)" gradientUnits="userSpaceOnUse"><stop offset="0" stop-color="#3a2a1d"/><stop offset="1" stop-color="#241405"/></radialGradient></defs><g id="AEM"><g><g><circle class="cls-3" cx="46.64" cy="51.36" r="43.18"/><path class="cls-2" d="M0,51.36c0,25.76,20.87,46.64,46.64,46.64s46.64-20.87,46.64-46.64S72.4,4.72,46.64,4.72,0,25.6,0,51.36Zm4.76-.05c.03-23.13,18.8-41.86,41.93-41.82s41.86,18.8,41.82,41.93c-.03,23.13-18.77,41.82-41.88,41.82S4.75,74.45,4.76,51.31h0Z"/><path class="cls-1" d="M75.72,51.36c0-3.9-2.23-7.46-5.74-9.17,2.31-5.52-.29-11.86-5.81-14.17-2.68-1.12-5.69-1.12-8.36,0-2.46-5.06-8.56-7.17-13.62-4.71-2.05,1-3.71,2.66-4.71,4.71-5.52-2.31-11.86,.29-14.17,5.81-1.12,2.68-1.12,5.69,0,8.36-5.06,2.46-7.17,8.56-4.71,13.62,1,2.05,2.66,3.71,4.71,4.71-2.31,5.52,.29,11.86,5.81,14.17,2.68,1.12,5.69,1.12,8.36,0,2.46,5.06,8.56,7.17,13.62,4.71,2.05-1,3.71-2.66,4.71-4.71,5.52,2.31,11.86-.29,14.17-5.81,1.12-2.68,1.12-5.69,0-8.36,3.51-1.71,5.74-5.27,5.74-9.17Zm-10.01-19.07c2.37,2.38,3.02,5.98,1.64,9.04-.6-.11-1.21-.17-1.82-.17-4.8,0-8.69-3.89-8.69-8.69,0-.61-.06-1.22-.17-1.82,3.06-1.38,6.66-.73,9.04,1.64Zm-10.43,38.97c-.35-.25-.68-.53-.98-.84-4.23-4.23-11.08-4.23-15.31,0-.31,.3-.64,.58-.98,.84-.04-.34-.06-.68-.06-1.02,0-5.62-4.56-10.18-10.18-10.18-.34,0-.68-.02-1.02-.06,.25-.35,.53-.68,.84-.98,4.23-4.23,4.23-11.08,0-15.31-.3-.31-.58-.64-.84-.98,.34-.04,.68-.06,1.02-.06,5.62,0,10.18-4.56,10.18-10.18,0-.34,.02-.68,.06-1.02,.35,.25,.68,.53,.98,.84,4.23,4.23,11.08,4.23,15.31,0,.31-.3,.64-.58,.98-.84,.04,.34,.06,.68,.06,1.02,0,5.62,4.56,10.18,10.18,10.18,.34,0,.68,.02,1.02,.06-.25,.35-.53,.68-.84,.98-4.23,4.23-4.23,11.08,0,15.31,.3,.31,.58,.64,.84,.98-.34,.04-.68,.06-1.02,.06-5.62,0-10.18,4.56-10.18,10.18,0,.34-.02,.68-.06,1.02Zm-8.64-47.49c3.34,0,6.38,1.91,7.84,4.92-.78,.46-1.5,1.02-2.14,1.66-3.15,3.14-8.25,3.14-11.4,0-.64-.64-1.36-1.2-2.14-1.66,1.45-3.01,4.5-4.92,7.84-4.92h0Zm-19.07,8.52c2.38-2.37,5.98-3.02,9.04-1.64-.11,.6-.17,1.21-.17,1.82,0,4.8-3.89,8.69-8.69,8.69-.61,0-1.22,.06-1.82,.17-1.38-3.06-.73-6.66,1.64-9.04h0Zm-8.52,19.07c0-3.34,1.91-6.38,4.92-7.84,.46,.78,1.02,1.5,1.66,2.14,3.14,3.15,3.14,8.25,0,11.4-.64,.64-1.2,1.36-1.66,2.14-3.01-1.45-4.92-4.5-4.92-7.84h0Zm8.52,19.07c-2.37-2.38-3.02-5.98-1.64-9.04,.6,.11,1.21,.17,1.82,.17,4.8,0,8.69,3.89,8.69,8.69,0,.61,.06,1.22,.17,1.82-3.06,1.38-6.66,.73-9.04-1.64h0Zm19.07,8.52c-3.34,0-6.38-1.91-7.84-4.92,.78-.46,1.5-1.02,2.14-1.66,3.15-3.14,8.25-3.14,11.4,0,.64,.64,1.36,1.2,2.14,1.66-1.45,3.01-4.5,4.92-7.84,4.92h0Zm19.07-8.52c-2.38,2.37-5.98,3.02-9.04,1.64,.11-.6,.17-1.21,.17-1.82,0-4.8,3.89-8.69,8.69-8.69,.61,0,1.22-.06,1.82-.17,1.38,3.06,.73,6.66-1.64,9.04Zm3.61-11.23c-.46-.78-1.02-1.5-1.66-2.14-3.14-3.15-3.14-8.25,0-11.4,.64-.64,1.2-1.36,1.66-2.14,4.33,2.09,6.14,7.3,4.05,11.62-.85,1.77-2.28,3.19-4.05,4.05Z"/></g><g><path d="M109.26,15.59l-2.21,6.19c-.03,.12-.09,.18-.25,.18h-2.08c-.15,0-.21-.09-.18-.25l6.68-18.59c.09-.25,.18-.46,.21-1.26,0-.09,.06-.15,.15-.15h3c.12,0,.15,.03,.18,.15l7.2,19.88c.06,.12,.03,.21-.12,.21h-2.33c-.12,0-.18-.06-.25-.15l-2.24-6.22h-7.78Zm7.08-2.36c-.67-1.99-2.6-7.35-3.19-9.43h-.03c-.52,1.96-1.99,6.06-3.16,9.43h6.37Z"/><path d="M123.41,14.64c0-4.5,3.34-7.87,8.33-7.87,.86,0,1.35,.09,1.93,.18V.18c0-.15,.06-.18,.18-.18h2.21c.15,0,.18,.06,.18,.15V19.45c0,.43,0,.95,.06,1.47,0,.12-.03,.15-.15,.21-1.75,.83-3.46,1.13-5.18,1.13-4.26,0-7.57-2.57-7.57-7.63Zm10.26-5.36c-.49-.21-1.23-.31-1.99-.31-3.49,0-5.67,2.36-5.67,5.54,0,3.98,2.51,5.51,5.21,5.51,.8,0,1.75-.09,2.45-.4V9.28Z"/><path d="M153.5,14.49c0,4.66-2.88,7.78-6.98,7.78-4.93,0-7.04-3.98-7.04-7.75,0-4.32,2.76-7.75,7.04-7.75s6.98,3.31,6.98,7.72Zm-11.46-.03c0,3.12,1.62,5.61,4.53,5.61,2.17,0,4.32-1.72,4.32-5.51,0-2.85-1.32-5.58-4.5-5.58-2.57,0-4.35,2.21-4.35,5.48Z"/><path d="M159.04,0c.15,0,.21,0,.21,.18V7.38c.98-.4,2.08-.61,3.31-.61,4.23,0,6.98,3.03,6.98,7.17,0,5.51-4.17,8.33-8.48,8.33-1.53,0-2.88-.18-4.2-.61-.12-.03-.18-.15-.18-.28V.18c0-.15,.06-.18,.21-.18h2.14Zm3.12,9.01c-1.32,0-2.14,.21-2.91,.52v10.29c.58,.18,1.19,.25,2.02,.25,2.94,0,5.67-1.96,5.67-5.91,0-3.12-1.84-5.15-4.78-5.15Z"/><path d="M174.51,14.83c-.03,2.91,1.65,5.21,5.11,5.21,1.35,0,2.63-.25,3.83-.83,.09-.06,.15,0,.15,.12v1.75c0,.18-.06,.25-.15,.31-1.04,.52-2.39,.89-4.32,.89-5.3,0-7.2-3.89-7.2-7.63,0-4.29,2.51-7.87,6.77-7.87s5.97,3.55,5.97,6.16c0,.77-.06,1.32-.12,1.59,0,.09-.09,.18-.21,.18-.46,.09-1.81,.12-3.16,.12h-6.68Zm5.73-1.9c1.5,0,1.87-.03,1.96-.06,.03-.09,.03-.25,.03-.34,0-1.1-.74-3.65-3.62-3.65-2.54,0-3.8,1.99-4.07,4.04h5.7Z"/><path d="M118.85,58.54c-.03,.15-.09,.18-.21,.18h-11.64c-.21,0-.25-.06-.25-.25v-19.79c0-.15,.06-.21,.21-.21h11.18c.15,0,.18,.03,.21,.18l.25,1.93c.03,.12,0,.21-.15,.21h-9.16v6.4h8.27c.12,0,.18,.06,.18,.18v1.96c0,.15-.09,.18-.18,.18h-8.27v6.86h9.74c.15,0,.18,.06,.15,.18l-.34,1.96Z"/><path d="M121.06,44.08c-.09-.12-.03-.25,.09-.25h2.51c.18,0,.25,.06,.31,.18l3.58,5.76h.03l3.74-5.79c.06-.12,.12-.15,.25-.15h2.27c.12,0,.18,.09,.09,.21-1.19,1.78-3.52,5.27-4.87,7.11,1.23,1.84,4.01,5.88,5.09,7.35,.09,.09,.03,.21-.12,.21h-2.57c-.15,0-.25-.06-.31-.18l-3.77-5.88h-.03l-3.8,5.91c-.06,.12-.09,.15-.25,.15h-2.27c-.15,0-.21-.09-.12-.21,1.41-2.02,3.49-5.24,4.9-7.23l-4.75-7.2Z"/><path d="M149.24,50.76c0,5.58-4.41,8.27-8.76,8.27-.7,0-1.13-.06-1.56-.12v6.13c0,.12,0,.18-.15,.21-.7,.06-2.11,.21-2.24,.25-.12,0-.15-.03-.15-.18v-19.08c0-.28-.03-.95-.06-1.35,0-.03,0-.09,.06-.12,1.07-.4,3.09-1.23,5.7-1.23,4.53,0,7.17,3.12,7.17,7.23Zm-10.32-4.5v10.38c.52,.15,1.16,.18,1.75,.18,2.97,0,5.97-1.84,5.97-5.91,0-3.13-1.78-5.15-4.87-5.15-1.07,0-1.99,.18-2.85,.49Z"/><path d="M154.2,51.59c-.03,2.91,1.65,5.21,5.11,5.21,1.35,0,2.63-.25,3.83-.83,.09-.06,.15,0,.15,.12v1.75c0,.18-.06,.25-.15,.31-1.04,.52-2.39,.89-4.32,.89-5.3,0-7.2-3.89-7.2-7.63,0-4.29,2.51-7.87,6.77-7.87s5.97,3.55,5.97,6.16c0,.77-.06,1.32-.12,1.59,0,.09-.09,.18-.21,.18-.46,.09-1.81,.12-3.16,.12h-6.68Zm5.73-1.9c1.5,0,1.87-.03,1.96-.06,.03-.09,.03-.25,.03-.34,0-1.1-.74-3.64-3.62-3.64-2.54,0-3.8,1.99-4.07,4.04h5.7Z"/><path d="M169.42,43.84c.18,0,.21,.06,.28,.21,.12,.37,.21,1.44,.25,2.11,1.07-1.47,2.97-2.63,4.93-2.63,.15,0,.21,.03,.21,.21v2.21c0,.15-.03,.18-.21,.18-2.11-.03-4.04,1.01-4.81,2.24l-.03,10.17c0,.15-.06,.18-.18,.18h-2.18c-.15,0-.21-.06-.21-.21v-10.57c0-1.29-.06-3.06-.15-3.92,0-.12,.03-.18,.15-.18h1.96Z"/><path d="M177.17,39.33c0-.92,.64-1.56,1.56-1.56,.98,0,1.53,.67,1.53,1.56s-.61,1.56-1.56,1.56-1.53-.64-1.53-1.56Zm.25,4.72c0-.15,.06-.21,.21-.21h2.18c.12,0,.18,.03,.18,.18v14.49c0,.15-.03,.21-.21,.21h-2.11c-.15,0-.25-.06-.25-.25v-14.43Z"/><path d="M185.81,51.59c-.03,2.91,1.65,5.21,5.12,5.21,1.35,0,2.63-.25,3.83-.83,.09-.06,.15,0,.15,.12v1.75c0,.18-.06,.25-.15,.31-1.04,.52-2.39,.89-4.32,.89-5.3,0-7.2-3.89-7.2-7.63,0-4.29,2.51-7.87,6.77-7.87s5.97,3.55,5.97,6.16c0,.77-.06,1.32-.12,1.59,0,.09-.09,.18-.21,.18-.46,.09-1.81,.12-3.16,.12h-6.68Zm5.73-1.9c1.5,0,1.87-.03,1.96-.06,.03-.09,.03-.25,.03-.34,0-1.1-.74-3.64-3.62-3.64-2.54,0-3.8,1.99-4.07,4.04h5.7Z"/><path d="M199.08,47.3c0-1.04-.06-2.76-.12-3.28,0-.12,.03-.18,.18-.18h1.9c.15,0,.21,.06,.28,.18,.09,.28,.12,.86,.18,1.53,1.35-1.35,2.91-2.02,4.69-2.02,2.18,0,4.99,1.07,4.99,5.91v9.07c0,.15-.06,.21-.21,.21h-2.14c-.15,0-.21-.06-.21-.25v-8.79c0-2.33-1.01-3.89-3.16-3.89-1.56,0-2.85,.7-3.83,1.87v10.84c0,.15-.03,.21-.18,.21h-2.18c-.12,0-.18-.06-.18-.21v-11.21Z"/><path d="M225.42,58.32c0,.12,0,.18-.12,.21-1.01,.4-2.21,.49-3.34,.49-4.99,0-7.57-3.55-7.57-7.69,0-4.47,3.19-7.81,7.99-7.81,1.56,0,2.42,.18,2.91,.4,.12,.06,.12,.12,.12,.28v1.93c0,.15-.09,.15-.21,.12-.77-.31-1.56-.46-2.82-.46-3.16,0-5.39,2.11-5.39,5.45,0,3.68,2.54,5.48,5.39,5.48,1.13,0,2.08-.12,2.85-.43,.15-.03,.18,.03,.18,.12v1.9Z"/><path d="M229.83,51.59c-.03,2.91,1.65,5.21,5.11,5.21,1.35,0,2.63-.25,3.83-.83,.09-.06,.15,0,.15,.12v1.75c0,.18-.06,.25-.15,.31-1.04,.52-2.39,.89-4.32,.89-5.3,0-7.2-3.89-7.2-7.63,0-4.29,2.51-7.87,6.77-7.87s5.97,3.55,5.97,6.16c0,.77-.06,1.32-.12,1.59,0,.09-.09,.18-.21,.18-.46,.09-1.81,.12-3.16,.12h-6.68Zm5.73-1.9c1.5,0,1.87-.03,1.96-.06,.03-.09,.03-.25,.03-.34,0-1.1-.74-3.64-3.62-3.64-2.54,0-3.8,1.99-4.07,4.04h5.7Z"/><path d="M107.95,75.23h3.4c.15,0,.18,.06,.25,.18,1.04,3.16,4.75,14.15,5.39,16.82h.03c.7-2.54,4.78-13.69,5.82-16.82,.03-.12,.06-.18,.21-.18h3.31c.15,0,.15,.03,.18,.15l1.04,19.91c.03,.12-.06,.18-.18,.18h-2.27c-.15,0-.21-.03-.21-.15-.28-7.05-.58-16.45-.58-18.29h-.03c-.74,2.76-4.84,14.34-6.13,18.26-.03,.15-.12,.18-.25,.18h-2.14c-.18,0-.25-.03-.28-.18-1.62-5.09-4.84-15.19-5.67-18.29h-.06c-.03,2.67-.58,11.86-.92,18.29,0,.15-.06,.18-.21,.18h-2.08c-.15,0-.18-.03-.18-.18l1.35-19.88c.03-.18,.09-.18,.21-.18Z"/><path d="M142.13,92.88c0,.52,0,.98,.06,1.47,0,.06,0,.09-.06,.12-2.21,1.04-3.95,1.32-5.73,1.32-3.25,0-5.7-1.59-5.7-4.81s3.03-4.69,6.83-4.69c1.13,0,1.78,.03,2.11,.06v-.74c0-.95-.46-3.06-3.46-3.06-1.47,0-2.82,.34-3.89,.92-.09,.03-.21,0-.21-.15v-1.87c0-.12,.06-.18,.15-.25,1.19-.58,2.73-.92,4.35-.92,3.92,0,5.54,2.57,5.54,5.76v6.83Zm-2.48-4.5c-.43-.06-1.1-.12-2.02-.12-2.97,0-4.41,1.01-4.41,2.73,0,1.38,.95,2.73,3.65,2.73,.98,0,1.9-.15,2.79-.52v-4.81Z"/><path d="M146.42,84.06c0-1.04-.06-2.76-.12-3.28,0-.12,.03-.18,.18-.18h1.9c.15,0,.21,.06,.28,.18,.09,.28,.12,.86,.18,1.53,1.35-1.35,2.91-2.02,4.69-2.02,2.17,0,4.99,1.07,4.99,5.91v9.07c0,.15-.06,.21-.21,.21h-2.14c-.15,0-.21-.06-.21-.25v-8.79c0-2.33-1.01-3.89-3.15-3.89-1.56,0-2.85,.7-3.83,1.87v10.84c0,.15-.03,.21-.18,.21h-2.18c-.12,0-.18-.06-.18-.21v-11.21Z"/><path d="M173.04,92.88c0,.52,0,.98,.06,1.47,0,.06,0,.09-.06,.12-2.21,1.04-3.95,1.32-5.73,1.32-3.25,0-5.7-1.59-5.7-4.81s3.03-4.69,6.83-4.69c1.13,0,1.78,.03,2.11,.06v-.74c0-.95-.46-3.06-3.46-3.06-1.47,0-2.82,.34-3.89,.92-.09,.03-.21,0-.21-.15v-1.87c0-.12,.06-.18,.15-.25,1.19-.58,2.73-.92,4.35-.92,3.92,0,5.54,2.57,5.54,5.76v6.83Zm-2.48-4.5c-.43-.06-1.1-.12-2.02-.12-2.97,0-4.41,1.01-4.41,2.73,0,1.38,.95,2.73,3.65,2.73,.98,0,1.9-.15,2.79-.52v-4.81Z"/><path d="M183.58,92.97c3.8,.18,5.94,1.56,5.94,4.26,0,3.06-2.91,5.48-7.41,5.48s-6.77-2.39-6.77-4.66c0-1.04,.89-2.42,3-4.2-.49-.67-.74-1.47-.74-2.3,0-.67,.18-1.35,.52-1.93-1.26-.83-2.08-2.21-2.08-4.13,0-2.85,2.11-5.21,5.73-5.21,.95,0,1.75,.12,2.3,.25,.28,.06,.46,.06,.64,.06h4.32c.15,0,.18,.06,.18,.18v1.75c0,.12-.03,.18-.18,.18-.8,0-2.08-.06-2.82-.12,.55,.58,1.07,1.56,1.07,2.97,0,3.37-2.51,5.05-5.54,5.05-.58,0-1.13-.06-1.69-.18-.15,.37-.21,.77-.15,1.13,.06,.46,.25,.89,.55,1.26l3.12,.15Zm-3.77,2.05c-1.26,.89-2.05,2.18-2.05,2.85,0,1.41,1.68,2.85,4.5,2.85,3.37,0,4.87-1.59,4.87-3.13,0-1.81-1.9-2.3-4.07-2.42l-3.25-.15Zm-1.26-9.56c0,1.87,1.1,3.22,3.16,3.22,1.93,0,3.12-1.16,3.12-3.16,0-1.78-.95-3.28-3.09-3.28-1.93,0-3.19,1.26-3.19,3.22Z"/><path d="M193.17,88.35c-.03,2.91,1.65,5.21,5.12,5.21,1.35,0,2.63-.25,3.83-.83,.09-.06,.15,0,.15,.12v1.75c0,.18-.06,.25-.15,.31-1.04,.52-2.39,.89-4.32,.89-5.3,0-7.2-3.89-7.2-7.63,0-4.29,2.51-7.87,6.77-7.87s5.97,3.55,5.97,6.16c0,.77-.06,1.32-.12,1.59,0,.09-.09,.18-.21,.18-.46,.09-1.81,.12-3.16,.12h-6.68Zm5.73-1.9c1.5,0,1.87-.03,1.96-.06,.03-.09,.03-.25,.03-.34,0-1.1-.74-3.65-3.62-3.65-2.54,0-3.8,1.99-4.07,4.04h5.7Z"/><path d="M208.39,80.6c.18,0,.21,.06,.28,.21,.12,.37,.21,1.44,.25,2.11,1.07-1.47,2.97-2.63,4.93-2.63,.15,0,.21,.03,.21,.21v2.21c0,.15-.03,.18-.21,.18-2.11-.03-4.04,1.01-4.81,2.24l-.03,10.17c0,.15-.06,.18-.18,.18h-2.18c-.15,0-.21-.06-.21-.21v-10.57c0-1.29-.06-3.06-.15-3.92,0-.12,.03-.18,.15-.18h1.96Z"/></g></g></g></svg>