<svg xmlns="http://www.w3.org/2000/svg" xml:space="preserve" viewBox="0 0 180 46.1"><linearGradient id="a" x1="-17.534" x2="59.496" y1="-16.788" y2="58.099" gradientTransform="matrix(1 0 0 -1 0 45.732)" gradientUnits="userSpaceOnUse"><stop offset="0" stop-color="#00aeff"/><stop offset="1" stop-color="#3369e7"/></linearGradient><path fill="url(#a)" d="M6.1 0h34c3.4 0 6.1 2.7 6.1 6.1v34c0 3.4-2.7 6.1-6.1 6.1h-34c-3.4 0-6.1-2.7-6.1-6.1v-34C0 2.7 2.7 0 6.1 0z"/><path fill="#fff" d="M23.6 11.7c-7.2 0-13 5.8-13 13s5.8 13 13 13 13-5.8 13-13-5.8-13-13-13zm0 22.2c-5.1 0-9.2-4.1-9.2-9.2s4.1-9.2 9.2-9.2 9.2 4.1 9.2 9.2-4.1 9.2-9.2 9.2zm0-16.5v6.8c0 .2.2.3.4.2l6.1-3.1c.1-.1.2-.2.1-.4-1.3-2.3-3.7-3.7-6.3-3.8-.2 0-.3.1-.3.3zm-8.5-5-.8-.8c-.8-.8-2-.8-2.8 0l-1 1c-.8.8-.8 2 0 2.8l.8.8c.1.1.3.1.4 0 .9-1.3 2.1-2.4 3.3-3.3.2-.2.2-.4.1-.5zm12.8-2.1V8.7c0-1.1-.9-2-2-2h-4.7c-1.1 0-2 .9-2 2v1.6c0 .2.2.3.4.3 1.3-.4 2.7-.6 4.1-.6s2.6.2 3.9.5c.1.1.2 0 .3-.2z"/><path fill="#182359" d="M109 34.5c0 3.7-1 6.5-2.9 8.2-1.9 1.7-4.8 2.6-8.8 2.6-1.4 0-4.4-.3-6.8-.8l.9-4.3c2 .4 4.6.5 6 .5 2.2 0 3.8-.5 4.7-1.3s1.4-2.2 1.4-4v-.9c-.5.3-1.3.5-2.1.8-.9.3-1.9.4-3.1.4-1.5 0-2.9-.2-4.1-.7-1.2-.5-2.3-1.2-3.2-2.1s-1.6-2.1-2.1-3.5-.7-3.9-.7-5.7c0-1.7.3-3.8.8-5.3.5-1.4 1.3-2.7 2.3-3.7 1-1 2.2-1.8 3.7-2.4 1.6-.6 3.3-.9 5-.9 1.8 0 3.4.2 5 .5s3 .5 4.1.9l-.1 21.7zM93.8 23.7c0 2.3.5 4.8 1.5 5.9 1 1.1 2.3 1.6 3.9 1.6.9 0 1.7-.1 2.5-.4.8-.2 1.4-.5 1.9-.9V16.4c-.4-.1-2-.4-3.6-.5-2-.1-3.5.8-4.6 2.1-1.1 1.3-1.6 3.6-1.6 5.7zm41.2 0c0 1.8-.3 3.2-.8 4.8-.5 1.5-1.3 2.8-2.3 3.9-1 1.1-2.2 1.9-3.6 2.5-1.4.6-3.6.9-4.6.9-1.1 0-3.2-.3-4.6-.9-1.4-.6-2.6-1.4-3.6-2.5s-1.8-2.4-2.3-3.9-.8-2.9-.8-4.8.3-3.6.8-5.1c.6-1.5 1.3-2.8 2.4-3.9 1-1.1 2.2-1.9 3.6-2.5 1.4-.6 2.9-.9 4.6-.9s3.2.3 4.6.9c1.4.6 2.6 1.4 3.6 2.5s1.8 2.4 2.3 3.9c.4 1.4.7 3.2.7 5.1zm-5.6 0c0-2.4-.5-4.3-1.5-5.7-1-1.4-2.4-2.1-4.2-2.1s-3.2.7-4.2 2.1c-1 1.4-1.5 3.3-1.5 5.7s.5 4 1.5 5.4c1 1.4 2.4 2.1 4.2 2.1s3.2-.7 4.2-2.1c1-1.4 1.5-3 1.5-5.4zm17.8 12.1c-9 0-9-7.2-9-8.4V1.5l5.5-.9v25.7c0 .7 0 4.8 3.5 4.8v4.7c-.1 0 0 0 0 0zm9.6 0h-5.5V12.2l5.5-.9v24.5zM154 8.7c1.8 0 3.3-1.5 3.3-3.3 0-1.8-1.5-3.3-3.3-3.3-1.8 0-3.3 1.5-3.3 3.3 0 1.8 1.5 3.3 3.3 3.3zm16.5 2.6c1.8 0 3.3.2 4.6.7 1.2.5 2.2 1.1 3 1.9.7.8 1.2 1.9 1.6 3 .3 1.1.5 2.4.5 3.8v14.1c-.8.2-2.1.4-3.8.6-1.7.3-3.6.4-5.7.4-1.4 0-2.7-.1-3.9-.4-1.2-.3-2.2-.7-3-1.3-.8-.6-1.5-1.4-1.9-2.3-.5-1-.7-2.3-.7-3.7s.3-2.2.8-3.1c.5-.9 1.3-1.7 2.1-2.3.9-.6 1.9-1 3.1-1.3 1.2-.3 2.5-.4 3.7-.4.6 0 1.2 0 1.9.1s1.4.2 2.1.4v-.9c0-.6-.1-1.2-.2-1.8-.1-.6-.4-1.1-.8-1.5-.4-.4-.9-.8-1.5-1-.7-.3-1.5-.4-2.3-.4-1.3 0-2.4.2-3.5.3-1.1.2-1.9.4-2.6.6l-.7-4.5c.7-.2 1.7-.5 3-.7 1.2-.2 2.6-.3 4.2-.3zm.4 19.9c1.7 0 2.9-.1 3.8-.3v-5.6c-.3-.1-.7-.2-1.3-.3-.6-.1-1.3-.1-1.9-.1-.6 0-1.2 0-1.8.1-.6.1-1.1.2-1.7.5-.5.2-.9.6-1.2 1-.3.4-.5.7-.5 1.3 0 1.3.5 2 1.3 2.5.8.6 1.9.9 3.3.9zm-108-19.8c1.8 0 3.3.2 4.6.7 1.2.5 2.2 1.1 3 1.9.7.8 1.2 1.9 1.6 3 .3 1.2.5 2.4.5 3.8v14.1c-.8.2-2.1.4-3.8.6-1.7.3-3.6.4-5.7.4-1.3 0-2.6-.1-3.9-.4-1.2-.3-2.2-.7-3-1.3-.8-.6-1.5-1.4-1.9-2.3-.5-1-.7-2.3-.7-3.7 0-1.4.3-2.2.8-3.1.5-.9 1.3-1.7 2.1-2.3.9-.6 1.9-1 3.1-1.3 1.2-.3 2.5-.4 3.7-.4.6 0 1.2 0 1.9.1s1.4.2 2.1.4v-.9c0-.6-.1-1.2-.2-1.8-.1-.6-.4-1.1-.8-1.5-.4-.4-.9-.8-1.5-1-.7-.3-1.5-.4-2.3-.4-1.3 0-2.4.2-3.5.3-1.1.2-1.9.4-2.6.6l-.7-4.5c.7-.2 1.7-.5 3-.7 1.3-.1 2.7-.2 4.2-.3zm.5 19.9c1.7 0 2.9-.1 3.8-.3v-5.6c-.3-.1-.7-.2-1.3-.3-.6-.1-1.3-.1-1.9-.1-.6 0-1.2 0-1.8.1-.6.1-1.1.2-1.7.5-.5.2-.9.6-1.2 1-.3.4-.4.7-.4 1.3 0 1.3.4 2 1.3 2.5.7.7 1.8.9 3.2.9zm22.1 4.5c-9 0-9-7.2-9-8.4V1.5L82 .6v25.7c0 .7 0 4.8 3.5 4.8v4.7z"/></svg>
