<svg xmlns="http://www.w3.org/2000/svg" xml:space="preserve" viewBox="0 0 180 64"><path fill="#eb5424" d="M46 51.8 39.5 32l17-12.2h-21L28.9 0h21l6.5 19.8c3.9 11.5 0 24.5-10.4 32zm-34.1 0L29 64l17-12.2-17-12.2-17.1 12.2zm-10.5-32c-4 12.1.6 24.9 10.5 32L18.4 32l-17-12.2h21L28.9 0h-21L1.4 19.8z"/><path fill="#21264c" d="M168.6 15.5c-3.4 0-6.3 1.6-8.3 4.6-2 3-3.1 7.1-3.1 12s1.1 9 3.1 12 4.9 4.6 8.3 4.6 6.3-1.6 8.3-4.6c2-3 3.1-7.1 3.1-12s-1.1-9-3.1-12c-2-3.1-4.9-4.6-8.3-4.6zm0 29c-1.6 0-2.9-.9-3.9-2.8-1.2-2.3-1.9-5.7-1.9-9.7 0-4 .7-7.4 1.9-9.7 1-1.9 2.3-2.8 3.9-2.8s2.9.9 3.9 2.8c1.2 2.3 1.9 5.7 1.9 9.7 0 4-.7 7.4-1.9 9.7-1 1.9-2.3 2.8-3.9 2.8zm-73.5-17v14.2c0 3.8 3.1 6.8 6.9 6.8 3.3 0 5.8-1.6 6.7-2.3.1 0 .1-.1.2 0 .1 0 .1.1.1.1l.6 1.8h4.1V27.5h-5.3v15.4c0 .1 0 .1-.1.2-1 .5-3 1.4-4.9 1.4-1.7 0-3-1.3-3-3v-14h-5.3zm52.8 20.6h5.3V33.9c0-3.8-3.1-6.8-6.9-6.8-2.8 0-5 1.2-6.1 1.9h-.2c-.1 0-.1-.1-.1-.2V15.9h-5.3v32.3h5.3V32.7c0-.1 0-.1.1-.2 1-.5 3-1.4 4.9-1.4.8 0 1.6.3 2.1.9.6.6.9 1.3.9 2.1v14zm-30.4-16.5h3.2c.1 0 .2.1.2.2v11.3c0 3 2.5 5.4 5.5 5.4 1.1 0 2.2-.2 3.2-.5v-3.7l-1.8.1c-.9 0-1.6-.7-1.6-1.6v-11c0-.1.1-.2.2-.2h3.2v-4.1h-3.2c-.1 0-.2-.1-.2-.2v-6.8h-5.3v6.8c0 .1-.1.2-.2.2h-3.2v4.1zM86.7 48.1h5.5l-8.3-28.8c-.7-2.3-2.8-3.9-5.3-3.9-2.4 0-4.6 1.6-5.3 3.9L65 48.1h5.5l2.4-8.3c0-.1.1-.1.2-.1h11c.1 0 .2.1.2.1l2.4 8.3zm-3.9-12.5h-8.4c-.1 0-.1 0-.2-.1v-.2l4.2-14.5c0-.1.1-.1.2-.1s.2.1.2.1L83 35.3v.2c-.1 0-.1.1-.2.1z"/></svg>
