<svg xmlns="http://www.w3.org/2000/svg" xml:space="preserve" viewBox="0 0 180 39.9"><g fill="#242a35"><path d="M24.6 5.3v4.9c2.1 1.2 3.8 2.9 5 5 1.2 2.1 1.8 4.4 1.8 6.8 0 7.5-6 13.6-13.5 13.6S4.4 29.5 4.4 22c0-5.2 2.9-9.6 7.1-11.9V5.2c-3.4 1.3-6.3 3.6-8.3 6.6C1.1 14.8 0 18.4 0 22c0 9.9 8 18 17.9 18s17.9-8 17.9-18c-.1-7.6-4.7-14-11.2-16.7zM16 27.9v-5.4c0-.7.5-1.2 1.2-1.2h1.5c.7 0 1.2.5 1.2 1.2v5.4c1.1-.4 2.1-1.2 2.7-2.2.7-1 1-2.1 1-3.3 0-2.2-1.2-4-2.9-5V2.1c0-1.2-.9-2.1-2.1-2.1h-1.5C15.9 0 15 1 15 2.1v15c-1.8 1-3.1 2.9-3.1 5.2.1 2.6 1.8 4.8 4.1 5.6"/><path fill-rule="evenodd" d="M42.7 20.6c0-4.1 3.1-7.5 7.4-7.5 2.2 0 3.7.7 4.9 1.6.3.2.5.6.5 1 0 .7-.6 1.2-1.3 1.2-.3 0-.6-.1-.8-.2-1-.8-2.1-1.3-3.4-1.3-2.7 0-4.7 2.3-4.7 5.1s2 5.1 4.7 5.1c1.5 0 2.5-.5 3.6-1.4.2-.2.5-.3.8-.3.6 0 1.2.5 1.2 1.2 0 .4-.2.7-.4.9-1.4 1.3-2.9 2-5.2 2-4.2 0-7.3-3.3-7.3-7.4zm23.2 1.8c0-1.9-1.4-3.5-3.3-3.5-2 0-3.3 1.6-3.3 3.4 0 1.9 1.4 3.5 3.3 3.5 2.1 0 3.3-1.5 3.3-3.4zm-9 0c0-3.1 2.5-5.7 5.8-5.7s5.8 2.5 5.8 5.6c0 3.1-2.5 5.6-5.8 5.6-3.4.1-5.8-2.4-5.8-5.5zm13.6-4.3c0-.7.5-1.2 1.2-1.2s1.3.6 1.3 1.2v.5c.7-1 1.7-1.9 3.4-1.9 2.4 0 3.9 1.6 3.9 4.1v5.8c0 .7-.5 1.2-1.2 1.2s-1.3-.5-1.3-1.2v-5c0-1.7-.8-2.6-2.3-2.6-1.5 0-2.5 1-2.5 2.6v5c0 .7-.6 1.2-1.3 1.2-.2 0-.3 0-.5-.1-.1-.1-.3-.2-.4-.3-.1-.1-.2-.3-.3-.4-.1-.1-.1-.3-.1-.5v-8.4zm11.8 8.6c-.3-.1-.5-.5-.5-.9 0-.1 0-.3.1-.4.1-.1.1-.2.2-.3.1-.1.2-.2.3-.2.1 0 .3-.1.4-.1.2 0 .4.1.5.1 1 .7 2.1 1 3.1 1 1.1 0 1.7-.5 1.7-1.2 0-.8-1.1-1.1-2.4-1.5-1.6-.5-3.4-1.1-3.4-3.2 0-2 1.7-3.3 3.9-3.3 1.1 0 2.4.3 3.4.9.3.2.6.5.6.9 0 .6-.5 1-1 1-.2 0-.3 0-.5-.1-.9-.5-1.8-.7-2.5-.7-1 0-1.5.5-1.5 1.1 0 .8 1.2 1.1 2.4 1.5 1.6.5 3.4 1.2 3.4 3.2 0 2.3-1.8 3.4-4 3.4-1.5 0-3-.4-4.2-1.2zm10.5-1.9v-5.7h-.4c-.1 0-.3 0-.4-.1-.1-.1-.2-.1-.3-.2-.1-.1-.2-.2-.2-.3-.1-.1-.1-.3-.1-.4 0-.6.5-1.1 1.1-1.1h.4v-1.8c0-.2 0-.3.1-.5s.2-.3.3-.4c.1-.1.3-.2.4-.3.2-.1.3-.1.5-.1.7 0 1.2.6 1.2 1.2v1.8h1.9c.6 0 1.1.5 1.1 1.1 0 .6-.5 1.1-1.1 1.1h-1.9v5.3c0 1 .5 1.4 1.3 1.4.3 0 .5-.1.6-.1.6 0 1 .5 1 1s-.3.8-.7 1c-.5.2-1.1.3-1.7.3-1.8-.1-3.1-.9-3.1-3.2zm7.5-6.7c0-.7.5-1.2 1.2-1.2s1.3.6 1.3 1.2v1.1c.6-1.4 1.6-2.4 2.7-2.4.8 0 1.2.5 1.2 1.2s-.4 1.1-1 1.2c-1.8.3-3 1.7-3 4.2v3.2c0 .2 0 .3-.1.5-.1.1-.2.3-.3.4-.1.1-.3.2-.4.3-.2.1-.3.1-.5.1s-.3 0-.5-.1c-.1-.1-.3-.2-.4-.3-.1-.1-.2-.3-.3-.4-.1-.1-.1-.3-.1-.5v-8.5zm17.6 8.5c0 .2 0 .3-.1.5s-.2.3-.3.4c-.1.1-.3.2-.4.3-.2.1-.3.1-.5.1-.7 0-1.3-.5-1.3-1.2v-.6c-.7 1-1.7 1.9-3.4 1.9-2.4 0-3.9-1.6-3.9-4.2V18c0-.7.6-1.2 1.2-1.2.7 0 1.3.6 1.3 1.2v5c0 1.7.8 2.6 2.3 2.6 1.4 0 2.4-1 2.4-2.7v-5c0-.7.6-1.2 1.3-1.2.7 0 1.3.6 1.3 1.2v8.7h.1zm2-4.2c0-3.1 2.4-5.7 5.6-5.7 1.7 0 2.9.6 3.8 1.4.2.1.4.5.4.9 0 .6-.5 1.1-1.1 1.1-.3 0-.6-.1-.7-.2-.6-.5-1.3-.9-2.3-.9-1.8 0-3.1 1.6-3.1 3.4 0 1.9 1.3 3.5 3.2 3.5 1 0 1.7-.4 2.4-1 .1-.1.4-.3.7-.3.6 0 1.1.5 1.1 1.1 0 .3-.1.6-.3.8-1 .9-2.1 1.5-3.9 1.5-3.4 0-5.8-2.5-5.8-5.6zm12.4 2.4v-5.7h-.4c-.1 0-.3 0-.4-.1-.1-.1-.2-.1-.3-.2-.1-.1-.2-.2-.2-.3-.1-.1-.1-.3-.1-.4 0-.6.5-1.1 1.1-1.1h.4v-1.8c0-.2 0-.3.1-.5s.2-.3.3-.4c.1-.1.3-.2.4-.3.2-.1.3-.1.5-.1.7 0 1.2.6 1.2 1.2v1.8h1.9c.6 0 1.1.5 1.1 1.1 0 .6-.5 1.1-1.1 1.1h-1.9v5.3c0 1 .5 1.4 1.3 1.4.3 0 .5-.1.6-.1.6 0 1 .5 1 1s-.3.8-.7 1c-.5.2-1.1.3-1.7.3-1.8-.1-3.1-.9-3.1-3.2zm15.6-2.4c0-1.9-1.4-3.5-3.3-3.5-2 0-3.3 1.6-3.3 3.4 0 1.9 1.4 3.5 3.3 3.5 2 0 3.3-1.5 3.3-3.4zm-9.1 0c0-3.1 2.5-5.7 5.8-5.7s5.8 2.5 5.8 5.6c0 3.1-2.5 5.6-5.8 5.6-3.3.1-5.8-2.4-5.8-5.5zm13.6-4.3c0-.7.5-1.2 1.2-1.2s1.3.6 1.3 1.2v1.1c.6-1.4 1.6-2.4 2.7-2.4.8 0 1.2.5 1.2 1.2s-.4 1.1-1 1.2c-1.8.3-3 1.7-3 4.2v3.2c0 .7-.6 1.2-1.3 1.2-.2 0-.3 0-.5-.1s-.3-.2-.4-.3c-.1-.1-.2-.3-.3-.4-.1-.1-.1-.3-.1-.5v-8.4zm7.4 6.7c.8 0 1.4.6 1.4 1.4v.2c0 .8-.6 1.4-1.4 1.4-.8 0-1.5-.6-1.5-1.4v-.2c.1-.8.7-1.4 1.5-1.4zm4-6.7c0-.7.5-1.2 1.2-1.2s1.3.6 1.3 1.2v8.6c0 .7-.6 1.2-1.3 1.2-.2 0-.3 0-.5-.1s-.3-.2-.4-.3c-.1-.1-.2-.3-.3-.4-.1-.1-.1-.3-.1-.5v-8.5zm-.2-4.1c0-.7.6-1.2 1.4-1.2.8 0 1.4.5 1.4 1.2v.1c0 .7-.6 1.2-1.4 1.2s-1.4-.5-1.4-1.2V14zm13.9 8.4c0-1.9-1.4-3.5-3.3-3.5-2 0-3.3 1.6-3.3 3.4 0 1.9 1.4 3.5 3.3 3.5 2 0 3.3-1.5 3.3-3.4zm-9.1 0c0-3.1 2.5-5.7 5.8-5.7s5.8 2.5 5.8 5.6c0 3.1-2.5 5.6-5.8 5.6-3.3.1-5.8-2.4-5.8-5.5z" clip-rule="evenodd"/></g></svg>
