<svg xmlns="http://www.w3.org/2000/svg" xml:space="preserve" viewBox="0 0 180 29.9"><path fill="#f0553d" d="M27.8 12.2c0 .3-.2.5-.5.5H16.9c-.3 0-.5-.2-.5-.5V11c0-.3.2-.5.5-.5h10.4c.3 0 .5.2.5.5v1.2zm4.7 3.3c0 .3-.2.5-.5.5H19.1c-.3 0-.5-.2-.5-.5v-1.2c0-.3.2-.5.5-.5h12.7c.3 0 .5.2.5.5l.2 1.2zm3.5 3.6c0 .3-.2.5-.5.5h-14c-.3 0-.5-.2-.5-.5v-1.2c0-.3.2-.5.5-.5h13.9c.3 0 .5.2.5.5l.1 1.2zm0 3.4c0 .3-.2.5-.5.5h-14c-.3 0-.5-.2-.5-.5v-1.2c0-.3.2-.5.5-.5h13.9c.3 0 .5.2.5.5l.1 1.2zm-3.5 3.4c0 .3-.2.5-.5.5H19.1c-.3 0-.5-.2-.5-.5v-1.2c0-.3.2-.5.5-.5h12.7c.3 0 .5.2.5.5l.2 1.2zm-4.7 3.5c0 .3-.2.5-.5.5H16.9c-.3 0-.5-.2-.5-.5v-1.2c0-.3.2-.5.5-.5h10.4c.3 0 .5.2.5.5v1.2zM8.1 1.7c0 .3.2.5.5.5H19c.3 0 .5-.2.5-.5V.5c0-.3-.2-.5-.5-.5H8.7c-.4 0-.6.2-.6.5v1.2zM3.5 5.2c0 .3.2.5.5.5h12.7c.3 0 .5-.2.5-.5V4c0-.3-.2-.5-.5-.5H4.1c-.4 0-.6.2-.6.5v1.2zM0 8.7c0 .3.2.5.5.5h13.9c.4 0 .6-.2.6-.5V7.5c0-.3-.2-.5-.5-.5H.5c-.3 0-.5.2-.5.5v1.2zm0 3.5c0 .3.2.5.5.5h13.9c.3 0 .5-.2.5-.5V11c0-.3-.2-.5-.5-.5H.5c-.3-.1-.5.2-.5.5v1.2zm3.5 3.3c0 .3.2.5.5.5h12.7c.3 0 .5-.2.5-.5v-1.2c0-.3-.2-.5-.5-.5H4.1c-.3 0-.5.2-.5.5v1.2zm4.6 3.6c0 .3.2.5.5.5H19c.3 0 .5-.2.5-.5v-1.2c0-.3-.2-.5-.5-.5H8.7c-.3 0-.5.2-.5.5v1.2z"/><path fill="#202025" d="M49.5 21.5c-.5.1-1.1.1-1.6.1-1.4 0-2.5-.2-3.3-.7-.7-.4-1.2-1.1-1.4-2-.2-1-.3-2.4-.3-4.2 0-1.8.1-3.2.3-4.2.2-1 .7-1.6 1.4-2 .7-.4 1.7-.7 3.3-.7.5 0 1 0 1.5.1s1 .2 1.3.2v2.4c-1.1-.1-1.9-.2-2.2-.2-.9 0-1.5.1-1.9.2-.3.1-.5.5-.7 1.1-.1.5-.1 1.5-.1 3s0 2.5.1 3 .3.9.7 1.1c.3.2 1 .2 1.9.2.7 0 1.5-.1 2.3-.2v2.4c-.2.2-.6.3-1.3.4zm4.7-.6c-.7-.4-1.1-1-1.3-2-.2-.9-.2-2.4-.2-4.3s.1-3.4.2-4.3c.1-.9.5-1.5 1.3-2 .6-.3 1.8-.4 3.5-.4s2.8.2 3.5.5c.7.4 1.1 1 1.3 2 .2.9.2 2.3.2 4.3s-.1 3.4-.2 4.3c-.2.9-.5 1.5-1.3 2-.7.4-1.9.5-3.5.5-1.7.1-2.9-.1-3.5-.6zm4.9-2.1c.2-.1.5-.5.5-1 .1-.5.1-1.6.1-3.1s0-2.6-.1-3.1-.2-.9-.5-1c-.2-.1-.7-.2-1.4-.2s-1.2.1-1.4.2c-.2.1-.4.5-.4 1-.1.5-.1 1.6-.1 3.1s0 2.6.1 3.1.2.9.4 1c.2.1.7.2 1.4.2s1 0 1.4-.2zm12.7 2.6-3.9-7.7h-.1v7.7h-2.9V8H68l3.7 7h.1V8h2.9v13.4h-2.9zm7.4 0V10.7H76V8.1h9.4v2.6h-3.2v10.7h-3zm7.7 0V8h8v2.5h-5.1v2.8h4.3v2.5h-4.3v3H95v2.5h-8v.1zm17.2 0-3.9-7.7h-.1v7.7h-2.9V8h3.1l3.7 7h.1V8h2.9v13.4h-2.9zm7.4 0V10.7h-3.2V8.1h9.4v2.6h-3.2v10.7h-3zm7.6-.1v-2.4c1.6.1 2.7.2 3.5.2.5 0 1 0 1.3-.1.3-.1.5-.1.7-.2.1-.1.2-.2.2-.4v-.7c0-.4 0-.7-.1-.9-.1-.2-.2-.3-.3-.4-.2-.1-.4-.2-.9-.2l-2.2-.3c-1-.1-1.6-.5-2.1-1.2s-.5-1.5-.5-2.7c0-1.1.2-2 .5-2.6.3-.5.9-1 1.5-1.2.7-.2 1.5-.3 2.5-.3 1.2 0 2.5.1 3.8.4v2.4c-1.2-.1-2.2-.2-3.1-.2-1 0-1.6.1-1.9.2-.2.1-.2.2-.3.4-.1.2-.1.4-.1.7 0 .3 0 .7.1.7.1.1.1.2.2.3.1.1.3.1.7.2l2.3.3c.5.1 1 .2 1.3.4.3.2.7.5.9 1 .2.5.4 1.4.4 2.5 0 1.3-.2 2.2-.5 2.8-.3.7-.9 1.1-1.4 1.3-.5.2-1.4.3-2.4.3-1.5 0-2.9-.2-4.1-.3zm12.7.1V10.7h-3.1V8.1h9.4v2.6h-3.2v10.7h-3.1zm14.3 0-.7-2.7h-4l-.7 2.7h-3.1L141.3 8h4.2l3.6 13.4h-3zm-2.6-10.6h-.1l-1.3 5.4h2.7l-1.3-5.4zm13.3 10.7c-.5.1-1.1.1-1.6.1-1.4 0-2.5-.2-3.3-.7-.7-.4-1.2-1.1-1.4-2-.2-1-.3-2.4-.3-4.2 0-1.8.1-3.2.3-4.2.2-1 .7-1.6 1.4-2 .7-.4 1.7-.7 3.3-.7.5 0 1 0 1.5.1s1 .2 1.3.2v2.4c-1.1-.1-1.9-.2-2.2-.2-.9 0-1.5.1-1.9.2-.3.2-.5.5-.7 1.1-.1.5-.1 1.5-.1 3s0 2.5.1 3 .3.9.7 1.1c.3.2 1 .2 1.9.2.7 0 1.5-.1 2.3-.2v2.4c-.3.2-.7.3-1.3.4zm10.2-.1-3.1-5.5h-.9v5.5h-3V8h3.1v5.3h.9l3-5.3h3.3l-3.9 6.4 3.9 6.9-3.3.1zm6.6-9.4V8.8h-1.2v-.7h3.2v.7h-1.2V12h-.8zm2.5 0V8h1.2l.7 2.7.7-2.7h1.2v4h-.7V8.8l-.7 3.1h-.7l-.8-3.1V12h-.9z"/></svg>
