<svg xmlns="http://www.w3.org/2000/svg" xml:space="preserve" viewBox="0 0 180 24.4"><path fill="#55baa0" d="M16.6 24c.4 0 .8-.1 1-.4.2-.2.4-.5.4-.9 0-.3-.1-.6-.4-.9-.2-.2-.6-.4-1-.4H2.7V1.7c0-.4-.1-.7-.4-1-.3-.2-.6-.3-1-.3S.6.5.3.7c-.2.2-.3.6-.3 1v21c0 .8.5 1.3 1.4 1.3h15.2zm12.3.4c1.3 0 2.5-.1 3.6-.5 1.2-.4 2.2-.9 3-1.7.3-.3.5-.7.5-1.1 0-.3-.1-.6-.4-.8-.2-.2-.5-.3-.9-.3s-.7.1-1 .4c-1.4 1-3 1.6-4.9 1.6-1.2 0-2.3-.3-3.3-.8s-1.8-1.2-2.4-2.1c-.6-.9-1-1.8-1.2-2.8h14.7c1.2 0 1.8-.6 1.8-1.7 0-2.2-.5-4-1.4-5.4-.9-1.4-2.1-2.5-3.6-3.2-1.5-.7-3.1-1-4.8-1-1.6 0-3.2.4-4.6 1.2-1.4.8-2.6 1.9-3.5 3.3s-1.3 3.2-1.3 5.2c0 1.9.4 3.5 1.2 5 .8 1.5 1.9 2.7 3.4 3.5 1.5.7 3.2 1.2 5.1 1.2zm7-10.5h-14c.1-2.1.9-3.8 2.2-4.9 1.3-1.1 2.9-1.7 4.8-1.7 1.1 0 2.1.2 3.2.7 1 .5 1.9 1.2 2.6 2.2.7 1.1 1.1 2.3 1.2 3.7zM57.4 24c.3 0 .7-.1.9-.4.3-.3.4-.6.4-.9 0-.3-.1-.6-.3-.8l-6.8-7.4 6.5-7.3c.2-.2.3-.4.3-.7 0-.3-.1-.7-.4-.9-.3-.3-.6-.4-1-.4s-.8.2-1 .5l-6.2 7.1L44 5.7c-.3-.3-.6-.5-1-.5s-.7.1-1 .4c-.3.2-.4.5-.4.8 0 .3.1.6.3.9l6 7.2-6.2 7.3c-.3.3-.4.7-.4 1 0 .3.1.6.4.9.3.3.6.4.9.4.4 0 .8-.2 1.1-.5l6.1-7.4 6.5 7.5c.4.1.7.3 1.1.3zm13.6.4c1.2 0 2.4-.3 3.5-.9 1.2-.6 2-1.4 2.5-2.4v1.6c0 .4.1.7.4 1 .2.2.6.4 1 .4s.8-.1 1-.4c.2-.2.4-.6.4-1V6.5c0-.4-.1-.7-.4-1-.3-.2-.6-.4-1-.4s-.7.1-1 .4c-.2.2-.4.6-.4 1v1.2c-.6-1-1.5-1.8-2.5-2.2-1.1-.5-2.2-.7-3.4-.7-1.8 0-3.4.4-4.9 1.1-1.5.7-2.6 1.8-3.5 3.3-.9 1.4-1.3 3.2-1.3 5.3 0 2 .4 3.8 1.2 5.3.8 1.5 2 2.6 3.4 3.4 1.5.8 3.2 1.2 5 1.2zm0-2.6c-.9 0-1.9-.3-3-.8s-2-1.3-2.7-2.4c-.8-1.1-1.1-2.5-1.1-4.2 0-1.3.3-2.5.8-3.6s1.3-2 2.4-2.6c1-.6 2.3-1 3.7-.9 1.7.2 3.2.7 4.2 1.7 1.1 1 1.6 2.4 1.6 4.2v2.9c0 1.7-.6 3.1-1.7 4.1-1.1 1-2.5 1.6-4.2 1.6zm21.6 2.6c1.2 0 2.5-.2 3.8-.6 1.3-.4 2.4-1 3.3-1.9.9-.9 1.4-2 1.4-3.5 0-1.4-.4-2.5-1.2-3.3-.8-.7-1.7-1.2-2.8-1.5-1.1-.2-2.6-.5-4.4-.6H92c-1.1-.1-2-.2-2.7-.3-.7-.1-1.2-.4-1.6-.7-.4-.3-.7-.9-.7-1.5 0-1 .6-1.8 1.7-2.4 1.2-.6 2.4-.8 3.7-.8 3.1 0 5 .8 5.6 2.3.2.5.6.8 1.2.8.4 0 .7-.1 1-.4.3-.2.4-.6.4-.9 0-.1 0-.2-.1-.4-.6-1.5-1.6-2.5-3.1-3s-3.2-.8-5.1-.8c-1.3 0-2.6.2-3.8.6-1.2.4-2.3 1-3.1 1.9-.8.9-1.2 1.9-1.2 3.1 0 1.4.4 2.5 1.2 3.2.8.7 1.7 1.2 2.8 1.4 1.1.2 2.6.4 4.4.6 1.4.1 2.5.2 3.2.3.7.1 1.3.4 1.9.7.5.4.8.9.8 1.7 0 .8-.3 1.4-1 2-.7.5-1.4.9-2.3 1.2-.9.2-1.7.4-2.4.4-1.4 0-2.7-.2-3.9-.7-1.2-.5-1.9-1.1-2-1.9-.1-.4-.2-.6-.4-.8-.2-.2-.5-.3-.8-.3-.4 0-.7.1-1 .4-.3.2-.4.5-.4.9v.3c.3 1.7 1.3 2.8 3 3.5 1.5.6 3.3 1 5.3 1z"/><path d="M116.4 24.4c1.8 0 3.6-.4 5.3-1.2 1.8-.8 3.1-2 4.1-3.4.1-.2.2-.5.2-.7 0-.3-.1-.6-.4-.9-.3-.2-.6-.4-1-.4s-.7.2-.9.5c-.9 1.1-1.9 2-3.2 2.6-1.3.6-2.6.9-4.1.9-1.7 0-3.2-.4-4.7-1.3-1.4-.9-2.6-2.1-3.4-3.6-.9-1.5-1.3-3.2-1.3-5 0-2.3.5-4.1 1.5-5.5 1-1.4 2.2-2.4 3.7-3 1.5-.6 2.9-.9 4.5-.9 1.3 0 2.5.2 3.6.7 1.1.4 2.2 1.2 3.1 2.2.3.3.6.4.9.4.3 0 .7-.1.9-.4.3-.3.4-.6.4-.9 0-.3-.1-.6-.3-.8-2.3-2.5-5.2-3.7-8.7-3.7-1.8 0-3.7.4-5.6 1.3-1.9.8-3.4 2.2-4.7 3.9-1.3 1.8-1.9 4-1.9 6.7 0 2.4.6 4.5 1.7 6.4 1.1 1.9 2.6 3.4 4.4 4.5s3.8 1.6 5.9 1.6zm36-.4c.4 0 .7-.1.9-.4.3-.2.4-.6.4-1V1.8c0-.4-.1-.8-.4-1.1s-.5-.4-.9-.4c-.5 0-1 .3-1.3.8l-9 14.1L133 1.1c-.1-.3-.3-.5-.6-.6-.2-.1-.4-.2-.7-.2-.3 0-.6.1-.9.4-.3.3-.4.6-.4 1.1v20.8c0 .4.1.7.4 1 .3.2.6.4 1 .4s.7-.1.9-.4c.3-.2.4-.6.4-1V6.4l7.6 11.8c.3.5.8.8 1.3.8s.9-.3 1.3-.8L151 6.3v16.3c0 .4.1.7.4 1 .3.3.6.4 1 .4zm16.7.4c1.7 0 3.4-.2 5.1-.7 1.7-.4 3-1.2 4.2-2.3 1.1-1.1 1.7-2.5 1.7-4.3 0-1.7-.5-3-1.5-3.9-1-.9-2.1-1.4-3.5-1.7-1.3-.3-3.2-.5-5.6-.7-1.8-.1-3.3-.3-4.3-.5-1.1-.2-1.9-.6-2.6-1.1-.7-.5-1-1.3-1-2.3 0-1 .4-1.9 1.2-2.5.8-.6 1.8-1.1 2.9-1.3 1.1-.3 2.2-.4 3.2-.4 1.8 0 3.5.2 4.9.6 1.4.4 2.4 1.3 2.9 2.5.2.4.6.7 1.2.7.4 0 .7-.1 1-.3.3-.2.4-.5.4-.8 0-.1 0-.2-.1-.4-1.2-3.3-4.7-5-10.3-5-1.6 0-3.2.2-4.8.7-1.6.5-2.8 1.3-3.9 2.3-1 1-1.5 2.3-1.5 3.9 0 1.7.5 3 1.5 3.9 1 .9 2.2 1.5 3.6 1.8s3.3.6 5.5.7c1.9.1 3.3.3 4.3.5s1.9.5 2.6 1c.7.5 1.1 1.3 1.1 2.3 0 1.7-.8 2.8-2.5 3.5-1.6.7-3.5 1-5.6 1-4.6 0-7.3-1.2-8.1-3.6-.1-.3-.2-.5-.4-.7-.2-.1-.5-.2-.8-.2-.4 0-.8.1-1.1.3-.3.2-.5.5-.5.9v.3c.5 2 1.9 3.4 4 4.3 2.1 1 4.4 1.5 6.8 1.5z"/></svg>
