<svg xmlns="http://www.w3.org/2000/svg" xml:space="preserve" viewBox="0 0 180 53.3"><path d="M130.1 5.6c0-3.1 2.5-5.6 5.6-5.6s5.6 2.5 5.6 5.6-2.5 5.6-5.6 5.6-5.6-2.5-5.6-5.6zM49.7 22.5c2.6 2.9 4.1 6.7 4.1 10.6v19.4h-8.6V32.9c0-3.9-3.2-7-7.1-7h-.7c-3.4.4-6.4 3.6-6.4 7.2v19.4h-8.5V32.9c0-3.9-3.2-7.1-7.1-7.1h-.7c-3.4.4-6.4 3.6-6.4 7.2v19.4H0V32.9c0-8.6 7-15.5 15.5-15.5 4.3 0 8.4 1.8 11.3 4.9 2.9-3.1 7.1-4.9 11.3-4.9.5 0 .9 0 1.4.1 4 .3 7.6 2.1 10.2 5zm57.5 30.1h-8.5V.8h8.5v51.8zm16.4 0h-8.5V.8h8.5v51.8zm16.4 0h-8.5V18.2h8.5v34.4zm40-14.1h-26c1.2 4.1 4.9 7.1 9.3 7.1 3.4 0 6.5-1.7 8.2-4.6l.4-.6 7.1 3.5-.4.7c-3.2 5.4-9.1 8.8-15.4 8.8-4.8 0-9.3-1.9-12.7-5.3-3.4-3.4-5.2-8-5.2-12.8.1-4.7 1.9-9.1 5.2-12.5 3.3-3.3 7.7-5.2 12.4-5.2h.2c4.5 0 8.8 1.8 12 5.1 3.2 3.3 5 7.6 5 12.1v3.7h-.1zm-25.9-7.1h17.2c-1.2-3.7-4.7-6.2-8.6-6.2-3.9-.1-7.4 2.5-8.6 6.2zm-60 3.9c0 9.9-8 17.9-17.9 17.9-9.9 0-17.9-8.1-17.9-17.9 0-9.9 8-17.9 17.9-17.9 9.8 0 17.9 8 17.9 17.9zm-8.5 0c0-5.2-4.2-9.4-9.4-9.4s-9.4 4.2-9.4 9.4 4.2 9.4 9.4 9.4c5.1.1 9.4-4.1 9.4-9.4z"/></svg>
