<svg xmlns="http://www.w3.org/2000/svg" xml:space="preserve" id="Layer_1" x="0" y="0" version="1.1" viewBox="0 0 180 57.2"><style>.st0{fill:#888}</style><path d="M158.3 13.8c-12 0-21.7 9.7-21.7 21.7s9.7 21.7 21.7 21.7S180 47.5 180 35.5s-9.7-21.7-21.7-21.7zm0 34.5c-7.1 0-12.8-5.7-12.8-12.8 0-7.1 5.7-12.8 12.8-12.8 7.1 0 12.8 5.7 12.8 12.8 0 7.1-5.7 12.8-12.8 12.8zM112.2 13.8c-12 0-21.7 9.7-21.7 21.7s9.7 21.7 21.7 21.7 21.7-9.7 21.7-21.7-9.7-21.7-21.7-21.7zm0 34.5c-7.1 0-12.8-5.7-12.8-12.8 0-7.1 5.7-12.8 12.8-12.8 7.1 0 12.8 5.7 12.8 12.8 0 7.1-5.7 12.8-12.8 12.8zM84.2 0c-2.4 0-4.3 1.9-4.3 4.3v13.9c-3.7-2.7-8.2-4.4-13.1-4.4-12 0-21.7 9.7-21.7 21.7s9.7 21.7 21.7 21.7 21.7-9.7 21.7-21.7V4.3c0-2.4-1.9-4.3-4.3-4.3zM66.8 48.3c-7.1 0-12.8-5.7-12.8-12.8s5.7-12.8 12.8-12.8c7.1 0 12.8 5.7 12.8 12.8s-5.8 12.8-12.8 12.8z" class="st0"/><path fill="#9c5789" d="M21.7 13.7C9.7 13.7 0 23.5 0 35.5s9.7 21.7 21.7 21.7 21.7-9.7 21.7-21.7-9.7-21.8-21.7-21.8zm-.2 34.7c-7.1 0-12.8-5.7-12.8-12.8s5.7-12.8 12.8-12.8c7.1 0 12.8 5.7 12.8 12.8s-5.7 12.8-12.8 12.8z"/></svg>
