<svg xmlns="http://www.w3.org/2000/svg" xml:space="preserve" id="Layer_1" x="0" y="0" version="1.1" viewBox="0 0 180 44"><style>.st0{fill:#253b80}.st1{fill:#179bd7}</style><path d="M67.3 9.8h-10c-.7 0-1.3.5-1.4 1.2l-4 25.5c-.1.5.3 1 .8 1h4.8c.7 0 1.3-.5 1.4-1.2l1.1-6.9c.1-.7.7-1.2 1.4-1.2h3.2c6.6 0 10.4-3.2 11.3-9.5.4-2.8 0-4.9-1.3-6.4-1.4-1.6-4-2.5-7.3-2.5zm1.2 9.4c-.5 3.6-3.3 3.6-5.9 3.6H61l1.1-6.7c.1-.4.4-.7.8-.7h.7c1.8 0 3.5 0 4.4 1 .5.6.7 1.5.5 2.8zM97.1 19h-4.8c-.4 0-.8.3-.8.7l-.2 1.3-.3-.5c-1-1.5-3.3-2-5.6-2-5.3 0-9.8 4-10.7 9.6-.5 2.8.2 5.5 1.8 7.3 1.5 1.7 3.5 2.4 6 2.4 4.3 0 6.6-2.7 6.6-2.7l-.2 1.3c-.1.5.3 1 .8 1H94c.7 0 1.3-.5 1.4-1.2L97.9 20c.1-.5-.3-.9-.8-1zm-6.7 9.3c-.5 2.7-2.6 4.6-5.4 4.6-1.4 0-2.5-.4-3.2-1.3-.7-.8-1-2-.8-3.4.4-2.7 2.6-4.6 5.3-4.6 1.4 0 2.5.4 3.2 1.3.9.9 1.1 2.1.9 3.4zM122.5 19h-4.8c-.5 0-.9.2-1.1.6l-6.6 9.7-2.8-9.4c-.2-.6-.7-1-1.3-1h-4.7c-.6 0-1 .6-.8 1.1l5.3 15.5-5 7c-.4.6 0 1.3.7 1.3h4.8c.5 0 .9-.2 1.1-.6l15.9-23c.4-.4 0-1.1-.7-1.2z" class="st0"/><path d="M138.4 9.8h-10c-.7 0-1.3.5-1.4 1.2l-4 25.5c-.1.5.3 1 .8 1h5.1c.5 0 .9-.4 1-.8l1.1-7.2c.1-.7.7-1.2 1.4-1.2h3.2c6.6 0 10.4-3.2 11.3-9.5.5-2.8 0-4.9-1.3-6.4-1.4-1.7-3.9-2.6-7.2-2.6zm1.1 9.4c-.5 3.6-3.3 3.6-5.9 3.6h-1.5l1.1-6.7c.1-.4.4-.7.8-.7h.7c1.8 0 3.5 0 4.4 1 .4.6.6 1.5.4 2.8zM168.1 19h-4.8c-.4 0-.8.3-.8.7l-.2 1.3-.3-.5c-1-1.5-3.3-2-5.6-2-5.3 0-9.8 4-10.7 9.6-.5 2.8.2 5.5 1.8 7.3 1.5 1.7 3.5 2.4 6 2.4 4.2 0 6.6-2.7 6.6-2.7l-.2 1.3c-.1.5.3 1 .8 1h4.3c.7 0 1.3-.5 1.4-1.2l2.6-16.3c0-.4-.4-.8-.9-.9zm-6.6 9.3c-.5 2.7-2.6 4.6-5.4 4.6-1.4 0-2.5-.4-3.2-1.3-.7-.8-1-2-.8-3.4.4-2.7 2.6-4.6 5.3-4.6 1.4 0 2.5.4 3.2 1.3.8.9 1.1 2.1.9 3.4zM173.8 10.5l-4.1 26c-.1.5.3 1 .8 1h4.1c.7 0 1.3-.5 1.4-1.2l4-25.5c.1-.5-.3-1-.8-1h-4.6c-.4 0-.8.3-.8.7z" class="st1"/><path d="m10.6 42.5.8-4.8H1.5L7.2 1.9c0-.1.1-.2.2-.3.1-.1.2-.1.3-.1h13.7c4.5 0 7.7.9 9.3 2.8.8.9 1.3 1.8 1.5 2.8.2 1.1.2 2.3 0 3.9v1.1l.8.4c.6.3 1.2.7 1.6 1.2.7.8 1.1 1.7 1.3 2.8.2 1.2.1 2.5-.2 4.1-.3 1.8-.9 3.4-1.7 4.6-.7 1.2-1.6 2.2-2.7 2.9-1 .7-2.2 1.3-3.6 1.6-1.3.3-2.8.5-4.5.5H22c-.8 0-1.5.3-2.1.8-.6.5-1 1.2-1.1 1.9l-.1.4-1.3 8.5-.1.3c0 .1 0 .2-.1.2l-.1.1-6.5.1z" class="st0"/><path d="M33.6 11.2c0 .3-.1.5-.1.8-1.8 9.3-8 12.4-15.8 12.4h-4c-1 0-1.8.7-1.9 1.7l-2.1 13-.7 3.7c-.1.6.4 1.2 1 1.2h7.1c.8 0 1.6-.6 1.7-1.4l.1-.4 1.3-8.5.1-.5c.1-.8.9-1.4 1.7-1.4h1.1C30 31.8 35.4 29 37 20.9c.7-3.4.3-6.2-1.4-8.2-.6-.6-1.2-1.1-2-1.5z" class="st1"/><path fill="#222d65" d="M31.7 10.4c-.3-.1-.6-.2-.9-.2-.3-.1-.6-.1-.9-.2-1.1-.2-2.3-.3-3.5-.3H15.7c-.3 0-.5.1-.7.2-.5.2-.9.7-1 1.3l-2.3 14.4-.1.4c.1-1 1-1.7 1.9-1.7h4c7.9 0 14-3.2 15.8-12.4.1-.3.1-.5.1-.8l-1.5-.6c.1 0-.1 0-.2-.1z"/><path d="M14 11.2c.1-.6.5-1 1-1.3.2-.1.5-.2.7-.2h10.7c1.3 0 2.5.1 3.5.3.3.1.6.1.9.2s.6.1.9.2c.1 0 .3.1.4.1l1.5.6c.5-3.4 0-5.7-1.9-7.9C29.7 1 26 0 21.3 0H7.6c-1 0-1.8.7-1.9 1.7L0 37.7c-.1.7.4 1.4 1.2 1.4h8.4l2.1-13.4L14 11.2z" class="st0"/></svg>
