<svg xmlns="http://www.w3.org/2000/svg" xml:space="preserve" id="Layer_1" x="0" y="0" version="1.1" viewBox="0 0 180 61.3"><style>.st0{fill:#a32422}.st1{fill:#dc382c}.st2{fill:#fff}</style><path d="M68.7 47.2c-3.8 2-23.6 10.1-27.8 12.4-4.3 2.2-6.5 2.2-9.9.6-3.3-1.6-24.3-10.1-28.1-12C1 47.3 0 46.6 0 45.9v-7.2s27.4-5.9 31.8-7.5c4.4-1.6 6-1.6 9.7-.3 3.8 1.4 26.3 5.4 30 6.8v7.1c0 .7-.9 1.4-2.8 2.4z" class="st0"/><path d="M68.7 40c-3.8 2-23.6 10.1-27.8 12.3-4.3 2.2-6.5 2.2-9.9.6C27.7 51.4 6.7 42.8 2.9 41c-3.8-1.8-3.9-3-.1-4.5 3.7-1.5 24.6-9.6 29.1-11.3s6-1.6 9.7-.3c3.8 1.4 23.4 9.2 27.1 10.6 3.7 1.4 3.8 2.5 0 4.5z" class="st1"/><path d="M68.7 35.5c-3.8 2-23.6 10.1-27.8 12.3-4.3 2.2-6.5 2.2-9.8.6-3.4-1.7-24.4-10.1-28.2-11.9C1 35.6 0 34.8 0 34.1v-7.2s27.4-6 31.8-7.6c4.4-1.6 6-1.6 9.7-.3 3.8 1.4 26.3 5.4 30 6.8V33c0 .7-.9 1.4-2.8 2.5z" class="st0"/><path d="M68.7 28.2c-3.8 2-23.6 10.1-27.8 12.3-4.3 2.2-6.5 2.2-9.9.6C27.7 39.5 6.7 31 2.9 29.2c-3.8-1.8-3.9-3.1-.1-4.5 3.7-1.5 24.6-9.7 29.1-11.2 4.4-1.6 6-1.7 9.7-.3 3.8 1.4 23.4 9.2 27.1 10.6 3.7 1.3 3.8 2.4 0 4.4z" class="st1"/><path d="M68.7 23.2c-3.8 2-23.6 10.1-27.8 12.3-4.3 2.2-6.5 2.2-9.8.6-3.4-1.5-24.4-10-28.2-11.9C1 23.3 0 22.6 0 21.9v-7.2s27.4-5.9 31.8-7.5c4.4-1.6 6-1.6 9.7-.3 3.8 1.4 26.3 5.4 30 6.8v7.1c0 .7-.9 1.4-2.8 2.4z" class="st0"/><path d="M68.7 16c-3.8 2-23.6 10.1-27.8 12.3-4.3 2.2-6.5 2.2-9.9.6C27.7 27.3 6.7 18.8 2.9 17c-3.8-1.8-3.9-3.1-.1-4.5 3.7-1.4 24.6-9.7 29-11.2 4.4-1.6 6-1.6 9.7-.3 3.8 1.4 23.4 9.2 27.1 10.6 3.7 1.3 3.9 2.4.1 4.4z" class="st1"/><path d="m36.9 5.8 4.7-1.5-1.3 3.1 4.8 1.8-6.2.6-1.4 3.2-2.2-3.7-7.2-.6 5.3-1.9-1.6-3 5.1 2zm.3 19.5-11.6-4.8L42.2 18l-5 7.3zM21.1 10.9c4.9 0 8.9 1.5 8.9 3.4s-4 3.4-8.9 3.4-8.9-1.5-8.9-3.4c.1-1.8 4-3.4 8.9-3.4z" class="st2"/><path fill="#741113" d="m52.4 10 9.8 3.9-9.8 3.9V10z"/><path fill="#ac2724" d="M52.4 10v7.7l-1.1.4-9.8-3.9L52.4 10z"/><path fill="#494c4d" d="M94.2 20.2c.8-.9 1.9-1.6 3-2.1s2.3-.7 3.6-.8c.9-.1 1.8.2 2.4.8.5.5.8 1.2.7 1.9 0 .7-.3 1.4-.7 1.9-.5.5-1.1.8-1.9.8-3 .3-7.3 3.3-7.3 7.4v9.4c0 1.4-1.2 2.6-2.6 2.6a2.732 2.732 0 0 1-2.7-2.7V19.8c0-.7.3-1.4.8-1.9.6-.4 1.3-.6 2-.7 1.4 0 2.6 1.2 2.6 2.6l.1.4zm32.1 8.6c0 .6-.2 1.3-.7 1.7-.5.5-1.2.7-1.9.8h-15.6c.1 1.2.7 2.4 1.7 3.2 1.2 1.3 2.9 2.1 4.6 2.2 1.8.3 3.7-.1 5.2-1.2.5-.5 1.2-.8 2-.8.6 0 1.3.2 1.7.7.9.8.9 2.2.1 3 0 .1-.1.1-.1.1-2.3 2.2-5.4 3.3-8.6 3.2-3.3.1-6.4-1.3-8.6-3.7-2.2-2.4-3.5-5.5-3.6-8.7-.1-3.3 1.2-6.4 3.6-8.7 2.1-2.3 5.2-3.6 8.3-3.6 3.1-.1 6.1 1.1 8.2 3.3 2.2 2.1 3.6 5.1 3.7 8.2v.3zm-11.7-7c-1.6 0-3.2.6-4.5 1.7-1.1.9-1.8 2.1-2.1 3.4h13.9c-.4-1.3-1.2-2.5-2.4-3.3-1.4-1.1-3.1-1.7-4.9-1.8zm36.6 17.3c0 1.4-1.2 2.6-2.6 2.6-1.3-.1-2.3-.9-2.6-2.1-2 1.4-4.3 2.2-6.8 2.1-3.2 0-6.3-1.3-8.5-3.6-2.3-2.3-3.6-5.5-3.4-8.7 0-3.2 1.2-6.4 3.4-8.7 2.2-2.4 5.3-3.7 8.5-3.7 2.4 0 4.7.7 6.6 2.1V9.9a2.732 2.732 0 0 1 2.7-2.7 2.732 2.732 0 0 1 2.7 2.7v29.2zm-11.9-2.6c1.8 0 3.5-.7 4.6-2.1 2.6-2.7 2.6-7 0-9.8-1.2-1.3-2.9-2.1-4.6-2.1-1.8-.1-3.5.7-4.6 2.1-2.6 2.7-2.6 7 0 9.8 1.1 1.3 2.8 2.1 4.6 2.1zM159 9.9V11c0 .8-.3 1.5-.8 2s-1.2.7-1.9.7-1.4-.3-1.8-.8c-.5-.5-.8-1.2-.8-2v-1c0-.7.3-1.4.8-1.9s1.1-.8 1.8-.8a2.732 2.732 0 0 1 2.7 2.7zm-4.4 8.1c.5-.5 1.2-.8 1.9-.8s1.4.3 1.9.8.8 1.2.8 2v19.3c0 .7-.3 1.4-.8 1.9s-1.1.8-1.8.8a2.732 2.732 0 0 1-2.7-2.7V20c-.2-.8.1-1.5.7-2zm23.2 1.8c.5.4.9.9 1.1 1.6.1.7 0 1.4-.3 2-.4.5-.9.9-1.6 1.1-.7.1-1.4 0-2-.4-1.9-1.2-3.3-1.8-4.5-1.8-1.1-.1-2.1.3-2.9.9-.5.4-.8.7-.8.9 0 .2 0 .5.1.7.2.2.3.3.5.4 1.1.7 2.3 1.1 3.6 1.2 1.6.3 3.2.8 4.8 1.5 1.3.6 2.4 1.5 3.2 2.8 2 3 1.1 7.1-1.9 9.1-1.9 1.3-4.1 2-6.3 2-3 0-5.9-1.2-8.7-3.4-.5-.4-.8-1.1-.9-1.7-.1-1.4.9-2.6 2.3-2.8.6-.1 1.3.1 1.8.5 1.5 1.4 3.4 2.1 5.4 2.1 1.2 0 2.3-.3 3.3-.9.5-.5.9-.9.9-1.3s0-.5-.1-.7c0-.1-.3-.4-.7-.5-1.2-.7-2.6-1.2-4-1.4-1.6-.2-3.1-.7-4.5-1.5-1.3-.6-2.4-1.6-3.2-2.8-.5-.9-.8-2-.8-3 0-2.2 1.1-4.2 2.9-5.4 1.8-1.2 3.9-1.9 6.1-1.9 2.1 0 4.5 1 7.2 2.7"/></svg>
