<svg xmlns="http://www.w3.org/2000/svg" xml:space="preserve" id="Layer_1" x="0" y="0" version="1.1" viewBox="0 0 128.5 90"><style>.st1{fill-rule:evenodd;clip-rule:evenodd;fill:#fffffe}</style><path fill="#00a1e0" fill-rule="evenodd" d="M53.5 9.8c4.1-4.3 9.9-7 16.3-7 8.5 0 15.9 4.7 19.8 11.8 3.5-1.6 7.3-2.4 11.2-2.4 15.3 0 27.7 12.5 27.7 28s-12.4 28-27.7 28c-1.9 0-3.7-.2-5.5-.5C91.9 73.8 85.2 78 77.7 78c-3.1 0-6.1-.7-8.9-2-3.5 8.2-11.7 14-21.3 14s-18.4-6.3-21.7-15.1c-1.5.3-2.9.5-4.4.5C9.6 75.3 0 65.6 0 53.7c0-8 4.3-15 10.7-18.8-1.4-3.1-2.1-6.5-2.1-9.9.1-13.9 11.3-25 25.1-25 8 0 15.3 3.9 19.8 9.8" clip-rule="evenodd"/><path d="M18.7 46.6c-.1.2 0 .3.1.3.2.2.5.3.7.4 1.3.7 2.6.9 3.8.9 2.6 0 4.3-1.4 4.3-3.7 0-2.1-1.9-2.8-3.6-3.4l-.2-.1c-1.3-.4-2.4-.8-2.4-1.7 0-.7.7-1.3 1.7-1.3 1.1 0 2.5.4 3.3.9 0 0 .3.2.4-.1.1-.1.5-1.3.5-1.4.1-.1 0-.2-.1-.3-1-.6-2.4-1-3.8-1h-.3c-2.4 0-4.1 1.5-4.1 3.5 0 2.2 1.9 2.9 3.6 3.4l.3.1c1.3.4 2.4.7 2.4 1.6 0 .8-.7 1.4-1.9 1.4-.4 0-1.9 0-3.4-1-.2-.1-.3-.2-.4-.3-.1 0-.3-.1-.3.1l-.6 1.7zm38.6 0c-.1.2 0 .3.1.3.2.2.5.3.7.4 1.3.7 2.6.9 3.8.9 2.6 0 4.3-1.4 4.3-3.7 0-2.1-1.8-2.8-3.6-3.4l-.2-.1c-1.3-.4-2.4-.8-2.4-1.7 0-.7.7-1.3 1.7-1.3 1.1 0 2.5.4 3.3.9 0 0 .3.2.4-.1.1-.1.5-1.3.5-1.4 0-.1 0-.2-.1-.3-1-.6-2.4-1-3.8-1h-.3c-2.4 0-4.1 1.5-4.1 3.5 0 2.2 1.9 2.9 3.6 3.4l.3.1c1.3.4 2.4.7 2.4 1.6 0 .8-.7 1.4-1.9 1.4-.4 0-1.9 0-3.4-1-.2-.1-.3-.2-.4-.3-.1 0-.3-.1-.3.1l-.6 1.7zm26.4-4.4c0 1.3-.2 2.3-.7 3-.5.7-1.2 1-2.1 1-1 0-1.7-.3-2.1-1-.5-.7-.7-1.7-.7-3s.2-2.3.7-3c.5-.7 1.2-1 2.1-1 1 0 1.7.3 2.1 1 .4.7.7 1.8.7 3zm2.2-2.3c-.2-.7-.6-1.4-1-1.9s-1-1-1.7-1.3c-.7-.3-1.5-.5-2.4-.5-.9 0-1.7.2-2.4.5s-1.2.7-1.7 1.3c-.4.5-.8 1.2-1 1.9-.2.7-.3 1.5-.3 2.4 0 .8.1 1.6.3 2.4.2.7.6 1.4 1 1.9s1 1 1.7 1.3c.7.3 1.5.5 2.4.5.9 0 1.7-.2 2.4-.5s1.2-.7 1.7-1.3c.4-.5.8-1.2 1-1.9.2-.7.3-1.5.3-2.4 0-.9-.1-1.7-.3-2.4zm18.1 6c-.1-.2-.3-.1-.3-.1-.3.1-.7.2-1 .3-.4.1-.8.1-1.2.1-1.1 0-1.9-.3-2.5-.9-.6-.6-.9-1.6-.9-3 0-1.2.3-2.2.8-2.9.5-.7 1.4-1.1 2.4-1.1.9 0 1.6.1 2.3.3 0 0 .2.1.3-.2.2-.5.3-.9.5-1.5.1-.2-.1-.2-.1-.3-.3-.1-1-.3-1.5-.4-.5-.1-1-.1-1.7-.1-.9 0-1.7.2-2.4.5s-1.3.7-1.8 1.3c-.5.5-.8 1.2-1.1 1.9-.2.7-.4 1.5-.4 2.4 0 1.8.5 3.3 1.5 4.4 1 1.1 2.4 1.6 4.3 1.6 1.1 0 2.3-.2 3.1-.6 0 0 .2-.1.1-.3l-.4-1.4zm3.8-4.9c.1-.7.3-1.3.6-1.8.5-.7 1.2-1.1 2.1-1.1s1.6.4 2.1 1.1c.3.5.4 1.1.5 1.8h-5.3zm7.4-1.6c-.2-.7-.7-1.4-1-1.7-.5-.5-.9-.9-1.4-1.1-.7-.3-1.4-.4-2.1-.4-.9 0-1.8.2-2.5.5s-1.3.8-1.7 1.3c-.5.5-.8 1.2-1 1.9-.2.7-.3 1.5-.3 2.4 0 .8.1 1.7.3 2.4.2.7.6 1.4 1.1 1.9.5.5 1.1.9 1.9 1.2.8.3 1.7.4 2.7.4 2.2 0 3.3-.5 3.8-.7.1 0 .2-.1.1-.4l-.5-1.4c-.1-.2-.3-.1-.3-.1-.5.2-1.3.6-3.1.6-1.2 0-2-.3-2.6-.9-.5-.5-.8-1.3-.9-2.5h7.5s.2 0 .2-.2c.1 0 .3-1.5-.2-3.2zm-67 1.6c.1-.7.3-1.3.6-1.8.5-.7 1.2-1.1 2.1-1.1s1.6.4 2.1 1.1c.3.5.4 1.1.5 1.8h-5.3zm7.4-1.6c-.2-.7-.7-1.4-1-1.7-.5-.5-.9-.9-1.4-1.1-.7-.3-1.4-.4-2.1-.4-.9 0-1.8.2-2.5.5s-1.3.8-1.7 1.3c-.5.5-.8 1.2-1 1.9-.2.7-.3 1.5-.3 2.4 0 .8.1 1.7.3 2.4.2.7.6 1.4 1.1 1.9.5.5 1.1.9 1.9 1.2.8.3 1.7.4 2.7.4 2.2 0 3.3-.5 3.8-.7.1 0 .2-.1.1-.4l-.5-1.4c-.1-.2-.3-.1-.3-.1-.5.2-1.3.6-3.1.6-1.2 0-2-.3-2.6-.9-.5-.5-.8-1.3-.9-2.5h7.5s.2 0 .2-.2c0 0 .3-1.5-.2-3.2zm-23.5 6.5c-.3-.2-.3-.3-.4-.4-.1-.2-.2-.6-.2-1 0-.7.2-1.1.7-1.4 0 0 .6-.6 2.2-.5.7 0 1.4.1 2 .2V46s-.9.2-2 .3c-1.7.1-2.3-.4-2.3-.4zm2.9-5.3h-1.2c-.6 0-1.3.1-1.8.2-.6.2-1.1.4-1.6.7-.5.3-.8.7-1.1 1.2-.3.5-.4 1.1-.4 1.7s.1 1.2.3 1.7c.2.5.6.9 1 1.2.4.3.9.5 1.5.7.6.1 1.2.2 2 .2s1.5-.1 2.3-.2c.6-.1 1.3-.2 1.9-.4.2-.1.5-.1.5-.1.2 0 .2-.2.2-.2v-6.8c0-1.5-.4-2.6-1.2-3.3-.8-.7-1.9-1-3.4-1-.6 0-1.5.1-2 .2 0 0-1.6.3-2.3.8 0 0-.1.1-.1.3l.5 1.4c.1.2.2.1.2.1s.1 0 .1-.1c1.4-.8 3.2-.8 3.2-.8.8 0 1.4.2 1.8.5.4.3.6.8.6 1.8v.3c-.4 0-1-.1-1-.1zm60-3.8c0-.1 0-.2-.1-.3-.1-.1-.8-.2-1.2-.2-.9-.1-1.5.1-1.9.3-.5.2-1 .5-1.3.9v-.9c0-.1-.1-.2-.2-.2h-1.9c-.1 0-.2.1-.2.2v11.1c0 .1.1.2.2.2h2c.1 0 .2-.1.2-.2v-5.6c0-.7.1-1.5.2-2 .2-.5.4-.8.7-1.1.3-.3.6-.4.9-.6.3-.1.7-.1 1-.1.4 0 .8.1.8.1.1 0 .2-.1.3-.2.1-.2.4-1.3.5-1.4" class="st1"/><path d="M76.7 31.6c-.2-.1-.5-.1-.7-.2-.3-.1-.7-.1-1-.1-1.3 0-2.4.4-3.2 1.1-.7.7-1.2 1.9-1.5 3.4l-.1.5h-1.7s-.2 0-.3.2l-.2 1.7c0 .2 0 .2.2.2h1.6l-1.7 9.3c-.1.8-.3 1.4-.4 1.8-.2.5-.3.8-.5 1.1-.2.2-.4.4-.7.5-.3.1-.6.1-.9.1-.2 0-.4 0-.6-.1-.2 0-.3-.1-.4-.1 0 0-.2-.1-.3.1-.1.2-.5 1.4-.6 1.5-.1.1 0 .3.1.3.2.1.4.1.7.2.4.1.8.1 1.1.1.7 0 1.3-.1 1.8-.3.5-.2 1-.5 1.4-1 .4-.5.7-1 1-1.7.3-.7.5-1.5.7-2.5l1.7-9.5h2.5s.2 0 .3-.2l.3-1.6c0-.2 0-.2-.2-.2h-2.4c0-.1.1-.9.4-1.7.1-.3.3-.6.5-.8.2-.2.4-.3.6-.4.3-.1.5-.1.8-.1.2 0 .4 0 .6.1.2.1.3.1.4.1.2.1.3 0 .3-.1l.6-1.6s-.1 0-.2-.1zM43.4 47.8c0 .1-.1.2-.2.2h-2c-.1 0-.2-.1-.2-.2V31.9c0-.1.1-.2.2-.2h2c.1 0 .2.1.2.2v15.9z" class="st1"/></svg>
