<svg xmlns="http://www.w3.org/2000/svg" xml:space="preserve" id="Layer_1" x="0" y="0" version="1.1" viewBox="0 0 180 35.6"><style>.st0,.st1{enable-background:new}.st0{opacity:.7;fill:#f03e2f}.st1{opacity:.5}.st1,.st2{fill:#f03e2f}</style><path d="M134.3 12.6V35H127V16.4l7.3-3.8zm-98.6 23 17.2-9-2.1-5.5-11.3 5.3-3.8 9.2z" class="st0"/><path d="m127 16.4 18.7-9.6-3.2-5.3L127 9.1v7.3z" class="st1"/><path d="M74.3 10.8V35h-7V.6l7 10.2z" class="st0"/><path d="M46.3 9.5 35.7 35.6l-5.5-4.7L42.9.6l3.4 8.9z" class="st1"/><path d="M42.9.6h7.3L63.6 35h-7.4L42.9.6zm32.5 0 15.5 23.5V35L67.3.6h8.1zm36.1 0h-7.3V35h7.3V.6zM127 6.8h-11.3V.6h26.2l3.7 6.3H127z" class="st2"/><path d="M167.3 22v13H160V22" class="st1"/><path d="M160 22 172.3.6h7.7L167.3 22H160z" class="st2"/><path d="M160 22 147.4.6h7.9l8.6 14.7L160 22z" class="st0"/><path d="M2.9 4.5c0 4.8 3 7.7 9.1 9.2l6.4 1.5c5.7 1.3 9.2 4.5 9.2 9.7 0 2.3-.7 4.5-2.1 6.3 0-5.2-2.7-8-9.4-9.7L9.8 20c-5-1.1-8.9-3.8-8.9-9.4 0-2.2.7-4.3 2-6.1" class="st2"/><path d="M90.9 22.3V.6h7V35h-7V22.3zm-69.4 1.3c2.7 1.7 3.9 4.1 3.9 7.6-2.3 2.8-6.2 4.4-10.9 4.4-7.8 0-13.3-3.8-14.5-10.4h7.5c1 3 3.5 4.4 7 4.4 4.2 0 7-2.2 7-6zM6.9 11.7c-1.2-.7-2.3-1.8-3-3-.7-1.3-1-2.7-1-4.1C5.1 1.7 8.9 0 13.5 0c8 0 12.6 4.2 13.8 10H20c-.8-2.3-2.8-4.1-6.5-4.1-3.8 0-6.5 2.2-6.6 5.8" class="st0"/></svg>
