<svg xmlns="http://www.w3.org/2000/svg" xml:space="preserve" viewBox="0 0 181.9 90"><path fill="#014185" d="M0 90h91.8l90-90H0v90z"/><path fill="#fff" fill-rule="evenodd" d="M107.8 16.9H90v42.6L74.4 16.9H59.1L45.6 52.5c-1.4-9-10.7-12.1-18.1-14.4-4.6-1.6-10-3.8-9.6-6.4 0-2.1 2.5-4 7.8-3.7 3.6.2 6.8.5 13.2 3.5l6.4-10.8c-6.2-2.9-14-4.7-20.4-4.7-7.8 0-14.2 2.5-18.1 6.5-2.5 2.8-4.3 6.4-4.3 10.4 0 5.5 2.1 9.4 6.1 12.5 3.9 2.6 8.2 4.3 12.5 5.6 5 1.5 8.9 2.9 8.9 5.7 0 1.1-.4 2-1.1 2.8-1.4 1.3-3.2 1.8-6.1 1.8-5 .1-8.5-.7-14.6-4.2l-5.7 11c6.1 3.4 13.2 5.4 20.3 5.4h1.1c6.1-.1 11.4-1.9 15.3-5.2.4-.2.4-.4.7-.5l-1.8 4.8h16.4l2.5-8.3c2.8 1 6.1 1.5 9.6 1.5 3.6 0 6.4-.5 9.3-1.4l2.8 8.2H105V55.4h6.1c13.9 0 22.1-7.1 22.1-19.1-.1-13.3-7.9-19.4-25.4-19.4zM66.6 53.4c-2.1 0-3.9-.4-5.7-1l5.7-17.9 5.7 18c-1.8.5-3.6.9-5.7.9zm42.3-10.3H105V28.6h3.9c5.3 0 9.6 1.7 9.6 7.1s-4.3 7.4-9.6 7.4" clip-rule="evenodd"/></svg>
