<svg width="132" height="73" viewBox="0 0 132 73" fill="none" xmlns="http://www.w3.org/2000/svg">
<path d="M132 0H0V73H132V0Z" fill="white"/>
<path d="M1 67.3564H66.6436L131 3H1V67.3564Z" fill="#014185"/>
<path fill-rule="evenodd" clip-rule="evenodd" d="M78.0847 15.0847H65.3565V45.5468L54.2014 15.0847H43.2608L33.6073 40.5413C32.6062 34.1056 25.956 31.8889 20.6645 30.2442C17.3752 29.1001 13.5138 27.527 13.7998 25.6678C13.7998 24.1661 15.5875 22.8075 19.3774 23.022C21.9516 23.165 24.2399 23.3796 28.8163 25.5248L33.3928 17.802C28.9593 15.7283 23.3818 14.4412 18.8053 14.4412C13.2278 14.4412 8.65131 16.2288 5.86253 19.0891C4.07485 21.0913 2.78772 23.6656 2.78772 26.5259C2.78772 30.4588 4.28937 33.2475 7.14966 35.4643C9.93843 37.3235 13.0132 38.5391 16.088 39.4687C19.6634 40.5413 22.4522 41.5424 22.4522 43.5446C22.4522 44.3312 22.1662 44.9747 21.6656 45.5468C20.6645 46.4764 19.3774 46.8339 17.3037 46.8339C13.7283 46.9054 11.2256 46.3333 6.86363 43.8306L2.78772 51.6964C7.14966 54.1276 12.2267 55.5578 17.3037 55.5578H18.0902C22.4522 55.4863 26.2421 54.1991 29.0308 51.8394C29.3169 51.6964 29.3169 51.5534 29.5314 51.4819L28.2443 54.9142H39.9714L41.7591 48.9791C43.7613 49.6942 46.121 50.0517 48.6238 50.0517C51.1981 50.0517 53.2003 49.6942 55.274 49.0506L57.2762 54.9142H76.0825V42.615H80.4445C90.384 42.615 96.2476 37.538 96.2476 28.9571C96.176 19.4467 90.5985 15.0847 78.0847 15.0847ZM48.6238 41.1848C47.1221 41.1848 45.835 40.8988 44.5479 40.4698L48.6238 27.67L52.6997 40.5413C51.4126 40.8988 50.1254 41.1848 48.6238 41.1848ZM78.8713 33.8196H76.0825V23.4511H78.8713C82.6612 23.4511 85.736 24.6667 85.736 28.5281C85.736 32.3895 82.6612 33.8196 78.8713 33.8196Z" fill="white"/>
<path d="M101.008 67.16C100.101 67.16 99.216 66.9947 98.352 66.664C97.488 66.3227 96.72 65.8427 96.048 65.224L97.376 63.56C98.0267 64.136 98.6507 64.552 99.248 64.808C99.856 65.064 100.496 65.192 101.168 65.192C101.637 65.192 102.043 65.1387 102.384 65.032C102.725 64.9147 102.987 64.7493 103.168 64.536C103.36 64.3227 103.456 64.072 103.456 63.784C103.456 63.4 103.317 63.1067 103.04 62.904C102.763 62.6907 102.288 62.5253 101.616 62.408L99.392 62.024C98.4427 61.864 97.7173 61.528 97.216 61.016C96.7253 60.504 96.48 59.8427 96.48 59.032C96.48 58.3387 96.656 57.736 97.008 57.224C97.3707 56.712 97.8773 56.3227 98.528 56.056C99.1893 55.7787 99.9733 55.64 100.88 55.64C101.701 55.64 102.517 55.7787 103.328 56.056C104.149 56.3333 104.875 56.7173 105.504 57.208L104.256 58.936C103.083 58.04 101.904 57.592 100.72 57.592C100.304 57.592 99.9413 57.6453 99.632 57.752C99.3227 57.8587 99.0827 58.008 98.912 58.2C98.752 58.3813 98.672 58.6 98.672 58.856C98.672 59.1973 98.7947 59.464 99.04 59.656C99.2853 59.8373 99.696 59.976 100.272 60.072L102.384 60.424C103.504 60.6053 104.341 60.9627 104.896 61.496C105.451 62.0187 105.728 62.712 105.728 63.576C105.728 64.3013 105.536 64.936 105.152 65.48C104.768 66.0133 104.219 66.4293 103.504 66.728C102.8 67.016 101.968 67.16 101.008 67.16ZM109.422 64.936H111.374C111.875 64.936 112.339 64.8507 112.766 64.68C113.203 64.4987 113.582 64.248 113.902 63.928C114.232 63.608 114.483 63.2347 114.654 62.808C114.835 62.3813 114.926 61.9173 114.926 61.416C114.926 60.9147 114.835 60.4507 114.654 60.024C114.472 59.5867 114.222 59.208 113.902 58.888C113.582 58.568 113.203 58.3173 112.766 58.136C112.339 57.9547 111.875 57.864 111.374 57.864H109.422V64.936ZM107.102 67V55.8H111.406C112.248 55.8 113.027 55.944 113.742 56.232C114.456 56.5093 115.08 56.904 115.614 57.416C116.147 57.928 116.563 58.5253 116.862 59.208C117.171 59.8907 117.326 60.6267 117.326 61.416C117.326 62.216 117.176 62.952 116.878 63.624C116.579 64.296 116.158 64.888 115.614 65.4C115.08 65.9013 114.456 66.296 113.742 66.584C113.027 66.8613 112.248 67 111.406 67H107.102ZM118.914 67V55.8H121.234V60.808L126.13 55.8H128.962L123.522 61.128L129.218 67H126.114L121.234 61.8V67H118.914Z" fill="black"/>
</svg>
