<svg xmlns="http://www.w3.org/2000/svg" xml:space="preserve" id="Layer_1" x="0" y="0" version="1.1" viewBox="0 0 180 41.6"><style>.st0{fill:#313130}.st1{fill:#00e48c}</style><path d="M129.3 21.4V1.2H124V26h16.5v-4.6h-11.2zM10.5 26.8c-5.3 0-9.2-2.7-10.5-6.2l4.4-2.4c1 2.3 3.3 4.2 6.3 4.2 3.2 0 4.5-1.6 4.5-3C15.2 14.9.9 16.8.9 7.9.9 3.3 5 .4 10 .4c4.4 0 7.8 2.2 9.6 5.7l-4.3 2.3c-1-1.9-2.6-3.6-5.3-3.6-2.2 0-3.9 1.3-3.9 2.7 0 4.7 14.3 2.7 14.3 11.7.1 4.7-4.2 7.6-9.9 7.6M42.8 22.2c2.3 0 4.3-1.1 5.8-2.7l3.5 3.6c-2.4 2.3-5.7 3.7-9.2 3.7-7.7 0-13.3-6-13.3-13.2C29.6 6.4 35.3.4 42.9.4c3.5 0 6.6 1.3 9 3.5l-3.4 3.7C47 6 45 5.1 42.8 5.1c-4.5 0-7.9 3.9-7.9 8.6s3.4 8.5 7.9 8.5" class="st0"/><path d="m114.9 1.2-9.2 19.2V26H100v-5.6L90.7 1.2h6.2l6.1 13.3 6-13.3h5.9z" class="st1"/><path d="M172.8 3.6c0-2 1.6-3.6 3.6-3.6s3.6 1.6 3.6 3.6-1.6 3.6-3.6 3.6c-2-.1-3.6-1.7-3.6-3.6zm3.8-1.1 1.1-1.1c-.4-.3-.8-.4-1.3-.4-1.4 0-2.5 1.1-2.5 2.5S175 6 176.4 6s2.5-1.1 2.5-2.5c0-.5-.1-.9-.4-1.3l-1.1 1.1-.8-.8z" class="st0"/><path d="M74.5 21.7v-4.5h2.7l-4.4-9.6-4.4 9.6h2.7v4.5h-4.8l-2 4.4h-5.8l12-24.9h5l12 24.9h-6.1l-2-4.4h-4.9z" class="st1"/><path d="M154.3 21.5v-5.8h11v-4.5h-11V5.7h12V1.2h-17.2V26h17.5v-4.6h-12.3z" class="st0"/><path d="m26.8 36-1.6 2.4-1.5-2.4h-1.1l2.2 3.3v2.2h1v-2.2L28 36h-1.2zM137.9 36v5.5h4.1v-.9h-3.2v-1.5h2.8v-.9h-2.8v-1.4h3.1V36h-4zM134.9 36v3.8l-3-3.8h-.9v5.5h1v-3.9l3 3.9h.8V36h-.9zM128.9 36h-1v5.5h1V36zM126 40.7v-2.3h-2.3v.8h1.4v1c-.3.3-.8.4-1.3.4-1.1 0-1.9-.8-1.9-2 0-1.1.8-2 1.8-2 .7 0 1.1.2 1.5.6l.6-.7c-.6-.5-1.2-.7-2.1-.7-1.7 0-2.8 1.3-2.8 2.9 0 1.6 1.1 2.8 2.9 2.8.9.1 1.7-.3 2.2-.8M118.1 36v3.8l-3-3.8h-.9v5.5h.9v-3.9l3 3.9h.8V36h-.8zM108.3 36v5.5h4.1v-.9h-3.2v-1.5h2.8v-.9h-2.8v-1.4h3.1V36h-4zM99.3 36v5.5h4.1v-.9h-3.2v-1.5h2.8v-.9h-2.8v-1.4h3.1V36h-4zM97.8 40.6l-.7-.6c-.5.4-.9.7-1.6.7-1.1 0-1.8-.9-1.8-2s.8-2 1.8-2c.6 0 1.1.3 1.5.7l.6-.7c-.5-.5-1.1-.9-2.2-.9-1.7 0-2.8 1.3-2.8 2.9 0 1.6 1.2 2.8 2.8 2.8 1.1.1 1.8-.3 2.4-.9M80.7 36v5.5h4.1v-.9h-3.2v-1.5h2.8v-.9h-2.8v-1.4h3.1V36h-4zM77.6 36l-1.7 2.6-1.6-2.6h-1v5.5h1v-3.9l1.7 2.6 1.7-2.6v4h1V36h-1.1zM91.4 41.5l-1.5-2.1c.8-.2 1.3-.8 1.3-1.7 0-1.1-.8-1.7-2-1.7h-2.5v5.5h1v-1.9h1.2l1.4 1.9h1.1zm-1.2-3.7c0 .6-.4.9-1.1.9h-1.4v-1.8h1.4c.7 0 1.1.3 1.1.9M70.1 36l-1.7 2.6-1.6-2.6h-1v5.5h1v-3.9l1.7 2.6 1.7-2.6v4h1V36h-1.1zM56.9 40.6l-.6-.6c-.5.4-.9.7-1.6.7-1.1 0-1.8-.9-1.8-2s.8-2 1.8-2c.6 0 1.1.3 1.5.7l.6-.7c-.5-.5-1.1-.9-2.2-.9-1.7 0-2.8 1.3-2.8 2.9 0 1.6 1.2 2.8 2.8 2.8 1.1.1 1.7-.3 2.3-.9M40.8 36h-1v3.2c0 1-.5 1.5-1.4 1.5-.9 0-1.4-.6-1.4-1.6V36h-1v3.2c0 1.6.9 2.4 2.3 2.4s2.4-.8 2.4-2.5l.1-3.1zM63.9 38.7c0-1.6-1.2-2.8-2.9-2.8s-2.9 1.3-2.9 2.9 1.2 2.8 2.9 2.8 2.9-1.3 2.9-2.9zm-1 0c0 1.1-.8 2-1.9 2-1.1 0-1.9-.9-1.9-2s.8-2 1.9-2c1.1.1 1.9 1 1.9 2zM47.5 41.5 46 39.4c.8-.2 1.3-.8 1.3-1.7 0-1.1-.8-1.7-2-1.7h-2.5v5.5h1v-1.9H45l1.4 1.9h1.1zm-1.2-3.7c0 .6-.4.9-1.1.9h-1.4v-1.8h1.4c.7 0 1.1.3 1.1.9M34.4 38.7c0-1.6-1.2-2.8-2.9-2.8s-2.9 1.3-2.9 2.9 1.2 2.8 2.9 2.8 2.9-1.3 2.9-2.9zm-1 0c0 1.1-.8 2-1.9 2-1.1 0-1.9-.9-1.9-2s.8-2 1.9-2c1.1.1 1.9 1 1.9 2z" class="st1"/></svg>
