<svg xmlns="http://www.w3.org/2000/svg" width="215" height="59" fill="none"><path fill="#00A1DF" d="M34.627 12.095c2.271-2.364 5.433-3.838 8.963-3.838 4.666 0 8.718 2.61 10.898 6.447a15.22 15.22 0 0 1 6.17-1.32c8.41 0 15.225 6.876 15.225 15.349 0 8.472-6.814 15.348-15.225 15.348-1.013 0-2.026-.092-3.009-.307-1.903 3.407-5.525 5.71-9.7 5.71-1.75 0-3.407-.4-4.88-1.105-1.935 4.543-6.447 7.735-11.696 7.735-5.465 0-10.13-3.468-11.91-8.319-.768.154-1.597.246-2.426.246-6.508 0-11.788-5.341-11.788-11.91 0-4.42 2.364-8.258 5.894-10.315a13.35 13.35 0 0 1-1.136-5.433c0-7.552 6.14-13.691 13.722-13.691a13.77 13.77 0 0 1 10.898 5.403Z"/><path fill="#fff" d="M15.472 32.324c-.031.123.03.153.03.153.123.092.276.154.4.246.705.368 1.411.491 2.117.491 1.443 0 2.333-.767 2.333-1.995v-.031c0-1.136-1.013-1.566-1.964-1.872l-.123-.031c-.706-.246-1.35-.43-1.35-.921v-.03c0-.4.368-.707.92-.707.614 0 1.35.215 1.842.46 0 0 .154.093.184-.03.03-.061.276-.737.307-.798.03-.062-.03-.123-.061-.154-.553-.337-1.29-.552-2.088-.552h-.153c-1.32 0-2.241.798-2.241 1.934v.061c0 1.197 1.013 1.596 1.965 1.873l.153.061c.706.215 1.29.399 1.29.89v.03c0 .461-.4.768-1.014.768-.245 0-1.013 0-1.872-.522-.092-.06-.154-.092-.246-.153-.03-.03-.153-.061-.184.061l-.245.768ZM36.683 32.324c-.03.123.031.153.031.153.123.092.276.154.4.246.705.368 1.411.491 2.117.491 1.443 0 2.333-.767 2.333-1.995v-.031c0-1.136-1.013-1.566-1.964-1.872l-.123-.031c-.706-.246-1.35-.43-1.35-.921v-.03c0-.4.367-.707.92-.707.614 0 1.35.215 1.842.46 0 0 .153.093.184-.03.03-.061.276-.737.307-.798.03-.062-.03-.123-.061-.154-.553-.337-1.29-.552-2.088-.552h-.153c-1.32 0-2.241.798-2.241 1.934v.061c0 1.197 1.013 1.596 1.964 1.873l.154.061c.706.215 1.29.399 1.29.89v.03c0 .461-.4.768-1.014.768-.245 0-1.013 0-1.872-.522-.092-.06-.154-.092-.246-.153-.03-.03-.153-.061-.184.061l-.246.768ZM52.37 28.61c-.123-.4-.308-.768-.553-1.044-.246-.307-.553-.522-.921-.706-.368-.184-.798-.246-1.29-.246-.49 0-.92.092-1.289.246-.368.184-.675.399-.92.706a3.09 3.09 0 0 0-.553 1.044 4.362 4.362 0 0 0-.184 1.289c0 .46.061.89.184 1.29.123.398.307.767.552 1.043.246.307.553.522.921.706.369.153.798.245 1.29.245.49 0 .92-.092 1.289-.245.368-.154.675-.4.92-.706a3.09 3.09 0 0 0 .553-1.044c.123-.399.184-.829.184-1.29-.03-.46-.092-.89-.184-1.288Zm-1.228 1.289c0 .706-.123 1.258-.4 1.657-.245.4-.644.584-1.166.584-.553 0-.921-.184-1.167-.584-.245-.399-.368-.951-.368-1.657 0-.706.123-1.259.368-1.627.246-.368.645-.583 1.167-.583s.92.184 1.166.583c.277.368.4.92.4 1.627ZM62.285 31.925c-.03-.123-.154-.062-.154-.062a3.712 3.712 0 0 1-.552.154c-.215.03-.43.061-.676.061-.583 0-1.043-.184-1.381-.522-.338-.337-.522-.89-.522-1.657 0-.676.154-1.198.46-1.597.308-.399.737-.583 1.351-.583.491 0 .89.062 1.29.184 0 0 .092.031.153-.092.092-.307.184-.49.307-.828.03-.093-.061-.123-.061-.154a7.05 7.05 0 0 0-.798-.215c-.277-.03-.553-.061-.921-.061-.522 0-.952.092-1.351.245a2.88 2.88 0 0 0-.982.706c-.246.307-.46.645-.584 1.044a4.362 4.362 0 0 0-.184 1.29c0 1.012.276 1.81.798 2.394.522.583 1.351.89 2.395.89.614 0 1.258-.123 1.719-.307 0 0 .092-.03.061-.154l-.368-.736ZM68.455 28.364c-.092-.4-.368-.768-.522-.952-.276-.276-.522-.49-.767-.583a2.827 2.827 0 0 0-1.167-.245c-.522 0-.982.092-1.35.276-.369.184-.706.43-.952.706-.246.307-.43.644-.553 1.074-.122.4-.184.829-.184 1.32 0 .46.062.921.184 1.32.123.4.338.737.584 1.044.276.307.614.522 1.043.675.4.154.921.246 1.474.246 1.197 0 1.81-.276 2.056-.4.031-.03.093-.06.031-.184l-.276-.736c-.03-.123-.154-.062-.154-.062-.306.123-.706.307-1.688.307-.644 0-1.105-.184-1.412-.49-.307-.308-.46-.738-.46-1.351h4.082s.123 0 .123-.093c.03-.153.184-.951-.092-1.872Zm-4.052.86c.061-.4.153-.707.338-.952.245-.368.644-.583 1.166-.583.522 0 .89.215 1.136.583.153.245.245.583.276.952h-2.916ZM35.7 28.364c-.091-.4-.367-.768-.521-.952-.276-.276-.522-.49-.767-.583a2.828 2.828 0 0 0-1.167-.245c-.522 0-.982.092-1.35.276-.369.184-.707.43-.952.706a2.97 2.97 0 0 0-.553 1.074c-.123.4-.184.829-.184 1.32 0 .46.061.921.184 1.32.123.4.338.737.584 1.044.276.307.613.522 1.043.675.4.154.921.246 1.474.246 1.197 0 1.81-.276 2.056-.4.031-.03.093-.06.031-.184l-.276-.736c-.03-.123-.154-.062-.154-.062-.307.123-.706.307-1.688.307-.645 0-1.105-.184-1.412-.49-.307-.308-.46-.738-.46-1.351h4.082s.123 0 .123-.093c.03-.153.153-.951-.092-1.872Zm-4.082.86c.062-.4.154-.707.338-.952.245-.368.644-.583 1.166-.583.553 0 .89.215 1.136.583.154.245.246.583.276.952h-2.916ZM24.404 29.04c-.153 0-.368-.031-.644-.031-.338 0-.676.03-1.013.122-.307.093-.614.215-.86.4-.245.184-.46.399-.583.675-.153.276-.215.583-.215.951 0 .369.062.676.184.921.123.246.307.46.522.645.215.154.522.276.829.368.307.062.675.123 1.074.123.43 0 .83-.03 1.228-.092.4-.061.89-.153 1.044-.215.123-.03.276-.061.276-.061.092-.03.092-.123.092-.123v-3.745c0-.829-.215-1.443-.644-1.811-.43-.369-1.075-.553-1.873-.553-.307 0-.798.031-1.105.092 0 0-.89.184-1.259.46 0 0-.092.062-.03.154l.276.768c.03.092.123.061.123.061s.03 0 .061-.03c.798-.43 1.78-.43 1.78-.43.43 0 .768.092 1.014.276.215.184.337.43.337.982v.184a5.758 5.758 0 0 0-.614-.092Zm-1.627 2.885c-.153-.123-.184-.154-.245-.246-.092-.122-.123-.307-.123-.522 0-.368.123-.613.369-.798 0 0 .337-.307 1.197-.307.583 0 1.105.092 1.105.092v1.873s-.522.123-1.105.153c-.83.031-1.198-.245-1.198-.245ZM57.404 26.921c.03-.092-.03-.122-.062-.153-.06-.03-.43-.092-.675-.123-.522-.03-.798.061-1.044.184-.245.123-.521.307-.706.522v-.491a.132.132 0 0 0-.122-.123H53.75a.132.132 0 0 0-.123.123v6.109c0 .061.062.123.123.123h1.074a.132.132 0 0 0 .123-.123v-3.04c0-.398.03-.828.123-1.074.092-.245.215-.46.368-.614.154-.153.307-.245.492-.307.184-.061.399-.092.552-.092.215 0 .46.062.46.062.093 0 .123-.031.154-.123.092-.184.276-.737.307-.86Z"/><path fill="#fff" d="M47.335 24.097c-.123-.03-.245-.062-.399-.092-.153-.03-.337-.03-.552-.03-.737 0-1.32.214-1.72.613-.398.4-.675 1.044-.828 1.842l-.061.276h-.922s-.122 0-.122.123l-.154.86c0 .092.031.122.123.122h.89l-.92 5.127c-.062.399-.154.736-.246 1.013-.092.245-.184.43-.276.583-.093.123-.215.245-.369.276-.153.062-.307.062-.491.062-.092 0-.246-.031-.338-.031-.092-.03-.153-.03-.215-.062 0 0-.092-.03-.153.062-.03.092-.276.737-.307.829-.03.092 0 .153.061.153.123.03.215.062.369.123.215.061.43.061.614.061.368 0 .706-.061 1.013-.153.276-.092.521-.276.767-.522.246-.276.4-.553.522-.92.154-.37.276-.83.368-1.382l.921-5.219h1.35s.124 0 .124-.122l.153-.86c0-.092-.03-.123-.123-.123h-1.32c0-.03.062-.491.215-.92.062-.185.184-.338.277-.43a.795.795 0 0 1 .337-.215c.123-.031.276-.062.43-.062.123 0 .246 0 .338.03.122.032.184.032.215.062.122.031.153 0 .184-.061l.307-.86c.03-.092-.062-.153-.062-.153ZM29.04 32.938a.132.132 0 0 1-.123.123h-1.075a.132.132 0 0 1-.122-.123V24.22c0-.061.061-.123.123-.123h1.074c.061 0 .123.062.123.123v8.718Z"/><path fill="#7C868D" d="M85.369 23.82a5.8 5.8 0 0 1 1.627.246c.522.185.982.4 1.381.706l-.614 1.044a3.983 3.983 0 0 0-2.394-.767c-.952 0-1.689.307-2.18.951-.49.645-.736 1.474-.736 2.548 0 1.044.245 1.873.736 2.517.492.645 1.228.952 2.18.952.798 0 1.627-.246 2.425-.768l.553 1.044c-.89.645-1.904.983-3.07.983-1.013 0-1.842-.215-2.487-.676a4.12 4.12 0 0 1-1.412-1.75 6.27 6.27 0 0 1-.43-2.302c0-1.443.4-2.578 1.198-3.438.767-.86 1.841-1.29 3.223-1.29ZM97.894 28.548c0 .921-.185 1.75-.553 2.487a3.972 3.972 0 0 1-1.566 1.688c-.675.4-1.473.614-2.425.614-.92 0-1.75-.215-2.425-.614-.675-.399-1.197-.982-1.565-1.688-.369-.706-.522-1.535-.522-2.456 0-1.443.399-2.579 1.197-3.438.798-.86 1.903-1.29 3.315-1.29.952 0 1.78.185 2.456.584.675.399 1.197.951 1.535 1.658.4.706.553 1.504.553 2.455Zm-7.46 0c0 1.075.246 1.934.737 2.579.491.644 1.228.982 2.21.982 1.013 0 1.75-.338 2.241-.982.491-.645.737-1.504.737-2.579 0-1.074-.246-1.934-.737-2.548-.491-.644-1.228-.951-2.24-.951-1.014 0-1.75.307-2.211.951-.491.614-.737 1.474-.737 2.548ZM99.612 26.092c0-.644-.03-1.32-.122-2.026h1.443c.061.307.092.737.122 1.259h.031c.276-.46.675-.798 1.197-1.105a3.725 3.725 0 0 1 1.781-.43c.767 0 1.381.154 1.872.491.491.338.829.768 1.044 1.32h.031a3.47 3.47 0 0 1 1.258-1.32c.522-.337 1.167-.491 1.903-.491.737 0 1.351.154 1.842.491.491.338.86.737 1.105 1.259.246.522.369 1.105.369 1.719v5.74h-1.505v-5.464c0-.706-.153-1.29-.491-1.75-.337-.46-.859-.706-1.627-.706-.552 0-1.013.154-1.381.43-.399.276-.675.645-.89 1.136-.215.46-.307.982-.307 1.504v4.912h-1.504v-5.587c0-.676-.185-1.259-.522-1.72-.338-.46-.89-.705-1.596-.705-.768 0-1.382.276-1.842.828-.461.553-.676 1.228-.676 2.027v5.157h-1.504v-6.969h-.03ZM115.636 26.092c0-.644-.03-1.32-.122-2.026h1.442c.062.307.093.737.123 1.259h.031c.276-.46.675-.798 1.197-1.105a3.725 3.725 0 0 1 1.781-.43c.767 0 1.381.154 1.872.491.491.338.829.768 1.044 1.32h.03a3.472 3.472 0 0 1 1.259-1.32c.522-.337 1.167-.491 1.903-.491.737 0 1.351.154 1.842.491.491.338.86.737 1.105 1.259.246.522.338 1.105.338 1.719v5.74h-1.504v-5.464c0-.706-.154-1.29-.491-1.75-.338-.46-.86-.706-1.627-.706-.553 0-1.013.154-1.382.43-.399.276-.675.645-.89 1.136-.215.46-.307.982-.307 1.504v4.912h-1.504v-5.587c0-.676-.184-1.259-.522-1.72-.338-.46-.89-.705-1.596-.705-.768 0-1.382.276-1.842.828-.46.553-.675 1.228-.675 2.027v5.157h-1.505v-6.969ZM139.365 29.1h-6.661c.061.922.338 1.658.829 2.18.491.553 1.197.798 2.118.798.552 0 1.013-.061 1.443-.215a5.23 5.23 0 0 0 1.289-.675l.675.982a5.427 5.427 0 0 1-1.627.83 6.193 6.193 0 0 1-1.903.276c-1.381 0-2.456-.43-3.223-1.32-.768-.86-1.167-2.026-1.167-3.47 0-.92.154-1.749.492-2.455.337-.706.798-1.259 1.442-1.658.614-.399 1.382-.583 2.272-.583 1.32 0 2.302.43 2.978 1.259.675.86 1.043 1.964 1.043 3.376.031.338.031.553 0 .676Zm-1.442-1.166c-.031-.89-.246-1.627-.676-2.149-.43-.552-1.074-.798-1.903-.798s-1.474.277-1.934.83c-.46.552-.706 1.258-.737 2.117h5.25ZM141.115 26.092c0-.644-.03-1.32-.123-2.026h1.443c.062.4.092.89.123 1.443h.031c.522-1.105 1.473-1.688 2.824-1.688.092 0 .276.03.522.061l-.123 1.29c-.123-.031-.307-.031-.553-.031-.859 0-1.504.276-1.964.86-.461.582-.676 1.32-.676 2.24v4.82h-1.504v-6.969ZM150.693 23.82c.552 0 1.105.093 1.627.246.521.185.982.4 1.381.706l-.614 1.044a3.981 3.981 0 0 0-2.394-.767c-.952 0-1.689.307-2.18.951-.491.645-.737 1.474-.737 2.548 0 1.044.246 1.873.737 2.517.491.645 1.228.952 2.18.952.798 0 1.627-.246 2.425-.768l.552 1.044c-.89.645-1.903.983-3.069.983-1.013 0-1.842-.215-2.487-.676a4.117 4.117 0 0 1-1.412-1.75 6.275 6.275 0 0 1-.43-2.302c0-1.443.399-2.578 1.197-3.438.768-.86 1.842-1.29 3.224-1.29ZM162.419 29.1h-6.661c.061.922.337 1.658.829 2.18.491.553 1.197.798 2.118.798.552 0 1.013-.061 1.442-.215.43-.153.86-.368 1.29-.675l.675.982a5.439 5.439 0 0 1-1.627.83 6.193 6.193 0 0 1-1.903.276c-1.382 0-2.456-.43-3.223-1.32-.768-.86-1.167-2.026-1.167-3.47 0-.92.154-1.749.491-2.455.338-.706.798-1.259 1.443-1.658.614-.399 1.381-.583 2.272-.583 1.32 0 2.302.43 2.977 1.259.676.86 1.044 1.964 1.044 3.376.031.338.031.553 0 .676Zm-1.443-1.166c-.03-.89-.245-1.627-.675-2.149-.43-.552-1.075-.798-1.903-.798-.829 0-1.474.277-1.934.83-.461.552-.706 1.258-.737 2.117h5.249ZM171.781 23.82c.553 0 1.106.093 1.627.246.522.185.983.4 1.382.706l-.614 1.044a3.984 3.984 0 0 0-2.395-.767c-.951 0-1.688.307-2.179.951-.491.645-.737 1.474-.737 2.548 0 1.044.246 1.873.737 2.517.491.645 1.228.952 2.179.952.799 0 1.627-.246 2.426-.768l.552 1.044c-.89.645-1.903.983-3.07.983-1.013 0-1.841-.215-2.486-.676a4.117 4.117 0 0 1-1.412-1.75 6.275 6.275 0 0 1-.43-2.302c0-1.443.399-2.578 1.197-3.438.737-.86 1.842-1.29 3.223-1.29ZM177.982 20.567V33.06h-1.473V20.567h1.473ZM188.788 28.548c0 .921-.184 1.75-.553 2.487a3.97 3.97 0 0 1-1.565 1.688c-.676.4-1.474.614-2.425.614-.921 0-1.75-.215-2.425-.614-.676-.399-1.198-.982-1.566-1.688-.338-.706-.522-1.535-.522-2.456 0-1.443.399-2.579 1.197-3.438.799-.86 1.904-1.29 3.316-1.29.951 0 1.78.185 2.455.584.676.399 1.198.951 1.535 1.658.369.706.553 1.504.553 2.455Zm-7.46 0c0 1.075.246 1.934.737 2.579.491.644 1.228.982 2.21.982 1.013 0 1.75-.338 2.241-.982.491-.645.737-1.504.737-2.579 0-1.074-.246-1.934-.737-2.548-.491-.644-1.228-.951-2.241-.951-1.013 0-1.749.307-2.21.951-.522.614-.737 1.474-.737 2.548ZM190.2 29.592v-5.495h1.504v5.28c0 .829.184 1.474.553 1.995.368.492.921.737 1.657.737.829 0 1.474-.307 1.965-.92.491-.615.737-1.382.737-2.303v-4.789h1.504v7c0 .644.031 1.32.123 1.994H196.8c-.062-.368-.092-.86-.123-1.442h-.031c-.644 1.105-1.688 1.688-3.1 1.688-1.105 0-1.965-.338-2.517-1.044-.553-.706-.829-1.596-.829-2.701ZM208.342 33.06h-1.382a7.585 7.585 0 0 1-.122-1.35h-.031c-.675 1.044-1.75 1.596-3.223 1.596-1.259 0-2.241-.43-2.916-1.32-.676-.86-1.013-1.995-1.013-3.407 0-.89.153-1.689.491-2.425a4.182 4.182 0 0 1 1.442-1.72c.614-.429 1.351-.613 2.211-.613 1.197 0 2.179.399 2.916 1.166v-4.42h1.504v10.498c0 .645.061 1.32.123 1.996Zm-1.627-3.867v-2.824a3.037 3.037 0 0 0-1.197-.983 3.43 3.43 0 0 0-1.535-.337c-.86 0-1.566.337-2.057.982-.491.645-.737 1.504-.737 2.548 0 1.074.246 1.934.737 2.578.491.645 1.136.952 1.995.952.86 0 1.535-.276 2.026-.829.522-.522.768-1.228.768-2.087Z"/></svg>
