<svg xmlns="http://www.w3.org/2000/svg" xml:space="preserve" viewBox="0 0 180 66.4"><path fill="#57349b" d="M21.9 40.1c-5.6-1.5-10.4-2.9-10.4-8 0-3.7 2.9-6.4 6.8-6.4 4.7 0 6.1 3.1 7.5 6.2 1.1 2.5 2.2 4.9 5.1 4.9 2.4 0 4.2-1.8 4.2-4.1 0-5.3-6.5-10.8-17.3-10.8-9.8 0-17 5.4-17 12.8 0 9.9 7.7 12 14.4 13.8 5.5 1.5 10.3 2.8 10.3 7.8 0 4-2.8 6.4-7.5 6.4-5.3 0-6.8-3.2-8.2-6.3-1.1-2.5-2.2-4.8-5.3-4.8-2.9 0-4.6 1.6-4.6 4.4.1 5 6.9 10.4 18.2 10.4 10.7 0 18.2-5.2 18.2-12.5 0-9.9-7.7-12-14.4-13.8zm70.7-18.2c-3 0-5 2-5 5s1.6 4.7 3.4 6.5c1.9 2 3.9 4.2 3.9 8.1 0 11.1-7 20.1-12.9 20.1-1.3 0-2.4-.4-3.2-1.3-1.3-1.3-1.9-3.7-1.8-7l.2-29c0-.9-.2-1.5-.7-1.9-.6-.5-1.4-.6-2.5-.4l-8.3 1.8c-1.1.2-1.8 1-1.8 1.9v.3c0 .9.6 1.5 1.3 2.1.9.9 1.9 1.8 1.9 3.8V44c0 11.1-5.5 17.7-10.7 17.7-1.2 0-2.3-.4-3.1-1.3-1.3-1.3-1.9-3.7-1.9-6.8l.2-29.2c0-.8-.2-1.3-.6-1.7-.7-.6-1.8-.5-2.7-.4l-9 1.5c-1 .2-1.7 1-1.7 1.9v.3c0 .9.6 1.5 1.3 2.1.9.9 1.9 1.8 1.9 3.8v17.8c0 15.2 9.5 16.8 13.6 16.8 6 0 10.9-2.7 14.2-7.8 1.9 5 6 7.8 11.5 7.8 10.6 0 21.2-10.4 21.2-30.3-.1-8.9-3.4-14.4-8.7-14.3zm31.9 20.8c-3.2.7-8.4.8-11.8.5-.2-1.2-.2-2.5-.2-3.9 0-7.7 4.1-13.3 9.7-13.3 4.3 0 8 3.7 8.1 8.1 0 6.4-2.9 7.9-5.8 8.6zm16.5 8.7c-.8-.3-1.7 0-2.3.7-1.8 3.7-6.6 6.2-11.8 6.2-6.1 0-10.9-3.9-13.1-10.6 5.1.5 9.3.3 12.8-.5 8.7-1.9 13.9-6.9 13.9-13.2 0-3.1-1-5.8-3.1-7.9-2.8-2.9-7.4-4.4-12.9-4.4-12.1.1-20.9 9.3-20.9 21.9 0 13.6 8.6 22.7 21.5 22.7 6.1 0 10-2.5 12.2-4.6 2.5-2.4 4.2-5.6 4.7-8.6 0-.7-.3-1.4-1-1.7zm18.2 10c-1-.8-2-1.6-2-3.4V2.1c0-.8-.3-1.4-.9-1.8-.7-.4-1.6-.4-2.6.1l-8.6 4.4c-.8.4-1.6.8-1.6 1.9V7c0 .8.6 1.3 1.2 1.9.9.9 2 .7 2 2.8V58c0 1.8-.9 2.6-1.8 3.4-.7.6-1.4 1.3-1.4 2.3v.3c0 1 .8 1.6 2.1 1.6h12.9c1.3 0 2.2-.7 2.2-1.6v-.3c0-1.1-.7-1.7-1.5-2.3zm19.3 0c-1-.8-2-1.6-2-3.4V2.1c0-.8-.3-1.4-.9-1.8-.6-.4-1.6-.4-2.6.1l-8.6 4.4c-.8.4-1.6.8-1.6 1.9V7c0 .8.5 1.3 1.2 1.9.9.9 2 .7 2 2.8V58c0 1.8-.9 2.6-1.8 3.4-.7.6-1.4 1.3-1.4 2.3v.3c0 1 .8 1.6 2.1 1.6h12.9c1.3 0 2.2-.7 2.2-1.6v-.3c0-1.1-.7-1.7-1.5-2.3z"/></svg>
