<svg xmlns="http://www.w3.org/2000/svg" xml:space="preserve" fill-rule="evenodd" stroke-linejoin="round" stroke-miterlimit="2" clip-rule="evenodd" viewBox="0 0 1057 238"><path fill="none" d="M0 0h1056.58v237.24H0z"/><path fill="#17c1ff" fill-rule="nonzero" stroke="#17c1ff" stroke-width="6.23" d="M366.767 83.9h15.187l-37.417 103.009h-16.508L290.831 83.9h15.628l30.374 86.941L366.767 83.9ZM440.282 80.379c9.244 0 17.608 2.274 25.091 6.823 7.484 4.549 13.353 10.748 17.609 18.599 4.255 7.85 6.383 16.617 6.383 26.302 0 2.788-.074 4.916-.22 6.383h-84.74c.587 10.565 4.035 19.589 10.345 27.073 6.309 7.483 14.893 11.225 25.752 11.225 8.804 0 16.104-1.651 21.9-4.952 5.796-3.302 10.455-7.887 13.977-13.757l11.885 7.924c-4.842 7.63-11.225 13.61-19.149 17.938-7.923 4.329-17.315 6.493-28.173 6.493-9.978 0-18.856-2.347-26.633-7.043-7.777-4.696-13.866-11.225-18.268-19.589-4.402-8.364-6.603-17.829-6.603-28.394 0-10.565 2.164-20.029 6.493-28.393 4.329-8.364 10.345-14.894 18.048-19.589 7.704-4.696 16.471-7.043 26.303-7.043Zm34.116 45.781c-1.468-10.712-5.063-18.745-10.785-24.101-5.723-5.356-13.5-8.034-23.331-8.034-9.538 0-17.352 3.045-23.441 9.134-6.09 6.09-9.942 13.757-11.556 23.001h69.113ZM560.458 80.379c7.19 0 13.83 1.467 19.92 4.402 6.089 2.934 10.931 7.263 14.526 12.986 3.595 5.722 5.393 12.472 5.393 20.249v68.893H585.33v-62.29c0-20.396-9.098-30.594-27.293-30.594-10.565 0-18.489 3.742-23.771 11.225-5.283 7.484-7.924 17.535-7.924 30.154v51.505h-14.967V83.9h14.967v17.168c3.522-6.603 8.181-11.702 13.977-15.297 5.796-3.595 12.509-5.392 20.139-5.392ZM725.316 27.114v159.795h-14.967v-15.187c-4.256 5.869-9.465 10.454-15.628 13.756-6.163 3.302-12.912 4.952-20.249 4.952-9.832 0-18.636-2.347-26.413-7.043-7.777-4.696-13.866-11.225-18.268-19.589-4.402-8.364-6.603-17.902-6.603-28.614 0-10.565 2.164-19.992 6.493-28.283 4.328-8.291 10.345-14.784 18.048-19.479 7.704-4.696 16.471-7.043 26.303-7.043 7.483 0 14.343 1.65 20.579 4.952 6.236 3.301 11.482 7.96 15.738 13.976V27.114h14.967Zm-51.284 149.67c7.043 0 13.316-1.761 18.818-5.283 5.503-3.521 9.795-8.437 12.876-14.747 3.082-6.309 4.623-13.426 4.623-21.35 0-7.923-1.541-15.04-4.623-21.35-3.081-6.309-7.373-11.225-12.876-14.747-5.502-3.521-11.775-5.282-18.818-5.282-6.897 0-13.06 1.761-18.489 5.282-5.429 3.522-9.685 8.401-12.766 14.637-3.082 6.237-4.622 13.317-4.622 21.24 0 8.071 1.54 15.261 4.622 21.57 3.081 6.31 7.337 11.226 12.766 14.747 5.429 3.522 11.592 5.283 18.489 5.283ZM843.511 83.9v103.009h-14.967v-17.168c-3.522 6.603-8.18 11.702-13.976 15.297-5.796 3.595-12.51 5.392-20.14 5.392-7.19 0-13.83-1.467-19.919-4.402-6.09-2.934-10.932-7.263-14.527-12.986-3.595-5.723-5.393-12.472-5.393-20.249V83.9h14.967v62.29c0 20.396 9.098 30.594 27.293 30.594 10.565 0 18.489-3.742 23.771-11.225 5.283-7.484 7.924-17.535 7.924-30.155V83.9h14.967ZM921.868 80.379c3.522 0 6.897.513 10.125 1.54v13.647c-3.082-1.468-6.457-2.201-10.125-2.201-6.31 0-12.179 1.761-17.608 5.282-5.429 3.522-9.795 8.621-13.096 15.297-3.302 6.677-4.953 14.564-4.953 23.661v49.304h-14.967V83.9h14.967v20.69c3.962-7.63 8.988-13.573 15.077-17.828 6.09-4.256 12.95-6.383 20.58-6.383ZM988.119 80.379c9.244 0 17.608 2.274 25.092 6.823 7.483 4.549 13.353 10.748 17.608 18.599 4.256 7.85 6.383 16.617 6.383 26.302 0 2.788-.073 4.916-.22 6.383h-84.74c.587 10.565 4.036 19.589 10.345 27.073 6.31 7.483 14.894 11.225 25.752 11.225 8.804 0 16.104-1.651 21.901-4.952 5.796-3.302 10.454-7.887 13.976-13.757l11.886 7.924c-4.843 7.63-11.226 13.61-19.149 17.938-7.924 4.329-17.315 6.493-28.174 6.493-9.978 0-18.855-2.347-26.632-7.043-7.777-4.696-13.867-11.225-18.269-19.589-4.402-8.364-6.603-17.829-6.603-28.394 0-10.565 2.165-20.029 6.493-28.393 4.329-8.364 10.345-14.894 18.049-19.589 7.703-4.696 16.471-7.043 26.302-7.043Zm34.116 45.781c-1.467-10.712-5.062-18.745-10.785-24.101-5.723-5.356-13.5-8.034-23.331-8.034-9.538 0-17.351 3.045-23.441 9.134-6.089 6.09-9.941 13.757-11.555 23.001h69.112Z"/><path fill="#30c6fd" d="m25.4 65.862 41.785 31.213-.07 58.538L25.4 116.939V65.862Z"/><path fill="#17c1ff" d="m25.4 65.862 57.53-25.064 43.802 24.818-59.547 31.459L25.4 65.862Z"/><path fill="#30c6fd" d="m79.312 105.695 59.778 45.58-.03 70.617-59.748-55.048v-61.149Z"/><path fill="#17c1ff" d="m138.744 72.237 60.125 33.458-59.779 45.593-59.778-45.593 59.432-33.458Z"/><path fill="#13b7f3" d="m139.09 221.892 59.63-55.108.149-61.089-59.809 45.58.03 70.617Z"/><path fill="#17c1ff" d="m150.76 65.862 43.638-25.064 57.69 24.632-41.741 31.645-59.587-31.213Z"/><path fill="#13b7f3" d="m210.347 97.075-.074 59.132 41.815-39.194V65.43l-41.741 31.645Z"/></svg>
