<svg width="1728" height="1364" fill="none" xmlns="http://www.w3.org/2000/svg"><path d="m1465.72 239.686 115.37-88.33c107.5-82.304 259.44-63.75 339.36 41.44l85.78 112.893c79.92 105.19 57.56 257.183-49.93 339.487l-115.38 88.33c-107.5 82.304-259.43 63.751-339.35-41.439l-85.78-112.893c-79.92-105.19-57.57-257.184 49.93-339.488ZM300.302 591.529l80.422-30.871c74.935-28.765 158.326 7.358 186.259 80.684l29.979 78.695c27.933 73.325-10.17 156.086-85.105 184.851l-80.422 30.871c-74.935 28.765-158.326-7.359-186.259-80.684l-29.979-78.695c-27.933-73.326 10.17-156.086 85.105-184.851Z" stroke="#DCFCE7" stroke-width="2.5"/><path d="M951.274 554.939 710.376 684.644C485.914 805.5 208.812 725.419 91.453 505.779L-34.501 270.055C-151.86 50.415-65.037-225.611 159.425-346.467l240.898-129.705c224.462-120.855 501.563-40.775 618.927 178.865L1145.2-61.583c117.36 219.64 30.54 495.667-193.926 616.522Z" stroke="#DCFCE7" stroke-width="2.5"/><path d="m1026.55 115.275 129.43-49.682c120.59-46.292 254.8 11.843 299.75 129.848l48.25 126.646c44.95 118.005-16.37 251.195-136.96 297.487l-129.43 49.682c-120.6 46.293-254.801-11.842-299.755-129.847L889.59 412.762c-44.954-118.005 16.366-251.194 136.96-297.487ZM1445.78-12.538l32.38-24.793c30.17-23.102 72.82-17.894 95.25 11.631l24.08 31.688c22.43 29.526 16.16 72.188-14.02 95.29l-32.38 24.793c-30.17 23.101-72.82 17.894-95.25-11.632l-24.08-31.687c-22.43-29.526-16.16-72.188 14.02-95.29Z" stroke="#DCFCE7" stroke-width="2.5"/><path d="M1097.03 462.197c15 0 27.16 12.224 27.16 27.304 0 15.079-12.16 27.304-27.16 27.304-14.99 0-27.15-12.225-27.15-27.304 0-15.08 12.16-27.304 27.15-27.304Z" fill="#fff"/><path d="M1203.34 14.79c0-14.806-11.94-26.798-26.65-26.798-14.71 0-26.65 11.992-26.65 26.799 0 14.807 11.94 26.799 26.65 26.799 14.71 0 26.65-11.992 26.65-26.8ZM1449.34 591.791c0-14.807-11.94-26.799-26.65-26.799-14.71 0-26.65 11.992-26.65 26.799 0 14.807 11.94 26.799 26.65 26.799 14.71 0 26.65-11.992 26.65-26.799ZM894.041 396.275c0-5.431-4.377-9.822-9.763-9.822-5.385 0-9.762 4.391-9.762 9.822 0 5.431 4.377 9.823 9.762 9.823 5.386 0 9.763-4.392 9.763-9.823ZM1466.57 114.767c0-5.432-4.38-9.824-9.76-9.824-5.39 0-9.77 4.392-9.77 9.824 0 5.431 4.38 9.823 9.77 9.823 5.38 0 9.76-4.392 9.76-9.823Z" fill="#fff" stroke="#DCFCE7" stroke-width="2.5"/></svg>
