<svg width="1095" height="320" fill="none" xmlns="http://www.w3.org/2000/svg"><g opacity=".3" stroke="#fff" stroke-width="2"><path opacity=".6" d="m1124.35 12.38-62.72-65.978c-58.43-61.476-151.977-62.733-208.939-2.806L791.559 7.91c-56.961 59.927-55.767 158.343 2.667 219.82l62.714 65.978c58.434 61.477 151.98 62.733 208.94 2.806l61.14-64.315c56.96-59.926 55.76-158.343-2.67-219.82Z"/><path opacity=".6" d="m1074.17 438.477 117.42 47.18c109.41 43.962 231.12-11.357 271.85-123.558l43.72-120.418c40.73-112.2-14.94-238.795-124.35-282.757l-117.42-47.18c-109.41-43.961-231.12 11.358-271.851 123.559L949.824 155.72c-40.733 112.201 14.939 238.795 124.346 282.757Z"/><path opacity=".6" d="m1098.04 96.118 72.68 58.319c67.72 54.34 163.44 42.091 213.79-27.36l54.03-74.537c50.35-69.451 36.27-169.804-31.45-224.144l-72.68-58.32c-67.72-54.34-163.44-42.091-213.79 27.361l-54.04 74.536c-50.34 69.451-36.26 169.804 31.46 224.145ZM815.3 372.671l44.43 61.766c41.398 57.552 118.186 69.79 171.51 27.334l57.23-45.564c53.33-42.456 62.99-123.528 21.59-181.079l-44.42-61.766c-41.4-57.552-118.192-69.789-171.516-27.334l-57.23 45.565c-53.325 42.455-62.993 123.527-21.594 181.078Z"/><path opacity=".6" d="m755.759-147.573-151.76-85.637c-141.405-79.795-315.972-26.922-389.905 118.094L134.746 40.519C60.813 185.535 115.509 367.78 256.914 447.574l151.76 85.637c141.405 79.794 315.972 26.921 389.905-118.095l79.348-155.635c73.933-145.016 19.237-327.26-122.168-407.054Z"/></g></svg>
