<svg width="1728" height="1364" viewBox="0 0 1728 1364" fill="none" xmlns="http://www.w3.org/2000/svg">
<path d="M1465.72 239.686L1581.09 151.356C1688.59 69.0523 1840.53 87.6054 1920.45 192.796L2006.23 305.689C2086.15 410.879 2063.79 562.872 1956.3 645.176L1840.92 733.506C1733.42 815.81 1581.49 797.257 1501.57 692.067L1415.79 579.174C1335.87 473.984 1358.22 321.99 1465.72 239.686Z" stroke="#DCFCE7" stroke-width="2.5"/>
<path d="M300.302 591.529L380.724 560.658C455.659 531.893 539.05 568.016 566.983 641.342L596.962 720.037C624.895 793.362 586.792 876.123 511.857 904.888L431.435 935.759C356.5 964.524 273.109 928.4 245.176 855.075L215.197 776.38C187.264 703.054 225.367 620.294 300.302 591.529Z" stroke="#DCFCE7" stroke-width="2.5"/>
<path d="M951.274 554.939L710.376 684.644C485.914 805.5 208.812 725.419 91.4528 505.779L-34.5009 270.055C-151.86 50.4152 -65.037 -225.611 159.425 -346.467L400.323 -476.172C624.785 -597.027 901.886 -516.947 1019.25 -297.307L1145.2 -61.5827C1262.56 158.057 1175.74 434.084 951.274 554.939Z" stroke="#DCFCE7" stroke-width="2.5"/>
<path d="M1026.55 115.275L1155.98 65.5931C1276.57 19.3008 1410.78 77.4355 1455.73 195.441L1503.98 322.087C1548.93 440.092 1487.61 573.282 1367.02 619.574L1237.59 669.256C1116.99 715.549 982.789 657.414 937.835 539.409L889.59 412.762C844.636 294.757 905.956 161.568 1026.55 115.275Z" stroke="#DCFCE7" stroke-width="2.5"/>
<path d="M1445.78 -12.5379L1478.16 -37.3311C1508.33 -60.4326 1550.98 -55.225 1573.41 -25.6996L1597.49 5.98803C1619.92 35.5135 1613.65 78.1762 1583.47 101.278L1551.09 126.071C1520.92 149.172 1478.27 143.965 1455.84 114.439L1431.76 82.7517C1409.33 53.2262 1415.6 10.5636 1445.78 -12.5379Z" stroke="#DCFCE7" stroke-width="2.5"/>
<path d="M1097.03 462.197C1112.03 462.197 1124.19 474.421 1124.19 489.501C1124.19 504.58 1112.03 516.805 1097.03 516.805C1082.04 516.805 1069.88 504.58 1069.88 489.501C1069.88 474.421 1082.04 462.197 1097.03 462.197Z" fill="white"/>
<path d="M1203.34 14.7907C1203.34 -0.016407 1191.4 -12.0084 1176.69 -12.0084C1161.98 -12.0084 1150.04 -0.016407 1150.04 14.7907C1150.04 29.5979 1161.98 41.5898 1176.69 41.5898C1191.4 41.5898 1203.34 29.5979 1203.34 14.7907Z" fill="white" stroke="#DCFCE7" stroke-width="2.5"/>
<path d="M1449.34 591.791C1449.34 576.984 1437.4 564.992 1422.69 564.992C1407.98 564.992 1396.04 576.984 1396.04 591.791C1396.04 606.598 1407.98 618.59 1422.69 618.59C1437.4 618.59 1449.34 606.598 1449.34 591.791Z" fill="white" stroke="#DCFCE7" stroke-width="2.5"/>
<path d="M894.041 396.275C894.041 390.844 889.664 386.453 884.278 386.453C878.893 386.453 874.516 390.844 874.516 396.275C874.516 401.706 878.893 406.098 884.278 406.098C889.664 406.098 894.041 401.706 894.041 396.275Z" fill="white" stroke="#DCFCE7" stroke-width="2.5"/>
<path d="M1466.57 114.767C1466.57 109.335 1462.19 104.943 1456.81 104.943C1451.42 104.943 1447.04 109.335 1447.04 114.767C1447.04 120.198 1451.42 124.59 1456.81 124.59C1462.19 124.59 1466.57 120.198 1466.57 114.767Z" fill="white" stroke="#DCFCE7" stroke-width="2.5"/>
</svg>
