<svg width="33" height="27" viewBox="0 0 33 27" fill="none" xmlns="http://www.w3.org/2000/svg">
<path d="M9.521 0.5C4.013 4.388 0.125 10.76 0.125 17.78C0.125 23.504 3.581 26.852 7.577 26.852C11.357 26.852 14.165 23.828 14.165 20.264C14.165 16.7 11.681 14.108 8.441 14.108C7.793 14.108 6.929 14.216 6.713 14.324C7.253 10.652 10.709 6.332 14.165 4.172L9.521 0.5ZM28.097 0.5C22.697 4.388 18.809 10.76 18.809 17.78C18.809 23.504 22.265 26.852 26.261 26.852C29.933 26.852 32.849 23.828 32.849 20.264C32.849 16.7 30.257 14.108 27.017 14.108C26.369 14.108 25.613 14.216 25.397 14.324C25.937 10.652 29.285 6.332 32.741 4.172L28.097 0.5Z" fill="#6131DD"/>
</svg>
