<svg xmlns="http://www.w3.org/2000/svg" xml:space="preserve" viewBox="0 0 180 58.1"><path fill="#35b454" d="M25.3 13.3H.5v8h16.3c1.1 0 1.8.9 1.8 1.8v14H15c-1.1 0-1.8-.9-1.8-1.8V25.1H6.4c-3.5 0-6.4 2.8-6.4 6.3v7.2C0 42.1 2.8 45 6.3 45h25.4V19.6c0-3.5-2.8-6.3-6.4-6.3zM55.6 37H52c-1.1 0-1.8-.9-1.8-1.8V13.3h-6.9c-3.5 0-6.4 2.8-6.4 6.3v19c0 3.5 2.8 6.4 6.3 6.4h25.4V0H55.4l.2 37zm37 0H89c-1.1 0-1.8-.9-1.8-1.8V13.3H74v25.3c0 3.5 2.8 6.4 6.3 6.4h12.3v3.9H74.5v9.2h25c3.5 0 6.4-2.8 6.4-6.3V13.3H92.6V37zm43.9-23.7H111v25.3c0 3.5 2.8 6.4 6.3 6.4h25.1v-8H126c-1.1 0-1.8-.9-1.8-1.8v-14h3.5c1.1 0 1.8.9 1.8 1.8v10.1h6.9c3.5 0 6.4-2.8 6.4-6.3v-7.2c0-3.5-2.8-6.3-6.3-6.3zm36.9 0h-25.3V45h13.3V21.2h3.5c1.1 0 1.8.9 1.8 1.8v22H180V19.6c-.2-3.5-3-6.3-6.6-6.3z"/></svg>
