<svg width="200" height="90" fill="none" xmlns="http://www.w3.org/2000/svg"><path d="M35.307 29.276H10.533v7.963H26.81c1.059 0 1.771.886 1.771 1.771v13.982H25.04c-1.058 0-1.77-.886-1.77-1.771V41.134h-6.898A6.342 6.342 0 0 0 10 47.506v7.077a6.342 6.342 0 0 0 6.372 6.372h25.307V35.648a6.342 6.342 0 0 0-6.372-6.372ZM65.575 52.992h-3.543c-1.058 0-1.77-.885-1.77-1.771V29.276h-6.905a6.342 6.342 0 0 0-6.372 6.372v18.935a6.342 6.342 0 0 0 6.372 6.372h25.307V16H65.387l.18 36.992h.008ZM102.56 52.992h-3.543c-1.058 0-1.77-.886-1.77-1.771V29.276H83.97v25.307a6.342 6.342 0 0 0 6.372 6.372h12.21v3.895h-18.05v9.201h24.955a6.343 6.343 0 0 0 6.372-6.371V29.276h-13.277v23.716h.008ZM146.456 29.276h-25.487v25.307a6.343 6.343 0 0 0 6.372 6.372h24.954v-7.963h-16.286c-1.058 0-1.771-.886-1.771-1.771V37.239h3.542c1.059 0 1.772.886 1.772 1.771v10.087h6.904a6.343 6.343 0 0 0 6.372-6.372v-7.077a6.343 6.343 0 0 0-6.372-6.372ZM183.441 29.276h-25.307v31.679h13.276V37.239h3.543c1.058 0 1.771.886 1.771 1.771v21.945H190V35.648c-.18-3.542-3.01-6.372-6.552-6.372h-.007Z" fill="#35B454"/></svg>
