<svg width="200" height="90" fill="none" xmlns="http://www.w3.org/2000/svg"><path d="M16.07 22h33.972a6.073 6.073 0 0 1 6.07 6.07v33.987a6.073 6.073 0 0 1-6.07 6.07H16.07a6.072 6.072 0 0 1-6.07-6.07V28.055A6.06 6.06 0 0 1 16.07 22Z" fill="url(#a)"/><path d="M33.59 33.652c-7.19 0-13.028 5.837-13.028 13.042 0 7.204 5.838 13.026 13.027 13.026 7.19 0 13.027-5.837 13.027-13.041a13.014 13.014 0 0 0-13.027-13.027Zm0 22.222c-5.064 0-9.181-4.117-9.181-9.18 0-5.064 4.117-9.18 9.18-9.18 5.064 0 9.18 4.116 9.18 9.18 0 5.063-4.101 9.18-9.18 9.18Zm0-16.483v6.844c0 .196.21.338.39.24l6.07-3.147c.143-.068.18-.24.113-.376a7.564 7.564 0 0 0-6.296-3.816c-.142 0-.278.113-.278.263v-.008Zm-8.505-5.025-.796-.797a1.995 1.995 0 0 0-2.825 0l-.954.954a1.995 1.995 0 0 0 0 2.825l.781.781c.128.128.308.098.42-.03a14.974 14.974 0 0 1 3.329-3.328c.143-.082.15-.278.045-.405Zm12.771-2.074v-1.578a1.997 1.997 0 0 0-1.998-1.998H31.2a1.997 1.997 0 0 0-1.998 1.998v1.623c0 .18.165.308.353.263 1.3-.376 2.675-.57 4.057-.57 1.382 0 2.644.18 3.914.533a.271.271 0 0 0 .338-.263l-.008-.008Z" fill="#fff"/><path d="M118.999 56.475c0 3.734-.954 6.46-2.87 8.196-1.915 1.735-4.838 2.6-8.789 2.6-1.443 0-4.433-.279-6.829-.812l.879-4.335c1.998.421 4.643.534 6.032.534 2.194 0 3.764-.451 4.703-1.345.939-.894 1.398-2.224 1.398-3.99v-.893c-.549.263-1.263.533-2.142.811-.879.263-1.9.406-3.05.406-1.51 0-2.884-.24-4.124-.714-1.24-.473-2.321-1.172-3.2-2.096-.879-.924-1.578-2.088-2.074-3.47-.488-1.383-.744-3.862-.744-5.68 0-1.705.263-3.846.782-5.274.533-1.427 1.284-2.66 2.306-3.681 1.007-1.022 2.239-1.803 3.681-2.382a13.383 13.383 0 0 1 4.966-.939c1.833 0 3.411.226 5.011.489 1.593.263 2.952.548 4.057.856v21.711l.007.008Zm-15.205-10.803c0 2.291.503 4.838 1.51 5.905 1.006 1.067 2.306 1.592 3.906 1.592.864 0 1.691-.127 2.464-.36.767-.24 1.383-.519 1.879-.857V38.37c-.391-.083-2.029-.421-3.614-.459-1.983-.052-3.501.76-4.56 2.059-1.052 1.3-1.578 3.583-1.578 5.71l-.007-.008Zm41.176 0c0 1.848-.263 3.245-.811 4.77-.549 1.525-1.315 2.825-2.307 3.907a10.177 10.177 0 0 1-3.583 2.502c-1.398.586-3.554.924-4.628.924-1.074-.015-3.215-.323-4.605-.925-1.382-.6-2.577-1.427-3.569-2.501-.991-1.074-1.765-2.382-2.321-3.907-.556-1.525-.841-2.922-.841-4.77 0-1.848.255-3.621.811-5.139.556-1.517 1.345-2.794 2.351-3.876 1.007-1.082 2.209-1.9 3.584-2.494 1.382-.586 2.907-.864 4.56-.864 1.653 0 3.178.293 4.575.864 1.397.586 2.599 1.412 3.584 2.494.991 1.074 1.765 2.366 2.321 3.876.586 1.51.879 3.29.879 5.139Zm-5.597.015c0-2.366-.518-4.335-1.525-5.71-1.007-1.382-2.419-2.073-4.222-2.073-1.803 0-3.215.684-4.222 2.073-1.007 1.383-1.495 3.344-1.495 5.71s.503 4.004 1.51 5.386c1.007 1.398 2.419 2.089 4.222 2.089 1.803 0 3.215-.699 4.222-2.089 1.007-1.397 1.51-2.997 1.51-5.386Zm17.782 12.088c-8.97.045-8.97-7.25-8.97-8.407l-.015-25.858 5.469-.864v25.685c0 .661 0 4.83 3.509 4.838v4.606h.007Zm9.639 0h-5.499v-23.62l5.499-.864v24.484Zm-2.757-27.076a3.322 3.322 0 0 0 3.328-3.313 3.312 3.312 0 0 0-3.328-3.313 3.312 3.312 0 0 0-3.328 3.313 3.322 3.322 0 0 0 3.328 3.313Zm16.422 2.6c1.803 0 3.328.225 4.56.668 1.232.451 2.224 1.075 2.953 1.879.728.803 1.247 1.885 1.555 3.035.323 1.149.473 2.404.473 3.793v14.079c-.841.18-2.111.39-3.816.646-1.706.255-3.621.376-5.747.376-1.413 0-2.712-.143-3.877-.406-1.172-.263-2.171-.699-3.005-1.3a6.311 6.311 0 0 1-1.946-2.321c-.458-.954-.698-2.291-.698-3.696 0-1.405.263-2.194.781-3.118a6.72 6.72 0 0 1 2.141-2.269c.909-.586 1.946-1.007 3.133-1.262a17.688 17.688 0 0 1 3.718-.375c.601 0 1.232.044 1.901.112s1.375.196 2.126.376v-.894c0-.631-.067-1.232-.225-1.788a3.796 3.796 0 0 0-.782-1.495c-.375-.436-.863-.767-1.479-1.007a6.408 6.408 0 0 0-2.337-.42c-1.262 0-2.404.15-3.456.337-1.051.18-1.915.391-2.576.632l-.662-4.493c.684-.24 1.706-.473 3.02-.714 1.315-.24 2.728-.36 4.238-.36l.007-.015Zm.458 19.855c1.676 0 2.923-.097 3.794-.263v-5.566c-.308-.083-.744-.18-1.315-.263a13.133 13.133 0 0 0-1.9-.143c-.601 0-1.217.045-1.833.143a5.686 5.686 0 0 0-1.668.488 2.877 2.877 0 0 0-1.187 1.007c-.308.435-.451.683-.451 1.344 0 1.285.451 2.029 1.262 2.517.827.504 1.916.744 3.306.744l-.008-.008ZM72.887 33.441c1.803 0 3.328.226 4.56.67 1.232.45 2.224 1.073 2.953 1.877.743.812 1.247 1.886 1.555 3.035.323 1.15.473 2.404.473 3.794v14.079c-.841.18-2.11.39-3.816.646-1.706.255-3.621.375-5.747.375a17.65 17.65 0 0 1-3.877-.405c-1.172-.263-2.17-.7-3.005-1.3a6.3 6.3 0 0 1-1.946-2.321c-.458-.954-.698-2.292-.698-3.697 0-1.404.263-2.193.781-3.117a6.724 6.724 0 0 1 2.141-2.27c.91-.585 1.946-1.006 3.133-1.261a17.689 17.689 0 0 1 3.719-.376c.6 0 1.232.045 1.9.113a16.3 16.3 0 0 1 2.126.375v-.894c0-.63-.067-1.232-.225-1.788a3.803 3.803 0 0 0-.781-1.494c-.376-.436-.864-.767-1.48-1.007a6.4 6.4 0 0 0-2.337-.42c-1.262 0-2.404.15-3.455.337-1.052.18-1.916.39-2.577.631l-.661-4.492c.683-.24 1.705-.474 3.02-.714 1.314-.255 2.727-.36 4.237-.36l.007-.016Zm.474 19.871c1.675 0 2.922-.098 3.793-.263v-5.567c-.308-.082-.743-.18-1.314-.263a13.146 13.146 0 0 0-1.901-.142c-.601 0-1.217.045-1.833.142a5.683 5.683 0 0 0-1.668.489c-.496.233-.894.57-1.187 1.006-.308.436-.45.684-.45 1.345 0 1.285.45 2.029 1.262 2.517.81.488 1.915.744 3.305.744l-.007-.008Zm22.176 4.463c-8.97.045-8.97-7.25-8.97-8.407l-.014-25.858 5.469-.864v25.685c0 .661 0 4.83 3.508 4.838v4.606h.007Z" fill="#182359"/><defs><linearGradient id="a" x1="-7.659" y1="84.391" x2="69.371" y2="9.505" gradientUnits="userSpaceOnUse"><stop stop-color="#00AEFF"/><stop offset="1" stop-color="#3369E7"/></linearGradient></defs></svg>
