<svg width="200" height="90" fill="none" xmlns="http://www.w3.org/2000/svg"><path d="M122.042 41.77c.647 0 1.222-.576 1.222-1.295 0-.72-.575-1.294-1.222-1.294-.648 0-1.223.575-1.223 1.294 0 .72.503 1.294 1.223 1.294ZM183.168 47.307c3.236 0 4.746 2.23 4.962 5.61h-10.283c.431-3.38 2.517-5.61 5.321-5.61Zm0 13.376c-3.164 0-5.321-2.59-5.393-6.616h12.153c-.144-5.034-2.733-7.983-6.832-7.983s-7.047 3.308-7.047 7.91c0 4.603 2.876 7.911 7.047 7.911 4.171 0 6.185-2.445 6.904-5.178l-1.294-.503c-.504 2.301-1.87 4.459-5.538 4.459Zm-23.372-6.688c0 4.746 3.021 7.91 7.12 7.91 3.739 0 6.04-2.66 6.616-5.609l-1.223-.647c-.575 2.66-2.013 4.962-5.393 4.962s-5.466-2.517-5.466-6.688c0-4.171 2.23-6.688 5.466-6.688 3.02 0 4.53 2.23 4.818 5.034l1.222-.647c-.287-3.02-2.373-5.61-6.112-5.61-4.171.072-7.048 3.236-7.048 7.983Zm-15.605 7.479h1.654v-8.27c0-4.243 2.589-5.897 4.962-5.897 2.733 0 3.811 1.438 3.811 3.667v10.5h1.654V50.903c0-2.733-1.222-4.819-5.034-4.819-2.301 0-4.746 1.439-5.465 4.027h-.144v-3.667h-1.438v15.03ZM133.62 47.307c3.236 0 4.746 2.23 4.962 5.61h-10.284c.431-3.38 2.517-5.61 5.322-5.61Zm0 13.376c-3.165 0-5.322-2.59-5.394-6.616h12.154c-.144-5.034-2.733-7.983-6.832-7.983s-7.048 3.308-7.048 7.91c0 4.603 2.877 7.911 7.048 7.911s6.184-2.445 6.903-5.178l-1.294-.503c-.503 2.301-1.87 4.459-5.537 4.459Zm-12.37.79h1.654V46.517h-1.654v14.958Zm-6.256 0h1.654v-22.22h-1.654v22.22Zm-15.821-7.478c0-4.603 2.517-6.688 5.25-6.688 3.236 0 5.249 2.445 5.249 6.688s-1.941 6.688-5.321 6.688c-2.805 0-5.178-1.942-5.178-6.688Zm-.144 13.448v-9.277h.144c.863 2.373 2.733 3.74 5.465 3.74 3.524 0 6.76-2.302 6.76-7.911 0-5.61-3.236-7.91-6.76-7.91-2.373 0-4.746 1.438-5.465 4.242h-.216v-3.811h-1.582v20.927h1.654Zm-27.687-5.97h1.654v-8.197c0-4.171 2.158-5.97 4.603-5.97 2.733 0 3.667 1.367 3.667 3.597v10.57h1.654v-8.197c0-4.171 2.158-5.97 4.603-5.97 2.805 0 3.668 1.367 3.668 3.597v10.57h1.653V50.832c0-2.805-1.006-4.747-4.746-4.747-2.301 0-4.53 1.439-5.25 4.027h-.143c-.144-2.445-1.295-4.027-4.603-4.027-2.301 0-4.458 1.439-5.178 4.027h-.143v-3.667h-1.439v15.03Zm-12.8-19.775h.215l4.315 10.859H54.3l4.243-10.86Zm1.078-2.517h-1.725l-8.918 22.293h1.798l2.877-7.335h9.924l2.876 7.335h1.942L59.62 39.18Z" fill="#000"/><path d="m29.489 38.318-5.538-5.466 17.044-6.4-11.506 11.866ZM29.417 46.084l5.465 5.394-17.043 6.4 11.578-11.794Z" fill="#E80D8C"/><path d="M32.293 39.468v-7.695l16.612 7.408-16.612.287ZM10 45.221l16.612 7.336v-7.623L10 45.22Z" fill="#ED6CA5"/><path d="m33.372 42.201 5.537-5.394 6.473 16.828-12.01-11.434ZM25.462 42.129l-5.466 5.465-6.472-16.827 11.938 11.362Z" fill="#8C2E87"/><path d="M32.221 44.934h7.767l-7.479 16.468-.288-16.468ZM26.396 23l-7.479 16.396h7.767L26.396 23Z" fill="#E62966"/></svg>
