<svg xmlns="http://www.w3.org/2000/svg" xml:space="preserve" viewBox="0 0 180 44.4"><path d="M112 18.8c.6 0 1.2-.6 1.2-1.3 0-.7-.6-1.3-1.2-1.3s-1.2.6-1.2 1.3c0 .7.5 1.3 1.2 1.3zm61.2 5.5c3.2 0 4.7 2.2 5 5.6h-10.3c.4-3.4 2.5-5.6 5.3-5.6zm0 13.4c-3.2 0-5.3-2.6-5.4-6.6H180c-.1-5-2.7-8-6.8-8s-7 3.3-7 7.9c0 4.6 2.9 7.9 7 7.9 4.2 0 6.2-2.4 6.9-5.2l-1.3-.5c-.6 2.3-2 4.5-5.6 4.5zM149.8 31c0 4.7 3 7.9 7.1 7.9 3.7 0 6-2.7 6.6-5.6l-1.2-.6c-.6 2.7-2 5-5.4 5s-5.5-2.5-5.5-6.7 2.2-6.7 5.5-6.7c3 0 4.5 2.2 4.8 5l1.2-.6c-.3-3-2.4-5.6-6.1-5.6-4.1 0-7 3.1-7 7.9zm-15.6 7.5h1.7v-8.3c0-4.2 2.6-5.9 5-5.9 2.7 0 3.8 1.4 3.8 3.7v10.5h1.7V27.9c0-2.7-1.2-4.8-5-4.8-2.3 0-4.7 1.4-5.5 4h-.1v-3.7h-1.4l-.2 15.1zm-10.6-14.2c3.2 0 4.7 2.2 5 5.6h-10.3c.4-3.4 2.5-5.6 5.3-5.6zm0 13.4c-3.2 0-5.3-2.6-5.4-6.6h12.2c-.1-5-2.7-8-6.8-8s-7 3.3-7 7.9c0 4.6 2.9 7.9 7 7.9s6.2-2.4 6.9-5.2l-1.3-.5c-.5 2.3-1.9 4.5-5.6 4.5zm-12.4.8h1.7v-15h-1.7v15zm-6.2 0h1.7V16.3H105v22.2zM89.2 31c0-4.6 2.5-6.7 5.2-6.7 3.2 0 5.2 2.4 5.2 6.7s-1.9 6.7-5.3 6.7c-2.8 0-5.1-2-5.1-6.7zM89 44.4v-9.3h.1c.9 2.4 2.7 3.7 5.5 3.7 3.5 0 6.8-2.3 6.8-7.9 0-5.6-3.2-7.9-6.8-7.9-2.4 0-4.7 1.4-5.5 4.2H89v-3.8h-1.6v20.9H89zm-27.7-5.9H63v-8.2c0-4.2 2.2-6 4.6-6 2.7 0 3.7 1.4 3.7 3.6v10.6H73v-8.2c0-4.2 2.2-6 4.6-6 2.8 0 3.7 1.4 3.7 3.6v10.6H83V27.8c0-2.8-1-4.7-4.7-4.7-2.3 0-4.5 1.4-5.2 4H73c-.1-2.4-1.3-4-4.6-4-2.3 0-4.5 1.4-5.2 4h-.1v-3.7h-1.4l-.4 15.1zM48.5 18.7h.2L53 29.6h-8.8l4.3-10.9zm1.1-2.5h-1.7L39 38.5h1.8l2.9-7.3h9.9l2.9 7.3h1.9l-8.8-22.3z"/><path fill="#e80d8c" d="M19.5 15.3 14 9.9l17-6.4-11.5 11.8zm-.1 7.8 5.5 5.4-17 6.4c-.1 0 11.5-11.8 11.5-11.8z"/><path fill="#ed6ca5" d="M22.3 16.5V8.8l16.6 7.4-16.6.3zM0 22.2l16.6 7.3v-7.6L0 22.2z"/><path fill="#8c2e87" d="m23.4 19.2 5.5-5.4 6.5 16.8-12-11.4zm-7.9-.1L10 24.6 3.5 7.8l12 11.3z"/><path fill="#e62966" d="M22.2 21.9H30l-7.5 16.5-.3-16.5zM16.4 0 8.9 16.4h7.8L16.4 0z"/></svg>
