<svg width="200" height="90" fill="none" xmlns="http://www.w3.org/2000/svg"><path d="m55.974 64.796-6.502-19.779 17.01-12.224H45.444L38.942 13H59.98l6.51 19.786c3.77 11.473-.118 24.528-10.552 32.002h.029l.007.008Zm-34.034 0 17.01 12.23 17.024-12.23-17.01-12.224L21.94 64.796ZM11.424 32.779c-3.976 12.106.641 24.926 10.516 32.017l6.502-19.786-17.018-12.231h21.03L38.943 13H17.89l-6.466 19.779Z" fill="#EB5424"/><path d="M178.616 28.456c-3.387 0-6.259 1.584-8.292 4.573-2.017 2.975-3.092 7.12-3.092 11.988 0 4.868 1.067 9.02 3.092 11.988 2.033 2.99 4.905 4.573 8.292 4.573 3.387 0 6.259-1.583 8.291-4.573 2.018-2.975 3.093-7.12 3.093-11.988 0-4.867-1.068-9.02-3.093-11.988-2.032-2.99-4.904-4.573-8.291-4.573Zm0 29.006c-1.62 0-2.901-.906-3.918-2.776-1.222-2.254-1.899-5.685-1.899-9.684 0-3.998.67-7.43 1.899-9.683 1.017-1.87 2.305-2.776 3.918-2.776s2.901.906 3.917 2.776c1.223 2.254 1.9 5.685 1.9 9.683 0 3.999-.67 7.43-1.9 9.684-1.023 1.877-2.297 2.776-3.917 2.776Zm-73.482-16.944v14.234c0 3.755 3.085 6.811 6.885 6.811 3.299 0 5.817-1.627 6.73-2.305.052-.036.118-.051.162-.029a.256.256 0 0 1 .126.125l.552 1.797h4.131V40.518h-5.272v15.42c0 .073-.037.14-.104.176-.986.508-2.967 1.355-4.911 1.355-1.672 0-3.034-1.347-3.034-2.997V40.525h-5.272l.007-.007Zm52.797 20.603h5.273V46.888c0-3.756-3.086-6.812-6.885-6.812-2.791 0-5.037 1.186-6.127 1.9a.19.19 0 0 1-.206.007.199.199 0 0 1-.103-.176V28.869h-5.272V61.12h5.272V45.695c0-.074.037-.14.103-.177.987-.508 2.968-1.355 4.912-1.355.824 0 1.575.31 2.142.876.567.567.884 1.318.884 2.121v13.947l.007.014Zm-30.397-16.487h3.211c.103 0 .199.089.199.2V56.18c0 2.983 2.452 5.405 5.471 5.405 1.097 0 2.172-.154 3.21-.464v-3.726l-1.796.081a1.61 1.61 0 0 1-1.613-1.597V44.81c0-.103.088-.199.199-.199h3.21v-4.109h-3.21a.203.203 0 0 1-.199-.199v-6.81h-5.272v6.81a.203.203 0 0 1-.199.2h-3.211v4.13ZM96.703 61.136h5.486l-8.343-28.762c-.663-2.305-2.828-3.918-5.273-3.918a5.503 5.503 0 0 0-5.272 3.918l-8.343 28.762h5.486l2.415-8.328a.192.192 0 0 1 .192-.14h11.023c.088 0 .162.059.191.14l2.445 8.328h-.007Zm-3.91-12.562H84.39a.207.207 0 0 1-.155-.074.187.187 0 0 1-.03-.162l4.205-14.506a.192.192 0 0 1 .192-.14c.088 0 .162.059.191.14L93 48.338a.18.18 0 0 1-.03.162.196.196 0 0 1-.154.074h-.022Z" fill="#21264C"/></svg>
