<svg width="200" height="90" fill="none" xmlns="http://www.w3.org/2000/svg"><path fill-rule="evenodd" clip-rule="evenodd" d="m120.636 51.093-3.757-10.85h-4.4l5.892 15.5h4.558l5.892-15.5h-4.4l-3.778 10.85h-.007ZM137 39.814c-2.293 0-4.229.793-5.814 2.372-1.579 1.578-2.372 3.521-2.372 5.814s.793 4.229 2.372 5.814c1.578 1.586 3.521 2.372 5.814 2.372s4.236-.793 5.829-2.372c1.592-1.578 2.385-3.514 2.385-5.814 0-2.3-.793-4.228-2.385-5.814-1.593-1.579-3.536-2.372-5.829-2.372Zm3.007 11.25c-.807.807-1.807 1.208-3.007 1.208-1.2 0-2.193-.4-2.993-1.208-.793-.807-1.193-1.828-1.193-3.071s.4-2.264 1.193-3.072c.793-.807 1.793-1.207 2.993-1.207s2.2.4 3.007 1.208c.807.807 1.207 1.828 1.207 3.07 0 1.244-.4 2.265-1.207 3.072ZM147.35 55.75h4V40.243h-4V55.75ZM164.171 51.671c-.628.365-1.35.543-2.157.543-1.2 0-2.193-.4-2.978-1.193-.786-.792-1.179-1.807-1.179-3.021s.393-2.257 1.179-3.05c.785-.793 1.778-1.193 2.978-1.193.786 0 1.493.186 2.122.557.628.372 1.1.879 1.414 1.522l3.443-2.015c-.643-1.221-1.579-2.192-2.822-2.914-1.242-.721-2.614-1.086-4.121-1.086-2.336 0-4.286.786-5.843 2.358-1.557 1.571-2.343 3.514-2.343 5.828 0 2.314.779 4.257 2.343 5.829 1.557 1.571 3.507 2.357 5.843 2.357 1.507 0 2.886-.364 4.121-1.1 1.243-.736 2.2-1.707 2.886-2.929l-3.471-1.985a3.338 3.338 0 0 1-1.415 1.5v-.008ZM178.636 39.814c-2.4 0-4.365.779-5.893 2.343-1.529 1.565-2.293 3.507-2.293 5.843s.771 4.307 2.329 5.857c1.55 1.55 3.607 2.329 6.171 2.329 2.979 0 5.229-1.107 6.757-3.315l-3.221-1.857c-.786 1.036-1.943 1.55-3.472 1.55-2.378 0-3.835-.971-4.371-2.914h11.686a9.05 9.05 0 0 0 .157-1.643c0-2.314-.736-4.257-2.215-5.828-1.478-1.572-3.357-2.358-5.628-2.358l-.007-.007Zm-4.057 6.729c.228-.993.692-1.764 1.392-2.307.7-.55 1.593-.822 2.665-.822.907 0 1.721.258 2.435.772.715.514 1.186 1.3 1.415 2.357h-7.907ZM19.021 39.764c-2.171 0-3.842.757-5.021 2.265V34h-4v21.7h4v-1.829c1.179 1.508 2.85 2.265 5.021 2.265 2.172 0 3.872-.793 5.35-2.372 1.479-1.578 2.215-3.514 2.215-5.814 0-2.3-.736-4.229-2.215-5.814-1.478-1.579-3.257-2.372-5.35-2.372Zm2.343 11.329c-.814.814-1.843 1.221-3.085 1.221-1.243 0-2.265-.407-3.072-1.221C14.4 50.279 14 49.229 14 47.943c0-1.286.4-2.329 1.207-3.15.807-.814 1.829-1.222 3.072-1.222 1.242 0 2.271.408 3.085 1.222.815.814 1.222 1.864 1.222 3.15 0 1.286-.407 2.328-1.222 3.15ZM41.686 42.029c-1.2-1.508-2.886-2.265-5.05-2.265-2.165 0-3.843.793-5.315 2.372-1.478 1.578-2.214 3.521-2.214 5.814s.736 4.229 2.215 5.814c1.478 1.579 3.25 2.372 5.314 2.372 2.171 0 3.857-.757 5.05-2.265V55.7h4V40.2h-4v1.829Zm-1.222 9.064c-.814.814-1.843 1.228-3.085 1.228-1.243 0-2.265-.407-3.072-1.228-.807-.814-1.207-1.864-1.207-3.143 0-1.279.4-2.329 1.207-3.15.807-.814 1.829-1.221 3.072-1.221 1.242 0 2.271.407 3.085 1.221.815.814 1.222 1.864 1.222 3.15 0 1.286-.407 2.329-1.222 3.143ZM60.507 42.857V40.2H48.893v3.75h6.228l-6.535 9.086V55.7h12.221v-3.75h-6.886l6.579-9.093h.007ZM75.171 42.029c-1.2-1.508-2.885-2.265-5.05-2.265-2.164 0-3.835.793-5.314 2.372-1.479 1.578-2.214 3.521-2.214 5.814s.735 4.229 2.214 5.814c1.479 1.579 3.25 2.372 5.314 2.372 2.172 0 3.858-.757 5.05-2.265V55.7h4V40.2h-4v1.829Zm-1.221 9.064c-.814.814-1.843 1.228-3.086 1.228-1.243 0-2.264-.407-3.071-1.228-.807-.814-1.207-1.864-1.207-3.143 0-1.279.4-2.329 1.207-3.15.807-.814 1.828-1.221 3.071-1.221s2.272.407 3.086 1.221c.814.814 1.221 1.864 1.221 3.15 0 1.286-.407 2.329-1.221 3.143ZM94.371 42.029c-1.2-1.508-2.885-2.265-5.05-2.265-2.164 0-3.842.793-5.314 2.372-1.478 1.578-2.214 3.521-2.214 5.814s.736 4.229 2.214 5.814c1.479 1.579 3.25 2.372 5.314 2.372 2.172 0 3.858-.757 5.05-2.265V55.7h4V40.2h-4v1.829Zm-1.22 9.064c-.815.814-1.844 1.228-3.087 1.228-1.242 0-2.264-.407-3.071-1.228-.807-.814-1.207-1.864-1.207-3.143 0-1.279.4-2.329 1.207-3.15.807-.814 1.829-1.221 3.071-1.221 1.243 0 2.272.407 3.086 1.221.814.814 1.221 1.864 1.221 3.15 0 1.286-.407 2.329-1.22 3.143ZM105.557 42.864V40.2h-4v15.5h4v-7.407c0-1.486.479-2.55 1.443-3.193.964-.643 2.05-.886 3.271-.743v-4.464c-1.057 0-2.007.25-2.871.743-.857.492-1.471 1.242-1.843 2.228ZM186.1 39.829c0-1.093.857-1.943 1.95-1.943s1.95.85 1.95 1.943-.864 1.95-1.95 1.95a1.934 1.934 0 0 1-1.95-1.95Zm3.536 0c0-.907-.7-1.586-1.586-1.586-.886 0-1.571.678-1.571 1.586 0 .907.678 1.593 1.571 1.593.893 0 1.586-.672 1.586-1.593Zm-1.857.364V41h-.515v-2.271h.943c.443 0 .765.271.765.7a.74.74 0 0 1-.422.671l.529.9h-.643l-.414-.807h-.243Zm.243-.414c.228 0 .407-.058.407-.336 0-.2-.165-.293-.393-.293h-.257v.622h.243v.007Z" fill="#002855"/></svg>
