<svg width="200" height="90" fill="none" xmlns="http://www.w3.org/2000/svg"><path d="M102.448 51.238h11.359c3.229 0 5.274-1.778 5.274-4.631 0-2.692-2.045-4.631-5.274-4.631h-11.359c-.376 0-.699.323-.699.646v7.965c.049.377.319.647.699.647v.004Zm0 18.358h11.735c3.609 0 5.759-1.83 5.759-5.06 0-2.8-2.045-5.059-5.759-5.059h-11.735c-.376 0-.699.323-.699.647V68.9c.049.432.319.699.699.699v-.004Z" fill="#34313F"/><path d="m144.01.199-33.593 33.488h5.491c8.56 0 13.623 5.383 13.623 11.25 0 4.632-3.124 8.022-6.462 9.53-.537.218-.537.97.053 1.184 3.875 1.507 6.62 5.544 6.62 10.28 0 6.677-4.47 12.003-13.138 12.003H92.81c-.376 0-.7-.323-.7-.646V51.93L55.232 88.654c-.484.485-.161 1.346.538 1.346h88.67a.598.598 0 0 0 .594-.594V.684c.158-.594-.594-.917-1.023-.485Z" fill="#34313F"/></svg>
