<svg width="200" height="90" viewBox="0 0 200 90" fill="none" xmlns="http://www.w3.org/2000/svg">
<path d="M29.4968 64.9936C40.2646 64.9936 48.9936 56.2646 48.9936 45.4968C48.9936 34.729 40.2646 26 29.4968 26C18.729 26 10 34.729 10 45.4968C10 56.2646 18.729 64.9936 29.4968 64.9936Z" fill="#FFD500"/>
<path d="M75.0063 35.3884V53.0565H72.184V35.3884H75.0063ZM125.915 45.7344V53.0205H123.093V46.2096C123.064 44.4097 121.833 43.2721 120.242 43.2721C118.651 43.2721 117.42 44.5033 117.42 46.0296V53.0205H114.597V46.2096C114.597 44.3809 113.366 43.2721 111.746 43.2721C110.126 43.2721 108.895 44.5609 108.924 46.152V53.0493H106.102V40.9106H108.924V42.3217C109.824 41.2706 111.142 40.673 112.524 40.673C114.144 40.6442 115.67 41.4218 116.57 42.7393C117.557 41.4218 119.148 40.637 120.804 40.673C123.561 40.673 125.872 42.5305 125.901 45.7416L125.915 45.7344ZM135.217 40.6658V43.6681C132.489 43.4881 131.106 44.8992 131.106 46.7568V53.0565H128.284V40.9106H131.106V42.6241C132.1 41.3642 133.598 40.6442 135.217 40.673V40.6658ZM148.026 47.9879H138.457C138.817 49.6654 140.344 50.839 142.086 50.7742C143.497 50.8318 144.815 50.0542 145.477 48.8231L147.846 49.8094C146.795 51.9694 144.635 53.3229 142.237 53.2869C138.371 53.2869 135.7 50.5006 135.7 46.9872C135.613 43.5673 138.313 40.745 141.733 40.6874H141.971C145.484 40.6586 148.717 43.5385 148.033 47.9807L148.026 47.9879ZM138.486 45.828H145.477C145.088 44.2657 143.677 43.1569 142.057 43.1569C140.38 43.1281 138.911 44.2369 138.486 45.828ZM162.332 40.8818V53.0277H159.509V51.4078C158.523 52.6101 157.018 53.2941 155.427 53.2653C152.036 53.2653 149.516 50.6878 149.516 46.9656C149.516 43.2433 152.036 40.6658 155.427 40.6658C156.989 40.637 158.487 41.3282 159.509 42.5233V40.9034L162.332 40.8746V40.8818ZM159.509 46.9728C159.509 44.9064 158.012 43.2217 155.938 43.2217C153.865 43.2217 152.396 44.8992 152.396 46.9728C152.396 49.0463 153.865 50.7238 155.938 50.7238C158.012 50.7238 159.509 49.0463 159.509 46.9728ZM164.312 46.9728C164.312 43.4593 167.163 40.6442 170.669 40.673C173.218 40.673 175.5 42.2065 176.486 44.5753L173.873 45.4752C173.304 44.1865 172.044 43.3441 170.633 43.3153C168.502 43.3153 167.119 44.964 167.119 47.0016C167.033 48.9527 168.531 50.6014 170.482 50.6878C172.008 50.7454 173.419 49.8166 173.959 48.3767L176.508 49.3631C175.55 51.7966 173.21 53.3517 170.597 53.2941C167.206 53.3805 164.383 50.6806 164.297 47.2967V46.9656L164.312 46.9728ZM189.993 46.0152V53.0637H187.171V46.4616C187.171 44.4529 185.788 43.2793 184.053 43.2793C182.34 43.2505 180.936 44.5968 180.907 46.3104V53.0565H178.085V35.3884H180.907V42.4657C181.864 41.3282 183.304 40.637 184.809 40.6658C187.631 40.6658 190 42.6457 190 46.008L189.993 46.0152ZM60.0669 41.753V35.3596H57.2446V53.0277H60.0669V52.1565C61.0892 52.8189 62.3132 53.1429 63.5155 53.1429C64.3219 53.1429 65.1355 52.9917 65.8842 52.6965C69.0665 51.2566 70.4777 47.4767 69.0017 44.3305C68.3681 42.9481 67.2594 41.8394 65.8554 41.213C65.1067 40.9106 64.2931 40.7666 63.4867 40.7954C62.3204 40.7666 61.118 41.0978 60.0669 41.753ZM63.1844 50.659C61.8668 50.6878 60.6645 49.939 60.0669 48.8015C59.4693 47.6639 59.4693 46.2816 60.0669 45.144C60.6645 43.9777 61.8956 43.2577 63.1844 43.2865C65.2219 43.3441 66.813 45.0576 66.7554 47.0951C66.6978 49.0463 65.1355 50.6086 63.1844 50.6662V50.659ZM77.1014 46.9728C77.0438 43.4305 79.8949 40.5218 83.4011 40.4642C86.9434 40.4066 89.8521 43.2505 89.9097 46.764C89.9673 50.3062 87.1234 53.2149 83.6099 53.2725H83.5235C80.1037 53.3589 77.2238 50.695 77.1014 47.2391V46.9728ZM83.4875 50.659C85.5251 50.7166 87.2386 49.1255 87.2962 47.088C87.3538 45.0504 85.7626 43.3369 83.7251 43.2793C81.6876 43.2217 79.9741 44.8128 79.9165 46.8504V46.9728C79.8589 48.9527 81.414 50.6014 83.3939 50.659H83.4803H83.4875ZM91.3208 46.9728C91.2632 43.4305 94.0783 40.5218 97.6206 40.4642C101.163 40.4066 104.072 43.2217 104.129 46.764C104.187 50.3062 101.372 53.2149 97.8294 53.2725H97.743C94.3231 53.3589 91.4432 50.659 91.3568 47.2391C91.328 47.1527 91.328 47.0592 91.328 46.9728H91.3208ZM97.707 50.659C99.7445 50.7166 101.458 49.1255 101.516 47.088C101.573 45.0504 99.9821 43.3369 97.9446 43.2793C95.907 43.2217 94.1935 44.8128 94.1359 46.8504V46.9728C94.0783 48.9527 95.6335 50.6014 97.6134 50.659H97.6998H97.707ZM33.4567 41.4506L32.4992 43.8841C33.5503 44.5465 34.1479 45.7128 34.1479 46.944C34.0903 48.8663 32.4992 50.3638 30.5769 50.3062C28.6545 50.2486 27.157 48.6575 27.2146 46.7352C27.2722 44.9352 28.7121 43.4665 30.5121 43.3729L31.412 40.8818C27.8122 40.3994 24.4859 42.9841 24.4859 46.764V53.0349H27.2146V52.0486C28.2369 52.7109 29.4609 53.0349 30.6633 53.0349C34.0255 53.0925 36.8118 50.3926 36.8406 47.0016C36.8982 44.6616 35.5807 42.5017 33.4495 41.4506H33.4567ZM24.4859 41.1482C25.2635 40.3706 26.1922 39.737 27.2146 39.2907V35.3596H24.4859V41.1482Z" fill="#002840"/>
</svg>
