<svg xmlns="http://www.w3.org/2000/svg" xml:space="preserve" viewBox="0 0 180 39"><path fill="#ffd500" d="M19.5 39C30.3 39 39 30.3 39 19.5S30.3 0 19.5 0 0 8.7 0 19.5 8.7 39 19.5 39z"/><path fill="#002840" d="M65 9.4v17.7h-2.8V9.4H65zm50.9 10.3V27h-2.8v-6.8c0-1.8-1.3-2.9-2.9-2.9-1.6 0-2.8 1.2-2.8 2.8v7h-2.8v-6.8c0-1.8-1.2-2.9-2.9-2.9-1.6 0-2.9 1.3-2.8 2.9V27h-2.8V14.9h2.8v1.4c.9-1.1 2.2-1.6 3.6-1.6 1.6 0 3.1.7 4 2.1 1-1.3 2.6-2.1 4.2-2.1 2.9 0 5.2 1.8 5.2 5zm9.3-5v3c-2.7-.2-4.1 1.2-4.1 3.1v6.3h-2.8V14.9h2.8v1.7c1-1.2 2.5-2 4.1-1.9zM138 22h-9.6c.4 1.7 1.9 2.9 3.6 2.8 1.4.1 2.7-.7 3.4-2l2.4 1c-1.1 2.2-3.2 3.5-5.6 3.5-3.9 0-6.5-2.8-6.5-6.3-.1-3.4 2.6-6.2 6-6.3h.2c3.6 0 6.8 2.8 6.1 7.3zm-9.5-2.2h7c-.4-1.6-1.8-2.7-3.4-2.7-1.7 0-3.2 1.1-3.6 2.7zm23.8-4.9V27h-2.8v-1.6c-1 1.2-2.5 1.9-4.1 1.9-3.4 0-5.9-2.6-5.9-6.3 0-3.7 2.5-6.3 5.9-6.3 1.6 0 3.1.7 4.1 1.9V15l2.8-.1zm-2.8 6.1c0-2.1-1.5-3.8-3.6-3.8s-3.5 1.7-3.5 3.8c0 2.1 1.5 3.8 3.5 3.8 2.1-.1 3.6-1.8 3.6-3.8zm4.8 0c0-3.5 2.9-6.3 6.4-6.3 2.5 0 4.8 1.5 5.8 3.9l-2.6.9c-.6-1.3-1.8-2.1-3.2-2.2-2.1 0-3.5 1.6-3.5 3.7-.1 2 1.4 3.6 3.4 3.7 1.5.1 2.9-.9 3.5-2.3l2.5 1c-1 2.4-3.3 4-5.9 3.9-3.4.1-6.2-2.6-6.3-6l-.1-.3zm25.7-1v7h-2.8v-6.6c0-2-1.4-3.2-3.1-3.2-1.7 0-3.1 1.3-3.1 3v6.7h-2.8V9.4h2.8v7.1c1-1.1 2.4-1.8 3.9-1.8 2.7 0 5.1 1.9 5.1 5.3zM50.1 15.8V9.4h-2.8V27h2.8v-.9c1 .7 2.2 1 3.4 1 .8 0 1.6-.2 2.4-.4 3.2-1.4 4.6-5.2 3.1-8.4-.6-1.4-1.7-2.5-3.1-3.1-.7-.3-1.6-.4-2.4-.4-1.2 0-2.4.3-3.4 1zm3.1 8.9c-1.3 0-2.5-.7-3.1-1.9-.6-1.1-.6-2.5 0-3.7.6-1.2 1.8-1.9 3.1-1.9 2 .1 3.6 1.8 3.6 3.8-.1 2-1.7 3.6-3.6 3.7zM67.1 21c-.1-3.5 2.8-6.5 6.3-6.5 3.5-.1 6.5 2.8 6.5 6.3.1 3.5-2.8 6.5-6.3 6.5h-.1c-3.4.1-6.3-2.6-6.4-6V21zm6.4 3.7c2 .1 3.8-1.5 3.8-3.6.1-2-1.5-3.8-3.6-3.8-2-.1-3.8 1.5-3.8 3.6v.1c0 2 1.5 3.6 3.6 3.7zm7.8-3.7c-.1-3.5 2.8-6.5 6.3-6.5 3.5-.1 6.5 2.8 6.5 6.3.1 3.5-2.8 6.5-6.3 6.5h-.1c-3.4.1-6.3-2.6-6.4-6V21zm6.4 3.7c2 .1 3.8-1.5 3.8-3.6.1-2-1.5-3.8-3.6-3.8-2-.1-3.8 1.5-3.8 3.6v.1c0 2 1.5 3.6 3.6 3.7zm-64.2-9.2-1 2.4c1.1.7 1.6 1.8 1.6 3.1-.1 1.9-1.6 3.4-3.6 3.4-1.9-.1-3.4-1.6-3.4-3.6.1-1.8 1.5-3.3 3.3-3.4l.9-2.5c-3.6-.5-6.9 2.1-6.9 5.9V27h2.7v-1c1 .7 2.2 1 3.4 1 3.4.1 6.1-2.6 6.2-6 .2-2.3-1.1-4.5-3.2-5.5zm-9-.4c.8-.8 1.7-1.4 2.7-1.9V9.4h-2.7v5.7z"/></svg>
