<svg width="200" height="90" viewBox="0 0 200 90" fill="none" xmlns="http://www.w3.org/2000/svg">
<path d="M143.321 51.5302C144.337 51.5518 145.158 50.7593 145.187 49.7435C145.209 48.7276 144.416 47.9063 143.4 47.8775C142.385 47.8487 141.563 48.6484 141.534 49.6642V49.6859C141.534 50.7017 142.334 51.5014 143.321 51.523V51.5302Z" fill="#11172A"/>
<path d="M40.6124 51.0474C39.8415 50.7304 39.1354 50.2477 38.5807 49.6209C37.3919 48.288 36.7651 46.5733 36.7939 44.7794C36.7939 43.8572 36.938 42.9638 37.2046 42.0921C37.4712 41.2924 37.9034 40.5431 38.4654 39.9379C39.0273 39.3327 39.6974 38.85 40.4467 38.5114C41.268 38.1512 42.1614 37.9782 43.0835 37.9782C43.8328 37.9566 44.5821 38.0719 45.2882 38.3169C45.915 38.5618 46.4985 38.8716 47.0317 39.2823C47.5432 39.6713 47.9539 40.1756 48.2204 40.7592C48.5374 41.3644 48.7536 41.9912 48.8256 42.6684H45.5331C45.4395 42.1137 45.1441 41.6022 44.7334 41.2419C44.3011 40.8529 43.768 40.6584 43.1844 40.6584C42.1469 40.6584 41.3977 41.0474 40.8861 41.7463C40.3746 42.4451 40.1369 43.4609 40.1369 44.7218C40.1369 45.9826 40.3818 46.9264 40.8861 47.6973C41.3472 48.4682 42.1469 48.7852 43.1844 48.7852C43.7896 48.8068 44.3948 48.6122 44.8775 48.252C45.3386 47.8197 45.6484 47.2146 45.7276 46.5805H49.0201C48.9697 47.2362 48.804 47.8846 48.5086 48.4898C47.925 49.7001 46.8876 50.6656 45.6052 51.1267C44.8559 51.3932 44.0778 51.5157 43.3069 51.5157C42.3847 51.5373 41.4697 51.3932 40.6196 51.033L40.6124 51.0474Z" fill="#11172A"/>
<path d="M54.2794 39.9454C54.69 39.3402 55.2232 38.8071 55.8284 38.418C56.484 38.0578 57.2333 37.8633 57.9826 37.8849C58.5877 37.8849 59.2145 38.0074 59.7693 38.2739C60.2808 38.5189 60.7635 38.8575 61.1238 39.2682C61.5128 39.7293 61.801 40.2336 62.0171 40.7955C62.2621 41.4223 62.3558 42.078 62.3558 42.7552V51.1702H58.9696V43.2307C58.9912 42.6039 58.7967 41.9987 58.4148 41.516C58.0042 41.0549 57.399 40.8172 56.7722 40.8388C56.0733 40.8172 55.3961 41.127 54.935 41.6601C54.4235 42.2653 54.1641 43.0146 54.1857 43.8143V51.1918H50.7996V33.1731H54.1857V39.967H54.2794V39.9454Z" fill="#11172A"/>
<path d="M67.925 51.0476C67.1253 50.7306 66.4265 50.2479 65.8717 49.6211C65.2881 48.9943 64.8559 48.245 64.6109 47.4164C64.3227 46.5447 64.1786 45.6513 64.1786 44.7291C64.157 43.8069 64.3227 42.9136 64.6397 42.0418C64.9567 41.2709 65.3674 40.5432 65.9005 39.8876C66.4553 39.2824 67.1325 38.7997 67.8818 38.4611C68.6815 38.1009 69.5533 37.928 70.425 37.928C72.2406 37.8775 73.9553 38.6772 75.072 40.0821C75.6268 40.8098 76.0374 41.6528 76.2824 42.5245C76.5706 43.5404 76.7147 44.6066 76.7147 45.6657H67.5C67.6441 46.66 67.9611 47.4813 68.4942 48.0577C69.0273 48.634 69.755 48.9294 70.742 48.9294C71.2968 48.951 71.8515 48.8069 72.3415 48.4971C72.7305 48.209 73.0403 47.8199 73.1916 47.3588H76.5273C76.4049 47.9424 76.2103 48.4683 75.9222 48.9798C75.6052 49.4914 75.2233 49.9453 74.7334 50.3127C74.2219 50.7234 73.6239 51.0404 72.9899 51.2349C72.291 51.4798 71.5418 51.5951 70.7853 51.5735C69.8198 51.5735 68.8256 51.379 67.9322 51.0404L67.925 51.0476ZM68.4366 41.2781C67.9755 41.7608 67.6873 42.4669 67.4928 43.2882H73.1268C73.1052 42.5389 72.8098 41.8401 72.3271 41.2781C71.8443 40.7666 71.1671 40.4784 70.4394 40.5072C69.5677 40.5793 68.8905 40.8242 68.4294 41.2781H68.4366Z" fill="#11172A"/>
<path d="M81.7361 51.0474C80.9653 50.7304 80.2592 50.2477 79.7044 49.6209C78.5157 48.288 77.8889 46.5733 77.9177 44.7794C77.9177 43.8572 78.0618 42.9638 78.35 42.0921C78.6166 41.2924 79.0488 40.5431 79.6108 39.9379C80.1655 39.3327 80.8428 38.85 81.5921 38.5114C82.4134 38.1512 83.3067 37.9782 84.2289 37.9782C84.9782 37.9566 85.7275 38.0719 86.4335 38.3169C87.0603 38.5618 87.6439 38.8716 88.1771 39.2823C88.6886 39.6713 89.0993 40.1756 89.3658 40.7592C89.6828 41.3644 89.899 41.9912 89.971 42.6684H86.6785C86.5848 42.1137 86.3183 41.6022 85.8788 41.2419C85.4465 40.8529 84.9134 40.6584 84.3298 40.6584C83.2923 40.6584 82.5431 41.0474 82.0315 41.7463C81.52 42.4451 81.2823 43.4609 81.2823 44.7218C81.2823 45.9826 81.5272 46.9264 82.0315 47.6973C82.4926 48.4682 83.2923 48.7852 84.3298 48.7852C84.935 48.8068 85.5402 48.6122 86.0229 48.252C86.484 47.8197 86.7938 47.2146 86.873 46.5805H90.0935C90.0431 47.2362 89.8774 47.8846 89.582 48.4898C88.9984 49.7001 87.9609 50.6656 86.6785 51.1267C85.9292 51.3932 85.1511 51.5157 84.3802 51.5157C83.458 51.5373 82.5647 51.3716 81.7434 51.033L81.7361 51.0474Z" fill="#11172A"/>
<path d="M95.3025 46.8402V51.1918H91.9668V33.1731H95.3025V43.1587L99.7982 38.2739H103.862L99.1714 43.2091L104.445 51.1918H100.36L96.7795 45.3128L95.3025 46.8402Z" fill="#11172A"/>
<path d="M108.127 51.0475C107.327 50.7089 106.599 50.2262 106.023 49.621C105.439 48.9942 104.986 48.2665 104.669 47.4668C104.042 45.7233 104.042 43.8357 104.669 42.121C104.986 41.3213 105.439 40.5936 106.023 39.9668C106.607 39.34 107.327 38.8285 108.127 38.5403C109.842 37.8414 111.758 37.8414 113.473 38.5403C114.272 38.8789 115 39.3616 115.576 39.9668C116.16 40.5936 116.614 41.3213 116.931 42.121C117.558 43.8645 117.558 45.7521 116.931 47.4668C116.614 48.2665 116.16 48.9942 115.576 49.621C114.993 50.2478 114.272 50.7593 113.473 51.0475C111.78 51.7463 109.842 51.7463 108.127 51.0475ZM113.206 47.7838C113.761 47.0129 114.056 46.0187 114.056 44.7362C114.056 43.4538 113.768 42.438 113.206 41.6887C112.651 40.9178 111.758 40.4567 110.814 40.4999C109.87 40.4495 108.948 40.9106 108.422 41.6887C107.867 42.4596 107.572 43.5043 107.572 44.7362C107.572 45.9682 107.86 47.0345 108.422 47.7838C109.488 49.1166 111.419 49.3112 112.752 48.2665C112.925 48.1224 113.091 47.9495 113.213 47.7838H113.206Z" fill="#11172A"/>
<path d="M127.306 49.6425H127.212C126.823 50.1973 126.318 50.6584 125.764 51.0186C125.209 51.3572 124.503 51.5013 123.61 51.5013C122.205 51.5013 121.117 51.069 120.317 50.2693C119.568 49.3976 119.179 48.3097 119.179 46.8832V38.2737H122.514V46.3068C122.514 47.0777 122.709 47.6396 123.026 48.0215C123.437 48.4538 124.02 48.6771 124.625 48.6483C125.353 48.6699 126.03 48.3817 126.513 47.827C126.996 47.2434 127.262 46.4941 127.212 45.7232V38.2737H130.598V51.1915H127.356V49.6641L127.306 49.6425Z" fill="#11172A"/>
<path d="M133.84 38.2739V34.2105H137.132V38.2739H139.287V40.5217H137.132V47.3661C137.132 47.8488 137.226 48.1875 137.471 48.3604C137.738 48.5765 138.076 48.6774 138.415 48.6486H139.07C139.193 48.6486 139.287 48.6486 139.409 48.5981V51.1846C139.215 51.1846 139.07 51.235 138.854 51.235C138.66 51.235 138.422 51.2854 138.199 51.2854H137.305C136.895 51.2854 136.484 51.235 136.095 51.1413C135.706 51.0693 135.346 50.8964 135.007 50.6586C134.668 50.4209 134.402 50.0751 134.207 49.6932C133.991 49.2105 133.869 48.699 133.869 48.1658V40.5217H132.125V38.2739H133.84Z" fill="#11172A"/>
<path d="M150 50.9973C149.301 50.6586 148.667 50.1759 148.163 49.5708C147.63 48.944 147.269 48.2163 147.025 47.4166C146.78 46.5232 146.635 45.601 146.664 44.686C146.664 43.7638 146.787 42.8488 147.025 41.9555C147.269 41.1846 147.651 40.4569 148.163 39.8013C148.674 39.1961 149.301 38.7134 150 38.3748C150.771 38.0146 151.621 37.8416 152.493 37.8416C153.898 37.8416 155.079 38.2307 155.973 38.9295C156.866 39.6284 157.421 40.6947 157.666 42.0491H156.167C155.973 41.0837 155.612 40.3344 154.957 39.8445C154.352 39.3618 153.552 39.1169 152.565 39.1169C151.888 39.0952 151.232 39.2393 150.627 39.5491C150.094 39.8373 149.633 40.248 149.323 40.7595C148.963 41.2927 148.696 41.8978 148.574 42.5246C148.235 43.9512 148.257 45.4281 148.624 46.833C148.797 47.4598 149.056 48.065 149.424 48.5981C149.762 49.1097 150.195 49.5203 150.728 49.7869C151.311 50.0751 151.96 50.2192 152.615 50.2192C153.581 50.2408 154.525 49.9022 155.252 49.2537C155.908 48.6269 156.29 47.7768 156.441 46.7105H157.889C157.745 48.1875 157.233 49.3474 156.29 50.2408C155.396 51.0909 154.186 51.5232 152.615 51.5232C151.693 51.5232 150.829 51.3287 150 50.9901V50.9973Z" fill="#11172A"/>
<path d="M162.551 50.997C161.823 50.68 161.175 50.1757 160.663 49.5705C160.151 48.9437 159.741 48.1945 159.503 47.4164C159.215 46.5446 159.071 45.6296 159.071 44.6858C159.071 43.742 159.215 42.8486 159.503 41.9553C159.748 41.1555 160.159 40.4279 160.663 39.8011C161.175 39.1743 161.823 38.6916 162.551 38.3746C164.15 37.6757 165.937 37.6757 167.536 38.3746C168.264 38.7132 168.891 39.1959 169.424 39.8011C169.935 40.4279 170.346 41.1772 170.613 41.9553C170.879 42.827 171.023 43.7708 170.973 44.6858C170.973 45.608 170.85 46.523 170.613 47.4164C170.368 48.2161 169.957 48.9437 169.424 49.5705C168.912 50.1973 168.285 50.68 167.536 50.997C166.765 51.3573 165.915 51.5302 165.043 51.5302C164.172 51.5302 163.329 51.3357 162.551 50.997ZM166.902 49.7867C167.457 49.4985 167.918 49.0878 168.257 48.5979C168.646 48.0648 168.912 47.4596 169.056 46.8328C169.445 45.4279 169.445 43.9293 169.056 42.5244C168.883 41.8976 168.624 41.3141 168.257 40.7593C167.918 40.2478 167.435 39.8371 166.902 39.5489C166.319 39.2607 165.67 39.1166 165.015 39.1166C164.359 39.095 163.711 39.2391 163.127 39.5489C162.594 39.8371 162.111 40.2478 161.773 40.7593C161.383 41.2924 161.095 41.8976 160.922 42.5244C160.533 43.9293 160.533 45.4279 160.922 46.8328C161.095 47.4596 161.383 48.0648 161.773 48.5979C162.133 49.0806 162.594 49.4913 163.127 49.7867C164.337 50.3702 165.713 50.3702 166.902 49.7867Z" fill="#11172A"/>
<path d="M174.669 38.1298V40.0895H174.719C175.13 39.4627 175.641 38.9007 176.268 38.4684C176.873 38.0362 177.673 37.8416 178.617 37.8416C179.366 37.82 180.094 38.0362 180.742 38.4252C181.369 38.8575 181.83 39.4627 182.046 40.1903H182.097C182.486 39.4627 183.091 38.8575 183.79 38.4252C184.517 37.9929 185.339 37.7696 186.182 37.7984C186.693 37.7984 187.197 37.8921 187.68 38.0866C188.646 38.4252 189.373 39.1745 189.712 40.1399C189.906 40.6947 190 41.2782 190 41.8546V51.1918H188.501V42.0491C188.501 41.0837 188.257 40.3777 187.752 39.8949C187.219 39.4339 186.52 39.1961 185.814 39.2177C185.353 39.2177 184.921 39.2898 184.51 39.4627C184.099 39.6356 183.739 39.8733 183.422 40.1903C182.723 40.918 182.356 41.8834 182.385 42.8777V51.199H180.836V42.0491C180.836 41.0837 180.591 40.3777 180.086 39.8949C179.604 39.4122 178.999 39.2177 178.249 39.2177C177.788 39.2177 177.356 39.3114 176.945 39.5059C176.513 39.7004 176.124 39.967 175.785 40.2768C175.447 40.6154 175.159 41.0261 174.986 41.4656C174.791 41.9266 174.697 42.431 174.697 42.9425V51.1702H173.148V38.101L174.676 38.1226L174.669 38.1298Z" fill="#11172A"/>
<path d="M24.1138 44.7795L30.1369 34.0663C30.281 33.8501 30.281 33.5548 30.1369 33.3386C29.9928 33.1441 29.7767 33.0216 29.5317 33H17.1254C16.8804 33.0216 16.6643 33.1441 16.5202 33.3386L10.1081 44.3905C9.96398 44.6066 9.96398 44.902 10.1081 45.1182L16.4914 56.17C16.6138 56.3862 16.8516 56.5086 17.0965 56.5086H29.5101C29.755 56.5086 29.9712 56.3646 30.1153 56.17C30.2594 55.9539 30.2594 55.6585 30.1153 55.4424L24.1138 44.7723V44.7795ZM23.3141 43.3314L18.3357 34.4265H28.3501L23.3213 43.3314H23.3141ZM17.0749 35.1542L22.4712 44.7579L17.0749 54.3617L11.5346 44.7579L17.0749 35.1542ZM18.3357 55.0605L23.3213 46.1556L28.3069 55.0605H18.3357Z" fill="#11172A"/>
</svg>
