<svg xmlns="http://www.w3.org/2000/svg" xml:space="preserve" id="Layer_1" x="0" y="0" version="1.1" viewBox="0 0 180 23.5"><style>.st0{fill:#11172a}</style><path d="M133.3 18.5c1 0 1.8-.8 1.9-1.8 0-1-.8-1.8-1.8-1.9-1 0-1.8.8-1.9 1.8 0 1.1.8 1.9 1.8 1.9zM30.6 18c-.8-.3-1.5-.8-2-1.4-1.2-1.3-1.8-3-1.8-4.8 0-.9.1-1.8.4-2.7.3-.8.7-1.5 1.3-2.2.6-.6 1.2-1.1 2-1.4.8-.3 1.7-.5 2.6-.5.7 0 1.5.1 2.2.3.6.2 1.2.6 1.7 1s.9.9 1.2 1.5c.3.6.5 1.2.6 1.9h-3.3c-.1-.6-.4-1.1-.8-1.4-.4-.4-1-.6-1.5-.6-1 0-1.8.4-2.3 1.1-.5.7-.7 1.7-.7 3s.2 2.2.7 3c.5.8 1.3 1.1 2.3 1.1.6 0 1.2-.2 1.7-.5.5-.4.8-1 .9-1.7H39c-.1.7-.2 1.3-.5 1.9-.6 1.2-1.6 2.2-2.9 2.6-.7.3-1.5.4-2.3.4-.9-.1-1.8-.2-2.7-.6zM44.3 6.9c.4-.6.9-1.1 1.5-1.5.7-.4 1.4-.6 2.2-.5.6 0 1.2.1 1.8.4.5.2 1 .6 1.4 1 .4.5.7 1 .9 1.5.2.6.3 1.3.3 2v8.4H49v-7.9c0-.6-.2-1.2-.6-1.7-.4-.5-1-.7-1.6-.7-.7 0-1.4.3-1.8.8-.5.6-.8 1.4-.7 2.2v7.4h-3.4V.3h3.4v6.6zM57.9 18c-.8-.3-1.5-.8-2.1-1.4-.6-.6-1-1.4-1.3-2.2-.3-.9-.4-1.8-.4-2.7 0-.9.1-1.8.5-2.7.3-.8.7-1.5 1.3-2.2.6-.6 1.2-1.1 2-1.4.8-.4 1.7-.5 2.5-.5 1.8-.1 3.5.7 4.6 2.2.6.7 1 1.6 1.2 2.4.3 1 .4 2.1.4 3.1h-9.2c.1 1 .5 1.8 1 2.4.5.6 1.3.9 2.2.9.6 0 1.1-.1 1.6-.4.4-.3.7-.7.9-1.1h3.3c-.1.6-.3 1.1-.6 1.6s-.7 1-1.2 1.3c-.5.4-1.1.7-1.7.9-.7.2-1.4.4-2.2.3-.9.1-1.9-.1-2.8-.5zm.5-9.7c-.5.5-.7 1.2-.9 2h5.6c0-.7-.3-1.4-.8-2-.5-.5-1.2-.8-1.9-.8-.8.1-1.5.3-2 .8zM71.7 18c-.8-.3-1.5-.8-2-1.4-1.2-1.3-1.8-3-1.8-4.8 0-.9.1-1.8.4-2.7.3-.8.7-1.5 1.3-2.2.6-.6 1.2-1.1 2-1.4.8-.3 1.7-.5 2.6-.5.7 0 1.5.1 2.2.3.6.2 1.2.6 1.7 1s.9.9 1.2 1.5c.4.6.6 1.2.7 1.9h-3.3c-.1-.6-.4-1.1-.8-1.4-.4-.4-1-.6-1.5-.6-1 0-1.8.4-2.3 1.1-.5.7-.7 1.7-.7 3s.2 2.2.7 3c.5.8 1.3 1.1 2.3 1.1.6 0 1.2-.2 1.7-.5.5-.4.8-1 .9-1.7h3.2c-.1.7-.2 1.3-.5 1.9-.6 1.2-1.6 2.2-2.9 2.6-.7.3-1.5.4-2.3.4-1-.1-1.9-.2-2.8-.6zM85.3 13.8v4.4H82V.2h3.3v10l4.5-4.9h4.1l-4.7 4.9 5.3 8h-4.1l-3.6-5.9-1.5 1.5z" class="st0"/><path d="M98.1 18c-.8-.3-1.5-.8-2.1-1.4-.6-.6-1-1.4-1.4-2.2-.6-1.7-.6-3.6 0-5.3.4-.8.8-1.5 1.4-2.1s1.3-1.1 2.1-1.4c1.7-.7 3.6-.7 5.3 0 .8.3 1.5.8 2.1 1.4.6.6 1 1.4 1.4 2.2.6 1.7.6 3.6 0 5.3-.3.8-.8 1.5-1.4 2.2-.6.6-1.3 1.1-2.1 1.4-1.6.6-3.6.6-5.3-.1zm5.1-3.2c.6-.8.8-1.8.8-3 0-1.3-.3-2.3-.8-3-.6-.8-1.4-1.2-2.4-1.2-.9-.1-1.9.4-2.4 1.2-.6.8-.8 1.8-.8 3s.3 2.3.8 3c1.1 1.3 3 1.5 4.3.5l.5-.5zM117.3 16.6c-.5.6-1 1-1.5 1.4-.6.3-1.3.5-2.2.5-1.4 0-2.5-.4-3.3-1.2-.7-.9-1.1-2-1.1-3.4V5.3h3.3v8c0 .8.2 1.3.5 1.7.4.4 1 .7 1.6.6.7 0 1.4-.3 1.9-.8.5-.6.7-1.3.7-2.1V5.3h3.4v12.9h-3.2l-.1-1.6zM123.8 5.3V1.2h3.3v4.1h2.2v2.2h-2.2v6.8c0 .5.1.8.3 1 .3.2.6.3.9.3h.7c.1 0 .2 0 .3-.1v2.6c-.2 0-.3.1-.6.1-.2 0-.4.1-.7.1h-.9c-.4 0-.8-.1-1.2-.1-.4-.1-.7-.2-1.1-.5-.3-.2-.6-.6-.8-1-.2-.5-.3-1-.3-1.5V7.5H122V5.3h1.8zM140 18c-.7-.3-1.3-.8-1.8-1.4-.5-.6-.9-1.4-1.1-2.2-.2-.9-.4-1.8-.4-2.7 0-.9.1-1.8.4-2.7.2-.8.6-1.5 1.1-2.2.5-.6 1.1-1.1 1.8-1.4.8-.4 1.6-.5 2.5-.5 1.4 0 2.6.4 3.5 1.1.9.7 1.4 1.8 1.7 3.1h-1.5c-.2-1-.6-1.7-1.2-2.2-.6-.5-1.4-.7-2.4-.7-.7 0-1.3.1-1.9.4-.5.3-1 .7-1.3 1.2-.4.5-.6 1.1-.7 1.8-.3 1.4-.3 2.9 0 4.3.2.6.4 1.2.8 1.8.3.5.8.9 1.3 1.2.6.3 1.2.4 1.9.4 1 0 1.9-.3 2.6-1 .7-.6 1-1.5 1.2-2.5h1.4c-.1 1.5-.7 2.6-1.6 3.5-.9.9-2.1 1.3-3.7 1.3-.9-.1-1.8-.3-2.6-.6zM152.6 18c-.7-.3-1.4-.8-1.9-1.4-.5-.6-.9-1.4-1.2-2.2-.3-.9-.4-1.8-.4-2.7 0-.9.1-1.8.4-2.7.2-.8.7-1.5 1.2-2.2.5-.6 1.2-1.1 1.9-1.4 1.6-.7 3.4-.7 5 0 .7.3 1.4.8 1.9 1.4.5.6.9 1.4 1.2 2.2.3.9.4 1.8.4 2.7 0 .9-.1 1.8-.4 2.7-.2.8-.7 1.5-1.2 2.2-.5.6-1.1 1.1-1.9 1.4-.8.4-1.6.5-2.5.5-.9 0-1.8-.2-2.5-.5zm4.3-1.2c.6-.3 1-.7 1.4-1.2.4-.5.7-1.1.8-1.8.4-1.4.4-2.9 0-4.3-.2-.6-.4-1.2-.8-1.8-.3-.5-.8-.9-1.4-1.2-.6-.3-1.2-.4-1.9-.4s-1.3.1-1.9.4c-.5.3-1 .7-1.4 1.2-.4.5-.7 1.1-.9 1.8-.4 1.4-.4 2.9 0 4.3.2.6.5 1.2.9 1.8.4.5.8.9 1.4 1.2 1.2.6 2.6.6 3.8 0zM164.7 5.1v2c.4-.6.9-1.2 1.5-1.6.6-.4 1.4-.6 2.3-.6.7 0 1.5.2 2.1.6.6.4 1.1 1 1.3 1.8h.1c.4-.7 1-1.3 1.7-1.8.7-.4 1.5-.7 2.4-.6.5 0 1 .1 1.5.3 1 .3 1.7 1.1 2 2.1.2.6.3 1.1.3 1.7v9.3h-1.5V9c0-1-.2-1.7-.7-2.2-.5-.5-1.2-.7-1.9-.7-.5 0-.9.1-1.3.2-.4.2-.8.4-1.1.7-.7.7-1.1 1.7-1 2.7V18h-1.5V9c0-1-.2-1.7-.8-2.2-.5-.5-1.1-.7-1.8-.7-.5 0-.9.1-1.3.3-.4.2-.8.5-1.2.8-.3.3-.6.7-.8 1.2-.2.5-.3 1-.3 1.5v8.2h-1.5v-13h1.5zM14.1 11.8l6-10.7c.1-.2.1-.5 0-.7-.1-.3-.3-.4-.6-.4H7.1c-.2 0-.4.1-.6.3L.1 11.4c-.1.2-.1.5 0 .7l6.4 11.1c.1.2.4.3.6.3h12.4c.2 0 .5-.1.6-.3.1-.2.1-.5 0-.7l-6-10.7zm-.8-1.5-5-8.9h10l-5 8.9zM7.1 2.2l5.4 9.6-5.4 9.6-5.5-9.6 5.5-9.6zm1.2 19.9 5-8.9 5 8.9h-10z" class="st0"/></svg>
