<svg width="200" height="90" viewBox="0 0 200 90" fill="none" xmlns="http://www.w3.org/2000/svg">
<path d="M134.407 35.908C131.265 19.9672 117.265 8 100.446 8C87.0931 8 75.4955 15.5777 69.7199 26.667C55.8121 28.1455 45 39.9279 45 54.2054C45 69.4993 57.4292 81.9286 72.7232 81.9286H132.79C145.543 81.9286 155.893 71.5786 155.893 58.8259C155.893 46.6277 146.421 36.7397 134.407 35.908Z" fill="#02C652"/>
<path d="M99.3251 30.1911C98.9809 30.4052 98.6432 30.7429 97.9678 31.4183C97.2925 32.0936 96.9547 32.4314 96.7407 32.7756C96.0324 33.9146 96.0324 35.3571 96.7407 36.4961C96.9546 36.8402 97.2923 37.1779 97.9674 37.853L97.9677 37.8534C98.6431 38.5288 98.9809 38.8665 99.3251 39.0806C100.464 39.7889 101.907 39.7889 103.046 39.0806C103.39 38.8665 103.728 38.5288 104.403 37.8534C105.078 37.178 105.416 36.8403 105.63 36.4961C106.338 35.3571 106.338 33.9146 105.63 32.7756C105.416 32.4314 105.078 32.0937 104.403 31.4183C103.728 30.7429 103.39 30.4052 103.046 30.1911C101.907 29.4828 100.464 29.4828 99.3251 30.1911Z" fill="white"/>
<path d="M103.769 51.3215L111.628 43.4624C111.953 43.1368 112.34 42.8785 112.765 42.7023C113.191 42.5261 113.647 42.4354 114.107 42.4354C114.568 42.4354 115.024 42.5261 115.449 42.7023C115.875 42.8785 116.261 43.1368 116.587 43.4624L120.536 47.4115C120.512 47.4352 101.25 66.6972 101.25 66.6972L81.9643 47.4115C82.0166 47.3594 84.1518 45.2241 85.955 43.4209C86.2804 43.0955 86.6667 42.8373 87.092 42.6612C87.5172 42.485 87.9729 42.3944 88.4332 42.3944C88.8934 42.3945 89.3492 42.4852 89.7744 42.6614C90.1996 42.8376 90.5859 43.0958 90.9113 43.4213L98.8118 51.3218C99.1372 51.6473 99.5237 51.9054 99.9489 52.0816C100.374 52.2577 100.83 52.3484 101.29 52.3483C101.751 52.3483 102.206 52.2576 102.632 52.0814C103.057 51.9052 103.443 51.647 103.769 51.3215Z" fill="white"/>
</svg>
