<svg xmlns="http://www.w3.org/2000/svg" width="196" height="67" fill="none"><path fill="#2A4148" d="M42.122 31.907c.97 0 1.53-.065 2.755-.323l.3 2.066c-.947.259-2.001.388-3.06.388-4.714 0-6.073-2.949-6.073-6.397.041-3.36 2.066-6.203 6.05-6.203 1.054 0 1.96.13 3.06.411l-.411 2.048c-1.165-.259-1.854-.3-2.584-.3-2.496.041-3.726 1.895-3.767 4.048.004 2.127.804 4.262 3.73 4.262ZM51.768 21.442c3.878.023 5.598 2.908 5.598 6.287 0 3.295-1.484 6.244-5.62 6.267-4.05-.041-5.598-2.972-5.598-6.268 0-3.378 1.742-6.244 5.62-6.286Zm0 10.483c2.478-.023 3.273-2.024 3.273-4.197-.023-1.982-.86-4.22-3.296-4.22-2.366.024-3.295 2.22-3.295 4.22 0 2.26.993 4.197 3.318 4.197ZM73.41 33.779v-7.752c0-1.96-.731-2.496-1.96-2.496-.842 0-1.79.476-2.65 1.184.043.258.066.776.066.924v8.14h-2.413v-7.84c0-1.96-.582-2.43-1.807-2.43-.777 0-1.854.517-2.778 1.206v9.064h-2.39V21.655h2.39v1.035c.73-.582 1.895-1.248 3.166-1.271 1.678-.023 2.648.56 3.19 1.465.988-.924 2.453-1.442 3.572-1.465 3.943-.065 4.003 3.101 4.003 4.437v7.923h-2.39ZM92.355 33.779v-7.752c0-1.96-.73-2.496-1.96-2.496-.84 0-1.788.476-2.648 1.184.041.258.065.776.065.924v8.14h-2.413v-7.84c0-1.96-.582-2.43-1.807-2.43-.777 0-1.854.517-2.778 1.206v9.064h-2.39V21.655h2.39v1.035c.73-.582 1.895-1.248 3.166-1.271 1.678-.023 2.648.56 3.19 1.465.988-.924 2.454-1.442 3.572-1.465 3.943-.065 4.003 3.101 4.003 4.437v7.923h-2.39ZM105.894 31.56l.365 1.96c-1.077.365-2.561.54-3.726.54-4.779 0-5.944-3.207-5.944-6.415s1.424-6.18 5.427-6.18c2.477 0 4.543 1.53 4.566 5.427l-.023 1.27h-7.622c.042 2.367 1.313 3.81 3.703 3.81.952 0 1.941-.112 3.254-.412Zm-6.846-5.255h5.32c-.087-2.455-1.312-2.95-2.454-2.95-1.812-.018-2.648 1.207-2.866 2.95ZM115.369 23.874a6.388 6.388 0 0 0-1.548-.171c-1.484-.023-2.26.712-2.82 1.294v8.787h-2.389V21.655h2.389v1.077a3.962 3.962 0 0 1 2.801-1.23 5.547 5.547 0 0 1 2.002.324l-.435 2.048ZM122.362 31.907c.971 0 1.53-.065 2.755-.323l.301 2.066c-.948.259-2.002.388-3.06.388-4.715 0-6.074-2.949-6.074-6.397.042-3.36 2.066-6.203 6.051-6.203 1.053 0 1.959.13 3.059.411l-.411 2.048c-1.165-.259-1.853-.3-2.584-.3-2.496.041-3.725 1.895-3.767 4.048.009 2.127.804 4.262 3.73 4.262ZM135.693 31.56l.365 1.96c-1.077.365-2.561.54-3.726.54-4.779 0-5.944-3.207-5.944-6.415s1.424-6.18 5.427-6.18c2.477 0 4.543 1.53 4.566 5.427l-.023 1.27h-7.622c.042 2.367 1.313 3.81 3.703 3.81.952 0 1.941-.112 3.254-.412Zm-6.846-5.255h5.32c-.088-2.455-1.312-2.95-2.454-2.95-1.812-.018-2.653 1.207-2.866 2.95ZM144.475 23.638h-3.296v5.88c0 1.224.153 2.088 1.401 2.26.688.064 1.4 0 2.089-.088l.152 2.066c-.711.13-1.724.152-2.13.152-2.82-.106-3.878-1.548-3.878-3.813v-6.457h-1.743v-1.66l1.743-.194v-2.82h2.366v2.69h3.296v1.984ZM151.431 21.442c3.878.023 5.598 2.908 5.598 6.287 0 3.295-1.484 6.244-5.621 6.267-4.049-.041-5.597-2.972-5.597-6.268 0-3.378 1.742-6.244 5.62-6.286Zm0 10.483c2.478-.023 3.273-2.024 3.273-4.197-.024-1.982-.86-4.22-3.296-4.22-2.367.024-3.296 2.22-3.296 4.22.005 2.26.994 4.197 3.319 4.197ZM164.304 21.442c3.878.023 5.597 2.908 5.597 6.287 0 3.295-1.484 6.244-5.62 6.267-4.049-.041-5.598-2.972-5.598-6.268.005-3.378 1.747-6.244 5.621-6.286Zm0 10.483c2.477-.023 3.272-2.024 3.272-4.197-.023-1.982-.86-4.22-3.295-4.22-2.367.024-3.296 2.22-3.296 4.22.005 2.26.994 4.197 3.319 4.197ZM171.796 33.779v-16.45h2.302v16.45h-2.302ZM176.534 31.43c1.354.348 2.625.518 3.425.518.948 0 1.918-.194 1.983-1.335.065-1.207-1.183-1.572-2.607-2.173-1.613-.665-3.36-1.571-3.314-3.813.042-1.118.712-3.314 4.285-3.208 1.077.023 2.366.194 3.443.476l-.407 1.983c-1.271-.3-2.218-.43-3.143-.453-1.035 0-1.83.324-1.872 1.294-.023.819.624 1.248 2.219 1.896 1.613.665 3.896 1.53 3.79 4.072-.065 1.613-1.118 3.378-4.372 3.337-1.036-.023-2.69-.153-3.92-.583l.49-2.01Z"/><path fill="#F27923" d="M8.69 33.51a.531.531 0 0 0 0 .962l10.26 4.807c.14.065.287.097.435.097V28.653c-.152 0-.305.032-.448.097L8.69 33.51Z"/><path fill="#F5A730" d="M19.385 28.648v10.724a1.1 1.1 0 0 0 .467-.097l10.233-4.789a.531.531 0 0 0 0-.961L19.834 28.75a1.094 1.094 0 0 0-.449-.102Z"/><path fill="#20AD92" d="M8.385 19.478c0 .208.12.393.305.48l10.261 4.803c.139.065.287.097.435.102.13 0 .259-.019.383-.065l.287-.134c1.058-.49.356-.167 10.025-4.692a.531.531 0 0 0 0-.961l-10.247-4.775a1.04 1.04 0 0 0-.892 0L8.69 18.997a.536.536 0 0 0-.305.48Z"/><path fill="#D0D1D1" d="M19.385 25.464v3.184c-.152 0-.305.033-.448.097L8.69 33.511a.531.531 0 0 0-.305.48V19.479c0 .208.12.393.305.48l10.26 4.803c.14.065.287.097.435.102.13 0 .26-.019.384-.065l-.019.01c-.319.143-.365.29-.365.656Z"/><path fill="#2A4148" d="M76.266 46.693h-.846l-2.15-5.718h-.027a29.31 29.31 0 0 1-.347 1.955l-.804 3.763h-.758l1.442-6.832h.841l2.145 5.704h.028a20.57 20.57 0 0 1 .337-1.895l.813-3.809h.768l-1.442 6.832ZM79.963 46.79c-.573 0-1.021-.17-1.35-.508-.328-.338-.49-.81-.49-1.41 0-.587.116-1.146.347-1.687.231-.536.541-.957.925-1.253.383-.3.804-.448 1.266-.448.476 0 .837.102 1.077.31.24.208.36.494.36.869 0 .559-.258 1.003-.776 1.322-.518.318-1.257.48-2.219.48h-.152l-.019.375c0 .406.097.725.287.956.19.232.49.342.892.342.194 0 .398-.027.606-.083.208-.055.466-.157.772-.31v.685c-.292.138-.55.23-.777.286a3.773 3.773 0 0 1-.749.074Zm.652-4.645c-.32 0-.624.148-.906.439-.282.291-.5.698-.647 1.22h.055c.712 0 1.253-.092 1.632-.277.379-.185.568-.453.568-.804a.54.54 0 0 0-.17-.412c-.112-.11-.292-.166-.532-.166ZM84.567 44.663l-1.618 2.03h-.91l2.218-2.64-1.118-2.482h.795l.813 1.928 1.544-1.928h.906l-2.126 2.52 1.178 2.602h-.785l-.897-2.03ZM88.805 46.147c.171 0 .398-.041.675-.12v.601a2.033 2.033 0 0 1-.393.111 1.927 1.927 0 0 1-.374.046c-.388 0-.689-.092-.897-.277-.208-.185-.31-.462-.31-.828 0-.203.028-.439.084-.702l.591-2.815h-.804l.065-.342.864-.365.583-1.068h.457l-.259 1.179h1.28l-.12.591h-1.275l-.601 2.825a3.373 3.373 0 0 0-.083.614c0 .176.046.31.134.402a.519.519 0 0 0 .383.148ZM97.69 41.572l-.116.499-.985.11c.13.195.19.44.19.74 0 .597-.18 1.068-.546 1.424-.365.356-.846.532-1.456.532-.17 0-.3-.014-.393-.038-.434.167-.651.37-.651.61 0 .13.05.213.152.255.102.041.254.074.448.102l.546.064c.564.07.97.208 1.225.412.254.203.379.508.379.906 0 .573-.227 1.017-.684 1.33-.453.315-1.096.472-1.923.472-.606 0-1.077-.115-1.42-.342-.341-.226-.512-.55-.512-.97 0-.329.11-.61.337-.85.227-.241.587-.445 1.091-.611-.245-.13-.365-.314-.365-.564 0-.213.078-.398.24-.555.157-.152.38-.3.666-.434a1.228 1.228 0 0 1-.666-1.123c0-.606.185-1.1.56-1.489.374-.388.845-.577 1.428-.577.245 0 .48.032.72.092h1.734v.005Zm-4.979 6.032c0 .24.102.43.305.568.204.139.504.213.901.213.569 0 1.013-.097 1.332-.296.319-.199.48-.476.48-.837a.517.517 0 0 0-.254-.457c-.166-.111-.453-.19-.86-.236l-.744-.074c-.374.079-.66.217-.86.411a.954.954 0 0 0-.3.708Zm1.304-4.086c0 .263.069.466.212.605.139.139.333.208.583.208.245 0 .462-.065.647-.194.185-.13.323-.31.425-.54.097-.232.148-.477.148-.745 0-.254-.07-.448-.204-.582-.138-.134-.332-.2-.587-.2-.245 0-.457.066-.637.19-.18.125-.324.3-.426.527-.11.218-.161.462-.161.73ZM99.644 46.79c-.573 0-1.021-.17-1.35-.508-.328-.338-.49-.81-.49-1.41 0-.587.116-1.146.347-1.687.231-.536.541-.957.925-1.253.383-.3.804-.448 1.266-.448.476 0 .837.102 1.077.31.241.208.361.494.361.869 0 .559-.259 1.003-.777 1.322-.517.318-1.257.48-2.218.48h-.153l-.018.375c0 .406.097.725.286.956.194.232.49.342.892.342.194 0 .398-.027.606-.083.208-.055.467-.157.772-.31v.685c-.292.138-.55.23-.777.286a3.772 3.772 0 0 1-.749.074Zm.647-4.645c-.319 0-.624.148-.906.439-.282.291-.499.698-.647 1.22h.056c.712 0 1.252-.092 1.631-.277.379-.185.569-.453.569-.804 0-.167-.055-.3-.171-.412-.106-.11-.287-.166-.532-.166ZM105.473 46.693l.693-3.236c.06-.323.093-.55.093-.675a.668.668 0 0 0-.167-.471c-.111-.12-.286-.176-.531-.176-.278 0-.55.093-.809.282-.264.185-.495.453-.698.8-.203.347-.351.763-.458 1.257l-.471 2.219h-.786l1.096-5.122h.651l-.101.948h.046c.3-.379.587-.647.869-.804.282-.157.568-.236.869-.236.397 0 .707.106.938.324.231.217.342.517.342.91 0 .245-.037.527-.106.841l-.67 3.139h-.8ZM109.887 46.79c-.573 0-1.022-.17-1.35-.508-.328-.338-.49-.81-.49-1.41 0-.587.116-1.146.347-1.687.231-.536.541-.957.924-1.253.384-.3.805-.448 1.267-.448.476 0 .837.102 1.077.31.24.208.36.494.36.869 0 .559-.258 1.003-.776 1.322-.518.318-1.257.48-2.219.48h-.152l-.019.375c0 .406.097.725.287.956.194.232.49.342.892.342.194 0 .397-.027.605-.083.208-.055.467-.157.772-.31v.685c-.291.138-.55.23-.776.286a3.773 3.773 0 0 1-.749.074Zm.652-4.645c-.319 0-.624.148-.906.439-.282.291-.499.698-.647 1.22h.055c.712 0 1.253-.092 1.632-.277.379-.185.568-.453.568-.804 0-.167-.055-.3-.171-.412-.111-.11-.291-.166-.531-.166ZM115.822 41.479c.213 0 .402.023.559.065l-.166.702a2.004 2.004 0 0 0-.49-.06c-.282 0-.55.093-.795.282-.25.185-.462.448-.652.777a3.91 3.91 0 0 0-.407 1.104l-.499 2.348h-.786l1.096-5.12h.652l-.102.947h.046a5.07 5.07 0 0 1 .555-.638c.148-.13.3-.231.462-.3a1.21 1.21 0 0 1 .527-.107ZM119.085 41.479c.287 0 .541.079.767.231.227.153.398.374.523.666h.051l.314-.805h.592l-1.091 5.122h-.62l.121-.975h-.037c-.56.711-1.147 1.072-1.761 1.072-.435 0-.772-.153-1.017-.462-.245-.31-.37-.73-.37-1.267 0-.647.111-1.248.333-1.803.222-.554.527-.989.915-1.303.388-.314.818-.476 1.28-.476Zm-.887 4.66c.3 0 .601-.144.901-.435.301-.287.541-.666.73-1.128.19-.462.282-.925.282-1.391 0-.32-.087-.578-.263-.768a.893.893 0 0 0-.689-.286c-.323 0-.624.134-.906.402-.282.268-.499.628-.656 1.09-.157.458-.24.944-.24 1.447 0 .356.073.62.217.795.152.185.36.273.624.273ZM123.351 46.147c.171 0 .398-.041.675-.12v.601a2.032 2.032 0 0 1-.393.111 2.372 2.372 0 0 1-.374.046c-.388 0-.689-.092-.897-.277-.208-.185-.309-.462-.309-.828 0-.203.027-.439.083-.702l.591-2.815h-.804l.065-.342.864-.365.583-1.068h.457l-.259 1.179h1.281l-.121.591h-1.275l-.601 2.825a3.324 3.324 0 0 0-.083.614c0 .176.046.31.134.402a.519.519 0 0 0 .383.148ZM125.672 46.693h-.786l1.095-5.121h.786l-1.095 5.12Zm.527-6.43a.61.61 0 0 1 .148-.425.496.496 0 0 1 .388-.166c.273 0 .411.139.411.42a.63.63 0 0 1-.157.435.466.466 0 0 1-.67.06c-.079-.074-.12-.185-.12-.324ZM130.044 41.507c.592 0 1.059.175 1.401.527.342.351.513.832.513 1.447 0 .587-.111 1.136-.337 1.659-.227.522-.527.924-.911 1.206a2.144 2.144 0 0 1-1.299.426c-.596 0-1.068-.176-1.405-.527-.337-.352-.508-.832-.508-1.443 0-.591.115-1.15.342-1.668.226-.523.536-.925.919-1.202a2.106 2.106 0 0 1 1.285-.425Zm1.105 1.863c0-.356-.097-.648-.291-.874-.194-.222-.458-.333-.791-.333-.342 0-.642.116-.915.347-.268.23-.48.55-.628.961a4.005 4.005 0 0 0-.222 1.368c0 .407.097.726.296.948.198.222.48.333.855.333.323 0 .614-.116.873-.342.259-.227.463-.55.606-.97a4.42 4.42 0 0 0 .217-1.438ZM135.817 46.693l.694-3.236c.06-.323.092-.55.092-.675a.667.667 0 0 0-.166-.471c-.111-.12-.287-.176-.532-.176-.277 0-.55.093-.809.282-.263.185-.494.453-.698.8-.203.347-.351.763-.457 1.257l-.472 2.219h-.785l1.095-5.122h.652l-.102.948h.046c.301-.379.587-.647.869-.804.282-.157.569-.236.869-.236.398 0 .707.106.939.324.231.217.342.517.342.91 0 .245-.037.527-.107.841l-.67 3.139h-.8ZM142.783 46.79c-.606 0-1.072-.166-1.405-.5-.333-.332-.499-.803-.499-1.409 0-.624.115-1.197.346-1.724.231-.527.55-.938.957-1.23a2.277 2.277 0 0 1 1.373-.443c.425 0 .846.078 1.252.24l-.221.661c-.375-.157-.717-.24-1.022-.24-.347 0-.665.12-.957.356-.286.24-.513.568-.679.994a3.76 3.76 0 0 0-.245 1.386c0 .398.102.707.31.93.208.221.494.332.859.332.227 0 .435-.032.638-.092.204-.06.398-.135.587-.222v.67c-.388.19-.818.291-1.294.291ZM147.733 41.507c.592 0 1.059.175 1.401.527.342.351.513.832.513 1.447 0 .587-.111 1.136-.338 1.659-.226.522-.526.924-.91 1.206a2.144 2.144 0 0 1-1.299.426c-.596 0-1.068-.176-1.405-.527-.337-.352-.508-.832-.508-1.443 0-.591.115-1.15.342-1.668.226-.523.536-.925.919-1.202a2.106 2.106 0 0 1 1.285-.425Zm1.105 1.863c0-.356-.097-.648-.291-.874-.194-.222-.458-.333-.791-.333-.342 0-.642.116-.915.347-.268.23-.48.55-.628.961a4.005 4.005 0 0 0-.222 1.368c0 .407.097.726.296.948.198.222.48.333.855.333.323 0 .614-.116.873-.342.259-.227.463-.55.606-.97a4.42 4.42 0 0 0 .217-1.438ZM153.354 46.693l.693-3.235c.056-.292.083-.504.083-.63 0-.216-.046-.387-.143-.508-.097-.12-.263-.18-.494-.18-.264 0-.518.093-.763.282-.25.185-.467.453-.656.8-.19.346-.333.767-.44 1.252l-.471 2.219h-.786l1.096-5.121h.651l-.101.947h.046c.273-.37.541-.638.809-.8a1.59 1.59 0 0 1 .832-.244c.351 0 .624.101.813.305.19.203.301.485.338.846h.037c.268-.389.554-.68.855-.87.3-.189.605-.281.915-.281.397 0 .703.106.92.319.217.212.323.522.323.924 0 .213-.032.49-.101.832l-.675 3.138h-.795l.693-3.235c.06-.324.093-.55.093-.684a.676.676 0 0 0-.162-.467c-.107-.116-.278-.176-.509-.176-.254 0-.499.093-.748.273a2.4 2.4 0 0 0-.648.767 4.28 4.28 0 0 0-.425 1.179l-.499 2.339h-.781v.009ZM161.697 46.693l.693-3.235c.056-.292.083-.504.083-.63 0-.216-.046-.387-.143-.508-.097-.12-.263-.18-.494-.18-.264 0-.518.093-.763.282-.25.185-.467.453-.656.8-.19.346-.333.767-.44 1.252l-.471 2.219h-.786l1.096-5.121h.651l-.101.947h.046c.273-.37.541-.638.809-.8a1.59 1.59 0 0 1 .832-.244c.351 0 .624.101.813.305.19.203.301.485.338.846h.037c.268-.389.554-.68.855-.87.3-.189.605-.281.915-.281.397 0 .703.106.92.319.217.212.323.522.323.924 0 .213-.032.49-.101.832l-.675 3.138h-.795l.693-3.235c.06-.324.093-.55.093-.684a.676.676 0 0 0-.162-.467c-.107-.116-.278-.176-.509-.176-.254 0-.499.093-.748.273a2.4 2.4 0 0 0-.648.767 4.28 4.28 0 0 0-.425 1.179l-.499 2.339h-.781v.009ZM169.092 46.79c-.573 0-1.021-.17-1.349-.508-.329-.338-.49-.81-.49-1.41 0-.587.115-1.146.346-1.687.231-.536.541-.957.925-1.253a2 2 0 0 1 1.266-.448c.476 0 .837.102 1.077.31.241.208.361.494.361.869 0 .559-.259 1.003-.777 1.322-.517.318-1.257.48-2.218.48h-.153l-.018.375c0 .406.097.725.286.956.194.232.49.342.892.342.194 0 .398-.027.606-.083.208-.055.467-.157.772-.31v.685c-.292.138-.55.23-.777.286a3.773 3.773 0 0 1-.749.074Zm.652-4.645c-.319 0-.624.148-.906.439-.282.291-.499.698-.647 1.22h.055c.712 0 1.253-.092 1.632-.277.379-.185.569-.453.569-.804 0-.167-.056-.3-.171-.412-.111-.11-.292-.166-.532-.166ZM175.027 41.479c.213 0 .402.023.559.065l-.166.702a2.004 2.004 0 0 0-.49-.06c-.282 0-.55.093-.795.282-.25.185-.462.448-.652.777a3.91 3.91 0 0 0-.407 1.104l-.499 2.348h-.785l1.095-5.12h.652l-.102.947h.046a5.07 5.07 0 0 1 .555-.638c.148-.13.3-.231.462-.3a1.21 1.21 0 0 1 .527-.107ZM177.666 46.79c-.605 0-1.072-.166-1.405-.5-.333-.332-.499-.803-.499-1.409 0-.624.116-1.197.347-1.724.231-.527.55-.938.956-1.23a2.28 2.28 0 0 1 1.373-.443c.425 0 .846.078 1.253.24l-.222.661c-.374-.157-.717-.24-1.022-.24-.346 0-.665.12-.956.356-.287.24-.513.568-.68.994a3.78 3.78 0 0 0-.245 1.386c0 .398.102.707.31.93.208.221.494.332.86.332.226 0 .434-.032.637-.092.204-.06.398-.135.587-.222v.67c-.388.19-.818.291-1.294.291ZM181.909 46.79c-.573 0-1.021-.17-1.349-.508-.328-.338-.49-.81-.49-1.41 0-.587.115-1.146.346-1.687.232-.536.541-.957.925-1.253.384-.3.804-.448 1.266-.448.476 0 .837.102 1.077.31.241.208.361.494.361.869 0 .559-.259 1.003-.777 1.322-.517.318-1.257.48-2.218.48h-.153l-.018.375c0 .406.097.725.286.956.194.232.49.342.892.342.194 0 .398-.027.606-.083.208-.055.467-.157.772-.31v.685c-.291.138-.55.23-.777.286a3.735 3.735 0 0 1-.749.074Zm.652-4.645c-.319 0-.624.148-.906.439-.282.291-.499.698-.647 1.22h.056c.711 0 1.252-.092 1.631-.277.379-.185.569-.453.569-.804 0-.167-.056-.3-.171-.412-.111-.11-.287-.166-.532-.166Z"/></svg>
