<svg width="200" height="90" viewBox="0 0 200 90" fill="none" xmlns="http://www.w3.org/2000/svg">
<path d="M62.1537 69.1481C61.5251 69.4625 61.1072 70.0911 61.1072 70.8233C61.1072 71.5555 61.5251 72.1841 62.1537 72.4984L98.8248 89.6821C99.3499 89.8928 99.8714 89.9964 100.396 89.9964V51.7537C99.8714 51.7537 99.3499 51.8573 98.8248 52.068L62.1537 69.1481Z" fill="#F27A23"/>
<path d="M100.289 51.7574V90.0001C100.814 90.0001 101.443 89.8965 101.964 89.6858L138.528 72.6092C139.157 72.2949 139.575 71.6663 139.575 70.9341C139.575 70.2019 139.157 69.5733 138.528 69.2589L101.964 52.1824C101.336 51.8681 100.811 51.7645 100.289 51.7645" fill="#F6A82F"/>
<path d="M61 19.0687C61 19.8009 61.4179 20.4295 62.0465 20.7438L98.7177 37.9275C99.2427 38.1382 99.7642 38.2418 100.289 38.2418C100.707 38.2418 101.232 38.1382 101.65 38.0311C101.964 37.8203 101.964 37.9275 102.697 37.506C106.468 35.7237 103.954 36.8774 138.528 20.7438C139.157 20.4295 139.575 19.8009 139.575 19.0687C139.575 18.3365 139.157 17.7078 138.528 17.3935L101.964 0.313421C100.918 -0.104474 99.7642 -0.104474 98.8212 0.313421L62.2573 17.2864C61.4179 17.6007 61 18.3329 61 19.0687Z" fill="#22AD93"/>
<path d="M100.289 40.4421V51.8609C99.7642 51.8609 99.2427 51.9645 98.7177 52.1753L62.1537 69.1482C61.5251 69.4625 61.1072 70.0911 61.1072 70.8233V19.0687C61.1072 19.8009 61.5251 20.4296 62.1537 20.7439L98.8248 37.9276C99.3499 38.1383 99.8714 38.2419 100.396 38.2419C100.814 38.2419 101.339 38.1383 101.757 38.0311H101.654C100.5 38.5562 100.293 39.0777 100.293 40.4421" fill="#D0D1D2"/>
</svg>
