<svg width="200" height="90" viewBox="0 0 200 90" fill="none" xmlns="http://www.w3.org/2000/svg">
<path d="M34.561 30.331V35.247C36.6269 36.4365 38.3426 38.1497 39.5351 40.2138C40.7276 42.278 41.3546 44.6201 41.353 47.004C41.353 54.491 35.313 60.56 27.863 60.56C20.413 60.56 14.373 54.491 14.373 47.004C14.373 41.852 17.233 37.371 21.443 35.078V30.227C18.0688 31.5402 15.1704 33.8429 13.1283 36.8328C11.0861 39.8227 9.99567 43.3602 10 46.981C10 56.903 17.998 64.947 27.863 64.947C37.728 64.947 45.725 56.903 45.725 46.98C45.725 39.442 41.105 32.998 34.561 30.331ZM26.001 52.856V47.408C26.001 46.734 26.547 46.188 27.217 46.188H28.74C29.411 46.188 29.956 46.734 29.956 47.408V52.784C31.0642 52.3594 32.0176 51.6088 32.6903 50.6311C33.3631 49.6534 33.7235 48.4948 33.724 47.308C33.724 45.154 32.56 43.293 30.839 42.268V27.119C30.839 25.949 29.895 25 28.729 25H27.229C26.063 25 25.119 25.95 25.119 27.119V42.142C23.272 43.132 22 45.06 22 47.307C22 49.897 23.682 52.071 26 52.855" fill="#242A35"/>
<path fill-rule="evenodd" clip-rule="evenodd" d="M52.656 45.613V45.573C52.656 41.495 55.712 38.156 60.062 38.156C62.278 38.156 63.734 38.812 64.986 39.774C65.253 39.979 65.479 40.327 65.479 40.778C65.479 41.474 64.924 42.008 64.227 42.008C63.878 42.008 63.632 41.884 63.467 41.761C62.482 40.963 61.416 40.471 60.042 40.471C57.312 40.471 55.302 42.725 55.302 45.532V45.573C55.302 48.379 57.292 50.653 60.042 50.653C61.56 50.653 62.586 50.161 63.632 49.281C63.817 49.117 64.083 48.994 64.39 48.994C65.026 48.994 65.58 49.526 65.58 50.161C65.58 50.551 65.396 50.858 65.17 51.063C63.817 52.251 62.278 52.989 59.959 52.989C55.774 52.989 52.656 49.731 52.656 45.613ZM75.943 47.396V47.356C75.943 45.449 74.567 43.872 72.619 43.872C70.629 43.872 69.357 45.429 69.357 47.315V47.356C69.357 49.24 70.732 50.818 72.661 50.818C74.671 50.818 75.943 49.26 75.943 47.396ZM66.874 47.396V47.356C66.874 44.26 69.337 41.7 72.661 41.7C75.983 41.7 78.425 44.22 78.425 47.315V47.356C78.425 50.429 75.963 52.99 72.619 52.99C69.316 52.99 66.874 50.47 66.874 47.396ZM80.478 43.053C80.478 42.356 81.01 41.803 81.708 41.803C82.406 41.803 82.96 42.356 82.96 43.053V43.584C83.658 42.581 84.663 41.7 86.346 41.7C88.786 41.7 90.202 43.34 90.202 45.84V51.617C90.202 52.314 89.67 52.846 88.972 52.846C88.274 52.846 87.72 52.314 87.72 51.616V46.596C87.72 44.916 86.878 43.955 85.402 43.955C83.965 43.955 82.96 44.958 82.96 46.638V51.617C82.96 52.314 82.406 52.846 81.709 52.846C81.547 52.8475 81.3864 52.8167 81.2364 52.7554C81.0865 52.6941 80.9502 52.6036 80.8356 52.4891C80.7211 52.3746 80.6304 52.2384 80.569 52.0885C80.5076 51.9386 80.4767 51.778 80.478 51.616V43.053ZM92.316 51.657C92.05 51.514 91.844 51.207 91.844 50.797C91.8425 50.6646 91.8676 50.5332 91.9176 50.4106C91.9677 50.288 92.0418 50.1766 92.1355 50.0831C92.2292 49.9895 92.3407 49.9157 92.4634 49.8658C92.5862 49.816 92.7176 49.7913 92.85 49.793C93.055 49.793 93.24 49.855 93.384 49.936C94.429 50.633 95.516 50.981 96.502 50.981C97.568 50.981 98.184 50.531 98.184 49.814V49.773C98.184 48.933 97.036 48.645 95.764 48.257C94.163 47.806 92.378 47.15 92.378 45.081V45.04C92.378 42.99 94.081 41.742 96.235 41.742C97.384 41.742 98.595 42.068 99.641 42.622C99.99 42.806 100.236 43.134 100.236 43.565C100.236 44.139 99.785 44.569 99.21 44.569C99.0378 44.5715 98.8679 44.5292 98.717 44.446C97.835 43.996 96.932 43.708 96.173 43.708C95.209 43.708 94.655 44.158 94.655 44.773V44.814C94.655 45.612 95.825 45.942 97.097 46.352C98.676 46.842 100.462 47.56 100.462 49.506V49.547C100.462 51.822 98.696 52.947 96.44 52.947C94.9678 52.9357 93.5323 52.4866 92.316 51.657ZM102.842 49.752V44.057H102.432C102.292 44.0579 102.153 44.031 102.023 43.9778C101.893 43.9245 101.775 43.846 101.676 43.7469C101.577 43.6477 101.499 43.5298 101.445 43.4C101.392 43.2703 101.365 43.1313 101.366 42.991C101.366 42.396 101.837 41.926 102.431 41.926H102.841V40.081C102.842 39.9181 102.876 39.757 102.94 39.6071C103.003 39.4571 103.096 39.3212 103.212 39.207C103.329 39.0929 103.466 39.0028 103.617 38.9419C103.768 38.881 103.93 38.8504 104.093 38.852C104.77 38.852 105.325 39.406 105.325 40.081V41.926H107.273C107.869 41.926 108.362 42.396 108.362 42.991C108.362 43.585 107.869 44.057 107.273 44.057H105.325V49.363C105.325 50.326 105.817 50.716 106.659 50.716C106.946 50.716 107.192 50.653 107.273 50.653C107.828 50.653 108.32 51.104 108.32 51.678C108.32 52.129 108.013 52.497 107.663 52.641C107.117 52.8352 106.541 52.9324 105.961 52.928C104.134 52.928 102.841 52.129 102.841 49.752H102.842ZM110.29 43.053C110.29 42.356 110.823 41.803 111.52 41.803C112.217 41.803 112.772 42.356 112.772 43.053V44.158C113.347 42.807 114.415 41.782 115.502 41.782C116.281 41.782 116.732 42.294 116.732 43.012C116.732 43.666 116.302 44.097 115.748 44.199C113.983 44.507 112.772 45.859 112.772 48.42V51.617C112.771 51.7799 112.737 51.941 112.673 52.0909C112.61 52.2409 112.517 52.3768 112.401 52.491C112.284 52.6051 112.147 52.6952 111.996 52.7561C111.845 52.817 111.683 52.8476 111.52 52.846C111.358 52.8473 111.198 52.8164 111.048 52.7551C110.898 52.6938 110.762 52.6032 110.647 52.4887C110.533 52.3742 110.442 52.2381 110.381 52.0883C110.32 51.9384 110.289 51.7779 110.29 51.616V43.053ZM127.914 51.617C127.913 51.78 127.879 51.9412 127.816 52.0912C127.752 52.2413 127.659 52.3774 127.543 52.4916C127.427 52.6059 127.289 52.6961 127.138 52.757C126.987 52.818 126.825 52.8486 126.662 52.847C125.986 52.847 125.411 52.313 125.411 51.617V51.063C124.714 52.088 123.708 52.969 122.026 52.969C119.585 52.969 118.169 51.329 118.169 48.81V43.052C118.169 42.356 118.723 41.802 119.399 41.802C120.097 41.802 120.65 42.356 120.65 43.052V48.072C120.65 49.752 121.492 50.694 122.97 50.694C124.405 50.694 125.41 49.711 125.41 48.03V43.052C125.41 42.356 125.965 41.802 126.662 41.802C127.339 41.802 127.914 42.356 127.914 43.052V51.616V51.617ZM129.946 47.396V47.356C129.946 44.281 132.326 41.7 135.589 41.7C137.291 41.7 138.46 42.253 139.384 43.052C139.547 43.196 139.773 43.503 139.773 43.913C139.773 44.549 139.262 45.039 138.625 45.039C138.317 45.039 138.051 44.916 137.887 44.793C137.251 44.26 136.553 43.873 135.568 43.873C133.762 43.873 132.428 45.429 132.428 47.315V47.356C132.428 49.281 133.762 50.818 135.671 50.818C136.655 50.818 137.415 50.428 138.091 49.855C138.235 49.732 138.481 49.588 138.769 49.588C139.364 49.588 139.835 50.08 139.835 50.675C139.835 51.001 139.712 51.268 139.486 51.452C138.521 52.375 137.353 52.99 135.548 52.99C132.326 52.99 129.946 50.47 129.946 47.396ZM142.298 49.752V44.057H141.888C141.748 44.0582 141.608 44.0315 141.478 43.9783C141.348 43.9252 141.23 43.8468 141.131 43.7476C141.031 43.6484 140.953 43.5304 140.899 43.4005C140.846 43.2706 140.819 43.1314 140.82 42.991C140.82 42.396 141.292 41.926 141.887 41.926H142.297V40.081C142.298 39.9181 142.332 39.757 142.396 39.6071C142.459 39.4571 142.552 39.3212 142.668 39.207C142.785 39.0929 142.922 39.0028 143.073 38.9419C143.224 38.881 143.386 38.8504 143.549 38.852C144.226 38.852 144.779 39.406 144.779 40.081V41.926H146.728C147.323 41.926 147.818 42.396 147.818 42.991C147.818 43.585 147.323 44.057 146.728 44.057H144.779V49.363C144.779 50.326 145.272 50.716 146.114 50.716C146.4 50.716 146.648 50.653 146.728 50.653C147.282 50.653 147.774 51.104 147.774 51.678C147.774 52.129 147.468 52.497 147.119 52.641C146.572 52.8353 145.996 52.9324 145.416 52.928C143.59 52.928 142.298 52.129 142.298 49.752ZM157.91 47.396V47.356C157.91 45.449 156.535 43.872 154.587 43.872C152.597 43.872 151.325 45.429 151.325 47.315V47.356C151.325 49.24 152.699 50.818 154.629 50.818C156.637 50.818 157.911 49.26 157.911 47.396H157.91ZM148.842 47.396V47.356C148.842 44.26 151.305 41.7 154.629 41.7C157.951 41.7 160.392 44.22 160.392 47.315V47.356C160.392 50.429 157.931 52.99 154.587 52.99C151.284 52.99 148.842 50.47 148.842 47.396ZM162.445 43.053C162.445 42.356 162.979 41.803 163.675 41.803C164.373 41.803 164.927 42.356 164.927 43.053V44.158C165.502 42.807 166.57 41.782 167.657 41.782C168.437 41.782 168.887 42.294 168.887 43.012C168.887 43.666 168.457 44.097 167.903 44.199C166.138 44.507 164.927 45.859 164.927 48.42V51.617C164.927 52.292 164.373 52.846 163.676 52.846C163.514 52.8475 163.353 52.8167 163.203 52.7554C163.053 52.6941 162.917 52.6036 162.803 52.4891C162.688 52.3746 162.597 52.2384 162.536 52.0885C162.475 51.9386 162.444 51.778 162.445 51.616V43.053ZM169.811 49.813C170.631 49.813 171.246 50.428 171.246 51.227V51.432C171.246 52.232 170.632 52.846 169.811 52.846C168.97 52.846 168.354 52.231 168.354 51.432V51.227C168.354 50.428 168.97 49.813 169.811 49.813ZM173.792 43.053C173.792 42.356 174.325 41.803 175.022 41.803C175.72 41.803 176.273 42.356 176.273 43.053V51.617C176.273 52.314 175.72 52.846 175.022 52.846C174.86 52.8473 174.7 52.8164 174.55 52.7551C174.4 52.6938 174.264 52.6032 174.149 52.4887C174.035 52.3742 173.944 52.2381 173.883 52.0883C173.822 51.9384 173.791 51.7779 173.792 51.616V43.053ZM173.607 39.017C173.607 38.279 174.223 37.807 175.022 37.807C175.822 37.807 176.439 38.279 176.439 39.017V39.138C176.439 39.876 175.822 40.368 175.022 40.368C174.222 40.368 173.607 39.876 173.607 39.138V39.017ZM187.518 47.396V47.356C187.518 45.449 186.143 43.872 184.193 43.872C182.203 43.872 180.933 45.429 180.933 47.315V47.356C180.933 49.24 182.306 50.818 184.235 50.818C186.245 50.818 187.518 49.26 187.518 47.396ZM178.448 47.396V47.356C178.448 44.26 180.911 41.7 184.235 41.7C187.559 41.7 190 44.22 190 47.315V47.356C190 50.429 187.538 52.99 184.193 52.99C180.892 52.99 178.448 50.47 178.448 47.396Z" fill="#242A35"/>
</svg>
