<svg xmlns="http://www.w3.org/2000/svg" xml:space="preserve" viewBox="0 0 180 36.7"><path fill="#ffd85f" d="M11.2 25.6c-2-1.8-3.1-4.3-3.1-7.2s1.1-5.4 3-7.2c1.6-1.6 1.6-4.1 0-5.8-1.6-1.6-4.1-1.6-5.8 0C2.1 8.7 0 13.3 0 18.4s2.1 9.7 5.4 13c1.6 1.6 4.1 1.6 5.8 0 1.4-1.7 1.4-4.2 0-5.8z"/><path fill="#3bb4e7" d="M11.2 11.1C13 9.2 15.5 8 18.4 8s5.4 1.1 7.2 3c1.6 1.6 4.1 1.6 5.8 0s1.6-4.1 0-5.8C28.1 2.1 23.5 0 18.4 0s-9.7 2.1-13 5.4c-1.6 1.6-1.6 4.1 0 5.8 1.6 1.4 4.1 1.4 5.8-.1z"/><path fill="#ed5c68" d="M25.6 25.6c-1.8 2-4.4 3.1-7.2 3.1s-5.4-1.1-7.2-3c-1.6-1.6-4.1-1.6-5.8 0s-1.6 4.1 0 5.8c3.3 3.2 7.9 5.3 13 5.3s9.7-2.1 13-5.4c1.6-1.6 1.6-4.1 0-5.8-1.6-1.5-4.2-1.5-5.8 0z"/><path fill="#308bc5" d="M8.3 12.3c2.2 0 4-1.8 4-4s-1.8-4-4-4-4 1.8-4 4 1.8 4 4 4z"/><path fill="#d5465f" d="M8.3 32.5c2.2 0 4-1.8 4-4s-1.8-4-4-4-4 1.8-4 4 1.8 4 4 4z"/><path fill="#2a3039" d="M49.4 22.1c1.1-.9 1.4-.3 2.3.6.5.5 1.8 1.4.9 2.1-1.8 1.5-3.4 2.2-5.9 2.2-5.3 0-9.1-4-8.8-9.2.1-2.4 1-4.6 2.9-6.1 1.7-1.4 3.8-2.1 6-2 1.1 0 2.1.2 3.1.6.7.2 1.4.6 2 1 1.1.9.6 1.4-.2 2.3-.2.2-.3.5-.6.6-.5.5-.8.8-1.4.3-1.1-.8-2.8-1.3-4.1-.9-4.6 1.1-4.4 9.3 1.3 9.3.8.2 1.9-.2 2.5-.8zm127.7 4.5c-.8 0-1.4-.6-1.4-1.4v-18c0-.8.6-1.4 1.4-1.4h1.5c.8 0 1.4.6 1.4 1.4v18.1c0 .8-.6 1.4-1.4 1.4h-1.5zm-7.9-2c-1.6 1.5-3.2 2.3-5.5 2.3-4.7 0-6.9-3.9-6.9-8.2v-7.4c0-.8.6-1.4 1.4-1.4h1.5c.8 0 1.4.6 1.4 1.4v7.4c0 2.4 1.3 4.3 3.9 4.3 2.6 0 4.1-2.2 4.1-4.5v-7.1c0-.8.6-1.4 1.4-1.4h1.5c.8 0 1.4.6 1.4 1.4v13.9c0 .8-.6 1.4-1.4 1.4h-1.3c-.8 0-1.3-.7-1.4-1.4l-.1-.7zm-17.9-14.5h2.9c.8 0 1.4.7 1.4 1.4v.9c0 .8-.6 1.4-1.4 1.4h-2.9v11.5c0 .8-.6 1.4-1.4 1.4h-1.5c-.8 0-1.4-.6-1.4-1.4V9.5c0-3.4 2-6.2 5.5-6.5h2.2c.8 0 1.4.7 1.4 1.4v.9c0 .8-.6 1.4-1.4 1.4h-1.1c-1.7 0-2.4 1.3-2.4 2.9l.1.5zm-10.5 0h3.2c.8 0 1.4.6 1.4 1.4v.9c0 .8-.6 1.4-1.4 1.4h-3.2v7c0 1.4.7 2.1 2.1 2.1h.7c.8 0 1.4.6 1.4 1.4v1c0 .8-.6 1.4-1.4 1.4h-2c-3.4-.2-5-2.4-5-5.9V7.2c0-.8.6-1.4 1.4-1.4h1.5c.8 0 1.4.6 1.4 1.4v2.9h-.1zm-46.1 0h3.2c.8 0 1.4.6 1.4 1.4v.9c0 .8-.6 1.4-1.4 1.4h-3.2v7c0 1.4.7 2.2 2.1 2.2h.7c.8 0 1.4.6 1.4 1.4v.9c0 .8-.6 1.4-1.4 1.4h-.9c-3.8 0-6-1.6-6-5.9V7.2c0-.8.6-1.4 1.4-1.4h1.5c.8 0 1.4.6 1.4 1.4v2.9h-.2zM76 12c1.5-1.5 3.2-2.3 5.3-2.3 4.7 0 7.1 3.8 7.1 8.2v7.4c0 .8-.6 1.4-1.4 1.4h-1.5c-.8 0-1.4-.6-1.4-1.4v-7.4c0-2.4-1.3-4.3-3.9-4.3-2.6 0-4.1 2.1-4.1 4.5v7.1c0 .8-.6 1.4-1.4 1.4h-1.5c-.8 0-1.4-.6-1.4-1.4V11.3c0-.8.6-1.4 1.4-1.4h1.3c.8 0 1.3.7 1.4 1.4l.1.7zm46.2 0c1.5-1.5 3.2-2.3 5.3-2.3 4.7 0 7.1 3.8 7.1 8.2v7.4c0 .8-.6 1.4-1.4 1.4h-1.5c-.8 0-1.4-.6-1.4-1.4v-7.4c0-2.4-1.3-4.3-3.9-4.3-2.6 0-4.1 2.1-4.1 4.5v7.1c0 .8-.6 1.4-1.4 1.4h-1.5c-.8 0-1.4-.6-1.4-1.4V11.3c0-.8.6-1.4 1.4-1.4h1.3c.8 0 1.3.7 1.4 1.4l.1.7zM61.8 9.6c-5.1 0-8.6 3.7-8.6 8.7s3.6 8.7 8.6 8.7 8.7-3.6 8.7-8.7-3.6-8.7-8.7-8.7zm42.1 10.3c.3 2.3 2.6 3.3 4.8 3.3 1 0 2.2-.2 3.1-.7.1-.1.3-.1.5-.2.6-.3 1-.5 1.5 0l.8.8.7.7c.7.9.2 1.1-.6 1.6-1.7 1.1-3.9 1.7-6 1.7-5.5 0-9.2-3.3-9.2-8.8s3.7-8.7 8.8-8.7 8.4 3.1 8.5 8.5c0 1.5.1 2-1.4 2h-11.6v-.2h.1zm-42.1-6.4c2.6 0 4.4 2.3 4.4 4.8S64.6 23 61.8 23c-2.8 0-4.4-2.1-4.4-4.7s1.8-4.8 4.4-4.8zm42.2 2.8h8.6c-.3-2.2-2.1-3-4.1-3-2.1 0-3.9 1-4.5 3z"/></svg>
