<svg width="200" height="90" viewBox="0 0 200 90" fill="none" xmlns="http://www.w3.org/2000/svg">
<path d="M37.8431 42.1795C37.8431 42.5061 37.6326 42.7166 37.3059 42.7166H26.8975C26.5708 42.7166 26.3603 42.5061 26.3603 42.1795V40.9819C26.3603 40.6553 26.5708 40.4448 26.8975 40.4448H37.3059C37.6326 40.4448 37.8431 40.6553 37.8431 40.9819V42.1795ZM42.4666 45.5401C42.4666 45.8668 42.2561 46.0773 41.9295 46.0773H29.0822C28.7556 46.0773 28.5451 45.8668 28.5451 45.5401V44.3425C28.5451 44.0159 28.7556 43.8054 29.0822 43.8054H41.8061C42.1327 43.8054 42.3432 44.0159 42.3432 44.3425L42.4666 45.5401ZM45.9797 49.0532C45.9797 49.3798 45.7692 49.5903 45.4426 49.5903H31.5138C31.1871 49.5903 30.9766 49.3798 30.9766 49.0532V47.8556C30.9766 47.5289 31.1871 47.3184 31.5138 47.3184H45.4353C45.7619 47.3184 45.9724 47.5289 45.9724 47.8556V49.0532H45.9797ZM45.9797 52.5299C45.9797 52.8566 45.7692 53.0671 45.4426 53.0671H31.5138C31.1871 53.0671 30.9766 52.8566 30.9766 52.5299V51.3323C30.9766 51.0057 31.1871 50.7952 31.5138 50.7952H45.4353C45.7619 50.7952 45.9724 51.0057 45.9724 51.3323V52.5299H45.9797ZM42.4666 55.8906C42.4666 56.2172 42.2561 56.4277 41.9295 56.4277H29.0822C28.7556 56.4277 28.5451 56.2172 28.5451 55.8906V54.6929C28.5451 54.3663 28.7556 54.1558 29.0822 54.1558H41.8061C42.1327 54.1558 42.3432 54.3663 42.3432 54.6929L42.4666 55.8906ZM37.8431 59.3673C37.8431 59.6939 37.6326 59.9044 37.3059 59.9044H26.8975C26.5708 59.9044 26.3603 59.6939 26.3603 59.3673V58.1697C26.3603 57.8431 26.5708 57.6326 26.8975 57.6326H37.3059C37.6326 57.6326 37.8431 57.8431 37.8431 58.1697V59.3673ZM18.1294 31.742C18.1294 32.0686 18.3399 32.2791 18.6665 32.2791H29.075C29.4016 32.2791 29.6121 32.0686 29.6121 31.742V30.5371C29.6121 30.2105 29.4016 30 29.075 30H18.6737C18.3471 30 18.1366 30.2105 18.1366 30.5371V31.7347L18.1294 31.742ZM13.513 35.2188C13.513 35.5454 13.7235 35.7559 14.0502 35.7559H26.7741C27.1007 35.7559 27.3112 35.5454 27.3112 35.2188V34.0211C27.3112 33.6945 27.1007 33.484 26.7741 33.484H14.0502C13.7235 33.484 13.513 33.6945 13.513 34.0211V35.2188ZM10 38.7028C10 39.0294 10.2105 39.2399 10.5371 39.2399H24.4586C24.7853 39.2399 24.9958 39.0294 24.9958 38.7028V37.5051C24.9958 37.1785 24.7853 36.968 24.4586 36.968H10.5371C10.2105 36.968 10 37.1785 10 37.5051V38.7028ZM10 42.1795C10 42.5061 10.2105 42.7166 10.5371 42.7166H24.4586C24.7853 42.7166 24.9958 42.5061 24.9958 42.1795V40.9819C24.9958 40.6553 24.7853 40.4448 24.4586 40.4448H10.5371C10.2105 40.4448 10 40.6553 10 40.9819V42.1795ZM13.513 45.5401C13.513 45.8668 13.7235 46.0773 14.0502 46.0773H26.7741C27.1007 46.0773 27.3112 45.8668 27.3112 45.5401V44.3425C27.3112 44.0159 27.1007 43.8054 26.7741 43.8054H14.0502C13.7235 43.8054 13.513 44.0159 13.513 44.3425V45.5401ZM18.1366 49.0532C18.1366 49.3798 18.3471 49.5903 18.6737 49.5903H29.0822C29.4088 49.5903 29.6193 49.3798 29.6193 49.0532V47.8556C29.6193 47.5289 29.4088 47.3184 29.0822 47.3184H18.6737C18.3471 47.3184 18.1366 47.5289 18.1366 47.8556V49.0532Z" fill="#F0553D"/>
<path d="M59.5019 51.5138C58.9648 51.6371 58.4204 51.6371 57.8833 51.6371C56.4751 51.6371 55.3936 51.4266 54.6097 50.9766C53.9492 50.5556 53.4121 49.8951 53.2016 48.937C52.9911 47.9789 52.875 46.5635 52.875 44.7344C52.875 42.9053 52.9984 41.4972 53.2016 40.5319C53.4121 39.5738 53.8621 38.9132 54.6097 38.4923C55.2703 38.0713 56.3518 37.8317 57.8833 37.8317C58.4204 37.8317 58.8704 37.8317 59.4148 37.9551C59.9519 38.0785 60.4019 38.1656 60.7358 38.1656V40.5391C59.6543 40.4157 58.8777 40.3286 58.5438 40.3286C57.6728 40.3286 57.0123 40.452 56.6856 40.5391C56.359 40.6625 56.1485 41.0762 56.0251 41.6206C55.9017 42.165 55.9017 43.1231 55.9017 44.6473C55.9017 46.1716 55.9017 47.137 56.0251 47.6741C56.1485 48.2112 56.3518 48.5451 56.6856 48.7556C57.0195 48.9661 57.6728 48.9661 58.5438 48.9661C59.2914 48.9661 60.0753 48.8427 60.8229 48.7556V51.1291C60.5834 51.2815 60.1624 51.3976 59.5019 51.521V51.5138ZM64.1835 50.9403C63.523 50.5194 63.102 49.9822 62.8625 48.9878C62.652 48.1168 62.652 46.6144 62.652 44.6691C62.652 42.7239 62.7754 41.2214 62.8625 40.3504C62.9859 39.4794 63.3996 38.8479 64.1835 38.3979C64.844 37.9769 66.0417 37.8608 67.6603 37.8608C69.2789 37.8608 70.4838 38.0713 71.137 38.3979C71.7975 38.8189 72.2185 39.356 72.458 40.3504C72.6685 41.2214 72.6685 42.6295 72.6685 44.6691C72.6685 46.7087 72.5451 48.1168 72.458 48.9878C72.2476 49.8588 71.9209 50.4903 71.137 50.9403C70.3894 51.3613 69.2789 51.4775 67.6603 51.4775C66.0417 51.6009 64.8368 51.3904 64.1835 50.9403ZM69.0757 48.7774C69.2861 48.654 69.5257 48.2402 69.5257 47.8192C69.6491 47.2821 69.6491 46.2006 69.6491 44.6982C69.6491 43.1957 69.6491 42.1214 69.5257 41.5771C69.4023 41.0327 69.3152 40.7061 69.0757 40.619C68.8652 40.4956 68.328 40.4085 67.6675 40.4085C67.007 40.4085 66.4699 40.5319 66.2594 40.619C66.0489 40.7423 65.8094 41.1561 65.8094 41.5771C65.686 42.1142 65.686 43.1957 65.686 44.6982C65.686 46.2006 65.686 47.2749 65.8094 47.8192C65.9328 48.3636 66.0199 48.6903 66.2594 48.7774C66.4699 48.9007 67.007 48.9878 67.6675 48.9878C68.328 48.9878 68.749 49.0169 69.0757 48.7774ZM81.7995 51.3904L77.8728 43.711H77.7494V51.3904H74.8098V37.9769H77.8728L81.56 44.9957H81.6834V37.9769H84.623V51.3904H81.7995ZM89.2103 51.3904V40.677H86.0602V38.1003H95.4235V40.677H92.2734V51.3904H89.2103ZM96.9187 51.3904V37.9769H104.961V40.4665H99.8583V43.29H104.206V45.7796H99.8583V48.7774H104.961V51.267H96.9187V51.3904ZM114.106 51.3904L110.18 43.711H110.056V51.3904H107.117V37.9769H110.18L113.867 44.9957H113.99V37.9769H116.93V51.3904H114.106ZM121.517 51.3904V40.677H118.367V38.1003H127.73V40.677H124.58V51.3904H121.517ZM129.11 51.267V48.8935C130.728 49.0169 131.839 49.104 132.586 49.104C133.123 49.104 133.573 49.104 133.907 48.9806C134.241 48.8572 134.444 48.8572 134.568 48.7701C134.691 48.6467 134.778 48.5596 134.778 48.3491V47.6015C134.778 47.1805 134.778 46.8539 134.655 46.7305C134.532 46.52 134.444 46.4039 134.328 46.3095C134.118 46.1861 133.878 46.099 133.457 46.099L131.265 45.7724C130.278 45.649 129.647 45.2353 129.197 44.5748C128.747 43.9143 128.659 43.0723 128.659 41.8747C128.659 40.7932 128.87 39.9222 129.197 39.2979C129.523 38.7608 130.068 38.3398 130.728 38.1003C131.389 37.8898 132.26 37.7737 133.218 37.7737C134.415 37.7737 135.707 37.8971 137.028 38.1947V40.5681C135.831 40.4448 134.836 40.3577 133.878 40.3577C132.92 40.3577 132.26 40.481 132.02 40.5681C131.81 40.6915 131.81 40.7786 131.693 40.9891C131.57 41.1996 131.57 41.4101 131.57 41.7367C131.57 42.0634 131.57 42.3973 131.693 42.4844C131.817 42.6077 131.817 42.6948 131.904 42.811C132.027 42.9344 132.231 42.9344 132.652 43.0215L134.931 43.3481C135.468 43.4715 135.918 43.5586 136.252 43.7691C136.578 43.9796 136.912 44.3062 137.123 44.7272C137.333 45.2643 137.573 46.1353 137.573 47.2168C137.573 48.5088 137.362 49.3798 137.036 50.0403C136.709 50.7008 136.165 51.1218 135.628 51.3323C135.09 51.5428 134.219 51.6589 133.225 51.6589C131.723 51.6009 130.314 51.3904 129.117 51.267H129.11ZM141.833 51.3904V40.677H138.683V38.1003H148.047V40.677H144.896V51.3904H141.833ZM156.082 51.3904L155.421 48.6902H151.4L150.739 51.3904H147.676L151.277 37.9769H155.508L159.108 51.3904H156.082ZM153.469 40.8004H153.345L152.024 46.2006H154.753L153.461 40.8004H153.469ZM166.846 51.5138C166.309 51.6371 165.764 51.6371 165.227 51.6371C163.819 51.6371 162.737 51.4266 161.954 50.9766C161.206 50.5556 160.756 49.8951 160.545 48.937C160.335 47.9789 160.219 46.5635 160.219 44.7344C160.219 42.9053 160.342 41.4972 160.545 40.5319C160.756 39.5738 161.206 38.9132 161.954 38.4923C162.614 38.0713 163.696 37.8317 165.227 37.8317C165.764 37.8317 166.214 37.8317 166.759 37.9551C167.296 38.0785 167.746 38.1656 168.08 38.1656V40.5391C166.998 40.4157 166.221 40.3286 165.888 40.3286C165.017 40.3286 164.356 40.452 164.029 40.5391C163.703 40.7496 163.492 41.0762 163.369 41.6206C163.246 42.165 163.246 43.1231 163.246 44.6473C163.246 46.1716 163.246 47.137 163.369 47.6741C163.492 48.2112 163.696 48.5451 164.029 48.7556C164.363 48.9661 165.017 48.9661 165.888 48.9661C166.635 48.9661 167.419 48.8427 168.167 48.7556V51.1291C167.84 51.2815 167.39 51.3976 166.846 51.521V51.5138ZM176.957 51.3904L173.894 45.8667H173.023V51.3904H169.96V37.9769H173.023V43.2537H173.894L176.957 37.9769H180.23L176.303 44.3643L180.23 51.296L176.957 51.3831V51.3904ZM183.62 41.998V38.7608H182.422V38.1003H185.572V38.7608H184.375V41.998H183.627H183.62ZM186.109 41.998V37.9769H187.307L188.055 40.677L188.802 37.9769H190V41.969H189.252V38.8479L188.505 41.969H187.757L187.009 38.8479V41.969H186.109V41.998Z" fill="#202025"/>
</svg>
