<svg width="200" height="90" viewBox="0 0 200 90" fill="none" xmlns="http://www.w3.org/2000/svg">
<path d="M21.16 52.5888C19.2088 50.76 18.0424 48.24 18.0424 45.36C18.0424 42.48 19.18 39.96 21.0448 38.1312C22.6648 36.5112 22.6648 33.9912 21.0448 32.3712C19.4248 30.7512 16.9048 30.7512 15.2848 32.3712C12.0664 35.6976 10 40.2912 10 45.36C10 50.4288 12.0664 55.0224 15.4 58.3488C17.02 59.9688 19.54 59.9688 21.16 58.3488C22.6288 56.7288 22.6288 54.2088 21.16 52.5888Z" fill="#FFD85F"/>
<path d="M21.1601 38.1312C22.9889 36.18 25.5377 35.0424 28.3889 35.0424C31.2401 35.0424 33.7889 36.18 35.6177 38.0448C37.2377 39.6648 39.7577 39.6648 41.3777 38.0448C42.9977 36.4248 42.9977 33.9048 41.3777 32.2848C38.0513 29.0664 33.4577 27 28.3889 27C23.3201 27 18.7265 29.0664 15.4001 32.4C13.7801 34.02 13.7801 36.54 15.4001 38.16C17.0201 39.6 19.5401 39.6 21.1601 38.1312Z" fill="#3BB4E7"/>
<path d="M35.6177 52.5889C33.7889 54.5401 31.2401 55.6777 28.3889 55.6777C25.5377 55.6777 22.9889 54.5401 21.1601 52.6753C19.5401 51.0553 17.0201 51.0553 15.4001 52.6753C13.7801 54.2953 13.7801 56.8153 15.4001 58.4353C18.7337 61.6465 23.3201 63.7129 28.3889 63.7129C33.4577 63.7129 38.0513 61.6465 41.3777 58.3129C42.9977 56.6929 42.9977 54.1729 41.3777 52.5529C39.7577 51.1129 37.2377 51.1129 35.6177 52.5817V52.5889Z" fill="#ED5C68"/>
<path d="M18.2801 39.2687C20.4989 39.2687 22.2977 37.47 22.2977 35.2511C22.2977 33.0323 20.4989 31.2335 18.2801 31.2335C16.0612 31.2335 14.2625 33.0323 14.2625 35.2511C14.2625 37.47 16.0612 39.2687 18.2801 39.2687Z" fill="#308BC5"/>
<path d="M18.2801 59.4864C20.4989 59.4864 22.2977 57.6876 22.2977 55.4688C22.2977 53.2499 20.4989 51.4512 18.2801 51.4512C16.0612 51.4512 14.2625 53.2499 14.2625 55.4688C14.2625 57.6876 16.0612 59.4864 18.2801 59.4864Z" fill="#D5465F"/>
<path d="M59.4423 49.1399C60.5799 48.2111 60.8247 48.8087 61.7535 49.7087C62.2071 50.1623 63.5823 51.0911 62.6823 51.7751C60.8535 53.2727 59.2335 53.9639 56.8287 53.9639C51.5511 53.9639 47.7351 49.9463 47.9799 44.7551C48.1023 42.3575 49.0023 40.1687 50.8599 38.6639C52.5663 37.2815 54.6399 36.5975 56.8287 36.7127C57.9663 36.7127 58.8951 36.9503 59.9175 37.2815C60.6087 37.5191 61.2999 37.8503 61.8687 38.3039C63.0063 39.2327 62.4375 39.6863 61.6311 40.6151C61.3935 40.8527 61.2999 41.0687 61.0623 41.1839C60.6087 41.6375 60.2559 41.9975 59.6799 41.5151C58.5423 40.7015 56.9223 40.2551 55.5399 40.5863C50.9463 41.7239 51.1623 49.8887 56.7999 49.8887C57.6999 50.0687 58.7511 49.7375 59.4423 49.1399ZM187.12 53.6399C186.306 53.6399 185.738 53.0711 185.738 52.2575V34.1999C185.738 33.3863 186.306 32.8175 187.12 32.8175H188.617C189.431 32.8175 190 33.3863 190 34.1999V52.2575C190 53.0711 189.431 53.6399 188.617 53.6399H187.12ZM179.2 51.5735C177.58 53.0711 175.989 53.8847 173.677 53.8847C168.969 53.8847 166.78 49.9823 166.78 45.7271V38.3687C166.78 37.5551 167.349 36.9863 168.162 36.9863H169.66C170.473 36.9863 171.042 37.5551 171.042 38.3687V45.7199C171.042 48.1175 172.302 49.9823 174.945 49.9823C177.587 49.9823 179.085 47.7935 179.085 45.5111V38.3687C179.085 37.5551 179.653 36.9863 180.467 36.9863H181.965C182.778 36.9863 183.347 37.5551 183.347 38.3687V52.2575C183.347 53.0711 182.778 53.6399 181.965 53.6399H180.705C179.891 53.6399 179.445 52.9487 179.322 52.2575L179.2 51.5663V51.5735ZM161.257 37.0799H164.137C164.951 37.0799 165.52 37.7711 165.52 38.4623V39.3911C165.52 40.2047 164.951 40.7735 164.137 40.7735H161.257V52.2647C161.257 53.0783 160.689 53.6471 159.875 53.6471H158.377C157.564 53.6471 156.995 53.0783 156.995 52.2647V36.5111C156.995 33.0623 158.946 30.2975 162.517 29.9735H164.706C165.52 29.9735 166.089 30.6647 166.089 31.3559V32.2847C166.089 33.0983 165.52 33.6671 164.706 33.6671H163.569C161.855 33.6671 161.171 34.9271 161.171 36.5471V37.1159H161.257V37.0871V37.0799ZM150.789 37.0799H154C154.813 37.0799 155.382 37.6487 155.382 38.4623V39.3911C155.382 40.2047 154.813 40.7735 154 40.7735H150.789V47.7647C150.789 49.1471 151.48 49.8311 152.855 49.8311H153.546C154.36 49.8311 154.929 50.3999 154.929 51.2135V52.2359C154.929 53.0495 154.36 53.6183 153.546 53.6183H151.595C148.146 53.3807 146.641 51.2207 146.641 47.7647V34.1999C146.641 33.3863 147.21 32.8175 148.024 32.8175H149.521C150.335 32.8175 150.904 33.3863 150.904 34.1999V37.0799H150.781H150.789ZM104.709 37.0799H107.92C108.733 37.0799 109.302 37.6487 109.302 38.4623V39.3911C109.302 40.2047 108.733 40.7735 107.92 40.7735H104.709V47.7647C104.709 49.1471 105.4 49.9535 106.775 49.9535H107.466C108.28 49.9535 108.849 50.5223 108.849 51.3359V52.2647C108.849 53.0783 108.28 53.6471 107.466 53.6471H106.537C102.757 53.6471 100.569 52.0271 100.569 47.7935V34.2287C100.569 33.4151 101.137 32.8463 101.951 32.8463H103.449C104.262 32.8463 104.831 33.4151 104.831 34.2287V37.1087L104.709 37.0799ZM85.9887 39.0311C87.4863 37.5335 89.1999 36.7199 91.2663 36.7199C95.9751 36.7199 98.4087 40.4999 98.4087 44.8775V52.2575C98.4087 53.0711 97.8399 53.6399 97.0263 53.6399H95.5287C94.7151 53.6399 94.1463 53.0711 94.1463 52.2575V44.9063C94.1463 42.5087 92.8863 40.6439 90.2439 40.6439C87.6015 40.6439 86.1039 42.7103 86.1039 45.1151V52.2575C86.1039 53.0711 85.5351 53.6399 84.7215 53.6399H83.2239C82.4103 53.6399 81.8415 53.0711 81.8415 52.2575V38.3399C81.8415 37.5263 82.4103 36.9575 83.2239 36.9575H84.4839C85.2975 36.9575 85.7439 37.6487 85.8663 38.3399L85.9887 39.0311ZM132.191 39.0311C133.689 37.5335 135.402 36.7199 137.469 36.7199C142.177 36.7199 144.611 40.4999 144.611 44.8775V52.2575C144.611 53.0711 144.042 53.6399 143.229 53.6399H141.731C140.917 53.6399 140.349 53.0711 140.349 52.2575V44.9063C140.349 42.5087 139.089 40.6439 136.446 40.6439C133.804 40.6439 132.306 42.7103 132.306 45.1151V52.2575C132.306 53.0711 131.737 53.6399 130.924 53.6399H129.426C128.613 53.6399 128.044 53.0711 128.044 52.2575V38.3399C128.044 37.5263 128.613 36.9575 129.426 36.9575H130.686C131.5 36.9575 131.946 37.6487 132.069 38.3399L132.191 39.0311ZM71.8335 36.6335C66.7647 36.6335 63.2223 40.3199 63.2223 45.3671C63.2223 50.4143 66.7935 54.1007 71.8335 54.1007C76.8735 54.1007 80.5671 50.5295 80.5671 45.3671C80.5671 40.2047 76.9095 36.6335 71.8335 36.6335ZM113.925 46.8647C114.256 49.1759 116.567 50.1983 118.756 50.1983C119.778 50.1983 120.945 49.9607 121.845 49.5071C121.967 49.3847 122.176 49.3847 122.298 49.2695C122.867 48.9383 123.321 48.8159 123.796 49.2695L124.609 50.0831L125.301 50.7743C125.992 51.7031 125.538 51.9119 124.732 52.3943C123.018 53.5319 120.829 54.1079 118.763 54.1079C113.241 54.1079 109.554 50.7743 109.554 45.2591C109.554 39.7439 113.241 36.5255 118.403 36.5255C123.565 36.5255 126.805 39.6143 126.921 45.0431C126.921 46.5407 127.043 46.9943 125.538 46.9943H113.925V46.8719V46.8647ZM71.8335 40.5359C74.4759 40.5359 76.2111 42.8471 76.2111 45.3671C76.2111 47.8871 74.5911 50.0759 71.8335 50.0759C69.0759 50.0759 67.4559 48.0095 67.4559 45.3671C67.4559 42.7247 69.1983 40.5359 71.8335 40.5359ZM114.011 43.2935H122.622C122.291 41.1047 120.556 40.2911 118.482 40.2911C116.409 40.2911 114.609 41.3423 114.011 43.2935Z" fill="#2A3039"/>
</svg>
