<svg width="199" height="155" viewBox="0 0 199 155" fill="none" xmlns="http://www.w3.org/2000/svg">
<g clip-path="url(#clip0_9_13822)">
<path d="M168.462 13.8029C155.778 7.95122 142.177 3.63996 127.956 1.17073C127.697 1.12307 127.438 1.24217 127.305 1.48036C125.556 4.60857 123.618 8.68958 122.261 11.8972C106.966 9.59478 91.7488 9.59478 76.7669 11.8972C75.4098 8.61828 73.4019 4.60857 71.6448 1.48036C71.5114 1.25011 71.2526 1.13102 70.9937 1.17073C56.7806 3.63207 43.1794 7.94333 30.4879 13.8029C30.378 13.8505 30.2839 13.93 30.2214 14.0331C4.42271 52.7871 -2.64463 90.5885 0.822369 127.921C0.838056 128.104 0.940025 128.279 1.08122 128.39C18.1024 140.958 34.5904 148.588 50.7722 153.646C51.0312 153.725 51.3056 153.63 51.4704 153.416C55.2982 148.16 58.7103 142.618 61.6359 136.79C61.8086 136.448 61.6438 136.044 61.2909 135.909C55.8786 133.844 50.7251 131.327 45.7678 128.469C45.3756 128.239 45.3443 127.675 45.705 127.405C46.7482 126.619 47.7917 125.801 48.7878 124.975C48.968 124.825 49.2191 124.793 49.431 124.888C81.9986 139.839 117.257 139.839 149.44 124.888C149.652 124.785 149.903 124.817 150.091 124.967C151.088 125.793 152.131 126.619 153.182 127.405C153.543 127.675 153.519 128.239 153.127 128.469C148.17 131.383 143.016 133.844 137.596 135.901C137.243 136.036 137.086 136.448 137.259 136.79C140.247 142.61 143.66 148.152 147.417 153.408C147.574 153.63 147.856 153.725 148.115 153.646C164.375 148.588 180.863 140.958 197.884 128.39C198.033 128.279 198.127 128.112 198.143 127.929C202.292 84.7684 191.193 47.277 168.721 14.041C168.666 13.93 168.572 13.8505 168.462 13.8029ZM66.4994 105.189C56.6943 105.189 48.6151 96.1383 48.6151 85.0226C48.6151 73.9068 56.5376 64.8557 66.4994 64.8557C76.5393 64.8557 84.5402 73.9863 84.3833 85.0226C84.3833 96.1383 76.4608 105.189 66.4994 105.189ZM132.623 105.189C122.818 105.189 114.739 96.1383 114.739 85.0226C114.739 73.9068 122.661 64.8557 132.623 64.8557C142.663 64.8557 150.664 73.9863 150.507 85.0226C150.507 96.1383 142.663 105.189 132.623 105.189Z" fill="white"/>
</g>
<defs>
<clipPath id="clip0_9_13822">
<rect width="199" height="155" fill="white"/>
</clipPath>
</defs>
</svg>
