<svg xmlns="http://www.w3.org/2000/svg" xml:space="preserve" viewBox="0 0 199 155"><path fill="#fff" d="M168.5 13.8C155.8 8 142.2 3.6 128 1.2c-.3 0-.5.1-.7.3-1.7 3.1-3.7 7.2-5 10.4-15.3-2.3-30.5-2.3-45.5 0-1.4-3.3-3.4-7.3-5.1-10.4-.1-.2-.4-.3-.7-.3-14.2 2.4-27.8 6.7-40.5 12.6-.1 0-.2.1-.3.2C4.4 52.8-2.6 90.6.8 127.9c0 .2.1.4.3.5 17 12.6 33.5 20.2 49.7 25.3.3.1.5 0 .7-.2 3.8-5.3 7.2-10.8 10.2-16.6.2-.3 0-.7-.3-.9-5.4-2.1-10.6-4.6-15.5-7.4-.4-.2-.4-.8-.1-1.1 1-.8 2.1-1.6 3.1-2.4.2-.2.4-.2.6-.1 32.6 15 67.8 15 100 0 .2-.1.5-.1.7.1 1 .8 2 1.7 3.1 2.4.4.3.3.8-.1 1.1-5 2.9-10.1 5.4-15.5 7.4-.4.1-.5.5-.3.9 3 5.8 6.4 11.4 10.2 16.6.2.2.4.3.7.2 16.3-5.1 32.7-12.7 49.8-25.3.1-.1.2-.3.3-.5 4.1-43.2-7-80.7-29.4-113.9-.3-.1-.4-.1-.5-.2zm-102 91.4c-9.8 0-17.9-9.1-17.9-20.2s7.9-20.2 17.9-20.2c10 0 18 9.1 17.9 20.2 0 11.1-7.9 20.2-17.9 20.2zm66.1 0c-9.8 0-17.9-9.1-17.9-20.2s7.9-20.2 17.9-20.2c10 0 18 9.1 17.9 20.2 0 11.1-7.8 20.2-17.9 20.2z"/></svg>
