<svg width="200" height="90" viewBox="0 0 200 90" fill="none" xmlns="http://www.w3.org/2000/svg">
<path d="M86.6168 49.0206C82.3394 49.0171 78.8795 45.543 78.883 41.2692C78.883 39.2221 79.7004 37.2561 81.145 35.808L96.5104 20.4144C97.6837 19.3257 97.7542 17.4935 96.6654 16.3202C95.5767 15.147 93.7446 15.0765 92.5713 16.1652C92.5184 16.2145 92.4656 16.2674 92.4163 16.3202L76.8888 31.8477C73.8552 34.8672 68.9506 34.8602 65.9276 31.8266C62.9081 28.793 62.9151 23.8884 65.9487 20.8654L81.4762 5.38018C88.6498 -1.79339 100.277 -1.79339 107.45 5.38018C114.624 12.5538 114.624 24.1809 107.45 31.3544L92.0851 46.7198C90.6405 48.1856 88.6709 49.0136 86.6133 49.0241L86.6168 49.0206Z" fill="#344DA1"/>
<path d="M126.575 50.4792L104.029 73.0323C102.895 74.1562 101.07 74.1562 99.9351 73.0323C98.8041 71.9154 98.7935 70.0938 99.9105 68.9663C99.9175 68.9593 99.9281 68.9487 99.9351 68.9417L105.565 63.3008L122.478 46.3886C123.619 45.2611 125.458 45.2717 126.586 46.4133C127.111 46.9418 127.41 47.6535 127.424 48.3969C127.417 49.1544 127.111 49.8767 126.568 50.4088V50.4792H126.575ZM137.515 35.3957C130.345 28.2221 118.722 28.2186 111.548 35.3886L111.541 35.3957L94.6289 52.3607L88.9986 58.0016L70.205 76.7953C67.1854 79.8148 67.1854 84.7158 70.205 87.7353C73.2245 90.7548 78.1255 90.7548 81.145 87.7353L87.1065 81.7632C87.6773 82.5489 88.3115 83.2888 88.9986 83.9759C96.1686 91.1494 107.792 91.153 114.966 83.9829L114.973 83.9759L137.519 61.4228C144.692 54.2528 144.696 42.6292 137.526 35.4556L137.519 35.4485V35.3992L137.515 35.3957Z" fill="#344DA1"/>
<path d="M126.639 35.3851C122.488 31.2346 115.758 31.2346 111.608 35.3851L96.7675 50.2291L96.5068 50.4792C91.479 56.0039 82.9277 56.409 77.3996 51.3812C71.8749 46.3534 71.4698 37.8021 76.4976 32.274C76.783 31.9604 77.086 31.6574 77.3996 31.372L77.6497 31.1113L92.4831 16.2708C93.7022 15.235 95.5273 15.3794 96.5667 16.5985C97.4898 17.6802 97.4898 19.2728 96.5667 20.3544C100.717 16.1898 100.707 9.44609 96.542 5.29556C92.3774 1.14503 85.6337 1.1556 81.4832 5.32022L66.7344 20.1606C66.6427 20.2382 66.5547 20.3227 66.4736 20.4108C55.294 31.6151 55.1601 49.7146 66.1706 61.0845C66.2517 61.1903 66.3433 61.2854 66.4419 61.377C77.7625 72.7011 96.1157 72.7046 107.44 61.384L107.447 61.377C107.535 61.296 107.619 61.2079 107.697 61.1163L122.537 46.3357C123.757 45.2999 125.582 45.4443 126.621 46.6634C127.544 47.7451 127.544 49.3376 126.621 50.4193C130.786 46.2829 130.81 39.5533 126.674 35.3886C126.656 35.371 126.639 35.3534 126.621 35.3358L126.632 35.3851H126.639Z" fill="#344DA1"/>
</svg>
