<svg width="200" height="90" viewBox="0 0 200 90" fill="none" xmlns="http://www.w3.org/2000/svg">
<path d="M26.644 56.9999C27.0898 56.9999 27.4365 56.876 27.6842 56.6284C27.9319 56.3807 28.0557 56.0959 28.0557 55.7739C28.0557 55.4271 27.9319 55.1361 27.6842 54.9008C27.4365 54.6655 27.0898 54.5479 26.644 54.5479H12.7492V34.6717C12.7492 34.2507 12.613 33.9287 12.3406 33.7058C12.0681 33.4829 11.7461 33.3714 11.3746 33.3714C11.0031 33.3714 10.6811 33.4829 10.4087 33.7058C10.1362 33.9287 10 34.2507 10 34.6717V55.6253C10 56.5417 10.4706 56.9999 11.4118 56.9999H26.644ZM38.9412 57.3714C40.2043 57.3962 41.418 57.2228 42.582 56.8513C43.7461 56.4798 44.7368 55.9101 45.5542 55.1423C45.9009 54.7955 46.0743 54.4364 46.0743 54.0649C46.0743 53.7429 45.9505 53.4705 45.7028 53.2476C45.4551 53.0246 45.1579 52.9132 44.8111 52.9132C44.4149 52.9132 44.0681 53.0494 43.7709 53.3219C42.4087 54.3621 40.7616 54.8822 38.8297 54.8822C37.6409 54.8822 36.5573 54.6222 35.5789 54.102C34.6006 53.5819 33.8081 52.8946 33.2012 52.0401C32.5944 51.1856 32.2043 50.2383 32.031 49.198H46.7059C47.9195 49.198 48.5263 48.6284 48.5263 47.489C48.5015 45.3342 48.0372 43.5324 47.1331 42.0835C46.2291 40.6346 45.0402 39.5633 43.5666 38.8699C42.0929 38.1764 40.4892 37.8296 38.7554 37.8296C37.1207 37.8296 35.5789 38.2135 34.13 38.9813C32.6811 39.7491 31.5108 40.8637 30.6192 42.325C29.7276 43.7863 29.2817 45.52 29.2817 47.5262C29.2817 49.3838 29.678 51.0618 30.4706 52.5603C31.2632 54.0587 32.3963 55.2352 33.87 56.0897C35.3437 56.9442 37.0341 57.3714 38.9412 57.3714ZM45.9257 46.9318H31.9195C32.0681 44.8017 32.8111 43.1733 34.1486 42.0463C35.4861 40.9194 37.0836 40.3559 38.9412 40.3559C40.031 40.3559 41.0898 40.6036 42.1176 41.099C43.1455 41.5943 44.0062 42.3373 44.6997 43.3281C45.3932 44.3188 45.8019 45.52 45.9257 46.9318ZM67.4365 56.9999C67.7833 56.9999 68.0929 56.8699 68.3653 56.6098C68.6378 56.3497 68.774 56.0463 68.774 55.6996C68.774 55.3776 68.6625 55.1051 68.4396 54.8822L61.678 47.4519L68.2167 40.1702C68.3901 39.972 68.4768 39.7491 68.4768 39.5014C68.4768 39.1547 68.3282 38.8513 68.031 38.5912C67.7337 38.3312 67.3994 38.2011 67.0279 38.2011C66.6068 38.2011 66.2724 38.3745 66.0248 38.7212L59.8576 45.7801L54.0991 38.6841C53.8019 38.3621 53.4551 38.2011 53.0588 38.2011C52.6873 38.2011 52.3653 38.3188 52.0929 38.5541C51.8204 38.7894 51.6842 39.068 51.6842 39.39C51.6842 39.6872 51.7957 39.9844 52.0186 40.2816L58.0372 47.4519L51.8328 54.7336C51.5356 55.0556 51.387 55.39 51.387 55.7367C51.387 56.0587 51.5232 56.3497 51.7957 56.6098C52.0681 56.8699 52.3777 56.9999 52.7245 56.9999C53.1207 56.9999 53.4799 56.8265 53.8019 56.4798L59.8947 49.0494L66.3963 56.5169C66.6935 56.8389 67.0402 56.9999 67.4365 56.9999ZM80.9598 57.3714C82.1486 57.3714 83.3189 57.0742 84.4706 56.4798C85.6223 55.8853 86.4582 55.0804 86.9783 54.0649V55.6624C86.9783 56.0835 87.096 56.4116 87.3313 56.6469C87.5666 56.8822 87.8947 56.9999 88.3158 56.9999C88.7368 56.9999 89.0712 56.876 89.3189 56.6284C89.5666 56.3807 89.6904 56.0587 89.6904 55.6624V39.5386C89.6904 39.1423 89.5604 38.8203 89.3003 38.5726C89.0402 38.325 88.7121 38.2011 88.3158 38.2011C87.8947 38.2011 87.5666 38.325 87.3313 38.5726C87.096 38.8203 86.9783 39.1423 86.9783 39.5386V40.7646C86.3591 39.7491 85.5232 39.0061 84.4706 38.5355C83.418 38.0649 82.2972 37.8296 81.1084 37.8296C79.3251 37.8296 77.6966 38.2011 76.2229 38.9442C74.7492 39.6872 73.5851 40.7832 72.7306 42.2321C71.8762 43.681 71.4489 45.4333 71.4489 47.489C71.4489 49.4952 71.8638 51.2476 72.6935 52.746C73.5232 54.2445 74.6563 55.39 76.0929 56.1825C77.5294 56.9751 79.1517 57.3714 80.9598 57.3714ZM80.9969 54.8079C80.0805 54.8079 79.0898 54.5541 78.0248 54.0463C76.9598 53.5386 76.0495 52.7398 75.2941 51.65C74.5387 50.5603 74.161 49.1733 74.161 47.489C74.161 46.2011 74.4334 45.0123 74.9783 43.9225C75.5232 42.8327 76.3158 41.9658 77.356 41.3219C78.3963 40.6779 79.6347 40.3683 81.0712 40.3931C82.8297 40.4674 84.2539 40.9999 85.3437 41.9906C86.4334 42.9813 86.9783 44.3683 86.9783 46.1516V49.0866C86.9783 50.8203 86.4087 52.1949 85.2693 53.2104C84.13 54.2259 82.7059 54.7584 80.9969 54.8079ZM102.619 57.3714C103.833 57.3714 105.084 57.1856 106.372 56.8141C107.659 56.4426 108.762 55.8172 109.678 54.938C110.594 54.0587 111.053 52.9008 111.053 51.4643C111.053 50.0277 110.663 48.938 109.882 48.1949C109.102 47.4519 108.161 46.9565 107.059 46.7089C105.957 46.4612 104.477 46.2507 102.619 46.0773C102.446 46.0525 102.198 46.0401 101.876 46.0401C100.737 45.9658 99.839 45.8668 99.1827 45.7429C98.5263 45.6191 97.9814 45.3838 97.548 45.037C97.1145 44.6903 96.8978 44.1825 96.8978 43.5138C96.8978 42.4736 97.4737 41.6748 98.6254 41.1175C99.7771 40.5603 100.997 40.2816 102.285 40.2816C105.43 40.2816 107.3 41.0494 107.895 42.585C108.093 43.1051 108.477 43.3652 109.046 43.3652C109.418 43.3652 109.752 43.2414 110.05 42.9937C110.347 42.746 110.495 42.4364 110.495 42.0649C110.495 41.9658 110.471 41.8172 110.421 41.6191C109.851 40.133 108.824 39.1299 107.337 38.6098C105.851 38.0897 104.167 37.8296 102.285 37.8296C100.997 37.8296 99.7337 38.0339 98.4954 38.4426C97.257 38.8513 96.2291 39.4829 95.4118 40.3373C94.5944 41.1918 94.1858 42.2383 94.1858 43.4767C94.1858 44.8884 94.5697 45.9596 95.3375 46.6903C96.1053 47.4209 97.034 47.9039 98.1238 48.1392C99.2136 48.3745 100.675 48.5788 102.508 48.7522C103.92 48.8513 104.985 48.9627 105.703 49.0866C106.421 49.2104 107.04 49.4519 107.56 49.811C108.08 50.1702 108.341 50.7212 108.341 51.4643C108.341 52.2568 108.012 52.9132 107.356 53.4333C106.7 53.9534 105.926 54.3373 105.034 54.585C104.142 54.8327 103.337 54.9565 102.619 54.9565C101.183 54.9565 99.87 54.7151 98.6811 54.2321C97.4923 53.7491 96.8111 53.1113 96.6378 52.3188C96.5635 51.9473 96.4149 51.6748 96.192 51.5014C95.969 51.3281 95.709 51.2414 95.4118 51.2414C95.0403 51.2414 94.7121 51.359 94.4272 51.5943C94.1424 51.8296 94 52.1206 94 52.4674C94 52.616 94.0124 52.7274 94.0371 52.8017C94.3591 54.4612 95.3746 55.6377 97.0836 56.3312C98.7926 57.0246 100.638 57.3714 102.619 57.3714Z" fill="#55BAA0"/>
<path d="M126.396 57.3715C128.204 57.3715 129.988 56.9567 131.746 56.1269C133.505 55.2972 134.879 54.1765 135.87 52.7647C136.019 52.5418 136.093 52.3065 136.093 52.0588C136.093 51.7121 135.944 51.4149 135.647 51.1672C135.35 50.9195 135.028 50.7957 134.681 50.7957C134.285 50.7957 133.975 50.9567 133.752 51.2786C132.886 52.3932 131.814 53.2601 130.539 53.8793C129.263 54.4985 127.907 54.808 126.471 54.808C124.786 54.808 123.226 54.3684 121.79 53.4892C120.353 52.6099 119.208 51.4149 118.353 49.904C117.499 48.3932 117.071 46.7214 117.071 44.8885C117.071 42.6099 117.567 40.7709 118.557 39.3715C119.548 37.9721 120.774 36.9814 122.235 36.3994C123.697 35.8173 125.183 35.5263 126.694 35.5263C128.006 35.5263 129.22 35.743 130.334 36.1765C131.449 36.6099 132.489 37.3344 133.455 38.3498C133.728 38.6223 134.012 38.7585 134.31 38.7585C134.656 38.7585 134.972 38.6285 135.257 38.3684C135.542 38.1084 135.684 37.8173 135.684 37.4954C135.684 37.1981 135.573 36.9257 135.35 36.678C133.047 34.226 130.136 33 126.619 33C124.786 33 122.935 33.4211 121.065 34.2632C119.195 35.1053 117.622 36.418 116.347 38.2012C115.071 39.9845 114.434 42.2012 114.434 44.8514C114.434 47.2043 114.985 49.3406 116.087 51.2601C117.189 53.1796 118.656 54.678 120.489 55.7554C122.322 56.8328 124.291 57.3715 126.396 57.3715ZM162.359 57C162.731 57 163.047 56.8824 163.307 56.6471C163.567 56.4118 163.697 56.0836 163.697 55.6625V34.8204C163.697 34.3746 163.573 34.0217 163.325 33.7616C163.077 33.5015 162.78 33.3715 162.434 33.3715C161.889 33.3715 161.455 33.6316 161.133 34.1517L152.143 48.2694L143.077 34.1889C142.929 33.9164 142.743 33.7121 142.52 33.5759C142.297 33.4396 142.074 33.3715 141.851 33.3715C141.505 33.3715 141.201 33.5077 140.941 33.7802C140.681 34.0526 140.551 34.4118 140.551 34.8576V55.6625C140.551 56.0836 140.687 56.4118 140.96 56.6471C141.232 56.8824 141.554 57 141.926 57C142.297 57 142.613 56.8824 142.873 56.6471C143.133 56.4118 143.263 56.0836 143.263 55.6625V39.3901L150.842 51.1672C151.189 51.6873 151.622 51.9474 152.143 51.9474C152.663 51.9474 153.084 51.6873 153.406 51.1672L160.985 39.3158V55.6625C160.985 56.0836 161.121 56.4118 161.393 56.6471C161.666 56.8824 161.988 57 162.359 57ZM179.077 57.3715C180.811 57.3715 182.508 57.1486 184.167 56.7028C185.827 56.257 187.214 55.4892 188.328 54.3994C189.443 53.3096 190 51.8854 190 50.1269C190 48.3932 189.511 47.0991 188.533 46.2446C187.554 45.3901 186.403 44.8328 185.077 44.5728C183.752 44.3127 181.876 44.0712 179.449 43.8483C177.616 43.6997 176.167 43.5263 175.102 43.3282C174.037 43.13 173.158 42.7709 172.464 42.2508C171.771 41.7306 171.424 40.9628 171.424 39.9474C171.424 38.9071 171.833 38.0774 172.65 37.4582C173.468 36.839 174.434 36.3994 175.548 36.1393C176.663 35.8793 177.728 35.7492 178.743 35.7492C180.576 35.7492 182.204 35.9598 183.629 36.3808C185.053 36.8019 186.012 37.6316 186.508 38.87C186.706 39.3158 187.09 39.5387 187.66 39.5387C188.031 39.5387 188.365 39.4334 188.663 39.2229C188.96 39.0124 189.108 38.7337 189.108 38.387C189.108 38.3127 189.084 38.1765 189.034 37.9783C187.821 34.6594 184.378 33 178.706 33C177.071 33 175.474 33.2477 173.913 33.743C172.353 34.2384 171.065 35.0062 170.05 36.0464C169.034 37.0867 168.526 38.3746 168.526 39.9102C168.526 41.6192 169.022 42.9195 170.012 43.8111C171.003 44.7028 172.204 45.3034 173.616 45.613C175.028 45.9226 176.873 46.1641 179.152 46.3375C181.009 46.4861 182.452 46.6533 183.48 46.839C184.508 47.0248 185.375 47.3715 186.081 47.8793C186.786 48.387 187.139 49.1486 187.139 50.1641C187.139 51.8235 186.316 52.9938 184.669 53.6749C183.022 54.356 181.158 54.6966 179.077 54.6966C174.446 54.6966 171.759 53.5077 171.016 51.13C170.966 50.8328 170.824 50.6099 170.588 50.4613C170.353 50.3127 170.087 50.2384 169.79 50.2384C169.369 50.2384 169.003 50.3498 168.694 50.5728C168.384 50.7957 168.229 51.0929 168.229 51.4644C168.229 51.613 168.242 51.7245 168.266 51.7988C168.811 53.805 170.149 55.2353 172.279 56.0898C174.409 56.9443 176.675 57.3715 179.077 57.3715Z" fill="black"/>
</svg>
