<svg width="200" height="90" viewBox="0 0 200 90" fill="none" xmlns="http://www.w3.org/2000/svg">
<path d="M140.098 23.5792C140.098 20.4862 142.584 18 145.677 18C148.77 18 151.256 20.4862 151.256 23.5792C151.256 26.6722 148.77 29.188 145.677 29.188C142.584 29.188 140.098 26.6648 140.098 23.5792ZM59.7098 40.5019C62.3218 43.4394 63.7869 47.2206 63.7869 51.1497V70.5586H55.2109V50.9129C55.1813 47.043 51.9995 43.8908 48.1296 43.8908C47.9224 43.8908 47.6782 43.9204 47.4118 43.9204C43.9637 44.283 41.0557 47.5536 41.0557 51.0905V70.529H32.5093V50.9425C32.4797 47.0726 29.3275 43.8908 25.4575 43.8908C25.2503 43.8908 25.0062 43.9204 24.7398 43.9204C21.2916 44.283 18.3836 47.5536 18.3836 51.1201V70.529H10V50.8833C10 42.3073 16.9925 35.3444 25.5389 35.3444C29.8306 35.3444 33.9078 37.1425 36.8454 40.2355C39.7829 37.1129 43.8971 35.3444 48.1814 35.3444C48.6623 35.3444 49.0841 35.374 49.5577 35.4036C53.4572 35.7662 57.0608 37.5643 59.695 40.5019H59.7098ZM117.219 70.5882H108.672V18.8435H117.219V70.5882ZM133.601 70.5882H125.055V18.8435H133.601V70.5882ZM149.984 70.5586H141.437V36.2397H149.984V70.5586ZM190 56.4626H163.961C165.13 60.5989 168.882 63.5143 173.233 63.5143C176.651 63.5143 179.715 61.7754 181.483 58.8674L181.846 58.2976L188.927 61.7754L188.505 62.4635C185.294 67.8948 179.389 71.2541 173.085 71.2541H173.055C168.253 71.2541 163.754 69.3673 160.335 65.9117C156.917 62.4635 155.089 57.9055 155.148 53.1032C155.208 48.3971 157.065 43.9574 160.365 40.6276C163.665 37.2979 168.105 35.4406 172.811 35.3814H173.018C177.547 35.3814 181.779 37.1795 185.02 40.4501C188.232 43.7206 190 48.0123 190 52.5408V56.47V56.4626ZM164.08 49.3812H181.328C180.099 45.7185 176.585 43.1435 172.685 43.1435C168.786 43.1435 165.308 45.7259 164.072 49.3812H164.08ZM104.055 53.34C104.055 63.2109 96.0191 71.2763 86.1482 71.2763C76.2772 71.2763 68.2414 63.2035 68.2414 53.34C68.2414 43.4764 76.2476 35.4036 86.1482 35.4036C96.0487 35.4036 104.055 43.4394 104.055 53.34ZM95.5677 53.34C95.5677 48.1529 91.3352 43.8908 86.1482 43.8908C80.9611 43.8908 76.7286 48.1233 76.7286 53.34C76.7286 58.5566 80.9611 62.7891 86.1482 62.7891C91.3352 62.7891 95.5677 58.5566 95.5677 53.34Z" fill="black"/>
</svg>
