<svg width="200" height="90" viewBox="0 0 200 90" fill="none" xmlns="http://www.w3.org/2000/svg">
<path d="M168.28 29.8047C156.282 29.8047 146.559 39.5275 146.559 51.5252C146.559 63.5228 156.282 73.2456 168.28 73.2456C180.277 73.2456 190 63.5228 190 51.5252C190 39.5275 180.277 29.8047 168.28 29.8047ZM168.28 64.3378C161.2 64.3378 155.467 58.6047 155.467 51.5252C155.467 44.4456 161.2 38.7126 168.28 38.7126C175.359 38.7126 181.092 44.4456 181.092 51.5252C181.092 58.6047 175.359 64.3378 168.28 64.3378Z" fill="#888888"/>
<path d="M122.217 29.8047C110.219 29.8047 100.496 39.5275 100.496 51.5252C100.496 63.5228 110.219 73.2456 122.217 73.2456C134.214 73.2456 143.937 63.5228 143.937 51.5252C143.937 39.5275 134.214 29.8047 122.217 29.8047ZM122.217 64.3378C115.137 64.3378 109.404 58.6047 109.404 51.5252C109.404 44.4456 115.137 38.7126 122.217 38.7126C129.296 38.7126 135.029 44.4456 135.029 51.5252C135.029 58.6047 129.296 64.3378 122.217 64.3378Z" fill="#888888"/>
<path d="M94.1959 16C94.1959 16 94.1746 16 94.1605 16C91.7865 16.0071 89.866 17.9417 89.8731 20.3228V34.1843C86.2093 31.4559 81.6809 29.8047 76.7628 29.8047C64.7581 29.8047 55.0424 39.5276 55.0424 51.5252C55.0424 63.5228 64.7652 73.2457 76.7628 73.2457C88.7605 73.2457 98.4833 63.5228 98.4833 51.5252V51.348C98.5117 51.2913 98.5117 51.1992 98.5117 51.1354V20.3228C98.5117 17.9488 96.5628 16 94.1959 16ZM76.7628 64.3378C69.6904 64.3378 63.9502 58.6047 63.9502 51.5252C63.9502 44.4457 69.6833 38.7126 76.7628 38.7126C83.8424 38.7126 89.5754 44.4457 89.5754 51.5252C89.5754 58.6047 83.8424 64.3378 76.7628 64.3378Z" fill="#888888"/>
<path d="M31.7205 29.7412C19.7228 29.7412 10 39.4711 10 51.4688C10 63.4664 19.7228 73.1892 31.7205 73.1892C43.7181 73.1892 53.4409 63.4664 53.4409 51.4688C53.4409 39.4711 43.7181 29.7483 31.7205 29.7483V29.7412ZM31.5079 64.3664C24.4354 64.3664 18.6953 58.6333 18.6953 51.5538C18.6953 44.4743 24.4283 38.7412 31.5079 38.7412C38.5874 38.7412 44.3205 44.4743 44.3205 51.5538C44.3205 58.6333 38.5874 64.3664 31.5079 64.3664Z" fill="#9C5789"/>
</svg>
