<svg width="200" height="90" viewBox="0 0 200 90" fill="none" xmlns="http://www.w3.org/2000/svg">
<path d="M77.3074 32.8294H67.3492C66.6706 32.8294 66.0848 33.3223 65.9848 34.0009L61.9559 59.5463C61.8773 60.0535 62.263 60.5035 62.7774 60.5035H67.535C68.2136 60.5035 68.7994 60.0106 68.8994 59.332L69.9852 52.4456C70.0924 51.7741 70.671 51.274 71.3496 51.274H74.4999C81.0649 51.274 84.851 48.1023 85.8368 41.8088C86.2797 39.0586 85.8582 36.8941 84.5652 35.3796C83.1508 33.7152 80.6363 32.8365 77.3074 32.8365V32.8294ZM78.4575 42.1589C77.9146 45.7306 75.1786 45.7306 72.5426 45.7306H71.0425L72.0997 39.0586C72.164 38.6585 72.514 38.3585 72.9212 38.3585H73.607C75.4072 38.3585 77.1002 38.3585 77.9789 39.3872C78.5003 40.0015 78.6646 40.9087 78.4646 42.166L78.4575 42.1589Z" fill="#253B80"/>
<path d="M107.082 42.0446H102.31C101.903 42.0446 101.553 42.3446 101.488 42.7446L101.274 44.0805L100.938 43.5947C99.9024 42.0946 97.6022 41.5945 95.302 41.5945C90.03 41.5945 85.5296 45.5878 84.6509 51.1883C84.1938 53.9814 84.8438 56.6531 86.4297 58.5176C87.8798 60.232 89.9657 60.9464 92.4374 60.9464C96.6878 60.9464 99.0381 58.2176 99.0381 58.2176L98.8237 59.5463C98.7452 60.0535 99.1309 60.5106 99.6453 60.5106H103.939C104.624 60.5106 105.196 60.0177 105.303 59.3391L107.882 43.0161C107.96 42.516 107.575 42.0588 107.067 42.0588L107.082 42.0446ZM100.431 51.3312C99.9739 54.0529 97.8094 55.8888 95.052 55.8888C93.6661 55.8888 92.5589 55.4459 91.8516 54.6029C91.1444 53.7671 90.8801 52.5742 91.1016 51.2526C91.5302 48.5523 93.7304 46.6593 96.445 46.6593C97.8022 46.6593 98.9023 47.1093 99.6238 47.9594C100.352 48.8166 100.638 50.0168 100.431 51.3312Z" fill="#253B80"/>
<path d="M132.484 42.0449H127.691C127.233 42.0449 126.805 42.2735 126.548 42.6521L119.94 52.3888L117.14 43.0307C116.961 42.445 116.425 42.0449 115.811 42.0449H111.103C110.532 42.0449 110.132 42.6021 110.317 43.145L115.597 58.6394L110.632 65.6472C110.239 66.1973 110.632 66.9616 111.31 66.9616H116.097C116.554 66.9616 116.975 66.7402 117.232 66.3687L133.177 43.3593C133.555 42.8093 133.17 42.0592 132.498 42.0592L132.484 42.0449Z" fill="#253B80"/>
<path d="M148.357 32.8294H138.392C137.713 32.8294 137.135 33.3223 137.028 34.0009L132.999 59.5463C132.92 60.0535 133.306 60.5035 133.82 60.5035H138.935C139.406 60.5035 139.814 60.1535 139.892 59.682L141.035 52.4384C141.142 51.7669 141.721 51.2669 142.4 51.2669H145.55C152.115 51.2669 155.901 48.0952 156.887 41.8017C157.337 39.0514 156.901 36.8869 155.615 35.3725C154.201 33.708 151.693 32.8294 148.357 32.8294ZM149.507 42.1589C148.964 45.7306 146.236 45.7306 143.592 45.7306H142.092L143.15 39.0586C143.214 38.6585 143.557 38.3585 143.971 38.3585H144.657C146.457 38.3585 148.15 38.3585 149.029 39.3872C149.55 40.0015 149.707 40.9087 149.507 42.166V42.1589Z" fill="#179BD7"/>
<path d="M178.132 42.0446H173.367C172.96 42.0446 172.61 42.3446 172.545 42.7446L172.331 44.0805L171.995 43.5947C170.959 42.0946 168.659 41.5945 166.366 41.5945C161.094 41.5945 156.594 45.5878 155.715 51.1883C155.258 53.9814 155.908 56.6531 157.494 58.5176C158.951 60.232 161.03 60.9464 163.502 60.9464C167.752 60.9464 170.102 58.2176 170.102 58.2176L169.888 59.5463C169.809 60.0535 170.195 60.5106 170.709 60.5106H175.003C175.681 60.5106 176.26 60.0177 176.367 59.3391L178.946 43.0161C179.024 42.516 178.632 42.0588 178.124 42.0588L178.132 42.0446ZM171.481 51.3312C171.024 54.0529 168.859 55.8888 166.102 55.8888C164.723 55.8888 163.609 55.4459 162.901 54.6029C162.194 53.7671 161.93 52.5742 162.151 51.2526C162.587 48.5523 164.78 46.6593 167.495 46.6593C168.852 46.6593 169.952 47.1093 170.674 47.9594C171.402 48.8166 171.695 50.0168 171.481 51.3312Z" fill="#179BD7"/>
<path d="M183.754 33.5294L179.668 59.5391C179.589 60.0463 179.975 60.4964 180.489 60.4964H184.597C185.282 60.4964 185.861 60.0035 185.961 59.3248L189.99 33.7866C190.069 33.2794 189.683 32.8294 189.168 32.8294H184.568C184.161 32.8294 183.811 33.1294 183.747 33.5294H183.754Z" fill="#179BD7"/>
<path d="M20.5804 65.4612L21.3448 60.625L19.6446 60.5821H11.5438L17.1801 24.8786C17.1944 24.7715 17.2515 24.6715 17.3372 24.6C17.423 24.5286 17.5301 24.4929 17.6373 24.4929H31.2958C35.8319 24.4929 38.9608 25.4358 40.5967 27.3003C41.361 28.1718 41.8539 29.0862 42.0897 30.0934C42.3397 31.1507 42.3397 32.4079 42.0968 33.9438L42.0825 34.0581V35.0439L42.8469 35.4797C43.4898 35.8226 44.0041 36.2155 44.397 36.6655C45.0542 37.4156 45.4757 38.3657 45.6543 39.4872C45.84 40.6445 45.7757 42.0232 45.4757 43.5805C45.1257 45.3735 44.5613 46.9379 43.797 48.2166C43.0969 49.3953 42.204 50.374 41.1396 51.1312C40.1252 51.8527 38.9179 52.3956 37.5607 52.7456C36.2391 53.0885 34.7389 53.26 33.0888 53.26H32.0244C31.2672 53.26 30.5243 53.5314 29.9456 54.0243C29.367 54.5244 28.9812 55.2102 28.8598 55.9602L28.7812 56.396L27.4382 64.9254L27.3739 65.2397C27.3597 65.3397 27.3311 65.3897 27.2882 65.4183C27.2525 65.4469 27.2025 65.4683 27.1453 65.4683H20.5804V65.4612Z" fill="#253B80"/>
<path d="M43.5682 34.1653C43.5253 34.4225 43.4825 34.6939 43.4253 34.9654C41.6251 44.2163 35.4602 47.4094 27.588 47.4094H23.5805C22.6161 47.4094 21.8089 48.1095 21.6589 49.0596L19.6087 62.0752L19.0301 65.7612C18.9301 66.3827 19.4158 66.9471 20.0444 66.9471H27.1523C27.9952 66.9471 28.7096 66.3327 28.8453 65.5041L28.9167 65.1397L30.2526 56.6461L30.3383 56.1817C30.4669 55.3459 31.1884 54.7387 32.0313 54.7387H33.0957C39.9821 54.7387 45.3755 51.9456 46.9542 43.8519C47.6114 40.473 47.2685 37.6513 45.5327 35.6654C45.004 35.0654 44.354 34.5725 43.5896 34.1653H43.5682Z" fill="#179BD7"/>
<path d="M41.6826 33.4153C41.404 33.3367 41.1254 33.2652 40.8325 33.1938C40.5396 33.1295 40.2396 33.0724 39.9324 33.0224C38.8537 32.8509 37.6679 32.7652 36.3963 32.7652H25.6881C25.4238 32.7652 25.1738 32.8223 24.9524 32.9295C24.4595 33.1652 24.0951 33.6367 24.0023 34.2082L21.7235 48.6382L21.6592 49.0596C21.8092 48.1096 22.6236 47.4095 23.5808 47.4095H27.5883C35.4605 47.4095 41.6254 44.2092 43.4256 34.9654C43.4827 34.694 43.5256 34.4225 43.5685 34.1653C43.1113 33.9225 42.6184 33.7153 42.0897 33.5438C41.9612 33.501 41.8254 33.4581 41.6897 33.4153H41.6826Z" fill="#222D65"/>
<path d="M24.0022 34.2154C24.0879 33.6439 24.4593 33.1724 24.9523 32.9367C25.1808 32.8295 25.4237 32.7724 25.688 32.7724H36.3962C37.6678 32.7724 38.8465 32.8581 39.9323 33.0296C40.2395 33.0796 40.5395 33.1367 40.8324 33.201C41.1253 33.2653 41.411 33.3367 41.6825 33.4224C41.8182 33.4653 41.9539 33.5082 42.0896 33.551C42.6183 33.7296 43.1183 33.9368 43.5684 34.1725C44.1041 30.7508 43.5684 28.4291 41.7182 26.3218C39.6823 23.993 36.0033 23 31.2957 23H17.6373C16.6729 23 15.8585 23.7001 15.7085 24.6502L10.0151 60.718C9.90078 61.4323 10.4508 62.0752 11.1723 62.0752H19.6089L21.7234 48.6382L24.0022 34.2082V34.2154Z" fill="#253B80"/>
</svg>
