<svg width="200" height="90" fill="none" xmlns="http://www.w3.org/2000/svg"><path d="M84.172 69.052c.72-.319 1.446-.613 2.183-.89a39.625 39.625 0 0 1 5.708-1.693 39.144 39.144 0 0 1 4.408-.68 138.47 138.47 0 0 1-2.746 7.791c.042.5.064 1.003.078 1.506a31.874 31.874 0 0 1 6.194-.606c2.118 0 4.191.213 6.193.606.014-.503.036-1.006.078-1.506a139.484 139.484 0 0 1-2.746-7.791c1.481.145 2.952.372 4.408.68 1.077.23 2.14.517 3.196.833.847.255 1.683.549 2.516.86.733.277 1.463.571 2.182.89a39.042 39.042 0 0 1 13.561 10.01c9.556-8.252 15.611-20.445 15.611-34.062C145 20.147 124.853 0 100 0S55 20.147 55 45c0 13.617 6.056 25.81 15.612 34.062a39.081 39.081 0 0 1 13.56-10.01Z" fill="#A5DBE8"/><path d="m115.828 69.052 2.792 9.606.794.039c.514 0 .875.135.875.648 0 .854.046 1.814.128 2.654.694.592 1.544 1.258 2.186 1.907a45.26 45.26 0 0 0 6.785-4.844 39.075 39.075 0 0 0-13.56-10.01ZM110.368 68.956l3.281-.793a39.009 39.009 0 0 0-2.516-.861 38.526 38.526 0 0 0-3.196-.833 39.146 39.146 0 0 0-4.408-.68 139.268 139.268 0 0 0 2.746 7.791c-.042.5-.064 1.003-.078 1.506 2.325.457 4.61 1.255 6.722 2.19l-2.551-8.32Z" fill="#525353"/><path d="M77.397 83.905c.521.305 1.049.603 1.588.886.187-.9.489-2.15.577-3.08-.694.593-1.523 1.546-2.165 2.194ZM112.862 77.195a31.646 31.646 0 0 0-6.668-2.109A31.88 31.88 0 0 0 100 74.48c-2.119 0-4.192.213-6.194.606-2.324.457-4.748 1.152-6.86 2.087l-.223 1.4h26.561l-.418-1.382" fill="#000"/><path d="M79.48 81.978c.082-.84.142-1.587.142-2.441 0-.514.355-.844.869-.844l.843-.028 2.842-9.61a39.038 39.038 0 0 0-13.56 10.01A45.268 45.268 0 0 0 77.4 83.91a31.23 31.23 0 0 1 2.009-1.86" fill="#525353"/><path d="M120.76 83.69c.181.914.223 1.094.255 1.101a46.957 46.957 0 0 0 1.588-.885 32.092 32.092 0 0 0-2.031-1.882l.188 1.662" fill="#000"/><path d="m112.862 77.194.418 1.382h5.432l-2.884-9.52a40.14 40.14 0 0 0-2.183-.89l-3.281.794 2.498 8.238" fill="#AA9678"/><path d="M81.38 80.497c.028-.022.057-.04.085-.06h-.082c0 .02 0 .038-.003.06Z" fill="#C4B6A1"/><path d="M118.617 80.436h-.082c.028.022.057.04.085.06v-.06" fill="#AA9678"/><path d="m118.521 80.299-18.56.02L100 90c6.906 0 13.45-1.559 19.297-4.34-.383-1.676-.422-3.484-.482-5.245a3.511 3.511 0 0 0-.294-.117Z" fill="#AA9678"/><path d="M99.972 80.359s-18.663-.025-18.691 0c-.06 1.757-.425 3.844-.578 5.3A44.814 44.814 0 0 0 100 90l.011-9.61-.04-.031Z" fill="#C4B6A1"/><path d="M112.883 72.153Z" fill="#525353"/><path d="M113.918 73.18s0 .01.011.028a2.138 2.138 0 0 1-.011-.028s-.457-.362-1.035-1.028c.578.666 1.035 1.028 1.035 1.028Z" fill="#AA9678"/><path d="m129.431 44.71.007.035c0 .007 0 .014.003.021.022.174.029.355.032.535 0 .032.007.064.007.1v.024c0 .036-.007.071-.007.107a4.63 4.63 0 0 1-.032.52s0 .018-.003.029c0 .014-.007.025-.007.039a4.802 4.802 0 0 1-.1.531h.008v-.01l1.176-1.233-1.187-1.244c.046.177.078.358.103.545Z" fill="#676A6A"/><path d="M129.431 46.116c0-.025.01-.042.01-.067.022-.17.029-.344.032-.521 0-.039.007-.078.007-.117 0-.039-.007-.074-.007-.11a4.824 4.824 0 0 0-.032-.531c0-.022-.007-.04-.01-.057a5.247 5.247 0 0 0-.103-.542c-.014-.06-.035-.114-.053-.174a3.464 3.464 0 0 0-.425-.921c-.025-.035-.046-.067-.071-.1a2.377 2.377 0 0 0-.146-.18 1.655 1.655 0 0 0-.233-.216c-.032-.025-.064-.039-.096-.06a1.456 1.456 0 0 0-.216-.117c-.032-.014-.064-.025-.096-.036a1.116 1.116 0 0 0-.322-.056c-.11 0-.216.025-.323.056-.032.011-.064.022-.095.036-.075.028-.146.07-.217.113-.031.021-.063.036-.095.06-.082.06-.16.135-.234.217a2.347 2.347 0 0 0-.216.283c-.174.259-.319.57-.425.921l-.015.043a4.523 4.523 0 0 0-.113.507 4.617 4.617 0 0 0-.074.769c0 .028-.004.056-.004.084h.007c0 1.715.812 3.104 1.811 3.104.173 0 .336-.046.496-.12.025-.014.049-.025.074-.04.064-.038.131-.077.192-.127.035-.028.067-.06.099-.092.081-.074.156-.16.227-.251.049-.068.099-.131.145-.206.028-.046.057-.096.081-.149a3 3 0 0 0 .188-.407 4.064 4.064 0 0 0 .245-.985l.007-.01Zm-1.694-1.12c-.376 0-.68-.52-.68-1.165s.304-1.163.68-1.163c.376 0 .68.521.68 1.163 0 .641-.304 1.165-.68 1.165Z" fill="#000"/><path d="M127.733 42.669c-.375 0-.68.52-.68 1.162 0 .641.305 1.165.68 1.165.376 0 .681-.52.681-1.165s-.305-1.163-.681-1.163Z" fill="#fff"/><path d="M126.068 43.994c.106-.351.252-.663.425-.922l.071-.102a2.64 2.64 0 0 1 .145-.181c.075-.081.153-.156.234-.216.032-.025.064-.04.096-.06a1.16 1.16 0 0 1 .216-.114 1.119 1.119 0 0 1 .418-.092c.11 0 .216.021.323.057a1.355 1.355 0 0 1 .311.152c.032.022.064.036.096.06.082.06.16.135.234.217.05.056.099.117.145.18.025.032.046.064.071.1.174.258.319.57.425.92l-1.601-7.337-1.602 7.338" fill="#909393"/><path d="M106.435 45.34c0-.149-.011-.294-.029-.436v-.007a4.83 4.83 0 0 0-.071-.418v-.01a4.98 4.98 0 0 0-.109-.4v-.008a4.422 4.422 0 0 0-.153-.383v-.007a4.266 4.266 0 0 0-.184-.365 4.234 4.234 0 0 0-2.08-1.828c-.004 0-.007 0-.011-.004a4.175 4.175 0 0 0-.758-.23h-.021a4.088 4.088 0 0 0-1.612-.003c-.011 0-.018 0-.029.003a4.047 4.047 0 0 0-.761.23c-.241.1-.472.22-.691.358-.22.142-.426.305-.613.482v.014h-.022c-.3.29-.563.624-.769.985 0 .004-.003.008-.007.015-.063.11-.12.226-.173.347-.007.014-.014.025-.018.039-.05.11-.089.223-.128.336-.007.022-.017.043-.024.068-.036.106-.06.216-.089.326-.007.032-.018.06-.025.092-.021.11-.039.22-.053.33-.003.035-.01.067-.014.099a4.168 4.168 0 0 0 .057 1.261v.018a4.255 4.255 0 0 0 .233.776c.206.496.5.942.865 1.321.287.301.62.56.985.766h.004c.113.067.23.124.35.177.011.003.018.01.029.014.11.05.227.089.34.131l.057.021c.106.036.216.06.326.089l.088.025c.106.021.216.039.33.053l.099.014a4.262 4.262 0 0 0 2.81-.698 4.278 4.278 0 0 0 1.534-1.864 4.205 4.205 0 0 0 .333-1.65v-.061l.004-.018Zm-4.238-.496a1.591 1.591 0 0 1-1.591-1.594 1.59 1.59 0 1 1 3.182 0c0 .878-.712 1.594-1.591 1.594Z" fill="#000"/><path d="M102.197 41.659a1.594 1.594 0 0 0 0 3.185c.879 0 1.591-.712 1.591-1.595 0-.882-.712-1.59-1.591-1.59Z" fill="#fff"/><path d="M99.28 42.328h.015v-.018l2.923-8.929V31.266a24.933 24.933 0 0 0-5.01-.517c-.57 0-1.138.024-1.7.064-.082.007-.164.01-.249.017-2.93.223-5.818.985-8.49 2.208a26.992 26.992 0 0 0-6.335 4.06c-.514.44-1.006.9-1.488 1.375-.089.089-.181.174-.27.266-.453.457-.889.928-1.314 1.414-.092.106-.18.212-.273.319-.425.503-.84 1.013-1.23 1.54a4.358 4.358 0 0 1-.095.136c-.376.51-.73 1.03-1.074 1.562-.067.103-.135.206-.202.312-.276.44-.535.893-.793 1.346h13.301l12.285-3.033" fill="#BBBCBD"/><path d="M110.509 41.326c.029-.348.05-.699.068-1.046a40.431 40.431 0 0 0 .053-2.52v-.318a58.496 58.496 0 0 0-.103-2.838h-.007v-.01l-.032-.018c-.01-.008-.021-.011-.042-.025l-.985-.564-.025-.014a18.148 18.148 0 0 1-.277-.156h-.003l-.191-.11-.039-.02a28.103 28.103 0 0 0-2.009-.953c-1.513-.639-3.551-1.199-4.699-1.471v2.115l2.895 8.943v.007a4.162 4.162 0 0 1 .95 1.34v.007c.056.124.106.251.148.383v.007c.047.13.085.262.114.4v.01c.032.139.053.277.071.419v.007a3.7 3.7 0 0 1 .028.436l.011.024h3.543c.241-1.296.407-2.611.514-3.93 0-.035.007-.07.01-.109" fill="#E3DDDB"/><path d="M115.144 38.161s-.003.008-.007.011l.007-.01Z" fill="#FCB03F"/><path d="M99.302 42.31a4.241 4.241 0 0 1 1.304-.836 4.383 4.383 0 0 1 .762-.23c.01 0 .017 0 .028-.004a4.086 4.086 0 0 1 1.612.004h.022a4.175 4.175 0 0 1 .768.234c.493.202.939.496 1.319.854v-.007l-2.899-8.944-2.92 8.93" fill="#909393"/><path d="M98.27 47.002c-.098-.244-.176-.5-.23-.765v-.018a4.168 4.168 0 0 1-.056-1.261c0-.036.01-.068.014-.1.014-.11.028-.223.053-.33.007-.031.018-.06.025-.091.025-.11.053-.22.089-.326.007-.021.017-.043.024-.068.04-.113.082-.226.128-.336.004-.014.01-.025.018-.04.053-.116.11-.233.173-.346 0-.004.007-.008.007-.015.21-.365.468-.694.77-.981L87 45.358h-.025l12.168 2.97a4.291 4.291 0 0 1-.865-1.322s0-.008-.004-.011" fill="#676A6A"/><path d="M125.912 44.699c.007-.053.018-.106.029-.16.031-.173.067-.343.113-.506a.295.295 0 0 1 .014-.057l1.602-7.338v-4.185c-1.311-1.08-2.711-1.672-4.174-1.672-1.846 0-3.565 1.02-4.851 2.278-1.407 1.379-2.495 3.111-3.373 4.858-.039.081-.082.16-.121.237.269.234.539.472.805.716.598.55 1.183 1.11 1.764 1.68.269.265.535.538.797.808.28.287.564.574.84.864.358.376.709.751 1.06 1.134.148.16.294.322.439.482.422.468.84.935 1.254 1.41.071.075.117.124.135.145h3.614c0-.028.007-.056.007-.085 0-.209.018-.41.046-.61ZM115.148 38.172v-.01l-.011.01.014.014c0-.007 0-.01-.007-.017" fill="#E3DDDB"/><path d="M71.515 49.982c.011-.028.022-.053.032-.082.234-.609.49-1.208.755-1.803.074-.167.152-.33.23-.496.22-.468.45-.928.691-1.386.1-.184.195-.372.294-.556.057-.103.12-.198.178-.301.255-.454.513-.907.793-1.347.067-.106.135-.205.202-.311.344-.532.702-1.056 1.074-1.563.032-.046.064-.092.096-.135a34.41 34.41 0 0 1 1.229-1.541c.092-.106.18-.216.273-.319a29.1 29.1 0 0 1 1.314-1.414l.27-.265a30.29 30.29 0 0 1 1.488-1.372c2.023-6.774 8.55-10.938 15.87-10.938 2.945 0 5.875.85 8.387 2.385 2.576 1.577 4.33 3.114 5.694 5.804l.022.039c.035.067.074.134.106.202v.007h.011a27.607 27.607 0 0 1 3.263 2.377c.344.29.684.592 1.017.897.11.099.223.195.329.297 0-.003.004-.007.008-.01v-.007c.042-.078.078-.153.116-.23 1.032-6.51 4.309-10.06 7.697-10.06 2.554 0 4.407 1.524 5.811 5.62l.014.042a15.418 15.418 0 0 1 1.176 1.456c.021.06.039.12.057.181l-.053-.212c-4.213-12.473-16.013-21.455-29.909-21.455-17.43 0-31.56 14.13-31.56 31.56 0 3.437.549 6.743 1.57 9.822a34.454 34.454 0 0 1 .723-2.782c.219-.712.46-1.417.725-2.115" fill="#525353"/><path d="m130.437 45.407-1.102 1.234v.007a5.624 5.624 0 0 1-.152.46c-.014.04-.032.075-.046.114a3.552 3.552 0 0 1-.142.294c-.028.05-.053.099-.082.149-.046.074-.095.138-.145.205a2.247 2.247 0 0 1-.227.252 1.263 1.263 0 0 1-.29.22c-.025.014-.05.028-.075.038a1.11 1.11 0 0 1-.496.12c-.999 0-1.81-1.388-1.81-3.103h-3.632a112.978 112.978 0 0 1 2.016 2.399c.634.776 1.261 1.559 1.881 2.349l.093.117c.588.751 1.169 1.502 1.746 2.26.057.075.114.146.167.22.609.8 1.212 1.605 1.811 2.41.003.007.007.01.014.017a31.465 31.465 0 0 0 1.654-9.769l-1.02-.038-.159.05" fill="#fff"/><path d="M95.263 30.83c.081-.007.163-.01.248-.017.563-.04 1.13-.064 1.7-.064 1.712 0 3.384.184 5.011.517 1.148.27 3.185.83 4.698 1.47.634.27 1.258.56 1.871.88l.138.074.039.021c.057.032.117.067.191.106h.004l.276.16.025.014c.39.22.819.468.985.563.022.011.032.018.043.025.007.004.028.014.028.018l-.106-.202-.021-.039c-1.365-2.69-3.462-5-6.038-6.573-2.512-1.534-5.443-2.385-8.387-2.385-7.32 0-13.504 4.93-15.527 11.704a27.221 27.221 0 0 1 6.335-4.06 25.129 25.129 0 0 1 8.49-2.208" fill="#000"/><path d="m129.962 34.987-.021-.029a16.055 16.055 0 0 0-1.155-1.424l-.011-.01c-.18-.196-.361-.38-.545-.557-.071-.067-.142-.124-.213-.188-.117-.106-.23-.213-.347-.312v4.189l1.601 7.338c.018.056.039.11.053.17l1.11 1.243.01-.01h1.162c0-.106.007-.213.007-.323 0-3.465-.57-6.789-1.598-9.907a3.099 3.099 0 0 0-.056-.18" fill="#BBBCBD"/><path d="M118.645 33.059c1.286-1.258 3.008-2.278 4.851-2.278 1.46 0 2.863.591 4.17 1.672v.014c.117.096.234.206.347.312.071.064.142.12.213.188.184.177.365.361.546.556 0 .004.007.007.01.01l-.014-.049c-1.403-4.096-3.664-6.76-6.215-6.76-3.387 0-6.257 4.69-7.292 11.2l.011-.01c.878-1.748 1.966-3.48 3.373-4.858M114.07 73.067s-.457-.362-1.034-1.028a9.985 9.985 0 0 1-.751-.97c-.075-.107-.146-.22-.22-.334-.22-.347-.393-.769-.585-1.183-.223-.482-.223-.805-.351-1.255a8.792 8.792 0 0 1-.329-2.668c.011-.322.042-.652.092-.992a9.72 9.72 0 0 1 .195-1c.255-1.02.698-2.108 1.385-3.255 0 0 .174-.39.174-.394.223-.375.276-.358.489-.72 3.012-5.08 4.635-8.921 3.841-14.839a47.715 47.715 0 0 0-.298-1.814c-.046.309-.216 1.287-.219 1.308-.029.134-.114.28-.142.372-1.308 3.87-3.366 6.718-6.328 9.932a90.08 90.08 0 0 1-1.251 1.325c-.723.751-1.485 1.517-2.286 2.317-.319.32-.648.642-.981.971-.305.301-.684.95-1.138 1.425-.28.783-.598 1.669-.868 2.597-.12-.046-.237-.089-.361-.135-5.754-2.225-9.606-5.198-9.606-5.198s2.966 3.859 7.958 7.484c.482.35.96.655 1.428.924-.205 3.26 1.233 6.392 7.728 7.324 1.099.16 2.222.15 3.356.022-.011-.036.063-.032.056-.053-.007-.018.061-.068.061-.068" fill="#000"/><path d="M110.594 64.672c5.765.932 14.298.776 23.156-3.37.213-.099.45.164.663.057 0 0-6.052 6.184-13.284 9.677-.213.103-.418.21-.635.308-.698.32-1.41.6-2.122.854-1.4.504-2.817.886-4.224 1.06-.063.007-.131.021-.194.028-.011-.035-.022-.06-.025-.081l-.011-.029s-.457-.361-1.035-1.027a10.547 10.547 0 0 1-.97-1.304 9.823 9.823 0 0 1-.624-1.145 9.47 9.47 0 0 1-.503-1.35 8.764 8.764 0 0 1-.33-2.668c.011-.322.043-.652.092-.992l.05-.021" fill="#9F2254"/><path d="M106.463 58.11c.804-.8 1.563-1.566 2.289-2.317.429-.447.85-.89 1.251-1.325 2.962-3.214 5.138-6.222 6.445-10.095.032-.092.06-.213.092-.347.004-.022.011-.043.014-.064.032-.145.061-.305.089-.486.011-.124.404-.375.414-.492-.329-1.687-1.084-3.458-1.909-4.812 0 .007.003.01.007.018l-.014-.014c-.11-.103-.22-.199-.33-.298a29.703 29.703 0 0 0-1.017-.896 27.159 27.159 0 0 0-3.263-2.37c.056.945.095 1.891.102 2.837v.32c0 .364 0 .733-.003 1.101-.011.471-.025.946-.05 1.418a33.31 33.31 0 0 1-.067 1.045c0 .035-.007.07-.011.11a38.341 38.341 0 0 1-.513 3.93l-.415 1.97c-.868 3.525-2.636 6.72-4.089 10.023a38.408 38.408 0 0 0-1.162 2.916c.453-.474.854-.889 1.158-1.19l.982-.971" fill="#FCB03F"/><path d="M87.414 77.067c2.112-.935 4.068-1.52 6.392-1.98a26.653 26.653 0 0 0-.078-1.507c.996-2.583 1.914-5.18 2.746-7.791a40.224 40.224 0 0 0-4.407.68 39.582 39.582 0 0 0-5.708 1.694l3.28.793L87 77.24l.419-.173" fill="#525353"/><path d="M127.971 52.515c-.578-.758-1.159-1.51-1.747-2.26-.032-.04-.06-.078-.092-.117a146.28 146.28 0 0 0-1.882-2.35c-.007-.01-.014-.017-.024-.028a126.751 126.751 0 0 0-1.992-2.367l-.127-.148a91.829 91.829 0 0 0-1.255-1.41c-.145-.164-.294-.323-.439-.483a87.564 87.564 0 0 0-1.059-1.133c-.277-.291-.56-.578-.84-.865-.266-.27-.528-.542-.797-.808a52.922 52.922 0 0 0-2.569-2.395v.007c.567 1.64 1.215 3.299 1.541 5.006.085.447.156.88.213 1.3.793 5.918-1.102 9.78-4.111 14.862-.216.364-.435.733-.662 1.112-.688 1.148-1.131 2.236-1.386 3.256a9.99 9.99 0 0 0-.195 1c5.904.953 14.783 1.13 23.865-3.335 0 0-1.783-2.618-4.461-6.218a393.364 393.364 0 0 0-1.811-2.41c-.057-.074-.113-.145-.167-.22" fill="#DF0067"/><path d="m86.68 78.722 2.952-9.766-3.28-.793c-.734.276-1.464.57-2.184.889l-2.923 9.67 3.264.05 2.168-.05" fill="#AA9678"/><path d="M88.757 74.498c.287.11.581.21.875.312a31.448 31.448 0 0 0 10.428 1.775c4.167 0 8.146-.815 11.789-2.285.191-.078.383-.163.57-.245.309-.13.617-.266.922-.407.272-.128.545-.252.811-.386-.064.007-.131.02-.195.028-1.134.127-2.257.134-3.355-.021-6.495-.936-7.934-4.065-7.728-7.324-.468-.27-.943-.574-1.428-.925-4.996-3.625-7.959-7.484-7.959-7.484s3.852 2.973 9.606 5.198l.362.135c.269-.928.588-1.814.868-2.597.032-.085.06-.174.092-.255.319-.9.684-1.786 1.07-2.661 1.453-3.303 3.217-6.499 4.089-10.024l.415-1.97h-3.551v.035a4.26 4.26 0 0 1-.723 2.37 4.276 4.276 0 0 1-1.863 1.535 4.207 4.207 0 0 1-2.091.308c-.035 0-.067-.01-.099-.014-.11-.014-.223-.029-.33-.053-.032-.008-.06-.018-.088-.025a3.347 3.347 0 0 1-.326-.089c-.022-.007-.039-.014-.057-.021a3.57 3.57 0 0 1-.34-.131c-.011-.004-.021-.01-.028-.014a3.893 3.893 0 0 1-.351-.174h-.004a4.342 4.342 0 0 1-.985-.769l-12.168-2.97h-13.29c-.057.104-.121.2-.178.302-.102.184-.198.372-.294.556a33.71 33.71 0 0 0-.921 1.882c-.27.595-.52 1.194-.755 1.803-.01.029-.021.054-.032.082a32.987 32.987 0 0 0-1.446 4.88 31.638 31.638 0 0 0 11.474 15.714c.156.113.319.212.475.322.9.627 1.828 1.215 2.792 1.75a31.055 31.055 0 0 0 3.947 1.846" fill="#fff"/><path d="M120.594 82.045a26.068 26.068 0 0 1-.131-2.54.934.934 0 0 0-.932-.932H80.469a.933.933 0 0 0-.932.932 26.286 26.286 0 0 1-.552 5.286c.567.302 1.137.592 1.718.868a27.67 27.67 0 0 0 .68-5.159c0-.02 0-.039.004-.06h37.23v.06c.063 1.758.297 3.483.68 5.16a43.283 43.283 0 0 0 1.718-.869c-.187-.9-.329-1.817-.421-2.746Z" fill="#8B7460"/></svg>
