<svg width="200" height="90" viewBox="0 0 200 90" fill="none" xmlns="http://www.w3.org/2000/svg">
<path d="M78.6877 61.2453C74.8769 63.2408 55.1171 71.3666 50.8596 73.5998C46.6022 75.8329 44.3186 75.7681 40.9905 74.1761C37.6624 72.584 16.6995 64.062 12.9031 62.2395C10.9797 61.3462 10 60.5754 10 59.8622V52.6297C10 52.6297 37.3814 46.6866 41.7973 45.0873C46.2132 43.4881 47.7476 43.4449 51.5008 44.8208C55.2539 46.1967 77.7656 50.2596 81.4828 51.6067V58.7384C81.4828 59.4804 80.6255 60.2008 78.6805 61.2453H78.6877Z" fill="#A32422"/>
<path d="M78.6877 54.0488C74.8769 56.0298 55.1171 64.1629 50.8596 66.3528C46.6022 68.5427 44.3186 68.5283 40.9905 66.9363C37.6624 65.3515 16.6995 56.8222 12.9031 55.0213C9.10674 53.2204 9.0347 51.9597 12.759 50.5046C16.4834 49.0494 37.3958 40.8587 41.8189 39.2523C46.242 37.6459 47.7692 37.6098 51.5224 38.9858C55.2755 40.3617 74.9562 48.1849 78.6589 49.5465C82.3544 50.908 82.5273 52.0245 78.7021 54.0056V54.0416L78.6877 54.0488Z" fill="#DC382C"/>
<path d="M78.6877 49.4672C74.8769 51.4555 55.1171 59.5813 50.8596 61.7712C46.6022 63.9612 44.3403 63.9467 41.0121 62.3475C37.684 60.7483 16.6995 52.2767 12.9031 50.4613C10.9797 49.5537 10 48.7973 10 48.0697V40.8659C10 40.8659 37.3814 34.9012 41.7973 33.302C46.2132 31.7028 47.7476 31.6596 51.5008 33.0499C55.2539 34.4402 77.7656 38.4671 81.4828 39.8286V46.9603C81.4828 47.7023 80.6255 48.4443 78.6805 49.4672H78.6877Z" fill="#A32422"/>
<path d="M78.6877 42.2347C74.8769 44.2301 55.1171 52.3487 50.8596 54.5459C46.6022 56.7358 44.3186 56.7214 40.9905 55.1294C37.6624 53.5373 16.6995 45.0441 12.9031 43.2288C9.10674 41.4134 9.0347 40.1744 12.759 38.7192C16.4834 37.2641 37.3958 29.059 41.8189 27.4886C46.2348 25.9182 47.7692 25.8245 51.5224 27.186C55.2755 28.5475 74.9562 36.4356 78.6589 37.7539C82.3544 39.0794 82.5273 40.2392 78.7021 42.213V42.2275L78.6877 42.2347Z" fill="#DC382C"/>
<path d="M78.6877 37.2497C74.8769 39.2451 55.1171 47.3709 50.8596 49.5609C46.6022 51.7508 44.3403 51.7364 41.0121 50.1444C37.684 48.5523 16.6923 40.0519 12.8959 38.2438C10.9797 37.3433 10 36.5797 10 35.8593V28.6268C10 28.6268 37.3886 22.6837 41.8045 21.0845C46.2204 19.4852 47.7548 19.442 51.508 20.8179C55.2611 22.1938 77.7656 26.2568 81.4756 27.6111V34.7428C81.4828 35.492 80.6327 36.2267 78.6805 37.2497H78.6877Z" fill="#A32422"/>
<path d="M78.6877 30.0243C74.8769 31.9765 55.1171 40.1528 50.8596 42.3283C46.6022 44.5038 44.3186 44.4966 40.9905 42.9118C37.6624 41.327 16.6995 32.8194 12.9031 31.0112C9.10674 29.2031 9.0347 27.9496 12.759 26.4945C16.4762 25.0465 37.3886 16.8415 41.8045 15.2494C46.2204 13.6574 47.7548 13.607 51.508 14.9829C55.2611 16.3588 74.9418 24.1893 78.6445 25.5436C82.34 26.8979 82.5129 28.0289 78.6877 30.0099V30.0243Z" fill="#DC382C"/>
<path d="M46.8687 19.759L51.5872 18.2102L50.3049 21.2646L55.1026 23.0583L48.9146 23.6994L47.5243 27.042L45.2911 23.3176L38.1378 22.6765L43.4829 20.7531L41.8765 17.7924L46.8687 19.7518V19.759ZM47.1641 39.2523L35.6021 34.4546L52.1635 31.9117L47.1641 39.2523Z" fill="white"/>
<path d="M31.1358 24.9169C36.0199 24.9169 39.9892 26.4585 39.9892 28.3314C39.9892 30.2044 36.0127 31.746 31.1358 31.746C26.2588 31.746 22.2751 30.2044 22.2751 28.3314C22.2751 26.4585 26.2444 24.9169 31.1358 24.9169Z" fill="white"/>
<path d="M62.436 23.9731L72.2331 27.8416L62.4432 31.71V23.9731H62.436Z" fill="#741113"/>
<path d="M62.436 23.9731V31.7172L61.3843 32.135L51.5872 28.2666L62.436 23.9803V23.9731Z" fill="#AC2724"/>
<path d="M104.239 34.2241C105.082 33.302 106.127 32.5816 107.279 32.1062C108.41 31.6235 109.613 31.357 110.845 31.321C111.731 31.2417 112.61 31.5227 113.287 32.1062C113.784 32.5888 114.058 33.2588 114.029 33.9575C114.029 34.6491 113.77 35.3118 113.287 35.8089C112.819 36.3348 112.142 36.6229 111.436 36.6013C108.389 36.8679 104.16 39.9078 104.16 44.0356V53.4005C104.117 54.8412 102.957 56.001 101.516 56.0442C100.796 56.073 100.105 55.7705 99.6291 55.2302C99.132 54.7403 98.8439 54.0776 98.8367 53.3788V33.8423C98.8367 33.1435 99.1248 32.4808 99.6291 31.9909C100.205 31.5731 100.904 31.3426 101.617 31.3282C103.065 31.357 104.225 32.5168 104.261 33.9647L104.247 34.2241H104.239ZM136.325 42.8182C136.325 43.4593 136.094 44.0716 135.662 44.5471C135.158 45.0153 134.502 45.2962 133.811 45.3395H118.186C118.33 46.5785 118.935 47.7239 119.879 48.5451C121.089 49.8418 122.739 50.6414 124.511 50.7783C126.319 51.0881 128.178 50.6558 129.669 49.5897C130.195 49.0638 130.915 48.7756 131.657 48.7973C132.298 48.7684 132.918 49.0062 133.371 49.46C134.25 50.2668 134.308 51.6283 133.501 52.5C133.465 52.5504 133.415 52.5864 133.371 52.6297C131.045 54.7836 127.954 55.929 124.785 55.8065C121.521 55.8785 118.395 54.5242 116.205 52.1038C113.965 49.7409 112.697 46.6217 112.639 43.3656C112.574 40.0879 113.864 36.9255 116.205 34.6347C118.344 32.3079 121.377 31.004 124.532 31.0688C127.608 30.9536 130.584 32.1566 132.709 34.3826C134.949 36.5293 136.282 39.454 136.426 42.5588V42.8182L136.325 42.8398V42.8182ZM124.561 35.8089C122.919 35.8377 121.341 36.45 120.102 37.5306C119.05 38.4167 118.308 39.6125 117.991 40.9452H131.873C131.484 39.6053 130.641 38.4383 129.489 37.6459C128.098 36.5221 126.391 35.8737 124.604 35.7873L124.561 35.8089ZM161.207 53.1267C161.171 54.5675 160.011 55.7345 158.563 55.7705C157.309 55.7201 156.236 54.8628 155.919 53.6526C153.953 55.0645 151.583 55.8065 149.169 55.7705C145.978 55.8065 142.909 54.517 140.705 52.2046C138.4 49.8994 137.153 46.737 137.261 43.4737C137.24 40.232 138.472 37.1056 140.705 34.75C142.895 32.3943 145.956 31.0544 149.169 31.0328C151.546 31.004 153.866 31.746 155.775 33.1507V23.9155C155.753 23.2096 156.049 22.5324 156.567 22.0642C157.057 21.5599 157.734 21.2717 158.44 21.2717C159.146 21.2501 159.824 21.5455 160.292 22.0642C160.796 22.5468 161.077 23.2168 161.084 23.9155V53.1339H161.199L161.207 53.1267ZM149.321 50.4829C151.1 50.519 152.807 49.7409 153.945 48.3722C156.575 45.6492 156.575 41.3342 153.945 38.604C152.771 37.2785 151.093 36.5005 149.321 36.4644C147.527 36.3996 145.812 37.1848 144.689 38.5823C142.059 41.3054 142.059 45.6204 144.689 48.3506C145.848 49.6977 147.541 50.4613 149.321 50.4613V50.4829ZM169.03 23.9083V24.9745C169.052 25.7309 168.756 26.4584 168.216 26.9843C167.733 27.4742 167.049 27.7191 166.365 27.6471C165.666 27.6687 164.989 27.3805 164.52 26.8619C163.987 26.3432 163.699 25.6228 163.728 24.8808V23.9011C163.728 23.2024 164.016 22.5324 164.52 22.0498C165.003 21.5455 165.666 21.2645 166.365 21.2573C167.071 21.2429 167.741 21.5383 168.216 22.0642C168.749 22.5324 169.044 23.2096 169.03 23.9155V23.9083ZM164.571 31.9837C165.054 31.4795 165.723 31.1913 166.422 31.1913C167.128 31.1697 167.805 31.4578 168.274 31.9837C168.778 32.5024 169.052 33.2084 169.03 33.9359V53.278C169.073 53.9912 168.771 54.6755 168.216 55.1294C167.733 55.6336 167.071 55.9146 166.372 55.9218C165.666 55.9434 164.989 55.648 164.52 55.1294C164.016 54.6467 163.728 53.9768 163.728 53.278V33.9575C163.706 33.2228 163.995 32.5168 164.52 32.0053L164.571 31.9837ZM187.789 33.8351C188.329 34.2097 188.711 34.7716 188.847 35.4199C188.956 36.0899 188.862 36.7814 188.581 37.4009C188.199 37.9412 187.637 38.3158 186.996 38.4527C186.305 38.5823 185.599 38.4383 185.008 38.0565C183.157 36.8679 181.709 36.2123 180.513 36.2123C179.454 36.1475 178.409 36.4717 177.581 37.1272C177.055 37.5306 176.788 37.7899 176.788 38.0565C176.752 38.287 176.796 38.5247 176.918 38.7192C177.069 38.8849 177.249 39.0146 177.444 39.1154C178.525 39.7926 179.749 40.2032 181.017 40.304C182.659 40.5778 184.259 41.0676 185.771 41.7664C187.104 42.3211 188.221 43.3008 188.948 44.5471C190.922 47.5942 190.05 51.6644 187.011 53.6382L186.967 53.667C185.116 54.9925 182.89 55.684 180.621 55.648C177.581 55.648 174.671 54.4594 171.897 52.2334C171.393 51.7868 171.061 51.1745 170.968 50.5118C170.838 49.1142 171.868 47.8824 173.266 47.7527C173.914 47.6951 174.562 47.8824 175.074 48.2858C176.536 49.6761 178.481 50.4325 180.491 50.3965C181.665 50.4397 182.818 50.1155 183.798 49.4672C184.324 48.9413 184.727 48.5451 184.727 48.1417C184.727 47.7383 184.727 47.6158 184.597 47.479C184.597 47.3421 184.331 47.0828 183.935 46.9531C182.724 46.2039 181.37 45.7285 179.965 45.5556C178.395 45.3323 176.875 44.8352 175.47 44.0932C174.188 43.4665 173.093 42.5084 172.293 41.327C171.775 40.3977 171.501 39.3531 171.508 38.287C171.508 36.1043 172.596 34.0656 174.411 32.8626C176.205 31.6451 178.323 30.9968 180.491 31.0112C182.717 31.1481 185.123 32.063 187.76 33.7919" fill="#494C4D"/>
</svg>
