<svg width="200" height="90" viewBox="0 0 200 90" fill="none" xmlns="http://www.w3.org/2000/svg">
<path opacity="0.7" d="M144.339 39.6071V62.0367H136.963V43.4321L144.332 39.6071H144.339ZM45.6836 62.5992L62.9102 53.5922L60.7867 48.0938L49.4453 53.3813L45.6836 62.5992Z" fill="#F03E2F"/>
<path opacity="0.5" d="M136.97 43.418L155.659 33.8555L152.502 28.5117L136.97 36.0984V43.4109V43.418Z" fill="#F03E2F"/>
<path opacity="0.7" d="M84.3344 37.8281V62.0297H77.3031V27.5625L84.3344 37.8281Z" fill="#F03E2F"/>
<path opacity="0.5" d="M56.336 36.4922L45.6836 62.5992L40.2063 57.8812L52.8977 27.5625L56.336 36.4922Z" fill="#F03E2F"/>
<path d="M52.8977 27.5625H60.161L73.5907 62.0297H66.1586L52.8977 27.5625ZM85.4172 27.5625L100.9 51.1102V62.0297L77.3032 27.5625H85.4243H85.4172ZM121.473 27.5625H114.154V62.0438H121.473V27.5625ZM136.963 33.8484H125.699V27.5625H151.933L155.652 33.8484H136.963Z" fill="#F03E2F"/>
<path opacity="0.5" d="M177.259 48.9515V62.0297H169.996V48.9515" fill="#F03E2F"/>
<path d="M169.996 48.9516L182.287 27.5625H190L177.259 48.9516H169.996Z" fill="#F03E2F"/>
<path opacity="0.7" d="M169.996 48.9516L157.368 27.5625H165.313L173.87 42.2227L169.996 48.9516Z" fill="#F03E2F"/>
<path d="M12.946 31.5422C12.946 36.3445 15.9624 39.1992 22.0023 40.7039L28.4007 42.1594C34.1171 43.4531 37.5976 46.6523 37.5976 51.8766C37.6398 54.1547 36.8874 56.3836 35.4671 58.1625C35.4671 52.9523 32.7249 50.1398 26.1085 48.4453L19.8226 47.0391C14.8023 45.9211 10.914 43.2844 10.914 37.6172C10.8859 35.4305 11.6031 33.293 12.946 31.5492" fill="#F03E2F"/>
<path opacity="0.7" d="M100.9 49.3453V27.5625H107.931V62.0367H100.9V49.3453ZM31.5367 50.5969C34.2648 52.3125 35.4672 54.7102 35.4672 58.1555C33.2102 61.0031 29.2375 62.5992 24.5758 62.5992C16.7219 62.5992 11.2234 58.8023 10 52.2H17.5445C18.5148 55.2305 21.0883 56.6367 24.5195 56.6367C28.7102 56.6367 31.4945 54.443 31.5508 50.5898L31.5367 50.5969ZM16.8695 38.6578C15.625 37.9336 14.6055 36.8859 13.9094 35.6273C13.2203 34.3758 12.8898 32.9625 12.9461 31.5352C15.1328 28.7227 18.9227 27 23.5492 27C31.5508 27 36.1773 31.1555 37.3234 36.9984H30.0672C29.2656 34.6922 27.2617 32.8992 23.6125 32.8992C19.7102 32.8992 17.0453 35.1281 16.8977 38.6578" fill="#F03E2F"/>
</svg>
