<svg width="200" height="90" viewBox="0 0 200 90" fill="none" xmlns="http://www.w3.org/2000/svg">
<path d="M10 90H101.819L191.862 0H10V90Z" fill="#014185"/>
<path fill-rule="evenodd" clip-rule="evenodd" d="M117.837 16.9133H100.044V59.4836L84.3816 16.9133H69.0761L55.5528 52.5147C54.127 43.5452 44.8738 40.4463 37.4029 38.1257C32.7764 36.569 27.4369 34.2775 27.7933 31.7678C27.7933 29.6873 30.2812 27.7814 35.6207 28.0651C39.1779 28.247 42.386 28.5452 48.7875 31.5932L55.1963 20.747C49.144 17.8153 41.3166 15.9603 34.9078 15.9531C27.0804 15.9531 20.6716 18.4191 16.7579 22.5001C14.2701 25.3372 12.4878 28.9453 12.4878 32.939C12.4878 38.4385 14.6265 42.3376 18.5402 45.4438C22.4539 48.0627 26.724 49.7649 30.9941 51.0161C35.9771 52.5583 39.8908 53.8895 39.8908 56.7557C39.8908 57.8105 39.5344 58.7707 38.8215 59.5491C37.3957 60.8294 35.6207 61.3095 32.7691 61.3677C27.7861 61.4623 24.2288 60.6694 18.1765 57.134L12.4805 68.1112C18.5329 71.5156 25.6474 73.5161 32.7691 73.5161H33.8384C39.8908 73.3924 45.2303 71.5956 49.144 68.3294C49.5004 68.1403 49.5004 67.9584 49.8569 67.7838L48.0746 72.5631H64.4422L66.9301 64.2775C69.7744 65.2305 72.9825 65.7833 76.5397 65.7833C80.0969 65.7833 82.9485 65.245 85.7928 64.343L88.6372 72.5631H114.971V55.3735H121.023C134.903 55.3735 143.087 48.2518 143.087 36.3071C143.087 23.0093 135.259 16.906 117.815 16.906L117.837 16.9133ZM76.5542 53.3585C74.4155 53.3585 72.6406 52.9875 70.8583 52.3401L76.5542 34.4303L82.2502 52.3983C80.4679 53.0093 78.6929 53.3585 76.5542 53.3585ZM118.906 43.0578H114.993V28.618H118.906C124.246 28.618 128.516 30.3638 128.516 35.7615C128.516 41.1592 124.246 43.0505 118.906 43.0505" fill="white"/>
</svg>
