<svg width="200" height="90" viewBox="0 0 200 90" fill="none" xmlns="http://www.w3.org/2000/svg">
<path d="M138.324 45.4293V25.1661H133.048V50.0434H149.525V45.4293H138.324Z" fill="#313130"/>
<path d="M19.5455 50.7848C14.2691 50.7848 10.3677 48.0998 9 44.587L13.4413 42.19C14.4203 44.4863 16.7309 46.3794 19.6966 46.3794C22.8783 46.3794 24.2099 44.8102 24.2099 43.4137C24.2099 38.922 9.89259 40.8511 9.89259 31.9397C9.89259 27.2752 14.0244 24.4247 19.0416 24.4247C23.4541 24.4247 26.8229 26.5914 28.6225 30.1041L24.3467 32.4076C23.3821 30.536 21.7265 28.8372 19.0344 28.8372C16.8101 28.8372 15.1761 30.1329 15.1761 31.5654C15.1761 36.273 29.4935 34.2431 29.4935 43.2194C29.4935 47.9126 25.2465 50.7776 19.5383 50.7776" fill="#313130"/>
<path d="M51.8225 46.2211C54.09 46.2211 56.1343 45.1701 57.574 43.5073L61.0579 47.0848C58.6609 49.3739 55.4073 50.7848 51.8153 50.7848C44.1492 50.7848 38.4841 44.8246 38.4841 37.6047C38.4841 30.3849 44.1492 24.4247 51.8225 24.4247C55.2993 24.4247 58.4665 25.7564 60.842 27.923L57.4228 31.5942C55.9903 30.0321 54.0108 29.0532 51.8225 29.0532C47.3308 29.0532 43.8972 32.9906 43.8972 37.6407C43.8972 42.2908 47.3308 46.2282 51.8225 46.2282" fill="#313130"/>
<path d="M123.899 25.1661L114.649 44.4143V50.0434H108.934V44.4143L99.6838 25.1661H105.838L111.928 38.4541L118.018 25.1661H123.899Z" fill="#00E48C"/>
<path d="M181.751 27.5559C181.751 25.5908 183.371 24 185.379 24C187.388 24 189.007 25.5908 189.007 27.5559C189.007 29.5211 187.388 31.1119 185.379 31.1119C183.378 31.1119 181.751 29.5211 181.751 27.5559ZM185.602 26.5482L186.711 25.4397C186.329 25.1877 185.869 25.0437 185.379 25.0437C184.019 25.0437 182.917 26.1667 182.917 27.5559C182.917 28.9452 184.019 30.0681 185.379 30.0681C186.74 30.0681 187.841 28.9452 187.841 27.5559C187.841 27.0737 187.712 26.6274 187.481 26.2387L186.387 27.3328L185.602 26.5482Z" fill="#313130"/>
<path d="M83.5021 45.674V41.1751H86.2231L81.8177 31.5582L77.4052 41.1751H80.1261V45.674H75.3393L73.3382 50.0434H67.5076L79.4639 25.1661H84.4451L96.4014 50.0434H90.2901L88.289 45.674H83.5021Z" fill="#00E48C"/>
<path d="M163.295 45.4725V39.6347H174.308V35.1285H163.295V29.737H175.309V25.1661H158.069V50.0434H175.597V45.4725H163.295Z" fill="#313130"/>
<path d="M35.8064 59.9841L34.2515 62.4243L32.7039 59.9841H31.5666L33.7549 63.3169V65.4908H34.7266V63.2953L36.9149 59.9841H35.8064Z" fill="#00E48C"/>
<path d="M146.926 59.9841V65.4908H151.051V64.627H147.898V63.1442H150.662V62.2804H147.898V60.8479H151.015V59.9841H146.926Z" fill="#00E48C"/>
<path d="M143.888 59.9841V63.792L140.937 59.9841H140.037V65.4908H140.988V61.5749L144.025 65.4908H144.839V59.9841H143.888Z" fill="#00E48C"/>
<path d="M137.935 59.9841H136.971V65.4908H137.935V59.9841Z" fill="#00E48C"/>
<path d="M135.027 64.7278V62.4172H132.681V63.2594H134.092V64.2887C133.753 64.5406 133.278 64.7062 132.76 64.7062C131.637 64.7062 130.888 63.8712 130.888 62.7339C130.888 61.6613 131.659 60.7831 132.674 60.7831C133.372 60.7831 133.789 61.0135 134.214 61.3734L134.826 60.6392C134.257 60.1569 133.667 59.8906 132.71 59.8906C131.047 59.8906 129.866 61.1935 129.866 62.7483C129.866 64.3031 130.996 65.5916 132.724 65.5916C133.703 65.5916 134.48 65.1957 135.02 64.735" fill="#00E48C"/>
<path d="M127.095 59.9841V63.792L124.144 59.9841H123.244V65.4908H124.194V61.5749L127.239 65.4908H128.045V59.9841H127.095Z" fill="#00E48C"/>
<path d="M117.291 59.9841V65.4908H121.408V64.627H118.255V63.1442H121.02V62.2804H118.255V60.8479H121.372V59.9841H117.291Z" fill="#00E48C"/>
<path d="M108.343 59.9841V65.4908H112.468V64.627H109.315V63.1442H112.072V62.2804H109.315V60.8479H112.425V59.9841H108.343Z" fill="#00E48C"/>
<path d="M106.753 64.6126L106.133 63.9864C105.658 64.4255 105.227 64.7062 104.55 64.7062C103.492 64.7062 102.729 63.828 102.729 62.7411C102.729 61.6541 103.492 60.7904 104.55 60.7904C105.176 60.7904 105.651 61.0639 106.09 61.4742L106.709 60.7616C106.184 60.2577 105.565 59.905 104.55 59.905C102.88 59.905 101.707 61.1863 101.707 62.7627C101.707 64.3391 102.901 65.606 104.507 65.606C105.536 65.606 106.169 65.2245 106.745 64.627" fill="#00E48C"/>
<path d="M89.743 59.9841V65.4908H93.8677V64.627H90.7076V63.1442H93.4717V62.2804H90.7076V60.8479H93.8245V59.9841H89.743Z" fill="#00E48C"/>
<path d="M86.619 59.9841L84.9418 62.5899L83.2646 59.9841H82.2352V65.4908H83.1854V61.5606L84.913 64.1375H84.9418L86.6766 61.539V65.4908H87.6483V59.9841H86.619Z" fill="#00E48C"/>
<path d="M100.375 65.4908L98.8848 63.4033C99.655 63.1874 100.202 62.6403 100.202 61.7261C100.202 60.6464 99.4247 59.9769 98.1578 59.9769H95.7032V65.4836H96.6678V63.5617H97.8771L99.2303 65.4836H100.375V65.4908ZM99.2159 61.7837C99.2159 62.3524 98.7769 62.7123 98.0858 62.7123H96.6678V60.8623H98.0786C98.7984 60.8623 99.2231 61.179 99.2231 61.7837" fill="#00E48C"/>
<path d="M79.1112 59.9841L77.434 62.5899L75.7568 59.9841H74.7274V65.4908H75.6776V61.5606L77.4052 64.1375H77.434L79.1759 61.539V65.4908H80.1405V59.9841H79.1112Z" fill="#00E48C"/>
<path d="M65.9023 64.6126L65.2833 63.9864C64.8082 64.4255 64.3763 64.7062 63.6997 64.7062C62.6415 64.7062 61.8857 63.828 61.8857 62.7411C61.8857 61.6541 62.6487 60.7904 63.6997 60.7904C64.3331 60.7904 64.801 61.0639 65.2401 61.4742L65.8592 60.7616C65.3337 60.2577 64.7146 59.905 63.6997 59.905C62.0297 59.905 60.8564 61.1863 60.8564 62.7627C60.8564 64.3391 62.0513 65.606 63.6565 65.606C64.6858 65.606 65.3193 65.2245 65.8951 64.627" fill="#00E48C"/>
<path d="M49.8358 59.9841H48.8712V63.1586C48.8712 64.1735 48.3458 64.6918 47.4892 64.6918C46.6326 64.6918 46.0999 64.1375 46.0999 63.1154V59.9841H45.1353V63.1586C45.1353 64.7566 46.0495 65.5844 47.482 65.5844C48.9144 65.5844 49.8502 64.7566 49.8502 63.1154V59.9913L49.8358 59.9841Z" fill="#00E48C"/>
<path d="M72.9063 62.7267C72.9063 61.1719 71.7257 59.8834 70.0342 59.8834C68.3426 59.8834 67.1476 61.1791 67.1476 62.7411C67.1476 64.3031 68.3282 65.5844 70.0198 65.5844C71.7113 65.5844 72.9063 64.2887 72.9063 62.7267ZM71.8913 62.7411C71.8913 63.8208 71.1283 64.6918 70.0342 64.6918C68.94 64.6918 68.1626 63.7992 68.1626 62.7267C68.1626 61.6541 68.9256 60.7759 70.0198 60.7759C71.1139 60.7759 71.8913 61.6685 71.8913 62.7411Z" fill="#00E48C"/>
<path d="M56.4726 65.4908L54.9826 63.4033C55.7528 63.1874 56.2999 62.6403 56.2999 61.7261C56.2999 60.6464 55.5224 59.9769 54.2555 59.9769H51.8009V65.4836H52.7655V63.5617H53.9748L55.3281 65.4836H56.4726V65.4908ZM55.3137 61.7837C55.3137 62.3524 54.8746 62.7123 54.1836 62.7123H52.7655V60.8623H54.1764C54.8962 60.8623 55.3209 61.179 55.3209 61.7837" fill="#00E48C"/>
<path d="M43.3862 62.7267C43.3862 61.1719 42.2056 59.8834 40.514 59.8834C38.8224 59.8834 37.6275 61.1791 37.6275 62.7411C37.6275 64.3031 38.808 65.5844 40.4996 65.5844C42.1912 65.5844 43.3862 64.2887 43.3862 62.7267ZM42.3712 62.7411C42.3712 63.8208 41.6082 64.6918 40.514 64.6918C39.4199 64.6918 38.6425 63.7992 38.6425 62.7267C38.6425 61.6541 39.4055 60.7759 40.4996 60.7759C41.5938 60.7759 42.3712 61.6685 42.3712 62.7411Z" fill="#00E48C"/>
</svg>
