<svg width="200" height="90" viewBox="0 0 200 90" fill="none" xmlns="http://www.w3.org/2000/svg">
<path fill-rule="evenodd" clip-rule="evenodd" d="M89.4858 9.80138C93.6333 5.48315 99.4027 2.81187 105.78 2.81187C114.281 2.81187 121.652 7.53682 125.618 14.5715C129.138 12.9949 132.954 12.1865 136.811 12.1865C152.115 12.1865 164.538 24.7043 164.538 40.1495C164.538 55.5947 152.115 68.1126 136.811 68.1126C134.938 68.1126 133.115 67.9268 131.333 67.5703C127.863 73.7564 121.225 77.9642 113.668 77.9642C110.59 77.9692 107.552 77.2713 104.785 75.9256C101.266 84.1905 93.071 90 83.5307 90C73.9904 90 65.1079 83.7185 61.8491 74.8862C60.398 75.1925 58.9218 75.3481 57.4355 75.3431C45.5905 75.3381 36 65.607 36 53.6565C36 45.6276 40.3182 38.6381 46.7203 34.8572C45.3595 31.729 44.6616 28.3497 44.6666 24.9403C44.6666 11.1471 55.8639 0 69.6521 0C77.7312 0 84.9567 3.85126 89.4909 9.82649" fill="#00A1E0"/>
<path fill-rule="evenodd" clip-rule="evenodd" d="M54.7241 46.6419C54.6438 46.8528 54.7542 46.898 54.7793 46.9331C55.0204 47.1089 55.2664 47.2344 55.5124 47.375C56.828 48.0679 58.0632 48.2738 59.3587 48.2738C61.9948 48.2738 63.6317 46.8729 63.6317 44.6133V44.5682C63.6317 42.4793 61.7789 41.7211 60.0516 41.1788L59.8256 41.1035C58.5151 40.6817 57.3904 40.3102 57.3904 39.4515V39.4064C57.3904 38.6682 58.0532 38.126 59.0725 38.126C60.2073 38.126 61.558 38.5025 62.4216 38.9796C62.4216 38.9796 62.6777 39.1453 62.7731 38.8992C62.8233 38.7636 63.2652 37.5837 63.3104 37.4531C63.3606 37.3125 63.2702 37.2121 63.1848 37.1569C62.1906 36.5543 60.8249 36.1426 59.4039 36.1426H59.1428C56.7276 36.1426 55.0404 37.6037 55.0404 39.6926V39.7378C55.0404 41.937 56.9033 42.6551 58.6406 43.1522L58.9218 43.2375C60.1872 43.6292 61.2818 43.9656 61.2818 44.8544V44.8995C61.2818 45.718 60.5688 46.3256 59.4239 46.3256C58.9771 46.3256 57.5611 46.3155 56.0296 45.3464C55.8438 45.236 55.7384 45.1607 55.5928 45.0753C55.5175 45.0301 55.3266 44.9447 55.2463 45.1958L54.7291 46.6419H54.7241ZM93.3171 46.6419C93.2367 46.8528 93.3472 46.898 93.3723 46.9331C93.6133 47.1089 93.8593 47.2344 94.1054 47.375C95.4209 48.0679 96.6561 48.2738 97.9516 48.2738C100.588 48.2738 102.225 46.8729 102.225 44.6133V44.5682C102.225 42.4793 100.377 41.7211 98.6445 41.1788L98.4186 41.1035C97.1081 40.6817 95.9833 40.3102 95.9833 39.4515V39.4064C95.9833 38.6682 96.6461 38.126 97.6654 38.126C98.8002 38.126 100.146 38.5025 101.015 38.9796C101.015 38.9796 101.271 39.1453 101.366 38.8992C101.416 38.7636 101.858 37.5837 101.898 37.4531C101.948 37.3125 101.858 37.2121 101.773 37.1569C100.779 36.5543 99.4128 36.1426 97.9918 36.1426H97.7307C95.3155 36.1426 93.6284 37.6037 93.6284 39.6926V39.7378C93.6284 41.937 95.4912 42.6551 97.2286 43.1522L97.5098 43.2375C98.7801 43.6292 99.8697 43.9656 99.8697 44.8544V44.8995C99.8697 45.718 99.1567 46.3256 98.0119 46.3256C97.565 46.3256 96.144 46.3155 94.6175 45.3464C94.4318 45.236 94.3213 45.1657 94.1807 45.0753C94.1305 45.0452 93.9095 44.9598 93.8342 45.1958L93.3171 46.6419ZM119.673 42.2232C119.673 43.4986 119.437 44.5029 118.97 45.2159C118.503 45.9189 117.805 46.2653 116.826 46.2653C115.847 46.2653 115.149 45.9239 114.692 45.2209C114.23 44.5129 113.999 43.5037 113.999 42.2283C113.999 40.9529 114.235 39.9537 114.692 39.2457C115.149 38.5477 115.847 38.2113 116.826 38.2113C117.805 38.2113 118.508 38.5477 118.97 39.2457C119.437 39.9486 119.673 40.9529 119.673 42.2283V42.2232ZM121.873 39.8633C121.657 39.1302 121.32 38.4875 120.873 37.9502C120.427 37.4129 119.859 36.9761 119.181 36.6648C118.508 36.3484 117.715 36.1928 116.821 36.1928C115.928 36.1928 115.134 36.3535 114.461 36.6648C113.788 36.9761 113.221 37.4129 112.769 37.9502C112.322 38.4875 111.986 39.1302 111.77 39.8633C111.554 40.5914 111.444 41.3847 111.444 42.2283C111.444 43.0718 111.554 43.8652 111.77 44.5933C111.986 45.3264 112.322 45.9691 112.769 46.5063C113.216 47.0436 113.788 47.4754 114.461 47.7817C115.139 48.088 115.933 48.2437 116.821 48.2437C117.71 48.2437 118.508 48.088 119.176 47.7817C119.849 47.4754 120.416 47.0436 120.868 46.5063C121.315 45.9691 121.652 45.3264 121.868 44.5933C122.083 43.8652 122.189 43.0718 122.189 42.2283C122.189 41.3847 122.078 40.5914 121.868 39.8633H121.873ZM139.959 45.9088C139.889 45.6929 139.678 45.7732 139.678 45.7732C139.356 45.8937 139.015 46.0092 138.653 46.0645C138.287 46.1197 137.88 46.1498 137.448 46.1498C136.384 46.1498 135.535 45.8335 134.933 45.2058C134.325 44.5782 133.984 43.5689 133.989 42.1981C133.989 40.9529 134.295 40.0139 134.832 39.2959C135.365 38.5879 136.188 38.2214 137.273 38.2214C138.181 38.2214 138.874 38.3268 139.602 38.5528C139.602 38.5528 139.773 38.6281 139.859 38.4021C140.049 37.8699 140.195 37.4883 140.401 36.9008C140.461 36.7351 140.315 36.6598 140.265 36.6397C139.979 36.5292 139.306 36.3434 138.794 36.2681C138.317 36.1978 137.765 36.1576 137.142 36.1576C136.218 36.1576 135.395 36.3183 134.692 36.6296C133.989 36.9409 133.391 37.3778 132.919 37.9151C132.447 38.4523 132.086 39.095 131.845 39.8281C131.604 40.5562 131.488 41.3546 131.488 42.1981C131.488 44.0208 131.98 45.5021 132.954 46.5816C133.929 47.6662 135.39 48.2135 137.298 48.2135C138.428 48.2135 139.582 47.9876 140.416 47.6562C140.416 47.6562 140.577 47.5809 140.506 47.3951L139.964 45.9038L139.959 45.9088ZM143.815 40.9931C143.921 40.2851 144.117 39.6926 144.418 39.2356C144.875 38.5377 145.573 38.1561 146.547 38.1561C147.521 38.1561 148.174 38.5427 148.636 39.2356C148.942 39.6976 149.077 40.3102 149.128 40.9931H143.815ZM151.232 39.4365C151.046 38.7335 150.579 38.0205 150.278 37.6941C149.796 37.1769 149.329 36.8154 148.862 36.6196C148.189 36.3334 147.461 36.1827 146.728 36.1878C145.799 36.1878 144.95 36.3434 144.267 36.6648C143.584 36.9861 143.007 37.423 142.555 37.9753C142.103 38.5226 141.762 39.1704 141.546 39.9135C141.33 40.6466 141.219 41.45 141.219 42.2885C141.219 43.1271 141.335 43.9455 141.556 44.6686C141.782 45.3966 142.148 46.0343 142.635 46.5616C143.127 47.0938 143.755 47.5106 144.508 47.8018C145.261 48.093 146.17 48.2437 147.215 48.2386C149.369 48.2336 150.503 47.7516 150.965 47.4905C151.046 47.4453 151.126 47.365 151.031 47.134L150.544 45.7682C150.468 45.5623 150.262 45.6377 150.262 45.6377C149.73 45.8385 148.972 46.195 147.2 46.19C146.045 46.19 145.186 45.8486 144.649 45.3113C144.101 44.764 143.825 43.9656 143.785 42.8308H151.247C151.247 42.8308 151.442 42.8308 151.463 42.645C151.473 42.5647 151.719 41.1136 151.242 39.4365H151.232ZM84.1584 40.9931C84.2638 40.2851 84.4597 39.6926 84.7609 39.2356C85.2179 38.5377 85.9158 38.1561 86.8899 38.1561C87.864 38.1561 88.5168 38.5427 88.9787 39.2356C89.285 39.6976 89.4206 40.3102 89.4708 40.9931H84.1584ZM91.5747 39.4365C91.3889 38.7335 90.9219 38.0205 90.6207 37.6941C90.1386 37.1769 89.6717 36.8154 89.2047 36.6196C88.5318 36.3334 87.8038 36.1827 87.0707 36.1878C86.1418 36.1878 85.2932 36.3434 84.6103 36.6648C83.9274 36.9861 83.35 37.423 82.8981 37.9753C82.4462 38.5226 82.1047 39.1704 81.8888 39.9135C81.6729 40.6466 81.5624 41.45 81.5624 42.2885C81.5624 43.1271 81.6729 43.9455 81.8988 44.6686C82.1248 45.3966 82.4913 46.0343 82.9734 46.5616C83.4655 47.0938 84.0931 47.5106 84.8463 47.8018C85.5995 48.093 86.5033 48.2437 87.5527 48.2386C89.7068 48.2336 90.8416 47.7516 91.3035 47.4905C91.3839 47.4453 91.4642 47.365 91.3688 47.134L90.8818 45.7682C90.8064 45.5623 90.6006 45.6377 90.6006 45.6377C90.0683 45.8385 89.3101 46.195 87.5376 46.19C86.3828 46.19 85.5241 45.8486 84.9869 45.3113C84.4396 44.764 84.1634 43.9656 84.1232 42.8308H91.5847C91.5847 42.8308 91.7806 42.8308 91.8006 42.645C91.8107 42.5647 92.0567 41.1136 91.5797 39.4365H91.5747ZM68.0504 45.8586C67.7591 45.6276 67.719 45.5674 67.6185 45.4167C67.4729 45.1908 67.3976 44.8644 67.3976 44.4476C67.3976 43.7949 67.6135 43.3229 68.0654 43.0066C68.0654 43.0066 68.7081 42.4492 70.2296 42.4693C70.9074 42.4793 71.5803 42.5396 72.2531 42.64V46.0243C72.2531 46.0243 71.3091 46.2302 70.2396 46.2904C68.7232 46.3808 68.0504 45.8536 68.0554 45.8536L68.0504 45.8586ZM71.0179 40.6114C70.7166 40.5914 70.325 40.5763 69.858 40.5763C69.2203 40.5763 68.6027 40.6566 68.0253 40.8123C67.4428 40.9679 66.9206 41.214 66.4737 41.5353C66.0218 41.8567 65.6553 42.2785 65.3942 42.7655C65.128 43.2576 64.9975 43.8351 64.9975 44.4828C64.9975 45.1305 65.113 45.718 65.3389 46.185C65.5599 46.6469 65.8963 47.0486 66.313 47.3499C66.7248 47.6512 67.2369 47.8721 67.8294 48.0077C68.4169 48.1432 69.0747 48.2085 69.8028 48.2085C70.566 48.2085 71.3292 48.1432 72.0673 48.0177C72.695 47.9072 73.3176 47.7867 73.9402 47.6512C74.1863 47.5959 74.4624 47.5206 74.4624 47.5206C74.6482 47.4754 74.6332 47.2746 74.6332 47.2746V40.4708C74.6332 38.9796 74.2315 37.8699 73.4431 37.182C72.6598 36.4991 71.51 36.1526 70.0237 36.1526C69.4663 36.1526 68.5625 36.2279 68.0253 36.3384C68.0253 36.3384 66.3984 36.6547 65.7306 37.1769C65.7306 37.1769 65.585 37.2673 65.6653 37.4732L66.1925 38.8892C66.2578 39.075 66.4386 39.0097 66.4386 39.0097C66.4386 39.0097 66.4938 38.9896 66.5591 38.9494C67.9901 38.1711 69.8028 38.1912 69.8028 38.1912C70.6062 38.1912 71.2288 38.3519 71.6455 38.6733C72.0523 38.9846 72.2581 39.4566 72.2581 40.4508V40.7671C71.6204 40.6767 71.0279 40.6215 71.0279 40.6215V40.6064L71.0179 40.6114ZM130.996 36.7702C131.041 36.6698 130.996 36.5493 130.891 36.5041H130.886C130.76 36.4539 130.127 36.3183 129.64 36.2882C128.706 36.2279 128.184 36.3886 127.717 36.5995C127.255 36.8054 126.743 37.1418 126.462 37.5284V36.6196C126.462 36.4941 126.372 36.3936 126.246 36.3936H124.338C124.212 36.3936 124.122 36.4941 124.122 36.6196V47.7215C124.122 47.847 124.223 47.9474 124.348 47.9474H126.301C126.427 47.9474 126.527 47.847 126.527 47.7215V42.1479C126.527 41.3998 126.608 40.6617 126.773 40.1947C126.934 39.7327 127.155 39.3612 127.426 39.1001C127.682 38.844 127.998 38.6532 128.345 38.5477C128.671 38.4523 129.008 38.4071 129.344 38.4071C129.736 38.4071 130.163 38.5076 130.163 38.5076C130.308 38.5226 130.384 38.4373 130.434 38.3067C130.559 37.9653 130.926 36.946 130.996 36.7451" fill="#FFFFFE"/>
<path fill-rule="evenodd" clip-rule="evenodd" d="M112.729 31.6435C112.488 31.5682 112.242 31.5129 111.991 31.4677C111.654 31.4125 111.318 31.3874 110.977 31.3874C109.631 31.3874 108.566 31.769 107.823 32.5222C107.085 33.2703 106.578 34.4051 106.327 35.9015L106.237 36.4086H104.544C104.544 36.4086 104.339 36.3986 104.293 36.6245L104.017 38.1761C103.997 38.3267 104.062 38.4171 104.258 38.4171H105.905L104.233 47.7414C104.103 48.4946 103.952 49.1122 103.786 49.5792C103.62 50.0411 103.465 50.3876 103.269 50.6387C103.078 50.8797 102.897 51.0605 102.586 51.1659C102.33 51.2513 102.034 51.2914 101.707 51.2914C101.527 51.2914 101.286 51.2613 101.11 51.2262C100.934 51.191 100.839 51.1508 100.708 51.0956C100.708 51.0956 100.517 51.0203 100.437 51.2161C100.377 51.3768 99.9349 52.5819 99.8847 52.7325C99.8295 52.8781 99.9048 52.9936 100 53.0288C100.221 53.1091 100.382 53.1593 100.683 53.2296C101.1 53.325 101.446 53.3351 101.773 53.3351C102.461 53.3351 103.083 53.2397 103.6 53.0539C104.123 52.8631 104.575 52.5367 104.976 52.0948C105.408 51.6178 105.684 51.1157 105.945 50.4278C106.201 49.7499 106.422 48.9064 106.598 47.9222L108.275 38.4221H110.73C110.73 38.4221 110.936 38.4321 110.982 38.2062L111.258 36.6546C111.278 36.504 111.213 36.4136 111.017 36.4136H108.637C108.647 36.3584 108.757 35.5198 109.028 34.7315C109.144 34.3951 109.365 34.1239 109.551 33.9382C109.726 33.7624 109.937 33.6268 110.173 33.5515C110.434 33.4712 110.7 33.431 110.972 33.436C111.197 33.436 111.418 33.4611 111.584 33.4963C111.815 33.5465 111.905 33.5716 111.966 33.5917C112.207 33.667 112.242 33.5917 112.287 33.4762L112.854 31.9096C112.915 31.7439 112.769 31.6686 112.719 31.6485L112.729 31.6435ZM79.4334 47.7615C79.4334 47.8871 79.343 47.9875 79.2174 47.9875H77.2441C77.1186 47.9875 77.0282 47.8871 77.0282 47.7615V31.8594C77.0282 31.7339 77.1186 31.6334 77.2441 31.6334H79.2174C79.343 31.6334 79.4334 31.7339 79.4334 31.8594V47.7615Z" fill="#FFFFFE"/>
</svg>
