<svg width="200" height="90" viewBox="0 0 200 90" fill="none" xmlns="http://www.w3.org/2000/svg">
<path d="M70.9018 15.9018C77.0099 9.7937 80.064 6.73965 83.1763 4.80425C93.4774 -1.60146 106.523 -1.60138 116.824 4.80425C119.936 6.73965 122.99 9.7937 129.098 15.9018C135.206 22.0099 138.26 25.064 140.196 28.1763C146.601 38.4775 146.601 51.5225 140.196 61.8237C138.26 64.936 135.206 67.9901 129.098 74.0982C122.99 80.2063 119.936 83.2604 116.824 85.1958C106.523 91.6015 93.4774 91.6014 83.1763 85.1958C80.064 83.2604 77.0099 80.2063 70.9018 74.0982L70.9011 74.0976C64.7935 67.9898 61.7395 64.9359 59.8042 61.8237C53.3986 51.5225 53.3985 38.4775 59.8042 28.1763C61.7394 25.0642 64.7932 22.0103 70.9006 15.903L70.9018 15.9018Z" fill="#02C652"/>
<path d="M112.784 31.1931C116.314 31.1931 119.176 28.3313 119.176 24.8011C119.176 21.2709 116.314 18.4091 112.784 18.4091C109.254 18.4091 106.392 21.2709 106.392 24.8011C106.392 28.3313 109.254 31.1931 112.784 31.1931Z" fill="white"/>
<path d="M93.6079 38.8636C93.6079 36.0394 91.3185 33.75 88.4943 33.75H80.8239V52.9261C80.8239 63.5168 89.4093 72.1022 100 72.1022C101.313 72.1022 102.596 71.9702 103.835 71.7186V59.3181H100C96.4697 59.3181 93.6079 56.4563 93.6079 52.9261V38.8636Z" fill="white"/>
<path d="M119.176 52.9261C119.176 61.2755 113.84 68.3786 106.392 71.0111V38.8636C106.392 36.0394 108.681 33.75 111.506 33.75H119.176V52.9261Z" fill="white"/>
</svg>
