<svg width="200" height="90" viewBox="0 0 200 90" fill="none" xmlns="http://www.w3.org/2000/svg">
<path d="M126.905 80.2879C122.992 77.3519 117.194 75.1172 111.117 72.7408C103.849 69.9465 95.5373 66.7308 89.3892 61.7726C82.4017 56.184 78.9805 49.1256 78.9805 40.254C78.8424 32.498 82.4052 25.1634 88.5534 20.4815C95.6082 14.9637 106.229 12.0277 119.365 12.0277C122.79 12.0277 126.282 12.2367 129.636 12.6581C129.986 12.729 130.333 12.4492 130.333 12.0986C130.333 11.8896 130.262 11.6807 130.124 11.539C111.605 -5.08864 83.1667 -3.55161 66.539 14.8929C49.9114 33.3373 51.4484 61.8434 69.8929 78.471C78.1376 85.8764 88.8969 89.9988 100.007 89.9988C109.647 90.0697 119.082 86.9248 126.834 81.1945C126.972 81.0564 127.114 80.9147 127.114 80.7058C127.185 80.6349 127.043 80.426 126.905 80.2879Z" fill="#189EFF"/>
<path d="M144.999 40.9553C144.999 40.8172 144.928 40.6047 144.79 40.5374C135.359 32.7141 127.812 29.5692 118.519 29.5692C113.628 29.5692 109.785 30.5466 107.271 32.5051C105.103 34.113 103.917 36.6275 103.917 39.2837C103.917 47.0397 113.348 50.5317 124.316 54.6541C129.976 56.7507 135.773 58.9146 141.153 61.9213C141.224 61.9922 141.362 61.9922 141.432 61.9922C141.503 61.9922 141.571 61.9922 141.641 61.9213C141.85 61.8505 141.992 61.7124 142.059 61.5707C144.156 56.3292 145.204 50.7406 145.204 45.0812C145.133 43.7531 145.133 42.3577 144.995 40.9588L144.999 40.9553Z" fill="#189EFF"/>
</svg>
