<svg width="200" height="90" viewBox="0 0 200 90" fill="none" xmlns="http://www.w3.org/2000/svg">
<path d="M129.318 17.5214C129.257 17.0679 128.861 16.8179 128.532 16.7929C128.204 16.7643 121.289 16.2536 121.289 16.2536C121.289 16.2536 116.486 11.4857 115.957 10.9571C115.429 10.4286 114.4 10.5893 114 10.7071C113.943 10.725 112.95 11.0286 111.311 11.5357C109.707 6.91786 106.875 2.675 101.889 2.675C101.75 2.675 101.611 2.68214 101.468 2.68929C100.05 0.814286 98.2964 0 96.7786 0C85.1714 0 79.625 14.5107 77.8857 21.8821C73.375 23.2786 70.1714 24.275 69.7607 24.4036C67.2429 25.1929 67.1643 25.2714 66.8321 27.6464C66.5857 29.4357 60 80.3786 60 80.3786L111.329 89.9964L139.139 83.9786C139.139 83.9786 129.375 17.9714 129.314 17.5179L129.318 17.5214ZM108.471 12.4107L104.129 13.7536C104.129 13.4464 104.129 13.1464 104.129 12.8179C104.129 9.94643 103.729 7.63571 103.089 5.80357C105.657 6.125 107.368 9.04643 108.468 12.4071L108.471 12.4107ZM99.9071 6.375C100.621 8.16429 101.086 10.7286 101.086 14.1929C101.086 14.3714 101.086 14.5321 101.086 14.6964C98.2607 15.5714 95.1929 16.5214 92.1143 17.475C93.8429 10.8107 97.0786 7.58929 99.9107 6.375H99.9071ZM96.4571 3.11071C96.9571 3.11071 97.4643 3.28214 97.9464 3.61429C94.225 5.36429 90.2393 9.775 88.5571 18.5786L81.4679 20.775C83.4393 14.0607 88.125 3.11429 96.4607 3.11429L96.4571 3.11071Z" fill="#95BF46"/>
<path d="M128.529 16.7894C128.2 16.7608 121.286 16.2501 121.286 16.2501C121.286 16.2501 116.482 11.4822 115.954 10.9537C115.757 10.7572 115.489 10.6572 115.211 10.6144L111.329 90.0001L139.139 83.9858C139.139 83.9858 129.375 17.9787 129.314 17.5251C129.254 17.0715 128.857 16.8215 128.529 16.7965" fill="#5E8E3E"/>
<path d="M101.889 32.1572L98.4607 42.3572C98.4607 42.3572 95.4571 40.7536 91.7714 40.7536C86.3714 40.7536 86.1 44.1429 86.1 44.9964C86.1 49.6572 98.2464 51.4393 98.2464 62.3536C98.2464 70.9393 92.8 76.4679 85.4571 76.4679C76.6464 76.4679 72.1393 70.9857 72.1393 70.9857L74.5 63.1893C74.5 63.1893 79.1321 67.1643 83.0393 67.1643C85.5929 67.1643 86.6321 65.1536 86.6321 63.6857C86.6321 57.6072 76.6679 57.3357 76.6679 47.35C76.6679 38.9464 82.7 30.8107 94.8786 30.8107C99.5714 30.8107 101.889 32.1536 101.889 32.1536" fill="white"/>
</svg>
