<svg xmlns="http://www.w3.org/2000/svg" width="157" height="50" fill="none"><g clip-path="url(#a)"><path fill="#95BF47" d="M33.734 10.21c-.025-.23-.23-.333-.384-.333s-3.515-.257-3.515-.257-2.334-2.334-2.617-2.565c-.256-.257-.744-.18-.949-.128-.025 0-.513.154-1.308.41-.795-2.283-2.155-4.361-4.592-4.361h-.23c-.668-.872-1.54-1.283-2.258-1.283-5.644 0-8.364 7.055-9.21 10.647-2.206.692-3.771 1.154-3.95 1.231-1.232.385-1.258.41-1.412 1.565-.128.872-3.335 25.68-3.335 25.68l24.961 4.668 13.545-2.925c.026-.05-4.72-32.118-4.745-32.349ZM23.576 7.696c-.616.18-1.36.41-2.104.667v-.461c0-1.386-.18-2.515-.513-3.412 1.283.154 2.078 1.564 2.617 3.206Zm-4.182-2.924c.334.872.565 2.103.565 3.797v.256c-1.386.436-2.848.872-4.362 1.36.847-3.233 2.463-4.823 3.797-5.413Zm-1.642-1.59c.257 0 .513.102.719.256-1.822.846-3.746 2.976-4.541 7.285-1.206.385-2.36.719-3.463 1.078.923-3.284 3.232-8.62 7.285-8.62Z"/><path fill="#5E8E3E" d="M33.35 9.825c-.154 0-3.515-.256-3.515-.256s-2.334-2.335-2.617-2.565a.497.497 0 0 0-.333-.154l-1.873 38.634 13.545-2.925s-4.746-32.118-4.771-32.349a.694.694 0 0 0-.436-.385Z"/><path fill="#fff" d="m20.369 17.316-1.642 4.951s-1.488-.795-3.258-.795c-2.642 0-2.77 1.667-2.77 2.078 0 2.257 5.9 3.13 5.9 8.44 0 4.181-2.642 6.875-6.208 6.875-4.31 0-6.465-2.668-6.465-2.668L7.08 32.4s2.258 1.95 4.156 1.95c1.257 0 1.77-.975 1.77-1.693 0-2.95-4.822-3.079-4.822-7.953 0-4.079 2.924-8.03 8.85-8.03 2.206-.025 3.335.642 3.335.642Z"/><path fill="#000" d="M54.283 26.629c-1.36-.719-2.052-1.36-2.052-2.207 0-1.077.974-1.77 2.488-1.77 1.77 0 3.335.719 3.335.719l1.231-3.771s-1.128-.873-4.463-.873c-4.644 0-7.876 2.668-7.876 6.414 0 2.129 1.514 3.745 3.515 4.9 1.641.897 2.206 1.564 2.206 2.54 0 1-.821 1.82-2.335 1.82-2.232 0-4.36-1.154-4.36-1.154l-1.31 3.771s1.95 1.309 5.234 1.309c4.772 0 8.235-2.36 8.235-6.593-.051-2.31-1.77-3.9-3.848-5.105Zm19.035-7.953c-2.36 0-4.207 1.129-5.618 2.822l-.052-.026L69.701 10.8h-5.31l-5.183 27.193h5.31l1.77-9.287c.694-3.514 2.515-5.695 4.208-5.695 1.206 0 1.668.821 1.668 1.976 0 .718-.052 1.642-.231 2.36l-2.001 10.646h5.31l2.078-10.98c.23-1.154.385-2.54.385-3.489-.026-3.052-1.59-4.848-4.387-4.848Zm16.393 0c-6.414 0-10.647 5.772-10.647 12.211 0 4.105 2.54 7.44 7.312 7.44 6.285 0 10.518-5.618 10.518-12.211.025-3.823-2.181-7.44-7.183-7.44Zm-2.617 15.597c-1.822 0-2.566-1.539-2.566-3.489 0-3.052 1.565-8.003 4.464-8.003 1.873 0 2.514 1.641 2.514 3.206 0 3.258-1.616 8.286-4.412 8.286Zm23.422-15.597c-3.592 0-5.619 3.181-5.619 3.181h-.051l.308-2.848h-4.72a122.312 122.312 0 0 1-1.078 7.055l-3.668 19.471h5.31l1.488-7.875h.128s1.103.692 3.104.692c6.26 0 10.339-6.413 10.339-12.878-.026-3.591-1.642-6.798-5.541-6.798Zm-5.08 15.649c-1.385 0-2.206-.796-2.206-.796l.872-4.95c.616-3.336 2.36-5.516 4.207-5.516 1.642 0 2.13 1.513 2.13 2.924.025 3.438-2.027 8.338-5.003 8.338Zm18.189-23.268c-1.694 0-3.053 1.36-3.053 3.078 0 1.565 1 2.668 2.514 2.668h.051c1.668 0 3.079-1.129 3.104-3.078.026-1.565-1.026-2.668-2.616-2.668Zm-7.44 26.91h5.31l3.592-18.88h-5.336l-3.566 18.88Zm22.447-18.906h-3.694l.179-.872c.308-1.822 1.386-3.412 3.181-3.412.95 0 1.694.282 1.694.282l1.026-4.182s-.898-.462-2.899-.462c-1.873 0-3.771.54-5.208 1.77-1.821 1.54-2.668 3.772-3.078 6.03l-.154.871h-2.489l-.795 4.028h2.489l-2.822 14.88h5.31l2.822-14.88h3.668l.77-4.053Zm12.801.025s-3.335 8.39-4.797 12.981h-.051c-.103-1.488-1.309-12.98-1.309-12.98h-5.592l3.206 17.29c.052.385.026.616-.128.872-.615 1.206-1.667 2.36-2.899 3.207-1 .718-2.129 1.206-3.027 1.513l1.488 4.515c1.078-.23 3.335-1.128 5.208-2.898 2.411-2.258 4.669-5.772 6.978-10.544L157 19.061h-5.567v.025Z"/></g><defs><clipPath id="a"><path fill="#fff" d="M0 0h157v49.255H0z"/></clipPath></defs></svg>
