<svg xmlns="http://www.w3.org/2000/svg" xml:space="preserve" baseProfile="tiny" version="1.2" viewBox="0 0 566.93 165.09"><path fill="#189EFF" d="M177.68 83.05c-4.68-2.03-8.53-3.87-8.53-6.92 0-2.14 2.42-4.17 6.5-4.17 3.66 0 6.82.92 10.07 2.34.92.41 2.34.51 3.05-.92l1.63-3.26c.61-1.22.1-2.65-1.02-3.46-2.34-1.53-7.22-3.46-13.74-3.46-11.4 0-16.06 6.92-16.06 12.82 0 7.73 5.99 11.6 13.21 14.86 6.51 2.95 10.07 4.98 10.07 8.14 0 2.65-2.24 4.58-6.21 4.58-5.6 0-8.95-1.93-11.7-3.46-1.22-.71-2.54-.41-3.05.61l-2.14 4.38c-.51 1.02.1 1.93.81 2.44a27.33 27.33 0 0 0 15.47 4.78c10.48 0 16.79-6.41 16.79-13.74.01-8.74-6.5-11.89-15.15-15.56z"/><g fill="#189EFF"><path d="M115.28 125.52c-4.78-3.6-11.83-6.34-19.29-9.23-8.88-3.44-18.95-7.35-26.51-13.36-8.56-6.82-12.73-15.42-12.73-26.29 0-9.76 4.05-18.1 11.71-24.13 8.59-6.76 21.61-10.34 37.64-10.34 4.43 0 8.66.27 12.58.81.35.05.68-.14.82-.45a.78.78 0 0 0-.19-.92 54.863 54.863 0 0 0-36.76-14.09c-14.7 0-28.52 5.72-38.92 16.12-10.39 10.39-16.12 24.21-16.12 38.9 0 14.7 5.72 28.52 16.12 38.91 10.39 10.39 24.21 16.12 38.92 16.12 11.88 0 23.19-3.73 32.72-10.78a.796.796 0 0 0 .01-1.27z"/><path d="M137.34 77.46a.796.796 0 0 0-.28-.54C125.58 67.39 116.29 63.5 105 63.5c-6.02 0-10.64 1.21-13.72 3.59-2.67 2.06-4.08 4.94-4.08 8.31 0 9.45 11.55 13.76 24.93 18.75 6.89 2.57 14.02 5.23 20.56 8.86.12.07.25.1.38.1.09 0 .18-.02.27-.05a.79.79 0 0 0 .47-.46c2.5-6.4 3.77-13.15 3.77-20.06-.01-1.62-.08-3.33-.24-5.08z"/></g><path fill="#189EFF" d="M453.63 111.78c1.41-.16 2.38-1.19 2.38-2.47V85.44c0-12.21-1.49-21.67-17.21-21.67-9.03 0-16.04 2.44-16.89 2.76-1.17.42-1.91 1.17-1.59 2.87l.96 4.04c.32 1.38 1.27 2.34 2.76 2.02 2.55-.74 8.07-2.34 13.7-2.34 6.16 0 8.07 3.51 7.86 11.26 0 0-4.78-1.49-9.88-1.49-12.64 0-19.65 6.8-19.65 15.83 0 10.2 6.47 13.65 15.71 13.65 7.54 0 15.3-.09 18.53-.3l3.32-.29zm-8.14-8.66c-1.49 2.44-6.8 1.83-11.36 1.74-5.1-.11-7.65-1.89-7.65-6.25 0-5.1 4.35-8.07 10.09-8.07 4.46 0 8.29 1.28 8.92 1.7v10.88zM533.83 63.21c3.09 0 5.59-2.49 5.59-5.57s-2.5-5.57-5.59-5.57-5.59 2.49-5.59 5.57 2.5 5.57 5.59 5.57zm0-10.32c2.59 0 4.71 2.14 4.71 4.75s-2.11 4.75-4.71 4.75c-2.59 0-4.7-2.14-4.7-4.75s2.11-4.75 4.7-4.75z"/><path fill="#189EFF" d="M531.93 60.46h.52c.08 0 .15-.07.15-.15v-2.05h1.22l1.05 2.1c.03.07.08.1.17.1h.6c.14 0 .19-.13.14-.23l-1.1-2.05c.7-.28 1.19-.89 1.19-1.63 0-.96-.79-1.72-1.75-1.72h-2.19c-.09 0-.15.07-.15.15v5.33c0 .08.06.15.15.15zm.69-4.85h1.43c.52 0 .98.43.98.96 0 .56-.46 1-.98 1h-1.43v-1.96zM224.1 63.21c-7.43 0-12.52 4.07-13.63 4.89V47.11c0-1.12-1.12-2.24-2.24-2.24h-5.7c-1.22 0-2.24 1.12-2.24 2.24v63.01c0 1.22 1.02 2.24 2.24 2.24h5.6c1.43 0 2.34-.92 2.34-2.24V79.7c1.02-2.03 5.09-6.82 12.31-6.82 6.11 0 9.36 4.58 9.36 12.31v24.94c0 1.22 1.02 2.24 2.24 2.24h5.7c1.12 0 2.24-1.02 2.24-2.24V85.4c-.01-12.82-4.89-22.19-18.22-22.19zM343.29 85.89c-.56-15.97-7.25-22.68-22.66-22.68-7.4 0-16.23 2.22-17.53 2.79-1.6.69-2.78 1.51-2.78 2.63v59.83c0 1.22 1.02 2.24 2.24 2.24h4.72c1.53 0 2.44-.92 2.44-2.24l-.01-16.91c1.43.37 8.74.99 14.84.8 10.88-.34 18.18-8.24 18.79-21.58.08-1.82.07-4.34-.05-5.98v1.1zm-9.83 4.87c-.21 9.05-2.84 13.05-10.46 13.47-3.77.21-12.67-.84-12.67-.84-.37-.12-.62-.28-.62-.62l-.01-18.34v-10.4c0-.28.21-.51.49-.54 1.05-.11 4.9-1.35 10.44-1.35 9.28 0 12.55 1.36 12.85 13.11.02 1.55.02 3.72-.02 5.51zM410.68 64.23h-4.27c-1.22 0-2.95 0-3.56 1.43l-7.53 27.06h-.2L382.5 64.33c-.2-.61-.92-1.12-2.03-1.12h-.71c-.92 0-1.63.51-1.93 1.12L365.1 92.62h-.2l-7.73-26.96c-.2-.92-1.22-1.43-2.03-1.43h-6.11c-1.63 0-2.34 1.22-1.63 2.65l13.74 44.26c.2.71.92 1.22 1.93 1.22h.61c1.02 0 1.63-.51 1.83-1.12l14.45-31.95h.2l14.35 31.95c.31.61 1.02 1.12 2.03 1.12h.41c1.02 0 1.93-.51 2.14-1.22l13.43-44.26c.71-1.43-.21-2.65-1.84-2.65zM485.74 63.77c-.25 0-.48.02-.73.03-.41-.01-.81-.03-1.24-.03-2.44 0-4.78.08-6.97.19-4.22.17-6.72.49-8.5.69 0 0-1.14.11-2.47.28-.89.11-1.54.48-1.94.99-.27.29-.44.66-.44 1.11v43.08c0 1.22 1.02 2.24 2.24 2.24h4.68c1.93 0 3.26-.2 3.26-2.24v-35.8c0-.28.44-.63.68-.78 1.15-.69 3.91-1.19 9.46-1.19.54 0 .89.01 1.29.02 1.27.12 3.28.51 3.93.88 1.02.51 2.24.2 2.85-1.12l2.44-3.99c1.53-3.14-4.06-4.36-8.54-4.36zM517.95 63.21c-14.14 0-23.4 11.3-23.4 24.52 0 13.43 9.26 24.62 23.5 24.62 7.83 0 14.04-2.85 17.4-5.8 1.42-1.22 1.02-2.14.2-3.15l-2.75-4.27c-.81-1.22-1.73-.92-2.75-.2-2.85 2.03-6.11 3.97-11.5 3.97-8.24 0-13.94-6.51-14.04-12.82h32.46c1.02 0 2.03-.82 2.14-2.04.1-.81.2-2.44.2-3.26 0-12.51-9.25-21.57-21.46-21.57zm-12.82 19.33c.71-5.9 5.19-10.68 12.62-10.68 6.92 0 11.4 4.99 11.6 10.68h-24.22zM292.15 77.75c-1.06-3.03-2.55-5.63-4.46-7.79a19.63 19.63 0 0 0-6.85-5c-2.65-1.17-6.41-1.76-9.53-1.76-3.12 0-6.87.59-9.52 1.76a19.721 19.721 0 0 0-6.85 5c-1.91 2.16-3.4 4.76-4.46 7.79-1.06 3.03-1.59 6.38-1.59 10.04 0 3.72.53 7.08 1.59 10.08s2.55 5.58 4.46 7.74a19.63 19.63 0 0 0 6.85 5c2.65 1.17 6.4 1.75 9.52 1.75 3.12 0 6.88-.58 9.53-1.75 2.65-1.17 4.93-2.84 6.85-5 1.91-2.16 3.4-4.74 4.46-7.74s1.59-6.36 1.59-10.08c0-3.66-.53-7.01-1.59-10.04zm-21.1 26.51c-8.49 0-12.77-7.19-12.77-16.06s4.27-16.06 12.77-16.06 12.77 7.19 12.77 16.06-4.28 16.06-12.77 16.06z"/></svg>
