<svg width="200" height="90" viewBox="0 0 200 90" fill="none" xmlns="http://www.w3.org/2000/svg">
<path d="M98.8138 68.8961C98.8138 71.3551 96.8189 73.35 94.3598 73.35C91.9008 73.35 89.9059 71.3551 89.9059 68.8961C89.9059 66.437 91.9008 64.4421 94.3598 64.4421C96.8189 64.4421 98.8138 66.437 98.8138 68.8961Z" fill="#0066CC"/>
<path d="M117.537 68.8961C117.537 71.3551 115.542 73.35 113.083 73.35C110.624 73.35 108.629 71.3551 108.629 68.8961C108.629 66.437 110.624 64.4421 113.083 64.4421C115.542 64.4421 117.537 66.437 117.537 68.8961Z" fill="#0066CC"/>
<path d="M114.72 59.9918H92.7228C90.9547 59.9918 89.3638 58.9288 88.6905 57.2953L82.8972 43.2674H78.3618C75.9524 43.2674 74 41.315 74 38.9056C74 36.4961 75.9524 34.5438 78.3618 34.5438H85.8169C87.585 34.5438 89.176 35.6103 89.8492 37.2402L95.6425 51.2682H111.832L117.795 37.2048C118.738 34.9867 121.296 33.952 123.514 34.891C125.732 35.8335 126.767 38.3918 125.828 40.6099L118.738 57.3343C118.054 58.9465 116.474 59.9953 114.72 59.9953" fill="#0066CC"/>
<path d="M119.595 20.0657C117.926 18.326 115.163 18.2728 113.426 19.9417L107.994 25.1575V4.36181C107.994 1.95236 106.042 0 103.633 0C101.223 0 99.2709 1.95236 99.2709 4.36181V25.0512L94.0445 19.9594C92.3189 18.2799 89.5551 18.3154 87.8756 20.0409C86.1925 21.7665 86.2315 24.5303 87.9571 26.2098L100.593 38.5157C100.649 38.5724 100.713 38.622 100.773 38.6752C100.805 38.7035 100.837 38.7319 100.869 38.7602C101.018 38.8807 101.17 38.9941 101.333 39.0933C101.354 39.1075 101.379 39.1181 101.404 39.1323C101.56 39.2244 101.723 39.3094 101.889 39.3803C101.904 39.3874 101.918 39.3945 101.932 39.4016C101.943 39.4051 101.953 39.4087 101.964 39.4122C102.063 39.4547 102.162 39.4902 102.265 39.522C102.3 39.5362 102.339 39.5504 102.375 39.561C102.474 39.5894 102.573 39.6142 102.676 39.639C102.715 39.6496 102.757 39.6602 102.796 39.6673C102.896 39.6886 102.998 39.6992 103.101 39.7134C103.14 39.7169 103.179 39.7276 103.222 39.7311C103.356 39.7453 103.494 39.7524 103.629 39.7524C103.633 39.7524 103.636 39.7524 103.643 39.7524C103.643 39.7524 103.668 39.7524 103.679 39.7524C103.806 39.7524 103.934 39.7453 104.061 39.7346C104.136 39.7276 104.21 39.7134 104.285 39.7028C104.348 39.6921 104.409 39.6886 104.472 39.6744C104.561 39.6567 104.65 39.6319 104.738 39.6106C104.784 39.5965 104.83 39.5894 104.876 39.5752C104.969 39.5468 105.054 39.515 105.142 39.4831C105.185 39.4689 105.227 39.4547 105.27 39.437C105.355 39.4016 105.436 39.3626 105.518 39.3236C105.564 39.3024 105.61 39.2811 105.652 39.2598C105.727 39.2209 105.801 39.1748 105.876 39.1323C105.925 39.1039 105.978 39.0756 106.024 39.0402C106.088 38.9976 106.152 38.9516 106.212 38.9055C106.269 38.863 106.326 38.824 106.379 38.7815C106.432 38.739 106.485 38.6894 106.538 38.6433C106.577 38.6079 106.62 38.576 106.659 38.537L119.475 26.2311C121.215 24.5622 121.268 21.7984 119.599 20.0622" fill="#99CC00"/>
<path d="M104.306 90C99.9335 90 95.3768 88.3524 90.4729 85.0642C88.4709 83.7213 87.9394 81.0106 89.2823 79.0087C90.6253 77.0102 93.3359 76.4752 95.3379 77.8181C102.977 82.9488 107.293 81.7122 111.782 78.0555C113.65 76.5354 116.399 76.8154 117.919 78.6827C119.439 80.55 119.16 83.2996 117.289 84.8197C113.051 88.2709 108.774 89.9965 104.302 89.9965" fill="#99CC00"/>
</svg>
