<svg xmlns="http://www.w3.org/2000/svg" xml:space="preserve" id="Layer_1" x="0" y="0" version="1.1" viewBox="0 0 180 38.3"><style>.st0{fill:#09b3af}</style><path d="M19.4 18.3h-7.8V22h7.6c.4 0 .9-.2 1.2-.5.3-.3.5-.7.5-1.3 0-.5-.1-1-.4-1.3-.4-.4-.7-.6-1.1-.6zm.2-4.5c.3-.2.5-.7.5-1.3 0-.6-.1-1-.4-1.2-.3-.2-.6-.4-1-.4h-7.1v3.4h7c.3-.1.7-.3 1-.5z" class="st0"/><path d="M31 0H1.7C.7 0 0 .7 0 1.6v29.3c0 .9.7 1.5 1.6 1.5H6v5.9l5.4-5.8H31c.9 0 1.5-.6 1.5-1.5V1.7C32.5.8 31.9 0 31 0zm-4.9 23.8c-.4.7-.9 1.2-1.6 1.6-.7.4-1.5.9-2.4 1-.9.2-1.9.4-2.9.4H6V6h15c.7 0 1.4.1 2 .5.6.3 1.1.7 1.5 1.2.8 1 1.3 2.3 1.3 3.6 0 1-.3 1.9-.7 2.8-.5.9-1.3 1.6-2.2 2 1.2.3 2.1.9 2.8 1.8.7.9 1 2 1 3.5-.1.9-.3 1.7-.6 2.4z" class="st0"/><path d="M52.7 26.7c-1.3 0-2.6-.2-3.8-.6-1.2-.4-2.3-1-3.2-1.9l1.7-2.8c.9.6 1.8 1.1 2.7 1.5.8.3 1.7.5 2.5.5.6 0 1.1-.1 1.4-.3.3-.2.5-.5.5-.9s-.2-.7-.6-1c-.7-.3-1.4-.6-2.2-.7l-2.6-.9c-.7-.3-1.3-.6-1.7-.9-.4-.3-.8-.7-1-1.1-.2-.5-.3-1-.3-1.5 0-1.5.6-2.9 1.8-3.8.5-.4 1.2-.8 1.9-1 .8-.3 1.6-.4 2.4-.4 1.2 0 2.2.1 3.2.4 1 .3 2 .9 2.9 1.7l-1.8 2.8c-.7-.5-1.5-1-2.3-1.3-.7-.3-1.3-.4-2-.4-.5 0-.9.1-1.3.3-.4.2-.5.5-.5 1 0 .4.2.7.6 1 .4.2 1.1.4 2.1.7.9.2 1.9.5 2.8.9.7.3 1.3.6 1.8 1 .9.7 1.4 1.8 1.3 2.9 0 1.5-.6 2.7-1.7 3.6-1.1.7-2.6 1.2-4.6 1.2zm18.5-1.1c-.7.3-1.5.5-2.2.7-.8.2-1.6.4-2.5.4-.6 0-1.1-.1-1.6-.2s-1-.4-1.4-.7c-.4-.3-.7-.7-.9-1.2-.2-.5-.4-1.2-.4-1.9v-8h-1.9v-3.5h2v-5h4.6V11H70v3.5h-3.1V21c0 .5.1.9.4 1.1.3.2.6.3 1 .3s.7 0 1.1-.2c.4-.1.7-.2 1-.4l.8 3.8zm8.8 1.1c-1.2 0-2.4-.2-3.5-.6-1.9-.8-3.5-2.3-4.2-4.3-.7-1.9-.7-4.1 0-6 .7-2 2.2-3.5 4.2-4.3 1-.4 2.2-.6 3.5-.6 2.3-.1 4.5.8 6.1 2.4.7.7 1.2 1.6 1.6 2.5.8 2 .8 4.1 0 6.1-.7 1.9-2.2 3.5-4.1 4.3-1.2.3-2.4.5-3.6.5zm-3.4-7.9c0 1.2.3 2.2.9 2.9.7.7 1.5 1.1 2.5 1.1.9 0 1.8-.4 2.4-1.1.3-.4.5-.8.7-1.3.2-.5.3-1 .3-1.6 0-1.2-.3-2.2-1-2.9-.6-.7-1.5-1.1-2.4-1.1-.9 0-1.8.4-2.4 1.1-.3.4-.6.7-.7 1.3-.2.5-.3 1-.3 1.6zm23.7-3.7c-1.1 0-2.2.2-3.1.6-.8.3-1.5.8-2 1.6v9.2h-4.7V11.1h4.3v3.1c.5-1 1.2-1.9 2.1-2.4.8-.6 1.7-.9 2.6-.9h.8v4.2zm2 13.6c.7.2 1.3.4 2 .4.6 0 1-.2 1.3-.6.3-.4.6-1.1.8-2.1l-5.8-15.3h4.8l3.5 11.3 3.1-11.3h4.4l-5.9 17.8c-.9 3-4 4.8-7.1 4.2-.4-.1-.8-.2-1.2-.4v-4h.1zm25.3-2c-1.2 0-2.2-.2-3.1-.7-.9-.5-1.6-1.2-2.1-2v2.5h-4.1V5.1h4.7v8.5c1-1.8 2.9-2.9 5-2.8 1 0 1.9.2 2.7.6.8.4 1.5 1 2.1 1.7 1.8 2.5 2.3 5.8 1.3 8.8-.4 1-.9 1.8-1.5 2.5-1.2 1.5-3.1 2.3-5 2.3zm-1.3-3.9c1.5 0 2.9-1 3.4-2.4.5-1.5.3-3.2-.7-4.4-.6-.8-1.5-1.2-2.5-1.2-.7 0-1.4.3-2 .7-.6.5-1.1 1.2-1.4 1.9v3.2c.5 1.3 1.8 2.1 3.2 2.2zM137 5.1h4.7V21c0 1.2.5 1.8 1.5 1.8.5 0 1.1-.1 1.5-.4l.6 3.5c-1.3.6-2.7.9-4.1.9-1.3 0-2.4-.4-3.1-1-.7-.7-1.1-1.7-1.1-3.1V5.1zm17.2 21.6c-1.2 0-2.4-.2-3.5-.6-2-.8-3.5-2.3-4.2-4.3-1.1-2.9-.5-6.2 1.6-8.6.7-.7 1.6-1.3 2.6-1.7 1-.4 2.2-.6 3.5-.6 2.3-.1 4.5.8 6.1 2.4.7.7 1.2 1.6 1.6 2.5 1.1 2.9.5 6.2-1.6 8.6-.7.8-1.6 1.4-2.6 1.7-1.2.4-2.4.6-3.5.6zm-3.4-7.9c0 1.2.3 2.2.9 2.9.7.7 1.5 1.1 2.5 1.1.9 0 1.8-.4 2.4-1.1.3-.4.5-.8.7-1.3.2-.5.3-1 .3-1.6 0-1.2-.3-2.2-1-2.9-.6-.7-1.5-1.1-2.4-1.1-.9 0-1.8.4-2.4 1.1-.3.4-.6.7-.7 1.3-.3.5-.3 1-.3 1.6zm24.2 7.6-4-6.2-1.6 1.7v4.5h-4.7V5.1h4.7v12.3l5.2-6.3h5l-5.5 6.6 6 8.7H175z"/></svg>
