<svg width="200" height="90" viewBox="0 0 200 90" fill="none" xmlns="http://www.w3.org/2000/svg">
<path d="M29.3545 44.2715H21.5835V48.0033H29.1716C29.618 48.0033 30.0277 47.8204 30.3643 47.5204C30.6644 47.2204 30.8473 46.774 30.8473 46.2179C30.8546 45.7349 30.7156 45.2666 30.4375 44.8788C30.1375 44.5056 29.8009 44.2788 29.3545 44.2788V44.2715ZM29.618 39.764C29.9546 39.5371 30.1009 39.0542 30.1009 38.4249C30.1009 37.8688 29.9546 37.459 29.6911 37.1956C29.4277 36.9687 29.0911 36.8224 28.7179 36.8224H21.5835V40.1811H28.5716C28.9448 40.1811 29.318 39.9981 29.618 39.7713V39.764Z" fill="#09B3AF"/>
<path d="M41.0183 26H11.683C10.7464 26 10 26.7464 10 27.6391V56.9452C10 57.8379 10.7464 58.4013 11.6464 58.4013H15.9783V64.2552L21.3566 58.4379H41.011C41.9111 58.4379 42.4672 57.8818 42.4672 56.9452V27.6757C42.4672 26.783 41.9037 26.0366 40.9744 26.0366L41.011 26H41.0183ZM36.0864 49.7522C35.7132 50.4254 35.1498 50.9815 34.4766 51.3913C33.7668 51.8376 32.9839 52.2474 32.0838 52.4377C31.1838 52.6645 30.2179 52.8474 29.2081 52.8474H15.9783V31.9637H31.0009C31.7472 31.9637 32.3838 32.11 32.9839 32.4466C33.5473 32.7466 34.0668 33.1564 34.4766 33.6393C35.3108 34.6564 35.7645 35.937 35.7498 37.2541C35.7498 38.22 35.4864 39.1566 35.0035 40.0494C34.4986 40.9494 33.7083 41.6592 32.7643 42.0616C33.9571 42.3982 34.8937 42.9909 35.6035 43.8544C36.2767 44.7471 36.6133 45.9032 36.6133 47.3594C36.6133 48.2887 36.423 49.0717 36.0498 49.7449H36.0864V49.7522Z" fill="#09B3AF"/>
<path d="M62.7291 52.6938C61.4193 52.6938 60.1534 52.5109 58.8802 52.0938C57.6874 51.7059 56.5898 51.0766 55.6678 50.2278L57.3508 47.396C58.2875 48.0326 59.1802 48.5156 60.0802 48.8888C60.8851 49.2327 61.7486 49.4156 62.6194 49.4083C63.2194 49.4083 63.7023 49.2985 64.0389 49.0717C64.3755 48.8888 64.5219 48.5522 64.5219 48.1424C64.5219 47.7692 64.3316 47.396 63.8853 47.1765C63.1828 46.8399 62.4437 46.5911 61.6827 46.4301L59.0704 45.574C58.3606 45.274 57.7972 44.974 57.3508 44.6447C56.9045 44.3447 56.5679 43.9349 56.3776 43.5251C56.1727 43.0568 56.0703 42.5446 56.0776 42.0324C56.0557 40.5616 56.6996 39.164 57.8338 38.2273C58.3606 37.781 59.0265 37.4444 59.7802 37.181C60.5339 36.9175 61.3461 36.8078 62.2096 36.8078C63.3657 36.8078 64.4487 36.9541 65.4585 37.2541C66.4683 37.5907 67.4415 38.1469 68.3708 38.9664L66.5415 41.7616C65.817 41.2421 65.0414 40.8104 64.2219 40.4591C63.5121 40.1591 62.8755 40.0494 62.2023 40.0494C61.7193 40.0494 61.2656 40.1225 60.929 40.3494C60.5558 40.5323 60.4095 40.8689 60.4095 41.3153C60.4095 41.7616 60.5998 42.0616 60.9729 42.2885C61.3461 42.5153 62.0925 42.7348 63.1023 42.9983C64.0389 43.2324 64.9609 43.5178 65.8683 43.8544C66.6146 44.1544 67.2147 44.491 67.6976 44.8276C68.6123 45.5008 69.1245 46.5984 69.044 47.7326C69.044 49.2619 68.4806 50.4547 67.3244 51.3474C66.2049 52.2401 64.7121 52.6865 62.7291 52.6865V52.6938ZM81.2274 51.6108C80.5103 51.9035 79.7713 52.1523 79.0249 52.3572C78.2054 52.584 77.3785 52.7304 76.5224 52.7304C75.9223 52.7304 75.4028 52.6572 74.8759 52.5035C74.371 52.3572 73.8954 52.1011 73.493 51.7572C73.1198 51.4572 72.8198 51.0108 72.5929 50.5278C72.3661 50.0083 72.2197 49.3717 72.2197 48.6253V40.6128H70.2733V37.1078H72.2563V32.2271H76.8882V37.0712H80.0274V40.6128H76.8882V47.0228C76.8882 47.5058 76.998 47.879 77.2614 48.1424C77.5248 48.3253 77.8614 48.4424 78.2346 48.4424C78.6078 48.4424 78.981 48.4058 79.3176 48.2595C79.6908 48.1497 80.0274 48.0326 80.2908 47.8863L81.1908 51.6108H81.2274ZM89.9717 52.6938C88.7863 52.7157 87.6009 52.4962 86.4959 52.0572C84.5495 51.2889 83.0275 49.7303 82.3104 47.7692C81.5787 45.8228 81.5787 43.6788 82.3104 41.7324C83.0275 39.7713 84.5495 38.2127 86.4959 37.4444C87.5057 37.0346 88.6619 36.8078 89.9717 36.8078C92.2474 36.698 94.4572 37.5834 96.0231 39.2298C96.7329 39.9396 97.2598 40.7957 97.633 41.725C98.4013 43.6788 98.4013 45.852 97.633 47.8058C96.9086 49.7449 95.4012 51.2889 93.484 52.0572C92.3645 52.5035 91.1717 52.7157 89.9717 52.6938ZM86.6057 44.791C86.6057 45.9838 86.9057 46.957 87.5423 47.6594C88.2155 48.4058 89.0351 48.779 90.0083 48.779C90.9449 48.8009 91.8376 48.3839 92.4376 47.6594C92.745 47.2789 92.9864 46.8545 93.1474 46.3935C93.3377 45.9106 93.4108 45.3471 93.4108 44.791C93.4108 43.5617 93.0742 42.5885 92.4376 41.886C91.801 41.1397 90.9815 40.7665 90.0083 40.7665C89.0716 40.7665 88.1862 41.1762 87.5789 41.886C87.2789 42.2592 87.0155 42.6324 86.8325 43.1519C86.6642 43.6788 86.5911 44.2349 86.6057 44.791ZM110.263 41.1031C109.143 41.1031 108.097 41.286 107.16 41.6592C106.341 41.9373 105.638 42.4861 105.177 43.2251V52.4377H100.509V37.1078H104.804V40.1664C105.331 39.1201 105.997 38.3005 106.86 37.7444C107.68 37.1444 108.543 36.8517 109.48 36.8151H109.963L110.263 36.8517V41.1031ZM112.319 54.7134C112.97 54.9402 113.651 55.0646 114.339 55.0866C114.902 55.0866 115.348 54.9036 115.685 54.5304C115.985 54.1573 116.248 53.4109 116.504 52.445L110.673 37.1224H115.495L119.044 48.4204L122.146 37.1224H126.522L120.653 54.9036C119.731 57.9257 116.651 59.7404 113.556 59.0819C113.182 59.0087 112.736 58.8989 112.319 58.7087V54.7207V54.7134ZM137.578 52.7011C136.422 52.7011 135.376 52.4743 134.513 51.9547C133.642 51.4791 132.917 50.7693 132.42 49.9059V52.4377H128.344V31.1075H133.049V39.6103C134.073 37.8249 135.998 36.7492 138.054 36.8151C139.027 36.8151 139.92 36.998 140.747 37.4517C141.566 37.8249 142.24 38.4176 142.876 39.1274C144.713 41.6738 145.218 44.9447 144.223 47.9302C143.849 48.8961 143.323 49.7595 142.693 50.462C141.376 51.8962 139.518 52.7084 137.571 52.7011H137.578ZM136.269 48.7863C137.783 48.7863 139.137 47.8277 139.635 46.4008C140.183 44.9008 139.913 43.2178 138.925 41.9665C138.34 41.1982 137.425 40.7592 136.459 40.7738C135.749 40.7738 135.076 41.0372 134.439 41.5202C133.839 42.0397 133.356 42.6763 133.02 43.4593V46.6643C133.627 47.9302 134.9 48.7424 136.305 48.7497L136.269 48.7863ZM147.033 31.1149H151.701V46.957C151.701 48.1497 152.184 48.7131 153.194 48.7131C153.728 48.7131 154.255 48.5887 154.723 48.34L155.36 51.8084C154.05 52.3791 152.638 52.6865 151.211 52.7011C149.864 52.7011 148.818 52.3279 148.108 51.6547C147.362 50.9083 146.989 49.9425 146.989 48.5961V31.1075H147.025L147.033 31.1149ZM164.184 52.7011C162.999 52.7231 161.814 52.5035 160.709 52.0645C158.755 51.3035 157.218 49.7449 156.487 47.7765C155.404 44.8422 156.011 41.5568 158.06 39.2006C158.806 38.4542 159.626 37.8981 160.672 37.4517C161.682 37.0419 162.838 36.8151 164.148 36.8151C166.424 36.7053 168.633 37.5907 170.199 39.2371C170.946 39.9469 171.436 40.8031 171.809 41.7324C172.936 44.6593 172.329 47.9668 170.243 50.3083C169.512 51.0767 168.619 51.6767 167.631 52.0572C166.526 52.4962 165.348 52.7084 164.155 52.6938H164.192L164.184 52.7011ZM160.782 44.7983C160.782 45.9911 161.082 46.9643 161.718 47.6668C162.392 48.4131 163.211 48.7863 164.184 48.7863C165.121 48.8009 166.014 48.3912 166.614 47.6668C166.921 47.2863 167.163 46.8618 167.324 46.4008C167.514 45.9179 167.587 45.3545 167.587 44.7983C167.587 43.569 167.25 42.5958 166.614 41.8933C165.977 41.147 165.158 40.7738 164.184 40.7738C163.248 40.7738 162.362 41.1836 161.755 41.8933C161.455 42.2665 161.192 42.6397 161.009 43.1593C160.826 43.6788 160.782 44.2056 160.782 44.7983ZM185.032 52.445L181.036 46.2545L179.39 47.9668V52.4377H174.721V31.1075H179.39V43.4519L184.585 37.1151H189.554L184.022 43.7154L190 52.4377H185.032V52.445Z" fill="black"/>
</svg>
