<svg width="200" height="90" viewBox="0 0 200 90" fill="none" xmlns="http://www.w3.org/2000/svg">
<path d="M31.9211 52.1226C26.3409 50.5884 21.5243 49.2682 21.5243 44.1091C21.5243 40.4413 24.45 37.6726 28.339 37.6726C33.0486 37.6726 34.4686 40.8123 35.8387 43.8522C36.9732 46.364 38.0436 48.7402 40.9265 48.7402C43.3384 48.7402 45.158 46.9777 45.158 44.6371C45.158 39.3352 38.6787 33.8478 27.8323 33.8478C17.9921 33.8478 10.8492 39.2353 10.8492 46.6565C10.8492 56.5681 18.513 58.609 25.2706 60.4215C30.8079 61.8986 35.5889 63.183 35.5889 68.2708C35.5889 72.2954 32.7845 74.7002 28.0892 74.7002C22.7659 74.7002 21.2888 71.4891 19.8474 68.385C18.6985 65.8946 17.6067 63.5398 14.574 63.5398C11.7055 63.5398 10 65.1739 10 67.914C10 73.0447 16.7647 78.3537 28.0892 78.3537C38.7857 78.3537 46.2569 73.1945 46.2569 65.809C46.2569 56.0401 38.643 53.9493 31.914 52.1083L31.9211 52.1226ZM102.644 33.855C99.6111 33.855 97.6488 35.8173 97.6488 38.85C97.6488 41.8827 99.2757 43.5311 101.003 45.3864C102.908 47.4272 104.87 49.5394 104.87 53.5212C104.87 64.6316 97.8343 73.5727 92.0186 73.5727C90.6914 73.5727 89.621 73.1446 88.8147 72.3025C87.5516 70.9681 86.9308 68.6133 86.9808 65.2952L87.152 36.2954C87.152 35.4248 86.9023 34.7755 86.4099 34.3545C85.8391 33.8621 84.9899 33.7265 83.8696 33.9477L75.5493 35.7031C74.4575 35.9101 73.7582 36.6593 73.7582 37.6155V37.8724C73.7582 38.743 74.3861 39.3352 75.0498 39.9632C75.956 40.8195 76.9836 41.7899 76.9836 43.7666V55.8831C76.9836 66.9507 71.5318 73.5584 66.2513 73.5584C65.0097 73.5584 63.9822 73.1374 63.183 72.2954C61.8985 70.9467 61.2492 68.5848 61.2991 65.4593L61.4632 36.2883C61.4632 35.5105 61.2634 34.9539 60.8567 34.5899C60.1931 33.9977 59.087 34.069 58.2022 34.2046L49.1826 35.7031C48.1621 35.9101 47.4771 36.6807 47.4771 37.6155V37.8724C47.4771 38.743 48.1051 39.3352 48.7687 39.9632C49.6749 40.8195 50.7025 41.7899 50.7025 43.7666V61.5989C50.7025 76.8123 60.2002 78.4464 64.2819 78.4464C70.2973 78.4464 75.1925 75.7634 78.4821 70.6827C80.4087 75.6992 84.4547 78.4464 89.9564 78.4464C100.51 78.4464 111.192 68.0425 111.192 48.1551C111.192 39.3281 107.917 33.8478 102.63 33.8478L102.644 33.855ZM134.455 54.6914C131.208 55.3622 126.021 55.4692 122.638 55.2338C122.488 54.0135 122.417 52.7006 122.417 51.3305C122.417 43.631 126.499 38.0437 132.129 38.0437C136.439 38.0437 140.157 41.7614 140.228 46.1499C140.314 52.5008 137.359 54.0349 134.448 54.6986L134.455 54.6914ZM150.96 63.3971C150.168 63.0688 149.212 63.3685 148.641 64.1249L148.605 64.1749C146.829 67.8427 141.976 70.4044 136.81 70.4044C130.695 70.4044 125.921 66.5368 123.673 59.7792C128.789 60.2502 132.985 60.0861 136.467 59.2869C145.202 57.3531 150.411 52.4294 150.411 46.1285C150.411 42.9816 149.376 40.3271 147.335 38.2292C144.524 35.3463 139.935 33.7836 134.448 33.8407C122.346 33.9335 113.554 43.1672 113.554 55.7903C113.554 69.3412 122.196 78.4464 135.047 78.4464C141.127 78.4464 145.037 75.9418 147.25 73.8439C149.74 71.4748 151.495 68.2637 151.938 65.2453V65.231C152.016 64.3747 151.659 63.6825 150.967 63.3899L150.96 63.3971ZM169.192 73.3658C168.229 72.5666 167.23 71.7388 167.23 69.9549V14.1103C167.23 13.3325 166.909 12.6688 166.338 12.3049C165.66 11.8696 164.732 11.8982 163.705 12.4048L155.113 16.7933C154.35 17.1858 153.493 17.6353 153.493 18.6772V18.9412C153.493 19.7119 154.043 20.2542 154.678 20.8821C155.556 21.7455 156.64 21.5457 156.64 23.6365V69.9406C156.64 71.7317 155.734 72.5594 154.863 73.3658C154.157 74.0151 153.493 74.6288 153.493 75.6563V75.9204C153.493 76.9265 154.321 77.5687 155.598 77.5687H168.521C169.813 77.5687 170.712 76.898 170.712 75.9204V75.6563C170.712 74.6217 169.97 74.008 169.192 73.3586V73.3658ZM188.487 73.3658C187.524 72.5666 186.525 71.7388 186.525 69.9549V14.1103C186.525 13.3325 186.204 12.6688 185.633 12.3049C184.955 11.8696 184.02 11.8982 183 12.4048L174.408 16.7933C173.645 17.1858 172.789 17.6353 172.789 18.6772V18.9412C172.789 19.7119 173.331 20.2542 173.973 20.8821C174.844 21.7455 175.935 21.5457 175.935 23.6365V69.9406C175.935 71.7317 175.029 72.5594 174.159 73.3658C173.452 74.0151 172.781 74.6288 172.781 75.6563V75.9204C172.781 76.9265 173.609 77.5687 174.886 77.5687H187.809C189.101 77.5687 190 76.898 190 75.9204V75.6563C190 74.6217 189.265 74.008 188.48 73.3586L188.487 73.3658Z" fill="#57349B"/>
</svg>
