<svg width="200" height="90" viewBox="0 0 200 90" fill="none" xmlns="http://www.w3.org/2000/svg">
<path fill-rule="evenodd" clip-rule="evenodd" d="M45 12.4548L65.4215 27.9701L65.3866 57.0623L45 37.839V12.4548Z" fill="#30C6FD"/>
<path fill-rule="evenodd" clip-rule="evenodd" d="M45 12.4548L73.1156 0L94.5228 12.335L65.4215 27.97L45 12.4548Z" fill="#17C1FF"/>
<path fill-rule="evenodd" clip-rule="evenodd" d="M71.3491 32.2545L100.564 54.9064L100.551 89.9998L71.3491 62.6419V32.2545Z" fill="#30C6FD"/>
<path fill-rule="evenodd" clip-rule="evenodd" d="M100.394 15.6262L129.778 32.2547L100.564 54.9155L71.3491 32.2547L100.394 15.6262Z" fill="#17C1FF"/>
<path fill-rule="evenodd" clip-rule="evenodd" d="M100.564 89.9999L129.704 62.611L129.778 32.2502L100.551 54.9021L100.564 89.9955V89.9999Z" fill="#13B7F3"/>
<path fill-rule="evenodd" clip-rule="evenodd" d="M106.265 12.4548L127.593 0L155.787 12.2419L135.388 27.97L106.265 12.4548Z" fill="#17C1FF"/>
<path fill-rule="evenodd" clip-rule="evenodd" d="M135.388 27.9701L135.353 57.3594L155.787 37.8789V12.2419L135.388 27.9701Z" fill="#13B7F3"/>
</svg>
