<svg xmlns="http://www.w3.org/2000/svg" xml:space="preserve" id="Layer_1" x="0" y="0" version="1.1" viewBox="0 0 90 90"><style>.st0{fill:#02c652}</style><path d="M40.5 3c-.8.5-1.6 1.3-3.2 2.9-1.6 1.6-2.4 2.4-2.9 3.2-1.7 2.7-1.7 6 0 8.7.5.8 1.3 1.6 2.9 3.2 1.6 1.6 2.4 2.4 3.2 2.9 2.7 1.7 6 1.7 8.7 0 .8-.5 1.6-1.3 3.2-2.9 1.6-1.6 2.4-2.4 2.9-3.2 1.7-2.7 1.7-6 0-8.7-.5-.8-1.3-1.6-2.9-3.2C50.8 4.3 50 3.5 49.2 3c-2.7-1.6-6-1.6-8.7 0zM50.9 52.3 69.2 34c.8-.8 1.7-1.4 2.7-1.8 1-.4 2.1-.6 3.1-.6 1.1 0 2.1.2 3.1.6 1 .4 1.9 1 2.7 1.8l9.2 9.2-45 45-45-45 9.3-9.3c.8-.8 1.7-1.4 2.7-1.8 1-.4 2.1-.6 3.1-.6 1.1 0 2.1.2 3.1.6 1 .4 1.9 1 2.7 1.8l18.4 18.4c.8.8 1.7 1.4 2.7 1.8 1 .4 2.1.6 3.1.6 1.1 0 2.1-.2 3.1-.6 1-.4 1.9-1 2.7-1.8z" class="st0"/></svg>
