<svg width="200" height="90" viewBox="0 0 200 90" fill="none" xmlns="http://www.w3.org/2000/svg">
<path d="M95.5085 3.02935C94.7055 3.5287 93.9175 4.31668 92.3415 5.89265C90.7657 7.46841 89.9775 8.25664 89.4782 9.05962C87.8255 11.7174 87.8255 15.0832 89.4782 17.741C89.9775 18.5439 90.7653 19.3317 92.3405 20.907L92.3413 20.9078C93.9173 22.4838 94.7055 23.2719 95.5085 23.7713C98.1663 25.424 101.532 25.424 104.19 23.7713C104.993 23.2719 105.781 22.484 107.357 20.908C108.933 19.332 109.721 18.544 110.22 17.741C111.873 15.0832 111.873 11.7174 110.22 9.05962C109.721 8.25659 108.933 7.46863 107.357 5.89269C105.781 4.31672 104.993 3.5287 104.19 3.02935C101.532 1.37662 98.1663 1.3766 95.5085 3.02935Z" fill="#02C652"/>
<path d="M105.877 52.3335L124.215 33.9957C124.974 33.2359 125.876 32.6333 126.869 32.2221C127.862 31.8109 128.926 31.5993 130 31.5993C131.075 31.5993 132.139 31.8109 133.131 32.2221C134.124 32.6333 135.026 33.2359 135.786 33.9957L145 43.2102C144.945 43.2655 100 88.2103 100 88.2103L55 43.2102C55.1221 43.0885 60.1042 38.1063 64.3115 33.8989C65.0709 33.1394 65.9724 32.537 66.9645 32.1261C67.9567 31.7151 69.0202 31.5036 70.0941 31.5037C71.168 31.5038 72.2314 31.7154 73.2235 32.1266C74.2156 32.5377 75.117 33.1402 75.8762 33.8998L94.3108 52.3342C95.0702 53.0936 95.9719 53.696 96.9642 54.107C97.9565 54.518 99.02 54.7295 100.094 54.7294C101.168 54.7294 102.232 54.5177 103.224 54.1066C104.216 53.6955 105.118 53.093 105.877 52.3335Z" fill="#02C652"/>
</svg>
