<svg width="200" height="90" viewBox="0 0 200 90" fill="none" xmlns="http://www.w3.org/2000/svg">
<path d="M39.0337 0H162.109C169.899 0 176.201 6.30791 176.201 14.0924V61.071C176.201 68.8614 169.893 75.1634 162.109 75.1634H117.971L124.031 90L97.3879 75.1634H39.0928C31.3083 75.1693 25.0004 68.8614 25.0004 61.071V14.0924C24.9413 6.36698 31.2434 0 39.0337 0Z" fill="#9B5C8F"/>
<path d="M33.6119 12.8461C34.4742 11.6766 35.7617 11.0624 37.4864 10.9383C40.6226 10.6903 42.4063 12.1668 42.8316 15.3621C44.7393 28.2083 46.8242 39.0877 49.0391 48.0003L62.4995 22.367C63.728 20.034 65.2636 18.7996 67.1064 18.6815C69.8115 18.4984 71.4712 20.2171 72.1445 23.8436C73.6801 32.0179 75.6469 38.9637 77.9858 44.864C79.5864 29.2537 82.2856 18.0023 86.101 11.0565C87.0224 9.33773 88.3749 8.47541 90.1586 8.35138C91.5702 8.22735 92.8637 8.65851 94.0332 9.57989C95.2026 10.5013 95.8169 11.6707 95.9409 13.0823C96 14.1868 95.8169 15.1082 95.3266 16.0355C92.9287 20.4593 90.9619 27.8953 89.3672 38.2254C87.8316 48.2424 87.2764 56.0506 87.6485 61.6438C87.7725 63.1794 87.5244 64.532 86.9102 65.7014C86.1719 67.054 85.0674 67.7922 83.6499 67.9163C82.0493 68.0403 80.3896 67.302 78.7949 65.6424C73.0777 59.801 68.5298 51.0775 65.2105 39.4598C61.2178 47.327 58.2647 53.2273 56.357 57.1609C52.7305 64.1067 49.6592 67.6741 47.0782 67.8572C45.4185 67.9813 44.0069 66.5637 42.7784 63.6165C39.6422 55.5662 36.2638 40.015 32.6373 16.9627C32.3893 15.3621 32.7614 13.9505 33.6237 12.8461H33.6119ZM165.7 22.4969C163.485 18.6224 160.231 16.2894 155.866 15.368C154.697 15.12 153.592 15.0019 152.547 15.0019C146.646 15.0019 141.85 18.0731 138.1 24.2216C134.905 29.4486 133.304 35.225 133.304 41.5565C133.304 46.2875 134.29 50.3451 136.257 53.7235C138.472 57.598 141.726 59.931 146.091 60.8524C147.261 61.1004 148.365 61.2186 149.411 61.2186C155.37 61.2186 160.166 58.1473 163.857 51.9988C167.053 46.7127 168.653 40.9364 168.653 34.6048C168.712 29.8089 167.667 25.8163 165.7 22.4969ZM157.957 39.5248C157.095 43.5824 155.559 46.5946 153.285 48.6204C151.501 50.221 149.842 50.8944 148.306 50.5872C146.829 50.2801 145.601 48.9866 144.68 46.5946C143.941 44.6869 143.575 42.785 143.575 41.0013C143.575 39.4657 143.699 37.9301 144.006 36.5126C144.561 33.9906 145.607 31.5336 147.267 29.2006C149.292 26.1884 151.448 24.9599 153.657 25.391C155.134 25.6981 156.362 26.9916 157.284 29.3837C158.022 31.2914 158.388 33.1932 158.388 34.9769C158.388 36.5775 158.264 38.1132 157.957 39.5248ZM127.226 22.4969C125.012 18.6224 121.692 16.2894 117.393 15.368C116.223 15.12 115.119 15.0019 114.073 15.0019C108.173 15.0019 103.377 18.0731 99.6264 24.2216C96.4311 29.4486 94.8305 35.225 94.8305 41.5565C94.8305 46.2875 95.8169 50.3451 97.7837 53.7235C99.9985 57.598 103.253 59.931 107.618 60.8524C108.787 61.1004 109.892 61.2186 110.937 61.2186C116.896 61.2186 121.692 58.1473 125.384 51.9988C128.579 46.7127 130.18 40.9364 130.18 34.6048C130.18 29.8089 129.193 25.8163 127.226 22.4969ZM119.418 39.5248C118.556 43.5824 117.02 46.5946 114.747 48.6204C112.963 50.221 111.303 50.8944 109.768 50.5872C108.291 50.2801 107.062 48.9866 106.141 46.5946C105.403 44.6869 105.037 42.785 105.037 41.0013C105.037 39.4657 105.161 37.9301 105.468 36.5126C106.023 33.9906 107.068 31.5336 108.728 29.2006C110.754 26.1884 112.91 24.9599 115.119 25.391C116.595 25.6981 117.824 26.9916 118.745 29.3837C119.483 31.2914 119.85 33.1932 119.85 34.9769C119.909 36.5775 119.726 38.1132 119.418 39.5248Z" fill="white"/>
</svg>
