<svg width="468" height="536" viewBox="0 0 468 536" fill="none" xmlns="http://www.w3.org/2000/svg">
<path d="M84.3102 204.864L84.3107 204.865L84.3129 204.867L84.3134 204.867L84.3809 204.934C89.9493 210.435 92.8035 213.255 95.7231 215.049C105.384 220.984 117.616 220.984 127.277 215.049C130.196 213.255 133.049 210.437 138.616 204.936L138.686 204.867L138.757 204.798C144.323 199.298 147.177 196.479 148.993 193.595C155.003 184.046 155.002 171.954 148.993 162.405C147.177 159.521 144.324 156.702 138.757 151.203L138.686 151.133L138.616 151.063C133.049 145.563 130.196 142.745 127.277 140.951C117.616 135.016 105.384 135.016 95.7231 140.951C92.8038 142.745 89.9506 145.564 84.3834 151.064L84.3136 151.133L84.2437 151.202C78.6775 156.701 75.823 159.521 74.0074 162.405C67.9975 171.954 67.9976 184.046 74.0074 193.595C75.8227 196.479 78.6753 199.297 84.2392 204.794L84.3102 204.864Z" stroke="#A3A0A9"/>
<path d="M87.383 203.747C86.8988 204.048 86.4238 204.523 85.4736 205.474C84.5236 206.424 84.0484 206.899 83.7473 207.383C82.7509 208.985 82.7509 211.015 83.7473 212.617C84.0483 213.101 84.5233 213.576 85.473 214.526L85.4735 214.526C86.4236 215.476 86.8988 215.952 87.383 216.253C88.9854 217.249 91.0146 217.249 92.617 216.253C93.1012 215.952 93.5762 215.477 94.5264 214.526C95.4765 213.576 95.9516 213.101 96.2527 212.617C97.2491 211.015 97.2491 208.985 96.2527 207.383C95.9516 206.899 95.4765 206.424 94.5264 205.474C93.5762 204.523 93.1012 204.048 92.617 203.747C91.0146 202.751 88.9854 202.751 87.383 203.747Z" fill="#02BB4D"/>
<path d="M34.2092 501.776L34.2093 501.776L34.2154 501.782L34.2155 501.782L34.2817 501.848C47.1127 514.679 53.599 521.166 60.2194 525.282C82.1278 538.906 109.872 538.906 131.781 525.282C138.4 521.166 144.884 514.682 157.712 501.854L157.783 501.783L157.853 501.713C170.682 488.884 177.166 482.4 181.282 475.781C194.906 453.872 194.906 426.128 181.282 404.219C177.166 397.6 170.682 391.116 157.854 378.288L157.783 378.217L157.712 378.146C144.884 365.318 138.4 358.834 131.781 354.718C109.872 341.094 82.1278 341.094 60.2194 354.718C53.5998 358.834 47.1158 365.318 34.2878 378.146L34.217 378.217L34.1481 378.286C21.3202 391.113 14.8338 397.6 10.7177 404.219C-2.90599 426.128 -2.90581 453.872 10.7177 475.781C14.833 482.399 21.3154 488.881 34.1376 501.704L34.2092 501.776Z" stroke="#A3A0A9"/>
<path d="M30.9575 357.815C29.7471 358.546 28.5594 359.7 26.184 362.007C23.8089 364.315 22.6209 365.469 21.8683 366.644C19.3772 370.536 19.3772 375.464 21.8683 379.356C22.6208 380.531 23.8082 381.685 26.1826 383.991L26.1838 383.992C28.5591 386.3 29.7471 387.454 30.9575 388.185C34.9635 390.605 40.0365 390.605 44.0425 388.185C45.2529 387.454 46.4406 386.3 48.816 383.993C51.1913 381.685 52.379 380.531 53.1317 379.356C55.6228 375.464 55.6228 370.536 53.1317 366.644C52.379 365.469 51.1913 364.315 48.816 362.007C46.4406 359.7 45.2529 358.546 44.0425 357.815C40.0365 355.395 34.9635 355.395 30.9575 357.815Z" fill="#02BB4D"/>
<path d="M207.645 242.577L207.645 242.577L207.654 242.586L207.655 242.587L207.718 242.649C228.016 262.473 238.237 272.456 248.662 278.787C283.158 299.738 326.842 299.738 361.338 278.787C371.762 272.456 381.979 262.478 402.272 242.658L402.343 242.588L402.415 242.518C422.708 222.699 432.925 212.72 439.408 202.539C460.864 168.839 460.864 126.161 439.408 92.4611C432.925 82.2798 422.708 72.3011 402.417 52.4834L402.343 52.4116L402.272 52.3419C381.979 32.5222 371.762 22.5437 361.338 16.2131C326.842 -4.73758 283.158 -4.73785 248.662 16.2131C238.238 22.5438 228.021 32.5225 207.727 52.3426L207.657 52.4116L207.587 52.4794C187.296 72.2971 177.075 82.2797 170.592 92.4611C149.136 126.161 149.136 168.839 170.592 202.539C177.073 212.718 187.288 222.695 207.571 242.505L207.645 242.577Z" stroke="#73707B"/>
<path d="M327.621 364.082L327.622 364.082L327.626 364.087L327.627 364.088L327.693 364.152C338.759 374.948 344.363 380.416 350.084 383.887C369.014 395.371 392.985 395.371 411.916 383.887C417.636 380.416 423.238 374.951 434.301 364.158L434.373 364.088L434.444 364.018C445.507 353.225 451.109 347.76 454.667 342.177C466.444 323.7 466.444 300.3 454.667 281.823C451.109 276.241 445.507 270.775 434.446 259.983L434.373 259.912L434.301 259.843C423.238 249.049 417.636 243.584 411.916 240.113C392.985 228.629 369.014 228.629 350.084 240.113C344.364 243.584 338.762 249.049 327.698 259.843L327.627 259.912L327.557 259.981C316.495 270.773 310.89 276.241 307.333 281.823C295.556 300.3 295.556 323.7 307.333 342.177C310.89 347.758 316.491 353.223 327.547 364.01L327.621 364.082Z" stroke="#A3A0A9"/>
<g filter="url(#filter0_dd_705_9680)">
<g filter="url(#filter1_dd_705_9680)">
<path d="M107 95.1547C107 86.729 107 82.5161 108.243 79.1474C110.279 73.6289 114.629 69.2786 120.147 67.2428C123.516 66 127.729 66 136.155 66L316.845 66C325.271 66 329.484 66 332.853 67.2428C338.371 69.2786 342.721 73.6289 344.757 79.1474C346 82.5161 346 86.729 346 95.1547V451.845C346 460.271 346 464.484 344.757 467.853C342.721 473.371 338.371 477.721 332.853 479.757C329.484 481 325.271 481 316.845 481H136.155C127.729 481 123.516 481 120.147 479.757C114.629 477.721 110.279 473.371 108.243 467.853C107 464.484 107 460.271 107 451.845L107 95.1547Z" fill="#02BB4D"/>
</g>
<path d="M131 342H321.5" stroke="white" stroke-width="5" stroke-linecap="round"/>
<path d="M138.936 387.264C137.688 387.264 136.528 387.048 135.456 386.616C134.384 386.168 133.44 385.552 132.624 384.768C131.824 383.984 131.2 383.064 130.752 382.008C130.304 380.952 130.08 379.816 130.08 378.6C130.08 377.368 130.304 376.232 130.752 375.192C131.2 374.136 131.824 373.216 132.624 372.432C133.44 371.648 134.384 371.04 135.456 370.608C136.528 370.16 137.688 369.936 138.936 369.936C139.832 369.936 140.704 370.072 141.552 370.344C142.416 370.6 143.208 370.976 143.928 371.472C144.664 371.952 145.272 372.528 145.752 373.2L142.968 375.84C142.424 375.088 141.816 374.528 141.144 374.16C140.472 373.792 139.736 373.608 138.936 373.608C138.28 373.608 137.672 373.736 137.112 373.992C136.568 374.232 136.088 374.584 135.672 375.048C135.256 375.496 134.928 376.024 134.688 376.632C134.464 377.224 134.352 377.88 134.352 378.6C134.352 379.32 134.464 379.984 134.688 380.592C134.928 381.184 135.256 381.712 135.672 382.176C136.088 382.624 136.568 382.976 137.112 383.232C137.672 383.472 138.28 383.592 138.936 383.592C139.736 383.592 140.472 383.408 141.144 383.04C141.816 382.656 142.424 382.096 142.968 381.36L145.752 384C145.272 384.656 144.664 385.232 143.928 385.728C143.208 386.224 142.416 386.608 141.552 386.88C140.704 387.136 139.832 387.264 138.936 387.264ZM153.41 387.24C152.194 387.24 151.09 386.96 150.098 386.4C149.122 385.824 148.338 385.056 147.746 384.096C147.17 383.12 146.882 382.032 146.882 380.832C146.882 379.616 147.154 378.528 147.698 377.568C148.242 376.608 148.986 375.848 149.93 375.288C150.874 374.712 151.938 374.424 153.122 374.424C154.322 374.424 155.378 374.704 156.29 375.264C157.202 375.824 157.914 376.6 158.426 377.592C158.954 378.568 159.218 379.696 159.218 380.976V381.816H150.698C150.826 382.28 151.026 382.688 151.298 383.04C151.57 383.392 151.906 383.664 152.306 383.856C152.706 384.048 153.138 384.144 153.602 384.144C154.114 384.144 154.578 384.056 154.994 383.88C155.426 383.704 155.778 383.448 156.05 383.112L158.618 385.248C157.818 385.952 157.01 386.464 156.194 386.784C155.378 387.088 154.45 387.24 153.41 387.24ZM150.698 379.608H155.618C155.506 379.16 155.33 378.776 155.09 378.456C154.85 378.136 154.562 377.888 154.226 377.712C153.89 377.536 153.514 377.448 153.098 377.448C152.698 377.448 152.33 377.536 151.994 377.712C151.674 377.872 151.402 378.112 151.178 378.432C150.97 378.752 150.81 379.144 150.698 379.608ZM161.637 387V374.616H165.525V377.424C165.925 376.384 166.397 375.616 166.941 375.12C167.501 374.624 168.149 374.376 168.885 374.376C169.157 374.392 169.381 374.416 169.557 374.448C169.733 374.48 169.941 374.56 170.181 374.688V378.024C169.941 377.896 169.661 377.8 169.341 377.736C169.021 377.672 168.693 377.64 168.357 377.64C167.781 377.64 167.245 377.784 166.749 378.072C166.253 378.344 165.845 378.712 165.525 379.176V387H161.637ZM178.326 387.24C176.87 387.24 175.766 386.904 175.014 386.232C174.262 385.56 173.886 384.568 173.886 383.256V377.616H171.486V374.616H173.886V371.184L177.774 370.392V374.616H181.086V377.616H177.774V382.488C177.774 383.032 177.894 383.416 178.134 383.64C178.39 383.864 178.814 383.976 179.406 383.976C179.63 383.976 179.854 383.96 180.078 383.928C180.302 383.896 180.606 383.824 180.99 383.712V386.856C180.638 386.968 180.206 387.056 179.694 387.12C179.182 387.2 178.726 387.24 178.326 387.24ZM183.246 387V374.616H187.134V387H183.246ZM185.19 372.72C184.598 372.72 184.086 372.504 183.654 372.072C183.222 371.64 183.006 371.128 183.006 370.536C183.006 369.928 183.222 369.416 183.654 369C184.086 368.568 184.598 368.352 185.19 368.352C185.798 368.352 186.31 368.568 186.726 369C187.158 369.416 187.374 369.928 187.374 370.536C187.374 371.128 187.158 371.64 186.726 372.072C186.31 372.504 185.798 372.72 185.19 372.72ZM191.984 387V377.616H189.416V374.616H191.984V372.984C191.984 371.512 192.408 370.384 193.256 369.6C194.104 368.816 195.328 368.424 196.928 368.424C197.264 368.424 197.624 368.448 198.008 368.496C198.408 368.528 198.736 368.584 198.992 368.664V371.856C198.64 371.792 198.36 371.752 198.152 371.736C197.944 371.72 197.728 371.712 197.504 371.712C196.96 371.712 196.552 371.824 196.28 372.048C196.008 372.256 195.872 372.592 195.872 373.056V374.616H198.992V377.616H195.872V387H191.984ZM201.2 387V374.616H205.088V387H201.2ZM203.144 372.72C202.552 372.72 202.04 372.504 201.608 372.072C201.176 371.64 200.96 371.128 200.96 370.536C200.96 369.928 201.176 369.416 201.608 369C202.04 368.568 202.552 368.352 203.144 368.352C203.752 368.352 204.264 368.568 204.68 369C205.112 369.416 205.328 369.928 205.328 370.536C205.328 371.128 205.112 371.64 204.68 372.072C204.264 372.504 203.752 372.72 203.144 372.72ZM213.97 387.24C212.77 387.24 211.682 386.96 210.706 386.4C209.746 385.824 208.978 385.056 208.402 384.096C207.842 383.12 207.562 382.032 207.562 380.832C207.562 379.616 207.842 378.528 208.402 377.568C208.978 376.608 209.746 375.848 210.706 375.288C211.682 374.712 212.77 374.424 213.97 374.424C214.994 374.424 215.954 374.624 216.85 375.024C217.746 375.408 218.506 375.968 219.13 376.704L216.754 379.08C216.354 378.616 215.946 378.28 215.53 378.072C215.114 377.848 214.642 377.736 214.114 377.736C213.602 377.736 213.138 377.872 212.722 378.144C212.322 378.416 212.002 378.784 211.762 379.248C211.538 379.712 211.426 380.24 211.426 380.832C211.426 381.424 211.538 381.952 211.762 382.416C212.002 382.88 212.322 383.248 212.722 383.52C213.138 383.792 213.602 383.928 214.114 383.928C214.642 383.928 215.114 383.824 215.53 383.616C215.946 383.392 216.354 383.048 216.754 382.584L219.13 384.96C218.506 385.696 217.746 386.264 216.85 386.664C215.954 387.048 214.994 387.24 213.97 387.24ZM224.747 387.192C223.915 387.192 223.171 387.032 222.515 386.712C221.875 386.392 221.371 385.952 221.003 385.392C220.651 384.832 220.475 384.184 220.475 383.448C220.475 382.68 220.667 382.032 221.051 381.504C221.435 380.96 221.987 380.552 222.707 380.28C223.427 379.992 224.291 379.848 225.299 379.848C225.747 379.848 226.203 379.896 226.667 379.992C227.131 380.072 227.635 380.216 228.179 380.424V379.416C228.179 378.808 227.979 378.36 227.579 378.072C227.179 377.768 226.563 377.616 225.731 377.616C225.267 377.616 224.747 377.688 224.171 377.832C223.611 377.96 222.971 378.176 222.251 378.48L220.907 375.768C222.907 374.872 224.803 374.424 226.595 374.424C228.307 374.424 229.635 374.832 230.579 375.648C231.539 376.464 232.019 377.608 232.019 379.08V387H228.179V385.92C227.635 386.368 227.091 386.696 226.547 386.904C226.003 387.096 225.403 387.192 224.747 387.192ZM224.051 383.376C224.051 383.776 224.219 384.088 224.555 384.312C224.891 384.52 225.355 384.624 225.947 384.624C226.363 384.624 226.755 384.576 227.123 384.48C227.491 384.368 227.843 384.208 228.179 384V382.416C227.827 382.336 227.475 382.272 227.123 382.224C226.771 382.176 226.411 382.152 226.043 382.152C225.403 382.152 224.907 382.256 224.555 382.464C224.219 382.672 224.051 382.976 224.051 383.376ZM240.67 387.24C239.214 387.24 238.11 386.904 237.358 386.232C236.606 385.56 236.23 384.568 236.23 383.256V377.616H233.83V374.616H236.23V371.184L240.118 370.392V374.616H243.43V377.616H240.118V382.488C240.118 383.032 240.238 383.416 240.478 383.64C240.734 383.864 241.158 383.976 241.75 383.976C241.974 383.976 242.198 383.96 242.422 383.928C242.646 383.896 242.95 383.824 243.334 383.712V386.856C242.982 386.968 242.55 387.056 242.038 387.12C241.526 387.2 241.07 387.24 240.67 387.24ZM245.59 387V374.616H249.478V387H245.59ZM247.534 372.72C246.942 372.72 246.43 372.504 245.998 372.072C245.566 371.64 245.35 371.128 245.35 370.536C245.35 369.928 245.566 369.416 245.998 369C246.43 368.568 246.942 368.352 247.534 368.352C248.142 368.352 248.654 368.568 249.07 369C249.502 369.416 249.718 369.928 249.718 370.536C249.718 371.128 249.502 371.64 249.07 372.072C248.654 372.504 248.142 372.72 247.534 372.72ZM258.432 387.24C257.2 387.24 256.096 386.96 255.12 386.4C254.144 385.84 253.368 385.08 252.792 384.12C252.232 383.144 251.952 382.048 251.952 380.832C251.952 379.616 252.232 378.528 252.792 377.568C253.368 376.592 254.144 375.824 255.12 375.264C256.096 374.704 257.192 374.424 258.408 374.424C259.64 374.424 260.736 374.704 261.696 375.264C262.672 375.824 263.44 376.592 264 377.568C264.576 378.528 264.864 379.616 264.864 380.832C264.864 382.048 264.576 383.144 264 384.12C263.44 385.08 262.672 385.84 261.696 386.4C260.736 386.96 259.648 387.24 258.432 387.24ZM258.408 384C258.936 384 259.4 383.864 259.8 383.592C260.2 383.32 260.512 382.944 260.736 382.464C260.96 381.984 261.072 381.44 261.072 380.832C261.072 380.208 260.96 379.664 260.736 379.2C260.512 378.72 260.2 378.344 259.8 378.072C259.4 377.8 258.936 377.664 258.408 377.664C257.896 377.664 257.432 377.8 257.016 378.072C256.616 378.344 256.304 378.72 256.08 379.2C255.856 379.664 255.744 380.208 255.744 380.832C255.744 381.44 255.856 381.984 256.08 382.464C256.304 382.944 256.616 383.32 257.016 383.592C257.432 383.864 257.896 384 258.408 384ZM267.34 387V374.616H271.228V376.632C271.708 375.912 272.276 375.368 272.932 375C273.604 374.616 274.34 374.424 275.14 374.424C275.94 374.424 276.644 374.608 277.252 374.976C277.876 375.328 278.364 375.824 278.716 376.464C279.068 377.088 279.244 377.816 279.244 378.648V387H275.356V379.776C275.356 379.072 275.164 378.512 274.78 378.096C274.412 377.68 273.916 377.472 273.292 377.472C272.876 377.472 272.492 377.56 272.14 377.736C271.804 377.896 271.5 378.152 271.228 378.504V387H267.34ZM130.872 412V395.2H139.08C140.28 395.2 141.32 395.44 142.2 395.92C143.096 396.4 143.784 397.056 144.264 397.888C144.76 398.72 145.008 399.672 145.008 400.744C145.008 401.752 144.76 402.664 144.264 403.48C143.784 404.296 143.096 404.944 142.2 405.424C141.32 405.904 140.28 406.144 139.08 406.144H135V412H130.872ZM135 402.856H138.336C139.184 402.856 139.808 402.656 140.208 402.256C140.624 401.84 140.832 401.328 140.832 400.72C140.832 400.112 140.624 399.608 140.208 399.208C139.808 398.808 139.192 398.608 138.36 398.608H135V402.856ZM147.551 412V399.616H151.439V402.424C151.839 401.384 152.311 400.616 152.855 400.12C153.415 399.624 154.063 399.376 154.799 399.376C155.071 399.392 155.295 399.416 155.471 399.448C155.647 399.48 155.855 399.56 156.095 399.688V403.024C155.855 402.896 155.575 402.8 155.255 402.736C154.935 402.672 154.607 402.64 154.271 402.64C153.695 402.64 153.159 402.784 152.663 403.072C152.167 403.344 151.759 403.712 151.439 404.176V412H147.551ZM163.721 412.24C162.489 412.24 161.385 411.96 160.409 411.4C159.433 410.84 158.657 410.08 158.081 409.12C157.521 408.144 157.241 407.048 157.241 405.832C157.241 404.616 157.521 403.528 158.081 402.568C158.657 401.592 159.433 400.824 160.409 400.264C161.385 399.704 162.481 399.424 163.697 399.424C164.929 399.424 166.025 399.704 166.985 400.264C167.961 400.824 168.729 401.592 169.289 402.568C169.865 403.528 170.153 404.616 170.153 405.832C170.153 407.048 169.865 408.144 169.289 409.12C168.729 410.08 167.961 410.84 166.985 411.4C166.025 411.96 164.937 412.24 163.721 412.24ZM163.697 409C164.225 409 164.689 408.864 165.089 408.592C165.489 408.32 165.801 407.944 166.025 407.464C166.249 406.984 166.361 406.44 166.361 405.832C166.361 405.208 166.249 404.664 166.025 404.2C165.801 403.72 165.489 403.344 165.089 403.072C164.689 402.8 164.225 402.664 163.697 402.664C163.185 402.664 162.721 402.8 162.305 403.072C161.905 403.344 161.593 403.72 161.369 404.2C161.145 404.664 161.033 405.208 161.033 405.832C161.033 406.44 161.145 406.984 161.369 407.464C161.593 407.944 161.905 408.32 162.305 408.592C162.721 408.864 163.185 409 163.697 409ZM178.485 417.256C177.557 417.256 176.653 417.16 175.773 416.968C174.909 416.776 174.101 416.504 173.349 416.152L174.549 413.344C175.237 413.664 175.893 413.904 176.517 414.064C177.141 414.224 177.749 414.304 178.341 414.304C179.269 414.304 179.965 414.112 180.429 413.728C180.909 413.344 181.149 412.776 181.149 412.024V410.344C180.749 410.84 180.229 411.24 179.589 411.544C178.949 411.832 178.269 411.976 177.549 411.976C176.541 411.976 175.621 411.696 174.789 411.136C173.957 410.576 173.293 409.824 172.797 408.88C172.317 407.936 172.077 406.888 172.077 405.736C172.077 404.584 172.333 403.544 172.845 402.616C173.357 401.672 174.045 400.928 174.909 400.384C175.789 399.824 176.765 399.544 177.837 399.544C178.493 399.544 179.109 399.68 179.685 399.952C180.277 400.208 180.781 400.592 181.197 401.104V399.616H185.013V412.072C185.013 413.736 184.453 415.016 183.333 415.912C182.213 416.808 180.597 417.256 178.485 417.256ZM178.845 408.808C179.309 408.808 179.733 408.728 180.117 408.568C180.501 408.392 180.845 408.144 181.149 407.824V403.696C180.845 403.376 180.493 403.136 180.093 402.976C179.709 402.816 179.293 402.736 178.845 402.736C178.285 402.736 177.781 402.872 177.333 403.144C176.885 403.4 176.533 403.752 176.277 404.2C176.021 404.648 175.893 405.168 175.893 405.76C175.893 406.336 176.021 406.856 176.277 407.32C176.533 407.784 176.885 408.152 177.333 408.424C177.781 408.68 178.285 408.808 178.845 408.808ZM188.028 412V399.616H191.916V402.424C192.316 401.384 192.788 400.616 193.332 400.12C193.892 399.624 194.54 399.376 195.276 399.376C195.548 399.392 195.772 399.416 195.948 399.448C196.124 399.48 196.332 399.56 196.572 399.688V403.024C196.332 402.896 196.052 402.8 195.732 402.736C195.412 402.672 195.084 402.64 194.748 402.64C194.172 402.64 193.636 402.784 193.14 403.072C192.644 403.344 192.236 403.712 191.916 404.176V412H188.028ZM202.083 412.192C201.251 412.192 200.507 412.032 199.851 411.712C199.211 411.392 198.707 410.952 198.339 410.392C197.987 409.832 197.811 409.184 197.811 408.448C197.811 407.68 198.003 407.032 198.387 406.504C198.771 405.96 199.323 405.552 200.043 405.28C200.763 404.992 201.627 404.848 202.635 404.848C203.083 404.848 203.539 404.896 204.003 404.992C204.467 405.072 204.971 405.216 205.515 405.424V404.416C205.515 403.808 205.315 403.36 204.915 403.072C204.515 402.768 203.899 402.616 203.067 402.616C202.603 402.616 202.083 402.688 201.507 402.832C200.947 402.96 200.307 403.176 199.587 403.48L198.243 400.768C200.243 399.872 202.139 399.424 203.931 399.424C205.643 399.424 206.971 399.832 207.915 400.648C208.875 401.464 209.355 402.608 209.355 404.08V412H205.515V410.92C204.971 411.368 204.427 411.696 203.883 411.904C203.339 412.096 202.739 412.192 202.083 412.192ZM201.387 408.376C201.387 408.776 201.555 409.088 201.891 409.312C202.227 409.52 202.691 409.624 203.283 409.624C203.699 409.624 204.091 409.576 204.459 409.48C204.827 409.368 205.179 409.208 205.515 409V407.416C205.163 407.336 204.811 407.272 204.459 407.224C204.107 407.176 203.747 407.152 203.379 407.152C202.739 407.152 202.243 407.256 201.891 407.464C201.555 407.672 201.387 407.976 201.387 408.376ZM212.285 412V399.616H216.173V401.584C216.637 400.88 217.173 400.344 217.781 399.976C218.405 399.608 219.093 399.424 219.845 399.424C220.645 399.424 221.349 399.632 221.957 400.048C222.565 400.464 223.021 401.024 223.325 401.728C223.805 400.976 224.389 400.408 225.077 400.024C225.765 399.624 226.533 399.424 227.381 399.424C228.149 399.424 228.821 399.608 229.397 399.976C229.989 400.344 230.445 400.856 230.765 401.512C231.101 402.168 231.269 402.92 231.269 403.768V412H227.381V404.536C227.381 403.912 227.213 403.416 226.877 403.048C226.541 402.664 226.093 402.472 225.533 402.472C225.181 402.472 224.853 402.552 224.549 402.712C224.261 402.856 223.989 403.088 223.733 403.408C223.733 403.472 223.733 403.536 223.733 403.6C223.733 403.648 223.733 403.704 223.733 403.768V412H219.845V404.536C219.845 403.912 219.677 403.416 219.341 403.048C219.005 402.664 218.557 402.472 217.997 402.472C217.277 402.472 216.669 402.792 216.173 403.432V412H212.285Z" fill="white"/>
<path d="M219.573 145.584C218.401 146.309 217.25 147.453 214.95 149.74C212.65 152.028 211.499 153.172 210.77 154.337C208.358 158.195 208.358 163.08 210.77 166.938C211.499 168.103 212.649 169.247 214.949 171.534L214.95 171.535C217.25 173.822 218.401 174.966 219.573 175.691C223.453 178.09 228.366 178.09 232.245 175.691C233.418 174.966 234.568 173.822 236.868 171.535C239.169 169.247 240.319 168.104 241.048 166.938C243.46 163.08 243.46 158.195 241.048 154.337C240.319 153.172 239.169 152.028 236.868 149.74C234.568 147.453 233.418 146.309 232.245 145.584C228.366 143.185 223.453 143.185 219.573 145.584Z" fill="white"/>
<path d="M234.708 217.148L261.476 190.531C262.585 189.429 263.902 188.554 265.351 187.957C266.8 187.36 268.353 187.053 269.921 187.053C271.49 187.053 273.043 187.36 274.492 187.957C275.941 188.554 277.257 189.429 278.366 190.531L291.817 203.906C291.736 203.986 226.129 269.223 226.129 269.223L160.441 203.906C160.62 203.73 167.892 196.498 174.034 190.391C175.142 189.289 176.458 188.414 177.906 187.818C179.355 187.221 180.907 186.914 182.475 186.914C184.042 186.915 185.595 187.222 187.043 187.818C188.491 188.415 189.807 189.29 190.915 190.392L217.824 217.15C218.933 218.252 220.249 219.126 221.698 219.723C223.146 220.319 224.699 220.626 226.267 220.626C227.834 220.626 229.387 220.319 230.835 219.722C232.284 219.125 233.6 218.251 234.708 217.148Z" fill="white"/>
</g>
<path d="M403.574 228.068C402.848 228.498 402.136 229.176 400.71 230.534C399.285 231.891 398.573 232.57 398.121 233.261C396.626 235.551 396.626 238.449 398.121 240.739C398.572 241.43 399.285 242.109 400.71 243.465L400.71 243.466C402.135 244.823 402.848 245.502 403.574 245.932C405.978 247.356 409.022 247.356 411.426 245.932C412.152 245.502 412.864 244.824 414.29 243.466C415.715 242.109 416.427 241.43 416.879 240.739C418.374 238.449 418.374 235.551 416.879 233.261C416.427 232.57 415.715 231.891 414.29 230.534C412.864 229.176 412.152 228.498 411.426 228.068C409.022 226.644 405.978 226.644 403.574 228.068Z" fill="#02BB4D"/>
<path d="M441.21 92.0285C439.861 92.8456 438.538 94.1351 435.891 96.7141C433.244 99.2927 431.92 100.583 431.082 101.897C428.306 106.246 428.306 111.754 431.082 116.103C431.92 117.417 433.243 118.706 435.889 121.284L435.89 121.286C438.537 123.865 439.861 125.154 441.21 125.972C445.674 128.676 451.326 128.676 455.79 125.972C457.139 125.154 458.462 123.865 461.109 121.286C463.756 118.707 465.079 117.417 465.918 116.103C468.694 111.754 468.694 106.246 465.918 101.897C465.079 100.583 463.756 99.2931 461.109 96.7141C458.462 94.1351 457.139 92.8456 455.79 92.0285C451.326 89.3239 445.674 89.3238 441.21 92.0285Z" fill="#4ADE80"/>
<path d="M130.261 515.014C129.57 515.423 128.891 516.068 127.534 517.357C126.177 518.646 125.498 519.291 125.068 519.948C123.644 522.123 123.644 524.877 125.068 527.052C125.498 527.709 126.176 528.353 127.533 529.642L127.534 529.643C128.891 530.932 129.57 531.577 130.261 531.986C132.551 533.338 135.449 533.338 137.739 531.986C138.43 531.577 139.109 530.932 140.466 529.643C141.824 528.353 142.502 527.709 142.932 527.052C144.356 524.877 144.356 522.123 142.932 519.948C142.502 519.291 141.824 518.647 140.466 517.357C139.109 516.068 138.43 515.423 137.739 515.014C135.449 513.662 132.551 513.662 130.261 515.014Z" fill="#4ADE80"/>
<defs>
<filter id="filter0_dd_705_9680" x="94.936" y="63.9893" width="263.128" height="439.128" filterUnits="userSpaceOnUse" color-interpolation-filters="sRGB">
<feFlood flood-opacity="0" result="BackgroundImageFix"/>
<feColorMatrix in="SourceAlpha" type="matrix" values="0 0 0 0 0 0 0 0 0 0 0 0 0 0 0 0 0 0 127 0" result="hardAlpha"/>
<feMorphology radius="2.01067" operator="erode" in="SourceAlpha" result="effect1_dropShadow_705_9680"/>
<feOffset dy="4.02134"/>
<feGaussianBlur stdDeviation="3.016"/>
<feColorMatrix type="matrix" values="0 0 0 0 0 0 0 0 0 0 0 0 0 0 0 0 0 0 0.05 0"/>
<feBlend mode="normal" in2="BackgroundImageFix" result="effect1_dropShadow_705_9680"/>
<feColorMatrix in="SourceAlpha" type="matrix" values="0 0 0 0 0 0 0 0 0 0 0 0 0 0 0 0 0 0 127 0" result="hardAlpha"/>
<feMorphology radius="3.016" operator="erode" in="SourceAlpha" result="effect2_dropShadow_705_9680"/>
<feOffset dy="10.0533"/>
<feGaussianBlur stdDeviation="7.54001"/>
<feColorMatrix type="matrix" values="0 0 0 0 0 0 0 0 0 0 0 0 0 0 0 0 0 0 0.1 0"/>
<feBlend mode="normal" in2="effect1_dropShadow_705_9680" result="effect2_dropShadow_705_9680"/>
<feBlend mode="normal" in="SourceGraphic" in2="effect2_dropShadow_705_9680" result="shape"/>
</filter>
<filter id="filter1_dd_705_9680" x="94.936" y="59.968" width="263.128" height="439.128" filterUnits="userSpaceOnUse" color-interpolation-filters="sRGB">
<feFlood flood-opacity="0" result="BackgroundImageFix"/>
<feColorMatrix in="SourceAlpha" type="matrix" values="0 0 0 0 0 0 0 0 0 0 0 0 0 0 0 0 0 0 127 0" result="hardAlpha"/>
<feOffset/>
<feGaussianBlur stdDeviation="1.00533"/>
<feColorMatrix type="matrix" values="0 0 0 0 0 0 0 0 0 0 0 0 0 0 0 0 0 0 0.2 0"/>
<feBlend mode="normal" in2="BackgroundImageFix" result="effect1_dropShadow_705_9680"/>
<feColorMatrix in="SourceAlpha" type="matrix" values="0 0 0 0 0 0 0 0 0 0 0 0 0 0 0 0 0 0 127 0" result="hardAlpha"/>
<feOffset dy="6.032"/>
<feGaussianBlur stdDeviation="6.032"/>
<feColorMatrix type="matrix" values="0 0 0 0 0 0 0 0 0 0 0 0 0 0 0 0 0 0 0.2 0"/>
<feBlend mode="normal" in2="effect1_dropShadow_705_9680" result="effect2_dropShadow_705_9680"/>
<feBlend mode="normal" in="SourceGraphic" in2="effect2_dropShadow_705_9680" result="shape"/>
</filter>
</defs>
</svg>
