<svg width="452" height="391" fill="none" xmlns="http://www.w3.org/2000/svg"><path fill-rule="evenodd" clip-rule="evenodd" d="M255.925 63.06c15.661 18.645 18.828 48.202 15.228 73.986-3.645 25.784-14.057 47.748-29.762 63.891s-36.659 26.466-56.832 25.693c-20.217-.818-39.653-12.733-58.655-28.876-19.002-16.143-37.613-36.516-39.175-58.48-1.519-22.009 14.013-45.564 33.058-64.209 19.002-18.644 41.475-32.377 66.854-35.378 25.38-3.002 53.579 4.729 69.284 23.373Z" fill="#F0FDF4"/><path fill-rule="evenodd" clip-rule="evenodd" d="M316.7 140.633c13.538 13.27 23.09 38.866 24.67 66.822 1.616 27.904-4.704 58.22-18.206 77.102-13.538 18.882-34.293 26.33-54.331 25.386-20.073-.997-39.463-10.438-56.808-29.32-17.344-18.882-32.677-47.205-32.461-75.214.215-28.008 15.943-55.702 33.323-68.972 17.344-13.322 36.304-12.168 54.546-11.119 18.242 1.049 35.765 2.046 49.267 15.315Z" fill="#F0FDF4"/><path fill-rule="evenodd" clip-rule="evenodd" d="M220.419 73.736a6.107 6.107 0 0 0-2.464-.197c-2.595.315-4.754 2.343-5.205 4.918a6.064 6.064 0 0 0 1.658 5.36c.546.551.69 1.382.336 2.072-1.836 3.58-4.636 8.175-7.55 14.795-8.509 19.329-14.261 40.059-37.752 45.452-20.362 4.675-33.845-14.777-24.321-32.789 8.114-15.343 25.462-18.9 36.385-31.084 9.95-11.1 11.378-28.216 25.644-35.973 4.118-2.239 8.935-3.024 13.454-1.78 10.609 2.92 12.131 14.218 7.156 22.462-1.841 3.052-3.863 5.126-5.423 6.361-.54.428-1.256.597-1.918.403Z" fill="#15803D"/><path d="M227.994 57.007a.87.87 0 0 1 1.22.17l.822 1.076 1.651 2.136c2.142 2.791 3.231 4.343 4.358 6.294 1.834 3.176 3.248 6.7 4.242 10.477.18.684.346 1.38.5 2.09 1.053 4.86.943 8.071-1.388 10.296-1.94 1.852-5.576 3.253-10.465 4.33-2.512.554-5.198.984-7.882 1.307l-.788.091a92.33 92.33 0 0 1-1.466.153l-.94.084-.395.03a.872.872 0 0 1-.122-1.737l.507-.04.45-.04.679-.065a98.307 98.307 0 0 0 1.866-.206c2.633-.317 5.266-.739 7.716-1.279l.619-.14c4.281-.991 7.452-2.254 9.017-3.749 1.723-1.643 1.817-4.384.889-8.666a46.86 46.86 0 0 0-.483-2.016c-.954-3.632-2.311-7.011-4.065-10.049l-.186-.317c-1.049-1.782-2.137-3.307-4.238-6.037l-1.561-2.02-.554-.724-.173-.229a.87.87 0 0 1 .17-1.22Z" fill="#15803D"/><path d="M225.69 93.311a.871.871 0 0 1 1.724.234l-.011.084-2.931 15.847a.872.872 0 0 1-1.725-.234l.012-.083 2.931-15.848ZM284.837 48.42a.873.873 0 0 1 1.183-.17l.068.052 8.833 7.595a.87.87 0 0 1 .193 1.084l-.046.075L267.996 95.9a.828.828 0 0 1-.126.144l-.075.06-38.325 28.008a.87.87 0 0 1-1.093-1.353l.065-.053 38.207-27.922 26.539-38.08-7.55-6.49-25.241 31.79a.882.882 0 0 1-.281.23l-.084.039-26.017 10.196a.87.87 0 0 1-1.128-.494.87.87 0 0 1 .416-1.094l.077-.035 25.798-10.11 25.659-32.315Z" fill="#15803D"/><path d="M293.537 29.608a.871.871 0 0 1 1.37-.368l.06.055 1.51 1.502a5.057 5.057 0 0 1 1.347 4.769l-.044.17-1.107 3.975.718.646a7.127 7.127 0 0 1 1.116 9.326l-.109.154-4.509 6.226a.872.872 0 0 1-1.457-.952l.046-.07 4.509-6.226a5.383 5.383 0 0 0-.638-7.048l-.123-.114-1.12-1.008a.872.872 0 0 1-.275-.802l.018-.08 1.252-4.494a3.314 3.314 0 0 0-.75-3.13l-.104-.107-.551-.548-7.06 18.902a.87.87 0 0 1-1.04.537l-.081-.025a.871.871 0 0 1-.536-1.041l.025-.08 7.533-20.17ZM207.9 106.328c3.096-.852 5.405-1.119 8.389-.57l.301.06a19.087 19.087 0 0 1 4.091 1.424c2.572 1.242 4.772 3.009 6.352 5.401l.167.258c.076.122.202.339.361.638.261.491.52 1.042.763 1.641a15.86 15.86 0 0 1 .918 3.127l.052.306c.757 4.801-.077 15.059-2.028 28.981a580.704 580.704 0 0 1-2.046 13.405l-.317 1.913c-.154.921-.304 1.811-.451 2.666l-.514 2.955-.171.966 49.907 4.871c.385.037.7.325.772.706.58 3.099.522 6.454-.722 10.093-1.329 3.868-3.512 6.665-6.051 8.79a.87.87 0 0 1-.462.198l-5.394.608c-7.905.898-15.842 1.831-24.501 2.89l-20.043 2.495c-4.032.493-6.636.783-8.712.964l-.922.076c-4.522.345-6.67.11-8.836-.911l-.183-.088c-5.525-2.724-8.309-8.813-9.134-18.374l-.063-.786c-.501-6.584-.244-12.565.936-26.967l.716-8.668c.102-1.277.189-2.404.272-3.537l.053-.73c.292-4.064.488-7.609.592-10.947a.871.871 0 0 1 1.742.054l-.039 1.13a273.966 273.966 0 0 1-.509 9.212l-.137 1.895a699 699 0 0 1-.456 5.752l-.528 6.356c-1.144 14.027-1.391 19.913-.905 26.318l.034.427c.742 9.215 3.284 14.881 8.195 17.301l.157.076c1.845.869 3.726 1.075 7.982.747l.884-.072c1.497-.13 3.28-.319 5.693-.602l20.617-2.558 4.728-.579c8.151-.99 15.7-1.873 23.249-2.728l4.053-.456.019-.015c2.151-1.854 4.007-4.259 5.189-7.508l.116-.328c1.02-2.985 1.165-5.765.798-8.352l-.033-.213-50.184-4.898a.87.87 0 0 1-.772-1.023l.314-1.753.362-2.074c.2-1.155.408-2.38.623-3.666a591.404 591.404 0 0 0 2.357-15.273l.241-1.749c1.787-13.115 2.509-22.769 1.746-26.986a14.148 14.148 0 0 0-.82-2.784 15.625 15.625 0 0 0-.57-1.253l-.116-.224a9.245 9.245 0 0 0-.297-.526c-1.399-2.221-3.412-3.865-5.802-5.018a17.284 17.284 0 0 0-2.594-1.004 13.574 13.574 0 0 0-1.361-.338c-2.668-.49-4.74-.25-7.609.539a23.693 23.693 0 0 0-4.245 1.61.87.87 0 1 1-.768-1.563 25.304 25.304 0 0 1 4.554-1.728Z" fill="#15803D"/><path d="M290.055 168.512a.871.871 0 0 1 1.401.293l.027.074.89 2.785a7.245 7.245 0 0 1-1.726 7.269l-.136.136-2.429 2.353a8.114 8.114 0 0 0-1.831 2.677l-.095.233a9.163 9.163 0 0 1-7.576 5.817l-.142.013-9.033 1.912a.872.872 0 0 1-1.011-.591l-.021-.081a.872.872 0 0 1 .59-1.012l.082-.021 9.08-1.921.107-.016a7.42 7.42 0 0 0 6.228-4.55l.071-.176a9.837 9.837 0 0 1 2.149-3.346l.19-.19 2.429-2.353a5.5 5.5 0 0 0 1.466-5.447l-.052-.176-.469-1.465-5.403 5.11a.873.873 0 0 1-.374.209l-.085.018-10.329 1.672a.87.87 0 0 1-.361-1.703l.083-.017 10.063-1.629 6.217-5.877ZM151.735 143.751a.872.872 0 0 1 1.659.528l-.025.081-23.71 63.64c-2.194 5.89.953 12.432 6.914 14.345 11.993 3.846 24.677 5.875 37.172 5.012 16.203-1.117 30.568-7.046 42.316-18.798l.469-.475.001-8.826c0-.453.346-.826.788-.868l.083-.004c.453 0 .825.346.868.787l.004.085v9.181a.872.872 0 0 1-.247.607c-12.195 12.561-27.22 18.881-44.162 20.05-12.741.879-25.636-1.183-37.825-5.092-6.84-2.194-10.481-9.643-8.088-16.407l.074-.205 23.709-63.641Z" fill="#15803D"/><path d="M131.692 220.927a.872.872 0 0 1 1.683.45c-2.087 7.813-2.048 15.806 1.104 23.4 3.76 9.068 11.042 15.263 20.607 19.101 3.459 1.389 7.01 2.378 10.489 3.032 1.282.241 2.486.423 3.59.554l.644.072c.47.049.87.082 1.192.102 5.351.343 9.719-.312 17.397-2.416 16.124-4.421 32.927-11.086 50.961-21.149a.871.871 0 0 1 1.296.774l-.154 9.422c-.147 8.254-.33 16.689-.606 28.176l-.982 39.64a4273.916 4273.916 0 0 0-.657 30.718l-.119 7.351 14.496 7.787.135-.84a1532.723 1532.723 0 0 1 5.116-30.123l1.563-8.583c1.638-8.909 4.01-21.702 4.128-22.345l.717-3.93c1.812-9.977 3.219-18.17 4.585-26.829a.873.873 0 0 1 1.722.272l-.317 1.994c-1.378 8.615-2.823 16.934-4.701 27.211l-5.573 30.246-.037.205a1545.521 1545.521 0 0 0-5.808 34.208.87.87 0 0 1-1.273.63l-16.044-8.619a.869.869 0 0 1-.456-.7l-.003-.08.154-9.426c.18-10.127.414-20.525.809-36.502l.902-36.478c.262-11.118.432-19.364.573-27.897l.064-4.03-.354.195c-17.253 9.469-33.401 15.857-48.926 20.175l-.751.207-.859.233c-7.326 1.967-11.739 2.586-17.108 2.242l-.39-.027c-1.341-.104-3.128-.329-5.248-.728-3.585-.674-7.244-1.693-10.816-3.127-9.966-3.999-17.607-10.5-21.567-20.05-3.316-7.988-3.357-16.362-1.178-24.518Z" fill="#15803D"/><path d="M259.241 193.346a.87.87 0 0 1 1.112.368l.038.075 50.066 112.748a.87.87 0 0 1-.333 1.091l-.07.04-15.309 7.726a.872.872 0 0 1-1.083-.246l-.047-.068-64.697-103.005-11.792-3.946a.871.871 0 0 1-.572-1.022l.022-.081a.872.872 0 0 1 1.022-.572l.081.022 12.087 4.045a.874.874 0 0 1 .412.293l.049.07 64.441 102.597 13.86-6.995-49.73-111.99a.872.872 0 0 1 .368-1.112l.075-.038ZM283.524 149.38a.872.872 0 0 1 .913-.359l.079.022 14.775 4.854a.87.87 0 0 1 .502 1.227l-.04.07-10.563 16.497a.87.87 0 0 1-1.509-.867l.042-.073 9.956-15.55-13.084-4.299-16.438 24.144a.871.871 0 0 1-1.139.273l-.072-.043a.87.87 0 0 1-.273-1.139l.043-.072 16.808-24.685ZM295.536 16.218c8.217 0 14.878 6.661 14.878 14.878a14.86 14.86 0 0 1-6.308 12.164.87.87 0 1 1-1.005-1.424 13.12 13.12 0 0 0 5.571-10.74c0-7.254-5.881-13.135-13.136-13.135-7.255 0-13.136 5.88-13.136 13.136 0 2.235.559 4.388 1.61 6.305a.872.872 0 0 1-1.527.838 14.806 14.806 0 0 1-1.826-7.144c0-8.217 6.662-14.878 14.879-14.878Z" fill="#15803D"/><path fill-rule="evenodd" clip-rule="evenodd" d="m237.258 359.638-.673 14.467 31.708 15.106.27-2.235a13.16 13.16 0 0 0-5.883-12.609l-9.378-6.109-16.044-8.62Z" fill="#15803D"/><path fill-rule="evenodd" clip-rule="evenodd" d="m235.715 374.064.673-14.466a.87.87 0 0 1 1.282-.727l16.045 8.62.063.037 9.378 6.109a14.033 14.033 0 0 1 6.272 13.444l-.27 2.234a.871.871 0 0 1-1.24.682l-31.707-15.106a.87.87 0 0 1-.496-.827Zm17.142-5.056-14.793-7.948-.582 12.507 30.091 14.336.125-1.031a12.291 12.291 0 0 0-5.298-11.646l-.195-.129-9.348-6.089ZM294.019 314.888l5.821 8.961 32.242-15.453a11.462 11.462 0 0 0-13.703-4.616l-9.052 3.382-15.308 7.726Z" fill="#15803D"/><path fill-rule="evenodd" clip-rule="evenodd" d="m308.934 306.385.088-.039 9.052-3.383a12.333 12.333 0 0 1 14.745 4.968.872.872 0 0 1-.361 1.251l-32.242 15.453a.871.871 0 0 1-1.107-.311l-5.821-8.961a.872.872 0 0 1 .338-1.253l15.308-7.725Zm-8.781 16.348 30.627-14.68-.057-.075a10.59 10.59 0 0 0-12.039-3.382l-9.007 3.366-14.399 7.266 4.875 7.505Z" fill="#15803D"/><path d="M265.027 208.059a.872.872 0 0 1 .978-.646l.082.017 6.49 1.657c8.241 2.102 13.369 10.292 11.696 18.6l-.052.252-2.911 13.369a.872.872 0 0 1-1.717-.288l.014-.083 2.911-13.369c1.612-7.402-2.866-14.752-10.151-16.735l-.221-.058-6.49-1.656a.873.873 0 0 1-.629-1.06ZM151.461 187.759a.872.872 0 0 1 .965.767c.432 3.768 1.71 7.55 4.438 11.1 2.43 3.16 5.523 5.401 9.021 6.88 2.323.983 4.371 1.476 6.259 1.724a.871.871 0 0 1-.228 1.728c-2.03-.267-4.224-.795-6.71-1.847-3.76-1.59-7.098-4.007-9.723-7.423-2.948-3.834-4.324-7.907-4.788-11.964a.871.871 0 0 1 .766-.965ZM160.257 168.234a.871.871 0 1 1 1.661.523c-1.14 3.617-1.513 7.593-.466 11.946.932 3.876 2.845 7.182 5.437 9.958 1.721 1.843 3.391 3.126 5.015 4.122a.872.872 0 0 1-.912 1.486c-1.746-1.071-3.534-2.446-5.377-4.419-2.786-2.984-4.85-6.551-5.857-10.74-1.131-4.701-.729-8.982.499-12.876Z" fill="#15803D"/><path fill-rule="evenodd" clip-rule="evenodd" d="M112.937 286.391H223.12v-18.337H112.937v18.337Z" fill="#15803D"/><path d="M295.537 6.515c13.575 0 24.582 11.005 24.582 24.581a24.568 24.568 0 0 1-12.173 21.225.87.87 0 1 1-.881-1.504 22.826 22.826 0 0 0 11.311-19.72c0-12.615-10.226-22.84-22.839-22.84-12.615 0-22.84 10.225-22.84 22.84 0 4.923 1.56 9.608 4.41 13.493a.871.871 0 1 1-1.405 1.031 24.468 24.468 0 0 1-4.748-14.525c0-13.576 11.006-24.581 24.583-24.581Z" fill="#15803D"/><path fill-rule="evenodd" clip-rule="evenodd" d="M32.215 72.347h13.393c17.748 0 32.135 14.388 32.135 32.135v31.263a.87.87 0 0 1-.871.871H32.215C14.468 136.616.08 122.229.08 104.482c0-17.748 14.387-32.135 32.135-32.135ZM76 104.482c0-16.617-13.336-30.12-29.89-30.388l-.502-.004H32.215c-16.785 0-30.392 13.607-30.392 30.392s13.607 30.392 30.392 30.392H76v-30.392Z" fill="#15803D"/><path d="M51.046 95.038a.872.872 0 0 1 .084 1.738l-.084.004H26.777a.87.87 0 0 1-.084-1.738l.084-.004h24.269ZM51.046 110.098a.872.872 0 0 1 .084 1.739l-.084.004H26.777a.87.87 0 0 1-.084-1.739l.084-.004h24.269Z" fill="#15803D"/><path fill-rule="evenodd" clip-rule="evenodd" d="M45.52 181.958h44.656c17.266 0 31.263-13.998 31.263-31.264s-13.997-31.263-31.263-31.263H76.783c-17.267 0-31.264 13.997-31.264 31.263v31.264Z" fill="#15803D"/><path fill-rule="evenodd" clip-rule="evenodd" d="M74.643 150.694a4.092 4.092 0 1 1-8.184 0 4.092 4.092 0 0 1 8.184 0ZM87.571 150.694a4.092 4.092 0 1 1-8.183 0 4.092 4.092 0 0 1 8.183 0ZM100.5 150.694a4.092 4.092 0 1 1-8.183 0 4.092 4.092 0 0 1 8.183 0Z" fill="#fff"/><path fill-rule="evenodd" clip-rule="evenodd" d="M343.415 73.132h38.761a8.752 8.752 0 0 1 0 17.504h-38.761a8.753 8.753 0 1 1 0-17.504Zm38.761 1.742h-38.761a7.01 7.01 0 1 0 0 14.02h38.761a7.01 7.01 0 0 0 0-14.02ZM343.415 167.441h38.761a8.752 8.752 0 0 1 8.752 8.753 8.751 8.751 0 0 1-8.752 8.752h-38.761a8.752 8.752 0 1 1 0-17.505Zm38.761 1.743h-38.761a7.01 7.01 0 0 0 0 14.02h38.761a7.01 7.01 0 0 0 0-14.02ZM421.259 89.765h-12.577a7.88 7.88 0 1 1 0-15.762h12.577a7.88 7.88 0 1 1 0 15.762Z" fill="#15803D"/><path fill-rule="evenodd" clip-rule="evenodd" d="M408.682 73.132h12.577a8.752 8.752 0 0 1 0 17.504h-12.577a8.753 8.753 0 0 1 0-17.504Zm12.577 1.742h-12.577a7.01 7.01 0 1 0 0 14.02h12.577a7.009 7.009 0 0 0 7.009-7.01 7.008 7.008 0 0 0-7.009-7.01ZM398.617 152.638h-55.202a7.881 7.881 0 0 1 0-15.762h55.202a7.88 7.88 0 0 1 7.881 7.881 7.88 7.88 0 0 1-7.881 7.881Z" fill="#15803D"/><path fill-rule="evenodd" clip-rule="evenodd" d="M343.415 136.005h55.202a8.753 8.753 0 1 1 0 17.504h-55.202a8.751 8.751 0 0 1-8.752-8.751 8.752 8.752 0 0 1 8.752-8.753Zm55.202 1.742h-55.202a7.01 7.01 0 0 0 0 14.02h55.202a7.01 7.01 0 1 0 0-14.02ZM393.645 104.568h49.417a8.752 8.752 0 0 1 8.752 8.752 8.752 8.752 0 0 1-8.752 8.753h-49.417a8.752 8.752 0 0 1-8.752-8.753 8.752 8.752 0 0 1 8.752-8.752Zm49.417 1.743h-49.417a7.01 7.01 0 1 0 0 14.019h49.417a7.01 7.01 0 0 0 0-14.019ZM365.372 121.201h-23.234a7.881 7.881 0 0 1 0-15.762h23.234a7.88 7.88 0 0 1 7.88 7.881 7.88 7.88 0 0 1-7.88 7.881Z" fill="#15803D"/><path fill-rule="evenodd" clip-rule="evenodd" d="M342.138 104.568h23.233a8.752 8.752 0 0 1 8.752 8.752 8.752 8.752 0 0 1-8.752 8.753h-23.233a8.753 8.753 0 0 1 0-17.505Zm23.233 1.743h-23.233a7.01 7.01 0 1 0 0 14.019h23.233a7.01 7.01 0 0 0 0-14.019Z" fill="#15803D"/><path d="M238.499 18.692c.305-.866 1.548-.724 1.682.146l.009.084.97 14.116 3.166-7.066a.872.872 0 0 1 1.285-.364l.065.048 2.852 2.352h5.101l3.45-8.204c.327-.78 1.444-.674 1.645.114l.018.084 2.102 12.93 2.994-5.566a.872.872 0 0 1 1.104-.391l.076.036a.871.871 0 0 1 .391 1.105l-.036.075-4.21 7.826c-.381.709-1.421.56-1.611-.192l-.016-.08-2.027-12.467-2.498 5.94a.869.869 0 0 1-.722.53l-.08.003h-5.993a.875.875 0 0 1-.486-.147l-.069-.052-2.213-1.824-4.122 9.204c-.359.802-1.526.622-1.655-.214l-.01-.082-.92-13.38-2.078 5.913a.871.871 0 0 1-.737.578l-.085.004h-6.874a.87.87 0 0 1-.084-1.738l.084-.004h6.257l3.275-9.317ZM349.697 18.407c.249-.875 1.483-.822 1.684.026l.017.085 1.733 11.746.522-1.647a.873.873 0 0 1 .75-.605l.081-.003h4.57a.87.87 0 0 1 .084 1.738l-.084.004h-3.933l-1.469 4.64c-.27.853-1.476.785-1.676-.05l-.017-.085-1.694-11.475-1.801 6.337a.87.87 0 0 1-.755.63l-.083.003h-2.179l-1.566 4.655c-.263.784-1.351.785-1.636.043l-.028-.082-2.544-8.964-.882 3.68a.872.872 0 0 1-.767.665l-.081.003h-3.871a.87.87 0 0 1-.808-.545l-.027-.078-1.907-6.417-1.649 11.54c-.11.775-1.093 1.012-1.551.411l-.047-.067-3.326-5.249a.872.872 0 0 1 1.424-1l.048.068 2.061 3.253 1.878-13.145c.129-.897 1.352-1.015 1.67-.206l.028.08 2.855 9.612h2.535l1.499-6.248c.201-.843 1.359-.895 1.657-.118l.028.083 2.686 9.461.869-2.584a.873.873 0 0 1 .747-.59l.079-.003h2.147l2.729-9.602Z" fill="#15803D"/><path fill-rule="evenodd" clip-rule="evenodd" d="M302.196 131.553c0 5.717-4.635 10.352-10.352 10.352-5.717 0-10.352-4.635-10.352-10.352 0-5.717 4.635-10.352 10.352-10.352 5.717 0 10.352 4.635 10.352 10.352Z" fill="#15803D"/><path fill-rule="evenodd" clip-rule="evenodd" d="M297.959 129.344a3.906 3.906 0 1 1-7.812-.002 3.906 3.906 0 0 1 7.812.002Z" fill="#fff"/><path fill-rule="evenodd" clip-rule="evenodd" d="m371.015 235.039-17.233 17.233-17.233-17.233 17.233-17.234 17.233 17.234Z" fill="#15803D"/><path fill-rule="evenodd" clip-rule="evenodd" d="m335.934 234.423 17.233-17.234a.87.87 0 0 1 1.232 0l17.233 17.234c.34.34.34.892 0 1.232l-17.233 17.233a.872.872 0 0 1-1.232 0l-17.233-17.233a.87.87 0 0 1 0-1.232Zm33.85.615-16.001-16.001-16.002 16.001 16.002 16.002 16.001-16.002Z" fill="#15803D"/><path fill-rule="evenodd" clip-rule="evenodd" d="m388.249 235.039-17.233 17.233-17.234-17.233 17.234-17.234 17.233 17.234Z" fill="#fff"/><path fill-rule="evenodd" clip-rule="evenodd" d="m353.167 234.423 17.233-17.234a.87.87 0 0 1 1.232 0l17.234 17.234c.34.34.34.892 0 1.232l-17.234 17.233a.872.872 0 0 1-1.232 0l-17.233-17.233a.872.872 0 0 1 0-1.232Zm33.85.615-16.001-16.001-16.002 16.001 16.002 16.002 16.001-16.002Z" fill="#15803D"/><path fill-rule="evenodd" clip-rule="evenodd" d="m405.482 235.039-17.233 17.233-17.233-17.233 17.233-17.234 17.233 17.234Z" fill="#fff"/><path fill-rule="evenodd" clip-rule="evenodd" d="m370.399 234.423 17.234-17.234a.87.87 0 0 1 1.233 0l17.233 17.234a.873.873 0 0 1 0 1.232l-17.233 17.233a.873.873 0 0 1-1.233 0l-17.234-17.233a.873.873 0 0 1 0-1.232Zm33.851.615-16.001-16.001-16.001 16.001 16.001 16.002 16.001-16.002ZM306.059 154.936a6.442 6.442 0 1 1-12.885 0 6.442 6.442 0 0 1 6.442-6.442 6.442 6.442 0 0 1 6.443 6.442Z" fill="#15803D"/><path fill-rule="evenodd" clip-rule="evenodd" d="M303.938 153.714a1.742 1.742 0 1 1-3.484 0 1.742 1.742 0 0 1 3.484 0Z" fill="#fff"/><path fill-rule="evenodd" clip-rule="evenodd" d="M275.676 142.721a4.12 4.12 0 1 1-8.24 0 4.12 4.12 0 0 1 8.24 0Z" fill="#15803D"/><path fill-rule="evenodd" clip-rule="evenodd" d="M270.969 141.691a1.03 1.03 0 1 1-2.061-.001 1.03 1.03 0 0 1 2.061.001Z" fill="#fff"/><path fill-rule="evenodd" clip-rule="evenodd" d="M31.265 186.851a.87.87 0 0 0-1.232.017c-14.367 14.765-21.912 35.701-19.036 54.868l.092.588c1.695 10.374 6.912 19.894 14.278 26.939l.177.167-.052.542c-1.571 17.34 5.309 36.008 18.467 51.233 18.396 21.287 47.903 31.338 77.536 27.505 23.04-2.98 44.884-14.771 60.712-32.513a.871.871 0 0 0-1.3-1.16c-15.553 17.433-37.016 29.019-59.636 31.945-29.074 3.76-57.996-6.091-75.994-26.916l-.524-.613c-12.157-14.34-18.642-31.668-17.633-47.87l.046-.686.343.292c6.002 5.078 13.213 8.581 20.996 9.76 10.194 1.543 21.331-1.794 29.72-8.689 8.77-7.207 13.457-17.342 12.252-28.049-.812-7.233-5.135-12.56-11.818-15.422-5.972-2.559-13.419-2.907-19.982-1.042-11.69 3.325-21.878 12.199-27.863 23.771l-.328.647c-2.372 4.758-3.905 9.791-4.659 14.969l-.017.123-.054-.054c-6.795-6.83-11.561-15.898-13.036-25.726-2.792-18.605 4.561-39.004 18.562-53.394a.872.872 0 0 0-.017-1.232Zm27.89 42.573c6.187-1.76 13.223-1.43 18.819.967 6.13 2.625 10.032 7.435 10.772 14.015 1.134 10.086-3.29 19.658-11.627 26.508-8.017 6.589-18.663 9.779-28.353 8.312l-.545-.087c-7.618-1.269-14.657-4.872-20.45-10.029l-.397-.358.078-.622c.716-5.492 2.328-10.818 4.91-15.812 5.772-11.161 15.585-19.707 26.792-22.894Z" fill="#15803D"/><path d="M376.157 296.006c8.86 0 16.841 4.963 20.841 12.698a23.312 23.312 0 0 1 2.604 10.746c0 2.029-.258 4.026-.763 5.956a.871.871 0 0 1-1.686-.441 21.73 21.73 0 0 0 .706-5.515c0-3.511-.833-6.897-2.409-9.946a21.705 21.705 0 0 0-19.293-11.755c-11.868 0-21.511 9.523-21.703 21.342l-.002.494.003.115a.871.871 0 1 1-1.741.084l-.003-.086-.002-.125-.001-.123c0-12.947 10.499-23.444 23.449-23.444Z" fill="#15803D"/><path d="M398.836 308.027c9.63 0 17.437 7.807 17.437 17.435 0 9.63-7.807 17.437-17.437 17.437a.87.87 0 1 1 0-1.742c8.668 0 15.694-7.028 15.694-15.695 0-8.665-7.026-15.693-15.694-15.693-.827 0-1.653.066-2.477.195a.87.87 0 1 1-.27-1.721 17.722 17.722 0 0 1 2.747-.216ZM353.526 318.873a.871.871 0 0 1 .118 1.738c-5.377.363-9.577 4.84-9.577 10.257 0 5.685 4.602 10.289 10.284 10.289a.871.871 0 0 1 0 1.742c-6.644 0-12.027-5.384-12.027-12.031 0-6.336 4.912-11.571 11.202-11.995ZM365.697 335.936c.453 0 .825.346.868.787l.004.085v13.081a.873.873 0 0 1-1.739.084l-.004-.084v-13.081c0-.482.39-.872.871-.872ZM376.629 335.936c.453 0 .825.346.867.787l.004.085v21.325a.872.872 0 0 1-1.738.084l-.004-.084v-21.325c0-.482.39-.872.871-.872ZM387.561 335.936c.452 0 .825.346.867.787l.004.085v13.081a.872.872 0 0 1-1.738.084l-.004-.084v-13.081a.87.87 0 0 1 .871-.872ZM114.857 15.514c1.432 0 2.828.212 4.153.625a.871.871 0 1 1-.52 1.664 12.153 12.153 0 0 0-3.633-.546c-6.802 0-12.315 5.514-12.315 12.32 0 6.803 5.516 12.321 12.315 12.321a.87.87 0 1 1 0 1.743c-7.762 0-14.057-6.3-14.057-14.063 0-7.769 6.293-14.064 14.057-14.064ZM150.884 20.761a.87.87 0 0 1 1.097-.56 12.016 12.016 0 0 1 8.306 11.43c0 6.633-5.378 12.01-12.011 12.01a11.97 11.97 0 0 1-8.116-3.154.87.87 0 1 1 1.177-1.285 10.232 10.232 0 0 0 6.939 2.697c5.671 0 10.268-4.597 10.268-10.269 0-4.484-2.901-8.41-7.1-9.772a.87.87 0 0 1-.56-1.097Z" fill="#15803D"/><path d="M135.362.417c9.668 0 17.512 7.844 17.512 17.512 0 1.102-.103 2.197-.306 3.262a.87.87 0 1 1-1.711-.324c.181-.959.274-1.946.274-2.938 0-8.705-7.064-15.77-15.769-15.77-8.37 0-15.269 6.542-15.742 14.861a.871.871 0 1 1-1.74-.098c.525-9.24 8.187-16.505 17.482-16.505ZM117.128 41.897a.87.87 0 0 1 .084 1.738l-.084.004h-2.269a.871.871 0 0 1-.083-1.738l.083-.004h2.269ZM124.113 32.554c.454 0 .826.345.868.788l.004.083V55.3a.872.872 0 0 1-1.739.084l-.004-.084V33.425c0-.48.391-.871.871-.871ZM133.614 24.863a.87.87 0 0 1 .867.788l.004.084v21.874a.871.871 0 0 1-1.739.084l-.003-.084V25.735c0-.482.39-.872.871-.872ZM283.047 156.718a.872.872 0 0 1 1.027-.564l.081.023 6.673 2.294a.872.872 0 0 1-.486 1.672l-.081-.023-6.673-2.295a.871.871 0 0 1-.541-1.107ZM279.71 161.345a.872.872 0 0 1 1.027-.564l.081.023 6.673 2.295a.871.871 0 0 1-.486 1.672l-.081-.024-6.673-2.295a.871.871 0 0 1-.541-1.107Z" fill="#15803D"/></svg>
