<svg width="408" height="316" fill="none" xmlns="http://www.w3.org/2000/svg"><path fill-rule="evenodd" clip-rule="evenodd" d="M267.826 60.942c31.374 0 65.674 9.363 86.07 30.864 9.423 9.935 14.143 21.597 14.158 33.189.007 13.088-5.984 26.087-17.988 36.44-11.101 9.569-25.278 16.048-39.757 21.368l-1.598.584c-1.631.601-3.291 1.275-4.32 2.497-.774.912-1.111 2.035-1.404 3.133l-.054.206c-3.051 11.527-8.654 21.372-16.133 29.676h-.006c-13.321 14.797-32.64 24.693-54.165 30.486-16.484 4.438-34.269 6.473-51.665 6.473-29.259 0-56.117-5.895-77.155-15.733l-.008-.007a120.966 120.966 0 0 1-10.448-5.478c-21.428-12.626-34.621-29.87-34.621-48.879 0-36.239 47.956-66.057 109.465-69.718 6.858-31.14 48.846-55.101 99.629-55.101Zm-135.113 1.44c10.638 0 19.262 5.051 19.262 11.282 0 6.232-8.624 11.282-19.262 11.282-10.639 0-19.264-5.05-19.264-11.282 0-6.231 8.625-11.282 19.264-11.282Z" fill="#F0FDF4"/><path fill-rule="evenodd" clip-rule="evenodd" d="m180.758 8.654.067-.09c1.83-2.37 4.841-2.2 7.757-2.318 3.636-.147 7.266-.462 10.709-1.542 5.595-1.754 11.219-4.3 17.366-3.678 4.686.474 7.398 3.25 7.284 7.302a9.58 9.58 0 0 1-.033.587c-.013.17 2.232 1.495 2.468 1.687 1.065.865 2.105 1.88 2.792 3 3.24 5.273.26 11.568-3.098 16.18-.165.227-1.96 2.454-1.927 2.482-1.332-1.12-1.991-1.453-3.917-4.249 1.51-1.018 2.091-2.776 1.905-3.81-.249-1.384-1.149-2.538-4.982-1.599-.659-.63-1.455-2.431-2.066-3.932a8.238 8.238 0 0 1-.58-2.393 51.135 51.135 0 0 1-10.899 3.49c-8.022 1.605-20.934 2.656-23.576-6.308-.475-1.611-.302-3.407.73-4.809Z" fill="#15803D"/><path d="M224.803 29.139c.462.01.828.34.816.737a14.8 14.8 0 0 1-1.393 5.846c-1.494 3.225-3.765 5.515-6.379 7.234l-.106.069v10.002a.677.677 0 0 1-.254.517l-.064.048-8.559 5.819a.95.95 0 0 1-.996.028l-.067-.045-7.94-5.819a.697.697 0 0 1-.29-.478l-.004-.07v-6.552c0-.398.375-.72.838-.72.435 0 .792.285.833.65l.004.07v6.22l7.122 5.22 7.702-5.237V42.662a.68.68 0 0 1 .277-.535l.069-.048c2.569-1.602 4.812-3.77 6.258-6.89a13.544 13.544 0 0 0 1.274-5.349c.012-.397.396-.712.859-.701Z" fill="#15803D"/><path d="M216.674 52.335c.418-.102.853.089 1.007.431l.026.066 3.896 11.842c.197.597-.515 1.103-1.151.852l-.065-.029-12.041-5.824-11.895 5.823c-.641.313-1.393-.185-1.232-.784l.019-.06 4.367-11.842c.14-.379.61-.589 1.051-.469.415.114.656.479.566.837l-.021.067-3.72 10.088 10.449-5.114a.958.958 0 0 1 .746-.035l.079.034 10.684 5.168-3.343-10.162c-.119-.36.103-.734.501-.867l.077-.022Z" fill="#15803D"/><path d="M200.031 50.64c.414-.177.917-.032 1.123.323.206.357.038.789-.376.966l-1.268.535c-1.249.521-2.875 1.184-5.061 2.065l-16.074 6.45-.706.288-.348.421c-1.292 1.527-4.167 4.657-9.646 10.535L157.37 83.275l-1.532 1.658.348.367a183.626 183.626 0 0 0 4.787 4.852l.828.803a182.826 182.826 0 0 0 6.368 5.857l.265.232 6.626-7.14c.508-.546 1.533-.211 1.491.488l-4.131 68.903h49.972c.436 0 .793.286.834.651l.004.069c0 .375-.333.683-.757.717l-.081.004h-50.854c-.479 0-.861-.346-.836-.758l4.042-67.423-5.59 6.021c-.312.336-.896.363-1.248.058a185.477 185.477 0 0 1-13.792-13.243.643.643 0 0 1-.006-.899l4.169-4.5 10.887-11.675c4.334-4.667 6.473-7.03 7.248-8.019a.82.82 0 0 1 .333-.247l4-1.621 12.983-5.201c3.009-1.213 4.952-2.01 6.303-2.59ZM216.139 49.977c.178-.341.627-.505 1.032-.388l.075.025 24.624 9.476a.81.81 0 0 1 .362.268l.041.06 17.749 29.767c.172.29.096.641-.178.858l-.061.045-1.626 1.06-.066.048-13.902 9.084c-.375.245-.904.174-1.179-.143l-.046-.059-7.255-10.345 2.903 44.29c0 .398-.375.72-.838.72-.435 0-.793-.285-.833-.651l-3.094-47.176c-.048-.727 1.033-1.036 1.51-.468l.043.056 8.517 12.143 13.097-8.556.064-.046 1.132-.74-17.293-29.004-24.356-9.372c-.397-.153-.588-.54-.451-.887l.029-.065Z" fill="#15803D"/><path d="M257.585 89.898c.353 0 .656.188.779.455l.009.024 7.736 15.97c.847 1.746.733 3.723-.301 5.384l-.104.16-33.098 49.676c-1.74 2.613-5.485 3.669-8.677 2.471l-.162-.063-.576-.231c-1.397-.561-2.017-1.969-1.422-3.178l.052-.101 3.6-6.509h-2.469c-1.395 0-2.533-.945-2.596-2.131l-.002-.102c0-.882.603-1.678 1.533-2.038l.113-.041 8.093-2.742 6.901-13.148.017-.037 13.485-25.719-6.068-8.887c-.221-.324-.115-.733.23-.948l.068-.038c.376-.19.852-.099 1.102.198l.044.058 6.287 9.209a.635.635 0 0 1 .074.589l-.033.072-13.648 26.032-.014.032-7.058 13.447a.783.783 0 0 1-.382.345l-.074.029-8.409 2.848c-.354.12-.586.413-.586.739 0 .415.371.755.843.79l.08.003h3.795c.591 0 .988.508.785.972l-.029.058-4.169 7.538c-.268.485-.05 1.062.488 1.32l.078.035.577.231c2.39.96 5.227.218 6.597-1.704l.079-.114 33.098-49.677c.839-1.259.977-2.772.381-4.124l-.069-.15-7.751-16.001a.658.658 0 0 1-.061-.206l-.003-.076c0-.398.374-.72.837-.72ZM109.275 58.996c.155-.267.483-.422.824-.395l.079.01 19.975 3.203c1.367.206 2.563.907 3.286 1.92l.084.124 17.375 26.379 4.839-4.16a.938.938 0 0 1 1.12-.05l.064.05c.306.263.326.68.057.963l-.057.054-5.617 4.83c-.372.32-.983.267-1.277-.094l-.044-.06-17.917-27.202c-.441-.669-1.189-1.143-2.064-1.312l-.147-.025-19.365-3.106-.9 1.549 17.7 6.525a.799.799 0 0 1 .404.315l.036.062 16.337 32.69c2.387 4.771 9.599 5.962 13.873 2.336l.128-.111 8.236-7.269a.936.936 0 0 1 1.184-.013c.311.26.336.677.073.963l-.057.055-8.236 7.269c-5.038 4.451-13.683 3.128-16.652-2.49l-.089-.172-16.204-32.425-18.209-6.712c-.419-.154-.613-.564-.452-.922l.033-.062 1.58-2.717Z" fill="#15803D"/><path d="m235.569 154.946.08.003c.434.033.761.345.764.711l-.004.07-14.384 137.834c-.036.348-.356.62-.754.652l-.08.004h-14.757c-.423 0-.775-.27-.83-.624l-.006-.068-5.204-111.812-13.219 45.85-6.377 65.993c-.034.352-.358.627-.758.658l-.077.003h-15.287c-.435 0-.793-.286-.834-.651l-.004-.069v-68.542l.008-.098 10.29-64.942c.063-.394.485-.67.943-.617.431.051.741.376.724.742l-.007.069-10.283 64.893v67.774h13.679l6.319-65.39.008-.057.014-.056 14.65-50.813c.227-.785 1.531-.694 1.643.073l.007.071 5.406 116.172h13.187l14.314-137.178c.037-.349.358-.618.75-.652l.079-.003Z" fill="#15803D"/><path d="M218.076 292.78c.435 0 .793.285.834.65l.003.07v8.242l5.925 7.294a.658.658 0 0 1 .146.339l.004.074v5.395c0 .374-.331.682-.756.717l-.081.004h-22.055c-.435 0-.793-.286-.833-.651l-.004-.07v-5.395c0-.152.055-.298.157-.42l.054-.058 7.153-6.926V293.5c0-.375.332-.683.757-.717l.08-.003c.436 0 .794.285.834.65l.004.07v8.819a.65.65 0 0 1-.157.419l-.054.059-7.153 6.924v4.403h20.379v-4.449l-5.924-7.294a.661.661 0 0 1-.147-.339l-.004-.073V293.5c0-.398.375-.72.838-.72Z" fill="#15803D"/><path d="M224.15 308.73c.463 0 .837.323.837.72 0 .375-.332.682-.756.717l-.081.003h-22.055c-.463 0-.838-.322-.838-.72 0-.374.332-.682.757-.717l.081-.003h22.055ZM176.096 292.78c.435 0 .792.285.833.65l.004.07v8.242l5.924 7.294a.658.658 0 0 1 .146.339l.005.074v5.395c0 .374-.332.682-.757.717l-.081.004h-22.054c-.436 0-.793-.286-.834-.651l-.004-.07v-5.395c0-.143.049-.282.141-.4l.05-.057 6.615-6.931.001-8.561c0-.375.332-.683.756-.717l.081-.003c.436 0 .793.285.834.65l.004.07v8.819a.65.65 0 0 1-.141.399l-.05.057-6.616 6.932v4.417h20.379v-4.45l-5.923-7.293a.651.651 0 0 1-.146-.339l-.005-.073V293.5c0-.398.375-.72.838-.72Z" fill="#15803D"/><path d="M182.17 308.73c.462 0 .837.323.837.72 0 .375-.332.682-.757.717l-.08.003h-22.055c-.463 0-.838-.322-.838-.72 0-.374.332-.682.757-.717l.081-.003h22.055ZM190.77 18.165c.121-.384.581-.61 1.028-.506.446.104.709.5.588.883-2.277 7.21-2.377 14.295.197 19.975 1.308 2.883 3.514 5.27 6.272 6.615 2.9 1.414 6.852 1.336 10.95.086.436-.133.915.063 1.07.438.154.375-.074.786-.51.919-4.512 1.376-8.943 1.464-12.336-.19-3.117-1.52-5.567-4.17-7.006-7.345-2.722-6.003-2.617-13.392-.253-20.875Z" fill="#15803D"/><path fill-rule="evenodd" clip-rule="evenodd" d="M381.09 198.969H231.056l3.674-31.483h146.36v31.483ZM110.686 59.162c0 4.351-4.102 7.878-9.162 7.878-5.06 0-9.162-3.527-9.162-7.878 0-4.35 4.102-7.877 9.162-7.877 5.06 0 9.162 3.526 9.162 7.877Z" fill="#15803D"/><path d="M101.894 61.182c.435 0 .792.285.833.65l.004.07v64.602c0 .374-.332.682-.757.717l-.08.003H62.489c-.435 0-.793-.285-.833-.651l-.004-.069V90.213c0-.398.375-.72.837-.72.436 0 .793.285.834.65l.004.07v35.571h37.729V61.902c0-.375.332-.682.757-.717l.081-.003Z" fill="#15803D"/><path fill-rule="evenodd" clip-rule="evenodd" d="m53.148 86.316 9.747-14.332 9.613 14.332h-19.36Z" fill="#15803D"/><path d="M100.594 32.951c.435 0 .793.286.833.65l.004.07v10.681c0 .398-.375.72-.837.72-.435 0-.793-.286-.834-.65l-.004-.07v-10.68c0-.398.375-.72.838-.72ZM119.079 38.553a.937.937 0 0 1 1.185 0c.307.264.326.68.058.964l-.058.054-10.087 8.674a.937.937 0 0 1-1.185 0 .648.648 0 0 1-.057-.964l.057-.055 10.087-8.673ZM329.554 38.342c.435 0 .793.285.833.65l.004.07v19.784c0 .374-.332.682-.756.717l-.081.003h-71.646c-.462 0-.837-.322-.837-.72 0-.374.332-.682.757-.717l.08-.003h70.808V39.782h-93.141c-.435 0-.793-.286-.834-.65l-.004-.07c0-.374.332-.682.757-.717l.081-.003h93.979Z" fill="#15803D"/><path d="M329.554 58.126c.435 0 .793.285.834.65l.004.07v75.177c0 .375-.332.683-.757.717l-.081.003h-68.956c-.462 0-.837-.322-.837-.72 0-.374.332-.681.757-.716l.08-.004h68.118l.001-74.457c0-.374.332-.682.756-.717l.081-.003ZM312.772 45.114a.938.938 0 0 1 1.12-.05l.064.05 7.134 6.134a.651.651 0 0 1 0 1.018.94.94 0 0 1-1.12.05l-.064-.05-7.134-6.134a.65.65 0 0 1 0-1.018Z" fill="#15803D"/><path d="M319.906 45.114a.936.936 0 0 1 1.184 0c.307.263.326.68.058.963l-.058.055-7.134 6.134a.936.936 0 0 1-1.184 0 .648.648 0 0 1-.058-.963l.058-.055 7.134-6.134Z" fill="#15803D"/><path fill-rule="evenodd" clip-rule="evenodd" d="M303.763 79.604c0 1.747-1.648 3.164-3.68 3.164-2.033 0-3.681-1.417-3.681-3.164 0-1.748 1.648-3.165 3.681-3.165 2.032 0 3.68 1.417 3.68 3.165ZM285.199 79.604c0 1.747-1.647 3.164-3.68 3.164-2.032 0-3.68-1.417-3.68-3.164 0-1.748 1.648-3.165 3.68-3.165 2.033 0 3.68 1.417 3.68 3.165ZM266.636 79.604c0 1.747-1.647 3.164-3.68 3.164-2.032 0-3.68-1.417-3.68-3.164 0-1.748 1.648-3.165 3.68-3.165 2.033 0 3.68 1.417 3.68 3.165ZM303.763 95.312c0 1.748-1.648 3.164-3.68 3.164-2.033 0-3.681-1.416-3.681-3.164 0-1.748 1.648-3.165 3.681-3.165 2.032 0 3.68 1.417 3.68 3.165ZM285.199 95.312c0 1.748-1.647 3.164-3.68 3.164-2.032 0-3.68-1.416-3.68-3.164 0-1.748 1.648-3.165 3.68-3.165 2.033 0 3.68 1.417 3.68 3.165ZM266.636 95.312c0 1.748-1.647 3.164-3.68 3.164-2.032 0-3.68-1.416-3.68-3.164 0-1.748 1.648-3.165 3.68-3.165 2.033 0 3.68 1.417 3.68 3.165ZM303.763 111.02c0 1.748-1.648 3.165-3.68 3.165-2.033 0-3.681-1.417-3.681-3.165 0-1.747 1.648-3.164 3.681-3.164 2.032 0 3.68 1.417 3.68 3.164ZM285.199 111.02c0 1.748-1.647 3.165-3.68 3.165-2.032 0-3.68-1.417-3.68-3.165 0-1.747 1.648-3.164 3.68-3.164 2.033 0 3.68 1.417 3.68 3.164Z" fill="#15803D"/><path d="M388.243 77.246c2.284 0 4.174.562 5.871 1.642 1.213.773 2.032 1.528 3.662 3.25l.508.536c3.028 3.161 4.738 4.174 8.055 4.174.462 0 .838.323.838.72 0 .398-.376.72-.838.72-2.284 0-4.175-.561-5.87-1.641l-.238-.154c-1.089-.724-1.904-1.489-3.425-3.097l-.508-.535c-3.028-3.16-4.738-4.174-8.055-4.174-3.317 0-5.027 1.013-8.055 4.174l-.823.868c-1.426 1.49-2.214 2.197-3.347 2.918-1.697 1.08-3.587 1.641-5.871 1.641-2.284 0-4.174-.561-5.87-1.641l-.237-.154c-1.089-.724-1.904-1.489-3.425-3.097l-.166-.175c-3.245-3.445-4.956-4.534-8.395-4.534-3.379 0-5.09 1.051-8.225 4.352l-.653.69c-1.425 1.49-2.214 2.197-3.347 2.918-1.695 1.08-3.586 1.641-5.87 1.641-2.284 0-4.174-.561-5.869-1.641l-.238-.154c-1.089-.724-1.904-1.489-3.425-3.097l-.338-.357-.336-.352c-2.925-3.024-4.632-4-7.887-4-.462 0-.837-.322-.837-.72 0-.398.375-.72.837-.72 2.284 0 4.174.561 5.87 1.641l.237.155c1.05.697 1.845 1.433 3.264 2.926l.326.345c3.246 3.445 4.956 4.534 8.396 4.534 3.317 0 5.027-1.013 8.055-4.173l.988-1.041c1.322-1.374 2.093-2.053 3.181-2.746 1.696-1.08 3.586-1.642 5.871-1.642 2.284 0 4.174.562 5.869 1.642 1.214.773 2.033 1.528 3.663 3.251l.507.535c3.028 3.161 4.738 4.174 8.054 4.174 3.317 0 5.027-1.013 8.055-4.174l.974-1.024c1.331-1.385 2.104-2.066 3.197-2.762 1.695-1.08 3.586-1.642 5.87-1.642ZM388.243 94.112c2.284 0 4.174.561 5.871 1.641l.237.155c.972.646 1.726 1.325 2.959 2.607l.974 1.024c3.028 3.161 4.738 4.174 8.055 4.174.462 0 .838.323.838.72 0 .398-.376.721-.838.721-2.284 0-4.175-.562-5.87-1.642l-.238-.154c-1.089-.724-1.904-1.489-3.425-3.097l-.165-.175c-3.247-3.444-4.958-4.534-8.398-4.534-3.378 0-5.09 1.051-8.225 4.352l-.653.69c-1.426 1.491-2.214 2.197-3.347 2.918-1.697 1.08-3.587 1.642-5.871 1.642-2.284 0-4.174-.562-5.87-1.642l-.237-.154c-1.089-.724-1.904-1.489-3.425-3.097l-.166-.175c-3.245-3.444-4.956-4.534-8.395-4.534-3.379 0-5.09 1.051-8.225 4.352l-.653.69c-1.425 1.491-2.214 2.197-3.347 2.918-1.695 1.08-3.586 1.642-5.87 1.642-2.284 0-4.174-.562-5.869-1.642l-.238-.154c-1.089-.724-1.904-1.489-3.425-3.097l-.338-.358-.336-.35c-2.925-3.025-4.632-4.001-7.887-4.001-.462 0-.837-.322-.837-.72 0-.398.375-.72.837-.72 2.284 0 4.174.561 5.87 1.641l.237.155c1.05.697 1.845 1.433 3.264 2.927l.326.344c3.246 3.445 4.956 4.534 8.396 4.534 3.317 0 5.027-1.013 8.055-4.173l.988-1.04c1.322-1.375 2.093-2.054 3.181-2.747 1.696-1.08 3.586-1.641 5.871-1.641 2.284 0 4.174.561 5.869 1.641l.238.155c1.089.723 1.904 1.488 3.425 3.096l.507.535c3.028 3.161 4.738 4.174 8.054 4.174 3.317 0 5.027-1.013 8.055-4.174l.974-1.024c1.331-1.385 2.104-2.066 3.197-2.762 1.695-1.08 3.586-1.641 5.87-1.641ZM403.603 314.124c.463 0 .838.322.838.72 0 .374-.332.682-.757.717l-.081.004h-382c-.464 0-.838-.323-.838-.721 0-.374.332-.682.756-.716l.081-.004h382.001Z" fill="#15803D"/><path fill-rule="evenodd" clip-rule="evenodd" d="M160.115 314.844h22.055v-5.393h-22.055v5.393ZM202.096 314.844h22.055v-5.393h-22.055v5.393ZM200.564 46.515a18.16 18.16 0 0 0 5.179.276 17.687 17.687 0 0 0 4.563-1.027c-.439.824-1.614 2.737-4.162 4.19-2.369 1.35-4.684 1.596-5.739 1.652l.159-5.09Z" fill="#15803D"/><path fill-rule="evenodd" clip-rule="evenodd" d="M205.655 46.075a16.63 16.63 0 0 0 4.32-.973c.704-.261 1.412.361 1.093.961-.886 1.664-2.261 3.237-4.461 4.49-2.058 1.175-4.136 1.664-6.15 1.771-.492.026-.903-.315-.889-.738l.159-5.09c.014-.456.511-.785 1.027-.682 1.512.302 3.137.42 4.901.261Zm2.747 1.068.048-.058-.254.058a18.87 18.87 0 0 1-2.365.365c-1.502.135-2.913.09-4.247-.09l-.21-.03-.107 3.419a11.669 11.669 0 0 0 4.182-1.324l.233-.13c1.142-.65 2.028-1.402 2.72-2.21ZM349.094 249.918c0 4.351-4.102 7.878-9.162 7.878-5.06 0-9.162-3.527-9.162-7.878s4.102-7.878 9.162-7.878c5.06 0 9.162 3.527 9.162 7.878ZM343.246 303.346h17.944v-15.429h-17.944v15.429ZM279.277 220.791h69.817v-10.505h-69.817v10.505ZM290.829 256.983l9.747-14.333 9.613 14.333h-19.36Z" fill="#15803D"/><path d="M360.405 203.08c.436 0 .794.286.834.651l.004.069v64.602c0 .375-.332.683-.757.717l-.081.004h-39.404c-.435 0-.793-.286-.834-.651l-.004-.07v-35.571h-39.491v62.081h71.545c.436 0 .794.285.834.651l.004.069c0 .374-.333.682-.757.717l-.081.003h-72.382c-.435 0-.793-.286-.834-.651l-.004-.069v-63.521c0-.374.333-.682.757-.717l.081-.003h41.166c.435 0 .793.286.834.651l.003.069v35.571h37.73V203.8c0-.374.332-.682.757-.717l.08-.003Z" fill="#15803D"/><path fill-rule="evenodd" clip-rule="evenodd" d="M144.314 280.285v35.032H.664c1.238-1.176 12.261-14.635 26.477-14.635 14.364 0 21.848 7.704 33.875-.415 4.158-2.807 10.549-6.729 15.703-6.729 4.975 0 9.643 1.914 14.39 3.181 5.015 1.339 9.736 1.309 14.722-.266 4.011-1.268 7.775-3.228 11.525-5.163 8.586-4.431 17.455-9.096 26.958-11.005Z" fill="#15803D"/><path d="M110.802 255.997c12.975 0 23.49 9.045 23.49 20.203 0 11.157-10.515 20.202-23.49 20.202-7.426 0-14.274-2.981-18.689-7.961-.28-.316-.21-.768.159-1.009.367-.241.893-.18 1.173.136 4.101 4.626 10.46 7.394 17.357 7.394 12.049 0 21.815-8.401 21.815-18.762 0-10.363-9.766-18.762-21.815-18.762-10.943 0-20.15 6.963-21.615 16.195-.063.393-.485.669-.943.615-.459-.053-.78-.416-.717-.81 1.579-9.943 11.492-17.441 23.275-17.441ZM21.21 282.972c.103-.334.466-.555.86-.535l.079.007 10.748 1.431 14.606 1.939c.457.061.77.429.7.822-.067.37-.45.631-.876.609l-.08-.007-14.606-1.939-10.003-1.332-6.854 22.345-1.636 5.325c-.118.385-.576.614-1.024.512-.42-.095-.681-.45-.612-.812l.017-.068 1.636-5.324 7.046-22.973Z" fill="#15803D"/><path d="M50.895 235.128a.95.95 0 0 1 .913-.068l.07.037 32.335 18.68c.277.16.415.446.356.725l-.018.07-6.343 19.16c-.127.383-.59.604-1.035.496-.418-.103-.672-.462-.595-.823l.019-.067 6.176-18.657-31.324-18.097-29.694 20.026 11.63 27.33 14.118 1.875c.43.057.733.386.709.752l-.009.069c-.066.37-.45.631-.875.61l-.08-.008-14.607-1.939a.836.836 0 0 1-.626-.399l-.032-.066-12.01-28.22c-.115-.27-.031-.571.207-.767l.062-.046 30.653-20.673Z" fill="#15803D"/><path fill-rule="evenodd" clip-rule="evenodd" d="M47.376 272.814h45.403c.462 0 .838.322.838.72v33.901c0 .397-.376.72-.838.72H47.376c-.463 0-.838-.323-.838-.72v-33.901c0-.398.375-.72.838-.72Zm44.565 33.9v-32.461H48.213v32.461H91.94Z" fill="#15803D"/></svg>
