<svg width="597" height="392" fill="none" xmlns="http://www.w3.org/2000/svg"><path fill-rule="evenodd" clip-rule="evenodd" d="M439.719 123.807c22.981 71.439-7.416 159.344-65.279 198.768-57.772 39.334-143.011 30.278-194.374-10.61-51.455-40.796-69.034-113.243-49.349-180.018C150.31 65.081 207.258 3.977 273.819.867c66.653-3.201 143.011 51.591 165.9 122.94Z" fill="#F5F3FF"/><path fill-rule="evenodd" clip-rule="evenodd" d="M361.008 48.63c-4.631-1.528-9.687-2.037-14.888-1.506-5.867.598-10.023 2.853-15.572 4.796-4.744 1.662-11.581 1.538-15.798 4.528-2.046 1.45-5.341 4.603-5.548 10.403-.139 3.9 1.713 8.245 4.985 10.125 7.273 4.18 15.737-2.793 19.175-8.816 6.05 3.956 9.486 9.967 8.249 17.23-.584 3.42-1.717 6.763-1.847 10.23-.227 6.054 2.872 12.128 7.906 15.496 1.413.944 2.987 1.711 4.094 3 1.751 2.037 1.978 4.923 2.309 7.588.638 5.137 2.036 10.374 5.013 14.676 2.966 4.288 8.455 6.143 10.992 10.697 2.305 4.138 1.277 9.33 2.3 13.816 1.139 4.998 2.715 9.899 5.369 14.316 3.102 5.159 7.739 9.546 13.415 11.553 6.609 2.337 13.841.962 18.942-3.856 2.571-2.431 4.546-5.537 5.406-8.969 1.084-4.328.358-8.951-1.233-13.12-4.303-11.28-19.486-19.973-25.013-30.585-6.677-12.821-4.022-27.661-4.099-41.48-.05-8.94-2.496-18.73-7.109-26.414-4.098-6.823-10.095-11.415-17.048-13.709Z" fill="#6F40EC"/><path d="M318.569 77.502c.56.074.954.588.88 1.148-.929 7.043-.94 13.397-.317 19.315l.077.697c.67 5.811 1.78 8.773 4.073 11.061 1.606 1.599 3.567 2.666 5.753 3.302 1.466.426 2.664.586 4.029.656 4.483.255 8.668-1.389 12.455-4.371a1.023 1.023 0 0 1 1.266 1.607c-4.149 3.266-8.798 5.093-13.831 4.807-1.505-.078-2.844-.257-4.489-.735-2.496-.726-4.758-1.956-6.627-3.817-2.782-2.776-4.034-6.295-4.741-12.993-.639-6.07-.626-12.585.324-19.797.07-.527.529-.907 1.05-.888l.098.008Z" fill="#6F40EC"/><path d="M334.166 113.712a1.023 1.023 0 0 1 1.201.808c.546 2.793 1 5.653 1.356 8.583 1.052 8.7 1.112 17.112.384 25.306-.02.224-.114.436-.266.601a300.17 300.17 0 0 0-15.445 18.205c-2.92 3.733-5.967 8.061-9.275 13.103l-.676 1.034a454.728 454.728 0 0 0-4.651 7.32l-5.422 8.774a1.023 1.023 0 0 1-1.739-1.076l5.034-8.152.777-1.246a421.63 421.63 0 0 1 4.627-7.258l.34-.518c3.336-5.086 6.415-9.458 9.373-13.241a302.597 302.597 0 0 1 14.487-17.165l.827-.906.045-.52c.613-7.496.552-15.178-.344-23.1l-.108-.916c-.349-2.879-.795-5.69-1.332-8.436a1.023 1.023 0 0 1 .807-1.2ZM388.254 184.127a1.022 1.022 0 0 1 1.111.926 225.436 225.436 0 0 0 5.662 33.798c2.855 11.589 6.478 22.408 11.006 33.479l.489 1.188c2.019 4.876 3.778 8.844 6.605 14.963l4.336 9.347c2.074 4.509 3.12 6.923 4.192 9.668l.358.932c3.657 9.673 3.941 15.921.257 21.09-3.808 5.342-11.065 8.184-20.544 9.161-3.388.349-6.869.435-10.302.321a74.82 74.82 0 0 1-5.583-.379c-2.68-.296-4.821-.743-7.154-1.453l-.469-.146c-1.2-.379-6.002-2.085-7.305-2.517-3.55-1.177-7.273-2.224-11.993-3.309l-1.05-.239c-7.171-1.621-10.638-2.086-17.127-2.594l-.949-.073c-2.63-.199-3.826-.415-5.188-1.052-.717-.334-1.422-.78-2.19-1.382-3.063-2.4-4.904-5.508-5.943-9.737l-.085-.356c-.735-3.168-1.017-6.263-1.26-12.761l-.154-4.426c-.43-11.878-.955-18.124-2.594-27.163l-.083-.454c-2.032-11.106-5.053-20.873-8.751-29.95a1.022 1.022 0 1 1 1.895-.772c3.747 9.199 6.808 19.097 8.868 30.353l.166.916c1.568 8.76 2.099 15.004 2.521 26.391l.189 5.366c.235 6.13.512 9.09 1.196 12.038.923 3.983 2.544 6.787 5.296 8.945.652.51 1.228.874 1.795 1.14l.23.102c.995.425 2.022.594 4.247.762l1.396.109c6.456.515 10.028 1.018 17.505 2.722l.529.121c4.384 1.009 7.93 1.986 11.271 3.065l.906.297c1.337.443 6.12 2.141 7.278 2.508 2.395.756 4.51 1.215 7.23 1.515l.555.058c1.335.133 2.947.246 4.873.311 3.346.111 6.737.028 10.025-.311 8.949-.923 15.704-3.569 19.087-8.315 3.231-4.532 2.925-10.237-.642-19.541l-.543-1.387c-1.174-2.942-2.457-5.81-5.255-11.835l-2.897-6.235c-2.836-6.139-4.604-10.127-6.635-15.032-4.794-11.577-8.609-22.849-11.592-34.96a227.588 227.588 0 0 1-5.712-34.102 1.023 1.023 0 0 1 .926-1.111Z" fill="#6F40EC"/><path d="M332.985 303.738a1.024 1.024 0 0 1-.39 1.393l-23.169 13.043c-28.169 15.894-34.177 19.627-43.841 27.413-.553.444-1.126.885-1.733 1.334l-.521.382a87.91 87.91 0 0 1-1.716 1.212l-2.805 1.919-.667.463c-4.783 3.345-7.209 5.743-9.025 9.451l-.122.255a25.417 25.417 0 0 0-.789 1.807c-.943 2.384-1.626 5.021-1.855 7.821-.307 3.764.257 7.424 1.896 10.858 1.676 3.518 4.109 6.154 6.929 8.176l.333.234h120.555v-37.434c0-.532.406-.968.925-1.018l.098-.005c.532 0 .969.406 1.019.925l.004.098v38.457c0 .532-.405.969-.924 1.018l-.099.005H255.192c-.204 0-.403-.061-.572-.175-3.346-2.26-6.25-5.268-8.219-9.401-1.803-3.78-2.422-7.798-2.088-11.904.248-3.021.979-5.848 1.991-8.405a27.73 27.73 0 0 1 .74-1.717l.106-.223c2.056-4.332 4.771-7.001 10.154-10.732l2.83-1.936c.969-.666 1.75-1.22 2.501-1.775a49.078 49.078 0 0 0 1.666-1.284l1.181-.945c9.133-7.262 15.82-11.353 42.933-26.652l23.177-13.048a1.023 1.023 0 0 1 1.393.39Z" fill="#6F40EC"/><path d="M409.719 315.633a1.022 1.022 0 1 1 1.985.493c-2.734 11.003-7.836 20.524-15.995 27.605l-.545.466c-.106.086-.236.188-.514.405-1.553 1.155-3.889 2.477-6.793 3.88l-.336.169c-.204.1-.44.212-.804.385l-1.001.465a149.53 149.53 0 0 1-3.808 1.681l-1.772.746c-.704.294-1.445.596-2.297.938l-.373.149a206.868 206.868 0 0 1-7.957 2.985l-1.362.458c-.188.061-.346.112-.485.155l-.082.025c-12.649 3.831-24.606 5.754-36.227 6.417a1.022 1.022 0 1 1-.117-2.042c11.189-.639 22.693-2.46 34.839-6.059l.911-.274c.368-.111.898-.288 1.856-.614l.814-.287a210.863 210.863 0 0 0 6.559-2.468l.493-.196c1.003-.4 1.845-.743 2.642-1.076l.59-.247a150.01 150.01 0 0 0 5.416-2.378l.985-.465c.24-.114.409-.198.605-.298l.693-.339c2.493-1.233 4.479-2.376 5.771-3.337l.44-.347c.051-.041.092-.076.142-.118 8.026-6.808 13.045-16.084 15.727-26.877ZM263.47 283.794c.008-.823.936-1.3 1.61-.827a321.844 321.844 0 0 0 26.855 16.917 320.863 320.863 0 0 0 24.517 12.466 1.024 1.024 0 0 1-.848 1.862 322.753 322.753 0 0 1-24.673-12.545 324.41 324.41 0 0 1-24.444-15.234l-.994-.687-.006.476a564.45 564.45 0 0 1-.589 19.222l-.12 2.401a564.867 564.867 0 0 1-3.573 40.535 1.022 1.022 0 1 1-2.03-.253 563.313 563.313 0 0 0 4.295-64.333Z" fill="#6F40EC"/><path d="M238.121 254.395c5.735-10.858 18.91-14.658 32.929-11.616 18.623 4.031 37.129 10.652 54.462 19.452a1.023 1.023 0 0 1-.926 1.824c-17.177-8.721-35.518-15.283-53.969-19.277-13.217-2.868-25.453.661-30.688 10.572-2.318 4.388-3.451 9.427-4.065 16.502-1.16 13.303-1.634 25.617-1.35 37.321l.287 10.672c.108 4.33.165 7.316.208 10.818l.023 2.111c.046 5.22.017 10.015-.099 14.638l-.018.685 24 .001c.532 0 .969.405 1.018.923l.005.099c0 .532-.406.969-.924 1.018l-.099.005h-25.051c-.577 0-1.04-.477-1.022-1.053.162-5.455.201-11.112.133-17.403l-.063-4.557c-.047-2.774-.113-5.64-.218-9.642l-.193-7.089c-.349-12.137.12-24.905 1.326-38.725l.09-.985c.655-6.815 1.844-11.827 4.204-16.294Z" fill="#6F40EC"/><path d="M234.274 348.67a1.023 1.023 0 0 1 1.908.714l-.03.092-7.756 20.693a1.024 1.024 0 0 1-.468.547l-.095.047-27.949 11.85a7.843 7.843 0 0 0-4.773 6.803l-.003.083h65.083c.531 0 .968.406 1.018.925l.004.098c0 .532-.405.969-.924 1.018l-.098.005h-66.114c-.532 0-.969-.406-1.018-.924l-.005-.099v-.688a9.887 9.887 0 0 1 5.821-9.012l.21-.092 27.543-11.678 2.957-7.87 4.651-12.423.038-.089Z" fill="#6F40EC"/><path d="M226.749 368.748a1.023 1.023 0 0 1 1.26-.71 41.616 41.616 0 0 0 7.354 1.357c3.375.315 6.656.205 9.822-.259a1.024 1.024 0 0 1 .296 2.024 43.23 43.23 0 0 1-10.307.272 43.71 43.71 0 0 1-7.715-1.424 1.023 1.023 0 0 1-.71-1.26ZM379.51 350.13a1.024 1.024 0 0 1 1.43-.219 256.127 256.127 0 0 1 8.9 6.846l.911.734a433.223 433.223 0 0 1 6.739 5.579l6.079 5.137c14.824 12.522 17.206 14.387 26.653 21.171.808.58.398 1.854-.596 1.854l-3.909.009c-2.47.013-4.248.043-6.156.095l-3.325.101c-2.344.067-4.371.098-7.666.106l-2.066.003c-2.949 0-4.969-1.534-7.414-4.777l-.289-.388c-.303-.414-.917-1.26-1.056-1.448-3.419-4.621-8.281-7.756-15.2-10.296l-.789-.283a42.251 42.251 0 0 0-.627-.215l-2.494-.824a42.143 42.143 0 0 1-1.916-.686 1.022 1.022 0 1 1 .74-1.907l.303.116c.558.21 1.141.412 1.96.683l2.067.682c.376.126.681.232 1.011.351 7.352 2.639 12.611 5.937 16.366 10.865l.388.522c.268.366.737 1.014.949 1.3l.05.069c2.172 2.929 3.776 4.19 5.951 4.19l3.334-.007c2.715-.013 4.547-.047 6.717-.111l2.59-.08c1.888-.055 3.606-.087 5.91-.102l1.409-.009-2.392-1.742c-5.829-4.281-9.685-7.431-20.897-16.897l-6.579-5.561a444.344 444.344 0 0 0-6.783-5.626l-.349-.283a257.03 257.03 0 0 0-9.734-7.522 1.023 1.023 0 0 1-.22-1.43Z" fill="#6F40EC"/><path d="M409.744 389.5a1.023 1.023 0 0 1 .098 2.04l-.098.005h-32.655a1.022 1.022 0 0 1-.099-2.041l.099-.004h32.655ZM311.273 190.818a1.023 1.023 0 0 1 1.422.267 100.384 100.384 0 0 1 7.363 12.654c2.099 4.296 3.698 8.236 5.06 12.375a1.023 1.023 0 1 1-1.943.639c-1.333-4.051-2.897-7.904-4.955-12.116a98.218 98.218 0 0 0-7.214-12.398 1.021 1.021 0 0 1 .267-1.421Z" fill="#6F40EC"/><path d="M184.058 137.944c-2.003-2.862 1.47-6.565 4.365-4.557.119.082.229.169.328.262a58.656 58.656 0 0 1 11.729 15.175l.421.794c.859 1.644 1.628 3.283 2.749 5.815l1.566 3.565c3.578 8.097 5.664 11.778 9.187 15.39l.18.185c3.638 3.677 8.038 6.707 14.892 10.556l1.373.764c1.145.633 5.549 3.022 6.585 3.594l.791.438c.383.213.751.419 1.106.62l3.173 1.813c1.149.648 2.322 1.293 4.097 2.253l6.97 3.754c7.257 3.925 11.43 6.374 16.036 9.535a7.927 7.927 0 0 0 7.998.589l.213-.109 50.672-26.514a1.024 1.024 0 0 1 1.034 1.763l-.085.05-50.668 26.511a9.968 9.968 0 0 1-10.322-.604l-.812-.553c-4.227-2.853-8.279-5.212-15.047-8.873l-7.729-4.165a213.63 213.63 0 0 1-3.878-2.148l-2.313-1.325a169.03 169.03 0 0 0-1.826-1.025l-2.779-1.519c-1.612-.878-3.505-1.908-4.204-2.293l-.942-.523c-7.264-4.055-11.906-7.225-15.789-11.151l-.374-.384c-3.633-3.776-5.792-7.614-9.408-15.798l-1.426-3.248c-1.317-2.983-2.138-4.721-3.138-6.594l-.104-.194a56.62 56.62 0 0 0-10.855-14.208l-.467-.44a1.118 1.118 0 0 0-.094-.073c-.984-.682-2.251.668-1.53 1.699l.214.3c.098.136.202.279.322.44l.902 1.2c1.241 1.668 1.831 2.603 2.353 3.864l.191.47c1.239 3.128 1.861 6.17 2.516 11.392l.341 2.826c1.166 9.508 2.405 13.676 6.194 17.918l.167.185c2.29 2.516 4.678 4.366 9.231 7.353l2.731 1.775.549.36c2.823 1.869 5.448 3.856 9.318 6.973l3.299 2.672a2621.154 2621.154 0 0 1 32.151 26.45l3.268 2.737a1923.23 1923.23 0 0 1 11.107 9.396 7.913 7.913 0 0 0 7.98 1.368l.212-.086 53.623-22.504a1.024 1.024 0 0 1 .881 1.844l-.09.043-53.623 22.503a9.951 9.951 0 0 1-10.31-1.612 2023.54 2023.54 0 0 0-14.36-12.12 2592.641 2592.641 0 0 0-30.052-24.747l-5.364-4.347c-3.825-3.081-6.408-5.036-9.168-6.864l-3.293-2.143c-4.681-3.072-7.169-5-9.603-7.675-2.465-2.709-4.098-5.846-5.176-9.625l-.166-.6c-.606-2.248-.959-4.34-1.425-8.087l-.403-3.349c-.668-5.422-1.276-8.418-2.523-11.497l-.092-.225c-.423-1.021-.923-1.828-1.975-3.25l-1.075-1.435a34.186 34.186 0 0 1-.527-.73ZM359.339 137.526a1.022 1.022 0 1 1 1.357 1.53c-2.664 2.362-6.339 4.718-10.739 6.858l-.484.231c-3.602 1.688-6.622 2.356-12.799 3.004a1.022 1.022 0 0 1-.213-2.035l1.153-.125c5.318-.602 7.983-1.258 11.221-2.806l.227-.109c4.243-2.063 7.764-4.32 10.277-6.548Z" fill="#6F40EC"/><path fill-rule="evenodd" clip-rule="evenodd" d="M39.635 238.681 57.9 175.575a1.022 1.022 0 0 1 1.267-.698l63.107 18.265c.543.157.855.725.698 1.267l-18.266 63.107a1.023 1.023 0 0 1-1.267.698l-63.107-18.267a1.022 1.022 0 0 1-.698-1.266Zm81.089-43.858-61.143-17.698-17.698 61.142 61.143 17.697 17.698-61.141Z" fill="#6F40EC"/><path d="M68.048 204.453a1.022 1.022 0 0 1 1.325.314l.051.082 10.372 18.342a1.022 1.022 0 0 1-1.728 1.09l-.052-.083-9.879-17.468-20.675 11.171a1.023 1.023 0 0 1-1.335-.329l-.05-.084a1.023 1.023 0 0 1 .33-1.336l.083-.051 21.558-11.648Z" fill="#6F40EC"/><path d="M90.92 216.041a1.024 1.024 0 0 1 1.325.314l.052.082 11.028 19.498a1.023 1.023 0 0 1-1.728 1.091l-.053-.084-10.534-18.625-31.423 16.98a1.022 1.022 0 0 1-1.335-.329l-.052-.085a1.023 1.023 0 0 1 .33-1.335l.084-.05 32.307-17.457Z" fill="#6F40EC"/><path fill-rule="evenodd" clip-rule="evenodd" d="M106.986 206a5.859 5.859 0 1 1-11.255-3.259A5.859 5.859 0 0 1 106.986 206Z" fill="#6F40EC"/><path d="M186.462 65.149a1.024 1.024 0 0 1 1.22.635l.029.094 20.218 76.938a1.022 1.022 0 0 1-1.949.614l-.029-.094-19.959-75.95-74.959 19.699 19.698 74.96 48.31-12.695a1.024 1.024 0 0 1 1.22.635l.029.094a1.023 1.023 0 0 1-.635 1.22l-.094.03-49.299 12.954a1.022 1.022 0 0 1-1.219-.635l-.03-.094-20.218-76.938a1.022 1.022 0 0 1 .635-1.22l.094-.03 76.938-20.217Z" fill="#6F40EC"/><path fill-rule="evenodd" clip-rule="evenodd" d="m151.491 132.131-7.674-29.203a1.022 1.022 0 0 1 1.259-1.246l29.128 7.955a1.024 1.024 0 0 1 .45 1.714l-21.455 21.247a1.022 1.022 0 0 1-1.708-.467Zm20.465-20.987-25.711-7.023 6.774 25.777 18.937-18.754ZM79.657 128.872c0 7.205-5.841 13.048-13.047 13.048s-13.047-5.843-13.047-13.048c0-7.206 5.841-13.047 13.047-13.047s13.047 5.841 13.047 13.047ZM179.077 221.25a8.44 8.44 0 1 1-16.88 0 8.44 8.44 0 0 1 16.88 0ZM261.509 107.565c0 5.43-4.403 9.832-9.834 9.832-5.43 0-9.832-4.402-9.832-9.832 0-5.431 4.402-9.833 9.832-9.833 5.431 0 9.834 4.402 9.834 9.833Z" fill="#6F40EC"/><path d="M220.577 226.136a1.023 1.023 0 0 1 1.33.349l.049.086 6.478 12.435a1.024 1.024 0 0 1-1.765 1.031l-.049-.086-6.005-11.528-43.832 22.832 22.832 43.832 19.776-10.3a1.022 1.022 0 0 1 1.33.349l.05.085a1.024 1.024 0 0 1-.349 1.33l-.086.049-20.683 10.774a1.023 1.023 0 0 1-1.33-.349l-.05-.085-23.777-45.646a1.025 1.025 0 0 1 .35-1.331l.085-.049 45.646-23.778Z" fill="#6F40EC"/><path d="M195.461 261.909a1.023 1.023 0 0 1 1.33.35l.049.085 5.184 9.952a1.023 1.023 0 0 1-1.764 1.031l-.05-.086-5.184-9.952a1.022 1.022 0 0 1 .435-1.38ZM199.239 255.021a1.023 1.023 0 0 1 1.33.349l.05.086 9.216 17.692a1.023 1.023 0 0 1-1.765 1.03l-.049-.085-9.216-17.692a1.023 1.023 0 0 1 .434-1.38ZM207.051 255.872a1.024 1.024 0 0 1 1.33.35l.049.085 5.185 9.952a1.024 1.024 0 0 1-1.765 1.03l-.05-.085-5.184-9.952a1.023 1.023 0 0 1 .435-1.38ZM210.83 248.983a1.023 1.023 0 0 1 1.329.35l.05.085 9.216 17.692a1.022 1.022 0 0 1-1.764 1.03l-.05-.085-9.216-17.692a1.023 1.023 0 0 1 .435-1.38ZM218.64 249.835a1.024 1.024 0 0 1 1.33.349l.05.085 5.184 9.953a1.022 1.022 0 0 1-1.765 1.03l-.049-.085-5.185-9.952a1.024 1.024 0 0 1 .435-1.38Z" fill="#6F40EC"/><path fill-rule="evenodd" clip-rule="evenodd" d="M255.192 390.522h-61.115v-.688a8.864 8.864 0 0 1 5.407-8.162l27.95-11.851c.088-.246.191-.511.3-.798a42.758 42.758 0 0 0 7.534 1.391 42.3 42.3 0 0 0 10.065-.266c-.28 3.429.095 7.405 1.991 11.381 2.277 4.779 5.83 7.615 7.868 8.993ZM429.626 390.209c-13.745 0-10.064.313-23.121.313-3.777 0-5.953-3.511-7.937-6.198-4.037-5.455-9.846-8.558-16.113-10.807-1.766-.634-3.607-1.16-5.366-1.842v-19.61c1.057-.423 2.148-.866 3.246-1.33 17.176 12.601 28.229 24.349 49.291 39.474Z" fill="#6F40EC"/><path d="M567.936 389.5a1.023 1.023 0 0 1 .099 2.04l-.099.005H1.142a1.022 1.022 0 0 1-.098-2.041l.098-.004h566.794Z" fill="#6F40EC"/><path fill-rule="evenodd" clip-rule="evenodd" d="M25.518 307.92h131.393c.564 0 1.023.458 1.023 1.023v81.579c0 .565-.459 1.023-1.023 1.023H25.518a1.023 1.023 0 0 1-1.023-1.023v-81.579c0-.565.459-1.023 1.023-1.023Zm130.369 81.579v-79.533H26.54v79.533h129.347Z" fill="#6F40EC"/><path d="M66.61 307.921c.532 0 .969.406 1.018.924l.005.099v81.578a1.022 1.022 0 0 1-2.041.099l-.005-.099v-81.578c0-.565.458-1.023 1.023-1.023Z" fill="#6F40EC"/><path fill-rule="evenodd" clip-rule="evenodd" d="M11.881 284.787h41.092c.362 0 .697.192.881.504l13.638 23.133a1.023 1.023 0 0 1-.882 1.542H25.518c-.362 0-.697-.191-.88-.503L11 286.33a1.024 1.024 0 0 1 .881-1.543ZM64.82 307.92l-12.432-21.088H13.671L26.1 307.92H64.82ZM129.376 284.787h41.092c.791 0 1.283.861.881 1.543l-13.638 23.133a1.02 1.02 0 0 1-.881.503h-41.091c-.792 0-1.283-.86-.881-1.542l13.637-23.133c.184-.312.519-.504.881-.504Zm26.87 23.133 12.431-21.088H129.96l-12.431 21.088h38.717Z" fill="#6F40EC"/><path fill-rule="evenodd" clip-rule="evenodd" d="M25.518 390.522H66.61v-81.579H25.518v81.579ZM102.434 307.922h17.484c.566 0 1.023.458 1.023 1.022v19.649c0 .743-.767 1.238-1.444.932l-8.321-3.764-8.32 3.764a1.024 1.024 0 0 1-1.441-.844l-.004-.088v-19.649c0-.564.459-1.022 1.023-1.022Zm16.462 19.086v-17.042h-15.439v17.042l7.298-3.301c.234-.105.499-.119.741-.039l.102.039 7.298 3.301ZM102.434 369.574h17.484c.565 0 1.023.458 1.023 1.023v19.648c0 .564-.458 1.022-1.023 1.022h-17.484a1.023 1.023 0 0 1-1.023-1.022v-19.648c0-.565.459-1.023 1.023-1.023Zm16.461 19.648V371.62h-15.439v17.602h15.439ZM334.363 114.716c1.758-.071 4.386-.323 7.109-1.7 2.405-1.217 5.168-3.732 6.543-4.714 0 2.23-1.218 6.428-3.655 9.435-3.263 4.026-7.327 5.298-8.487 5.609-.565-3.542-.226-1.654-.608-3.778-.356-1.984-.369-2.442-.902-4.852Z" fill="#6F40EC"/><path fill-rule="evenodd" clip-rule="evenodd" d="m347.186 107.646.234-.176a1.023 1.023 0 0 1 1.618.832c0 2.861-1.552 7.202-3.884 10.078-2.721 3.359-5.955 5.131-9.016 5.954a1.023 1.023 0 0 1-1.276-.827c-.126-.797-.217-1.376-.28-1.794l-.095-.643-.351-2.015-.257-1.541a42.124 42.124 0 0 0-.305-1.601l-.21-.976a1.024 1.024 0 0 1 .958-1.243c2.483-.1 4.568-.518 6.687-1.591.433-.218.902-.495 1.408-.828.555-.365 1.144-.79 1.799-1.29.189-.146.635-.499 1.14-.899.658-.522 1.414-1.122 1.83-1.44Zm-.578 3.248.059-.238-1.01.799-.49.375c-.577.435-1.111.816-1.627 1.155-.566.372-1.1.687-1.607.944-2.002 1.013-3.957 1.511-6.127 1.716l-.195.017.088.439c.072.364.134.706.196 1.066l.315 1.878.262 1.474.225 1.494.169-.062a15.14 15.14 0 0 0 1.674-.755l.296-.158a15.854 15.854 0 0 0 4.729-3.946c1.401-1.727 2.495-4.105 3.043-6.198ZM596.257 341.583v49.755H420.828c1.512-1.67 14.974-20.785 32.335-20.785 17.541 0 26.68 10.942 41.368-.589 5.078-3.987 12.883-9.558 19.177-9.558 6.075 0 11.776 2.718 17.574 4.517 6.124 1.902 11.889 1.86 17.979-.377 4.898-1.801 9.494-4.585 14.073-7.333 10.486-6.294 21.318-12.918 32.923-15.63Z" fill="#6F40EC"/><path d="M555.332 307.088c15.844 0 28.686 12.846 28.686 28.692 0 15.847-12.842 28.693-28.686 28.693a28.628 28.628 0 0 1-22.824-11.306 1.022 1.022 0 1 1 1.627-1.24 26.582 26.582 0 0 0 21.197 10.501c14.714 0 26.641-11.931 26.641-26.648s-11.927-26.647-26.641-26.647c-13.364 0-24.608 9.891-26.398 23.001a1.022 1.022 0 1 1-2.027-.276c1.928-14.121 14.035-24.77 28.425-24.77ZM445.92 345.399a1.023 1.023 0 0 1 1.049-.76l.097.01 13.125 2.033 17.838 2.754a1.023 1.023 0 0 1-.214 2.032l-.099-.01-17.838-2.754-12.215-1.892-8.37 31.737-1.998 7.562a1.023 1.023 0 0 1-1.998-.426l.02-.096 1.998-7.563 8.605-32.627Z" fill="#6F40EC"/><path d="M482.171 277.447c.322-.252.76-.287 1.114-.097l.087.053 39.487 26.531c.339.228.507.634.436 1.03l-.023.099-7.746 27.213a1.023 1.023 0 0 1-1.99-.464l.023-.096 7.542-26.499-38.254-25.702-36.263 28.443 14.204 38.816 17.241 2.663c.525.081.895.548.865 1.068l-.011.098a1.023 1.023 0 0 1-1.068.866l-.098-.011-17.838-2.754a1.02 1.02 0 0 1-.765-.566l-.039-.094-14.667-40.08a1.024 1.024 0 0 1 .252-1.09l.077-.066 37.434-29.361Z" fill="#6F40EC"/><path fill-rule="evenodd" clip-rule="evenodd" d="M477.873 330.971h55.448c.565 0 1.023.458 1.023 1.023v48.149c0 .565-.458 1.023-1.023 1.023h-55.448a1.023 1.023 0 0 1-1.023-1.023v-48.149c0-.565.458-1.023 1.023-1.023Zm54.425 48.148v-46.103h-53.402v46.103h53.402Z" fill="#6F40EC"/></svg>
